%TF.GenerationSoftware,KiCad,Pcbnew,8.0.0*%
%TF.CreationDate,2024-11-21T20:10:56+00:00*%
%TF.ProjectId,display-board,64697370-6c61-4792-9d62-6f6172642e6b,rev?*%
%TF.SameCoordinates,Original*%
%TF.FileFunction,Soldermask,Top*%
%TF.FilePolarity,Negative*%
%FSLAX46Y46*%
G04 Gerber Fmt 4.6, Leading zero omitted, Abs format (unit mm)*
G04 Created by KiCad (PCBNEW 8.0.0) date 2024-11-21 20:10:56*
%MOMM*%
%LPD*%
G01*
G04 APERTURE LIST*
G04 Aperture macros list*
%AMRoundRect*
0 Rectangle with rounded corners*
0 $1 Rounding radius*
0 $2 $3 $4 $5 $6 $7 $8 $9 X,Y pos of 4 corners*
0 Add a 4 corners polygon primitive as box body*
4,1,4,$2,$3,$4,$5,$6,$7,$8,$9,$2,$3,0*
0 Add four circle primitives for the rounded corners*
1,1,$1+$1,$2,$3*
1,1,$1+$1,$4,$5*
1,1,$1+$1,$6,$7*
1,1,$1+$1,$8,$9*
0 Add four rect primitives between the rounded corners*
20,1,$1+$1,$2,$3,$4,$5,0*
20,1,$1+$1,$4,$5,$6,$7,0*
20,1,$1+$1,$6,$7,$8,$9,0*
20,1,$1+$1,$8,$9,$2,$3,0*%
G04 Aperture macros list end*
%ADD10R,1.000000X1.000000*%
%ADD11O,1.000000X1.000000*%
%ADD12C,2.000000*%
%ADD13RoundRect,0.225000X-0.225000X-0.875000X0.225000X-0.875000X0.225000X0.875000X-0.225000X0.875000X0*%
%ADD14R,1.524000X2.524000*%
%ADD15O,1.524000X2.524000*%
%ADD16R,2.000000X2.000000*%
G04 APERTURE END LIST*
D10*
%TO.C,PWR3*%
X61400000Y-110000000D03*
D11*
X62670000Y-110000000D03*
X63940000Y-110000000D03*
X65210000Y-110000000D03*
%TD*%
D10*
%TO.C,SW_C1*%
X76650000Y-84900000D03*
D11*
X77920000Y-84900000D03*
X79190000Y-84900000D03*
%TD*%
D10*
%TO.C,DD1*%
X83005000Y-84900000D03*
D11*
X84275000Y-84900000D03*
X85545000Y-84900000D03*
X86815000Y-84900000D03*
X88085000Y-84900000D03*
X89355000Y-84900000D03*
X90625000Y-84900000D03*
X91895000Y-84900000D03*
X93165000Y-84900000D03*
X94435000Y-84900000D03*
%TD*%
D10*
%TO.C,PWR4*%
X138600000Y-110000000D03*
D11*
X137330000Y-110000000D03*
X136060000Y-110000000D03*
X134790000Y-110000000D03*
%TD*%
D10*
%TO.C,SW_C2*%
X123350000Y-84900000D03*
D11*
X122080000Y-84900000D03*
X120810000Y-84900000D03*
%TD*%
D12*
%TO.C,J4*%
X143200000Y-109700000D03*
%TD*%
D13*
%TO.C,U3*%
X84120000Y-104400000D03*
X85560000Y-104400000D03*
X87000000Y-104400000D03*
X88440000Y-104400000D03*
X89880000Y-104400000D03*
X89880000Y-95600000D03*
X88440000Y-95600000D03*
X87000000Y-95600000D03*
X85560000Y-95600000D03*
X84120000Y-95600000D03*
%TD*%
D10*
%TO.C,CA1*%
X69025000Y-84900000D03*
D11*
X70295000Y-84900000D03*
X71565000Y-84900000D03*
X72835000Y-84900000D03*
%TD*%
D13*
%TO.C,U5*%
X110120000Y-104400000D03*
X111560000Y-104400000D03*
X113000000Y-104400000D03*
X114440000Y-104400000D03*
X115880000Y-104400000D03*
X115880000Y-95600000D03*
X114440000Y-95600000D03*
X113000000Y-95600000D03*
X111560000Y-95600000D03*
X110120000Y-95600000D03*
%TD*%
D12*
%TO.C,SW2*%
X144200000Y-99900000D03*
X157200000Y-99900000D03*
X144200000Y-94900000D03*
X157200000Y-94900000D03*
%TD*%
D10*
%TO.C,DD2*%
X116995000Y-84900000D03*
D11*
X115725000Y-84900000D03*
X114455000Y-84900000D03*
X113185000Y-84900000D03*
X111915000Y-84900000D03*
X110645000Y-84900000D03*
X109375000Y-84900000D03*
X108105000Y-84900000D03*
X106835000Y-84900000D03*
X105565000Y-84900000D03*
%TD*%
D14*
%TO.C,U2*%
X63820000Y-105000000D03*
D15*
X66360000Y-105000000D03*
X68900000Y-105000000D03*
X71440000Y-105000000D03*
X73980000Y-105000000D03*
X73980000Y-89760000D03*
X71440000Y-89760000D03*
X68900000Y-89760000D03*
X66360000Y-89760000D03*
D14*
X63820000Y-89760000D03*
%TD*%
D12*
%TO.C,SW1*%
X55800000Y-94900000D03*
X42800000Y-94900000D03*
X55800000Y-99900000D03*
X42800000Y-99900000D03*
%TD*%
D16*
%TO.C,BZ1*%
X102500000Y-93999999D03*
D12*
X97500000Y-93999999D03*
%TD*%
D10*
%TO.C,PWR1*%
X61400000Y-84900000D03*
D11*
X62670000Y-84900000D03*
X63940000Y-84900000D03*
X65210000Y-84900000D03*
%TD*%
D10*
%TO.C,CA2*%
X130975000Y-84900000D03*
D11*
X129705000Y-84900000D03*
X128435000Y-84900000D03*
X127165000Y-84900000D03*
%TD*%
D12*
%TO.C,J1*%
X56795000Y-85300000D03*
%TD*%
%TO.C,J5*%
X100000000Y-85300000D03*
%TD*%
%TO.C,J3*%
X143195000Y-85300000D03*
%TD*%
%TO.C,J2*%
X56800000Y-109700000D03*
%TD*%
%TO.C,J6*%
X100000000Y-109700000D03*
%TD*%
D14*
%TO.C,U4*%
X126000000Y-105000000D03*
D15*
X128540000Y-105000000D03*
X131080000Y-105000000D03*
X133620000Y-105000000D03*
X136160000Y-105000000D03*
X136160000Y-89760000D03*
X133620000Y-89760000D03*
X131080000Y-89760000D03*
X128540000Y-89760000D03*
D14*
X126000000Y-89760000D03*
%TD*%
D10*
%TO.C,PWR2*%
X138600000Y-84900000D03*
D11*
X137330000Y-84900000D03*
X136060000Y-84900000D03*
X134790000Y-84900000D03*
%TD*%
M02*
