%TF.GenerationSoftware,KiCad,Pcbnew,8.0.0*%
%TF.CreationDate,2024-11-21T20:10:56+00:00*%
%TF.ProjectId,display-board,64697370-6c61-4792-9d62-6f6172642e6b,rev?*%
%TF.SameCoordinates,Original*%
%TF.FileFunction,Paste,Bot*%
%TF.FilePolarity,Positive*%
%FSLAX46Y46*%
G04 Gerber Fmt 4.6, Leading zero omitted, Abs format (unit mm)*
G04 Created by KiCad (PCBNEW 8.0.0) date 2024-11-21 20:10:56*
%MOMM*%
%LPD*%
G01*
G04 APERTURE LIST*
G04 Aperture macros list*
%AMRoundRect*
0 Rectangle with rounded corners*
0 $1 Rounding radius*
0 $2 $3 $4 $5 $6 $7 $8 $9 X,Y pos of 4 corners*
0 Add a 4 corners polygon primitive as box body*
4,1,4,$2,$3,$4,$5,$6,$7,$8,$9,$2,$3,0*
0 Add four circle primitives for the rounded corners*
1,1,$1+$1,$2,$3*
1,1,$1+$1,$4,$5*
1,1,$1+$1,$6,$7*
1,1,$1+$1,$8,$9*
0 Add four rect primitives between the rounded corners*
20,1,$1+$1,$2,$3,$4,$5,0*
20,1,$1+$1,$4,$5,$6,$7,0*
20,1,$1+$1,$6,$7,$8,$9,0*
20,1,$1+$1,$8,$9,$2,$3,0*%
G04 Aperture macros list end*
%ADD10RoundRect,0.237500X0.237500X-0.250000X0.237500X0.250000X-0.237500X0.250000X-0.237500X-0.250000X0*%
%ADD11RoundRect,0.237500X-0.250000X-0.237500X0.250000X-0.237500X0.250000X0.237500X-0.250000X0.237500X0*%
%ADD12RoundRect,0.237500X0.250000X0.237500X-0.250000X0.237500X-0.250000X-0.237500X0.250000X-0.237500X0*%
%ADD13RoundRect,0.250000X-0.337500X-0.475000X0.337500X-0.475000X0.337500X0.475000X-0.337500X0.475000X0*%
%ADD14RoundRect,0.250000X0.337500X0.475000X-0.337500X0.475000X-0.337500X-0.475000X0.337500X-0.475000X0*%
%ADD15RoundRect,0.237500X0.300000X0.237500X-0.300000X0.237500X-0.300000X-0.237500X0.300000X-0.237500X0*%
%ADD16RoundRect,0.237500X-0.237500X0.250000X-0.237500X-0.250000X0.237500X-0.250000X0.237500X0.250000X0*%
%ADD17RoundRect,0.150000X0.587500X0.150000X-0.587500X0.150000X-0.587500X-0.150000X0.587500X-0.150000X0*%
%ADD18RoundRect,0.250000X0.250000X-0.250000X0.250000X0.250000X-0.250000X0.250000X-0.250000X-0.250000X0*%
%ADD19R,1.400000X0.900000*%
%ADD20R,0.400000X1.100000*%
G04 APERTURE END LIST*
D10*
%TO.C,R14*%
X55795000Y-104912500D03*
X55795000Y-103087500D03*
%TD*%
D11*
%TO.C,R13*%
X55782500Y-92200000D03*
X57607500Y-92200000D03*
%TD*%
D10*
%TO.C,R12*%
X144195500Y-103087500D03*
X144195500Y-104912500D03*
%TD*%
D12*
%TO.C,R11*%
X144207500Y-92200000D03*
X142382500Y-92200000D03*
%TD*%
D13*
%TO.C,C3*%
X57632500Y-88900000D03*
X55557500Y-88900000D03*
%TD*%
D14*
%TO.C,C2*%
X144432500Y-88900000D03*
X142357500Y-88900000D03*
%TD*%
D15*
%TO.C,C1*%
X93057500Y-107000000D03*
X91332500Y-107000000D03*
%TD*%
D16*
%TO.C,R6*%
X118000000Y-97400000D03*
X118000000Y-99225000D03*
%TD*%
%TO.C,R3*%
X136162500Y-96500000D03*
X136162500Y-98325000D03*
%TD*%
%TO.C,R9*%
X93500000Y-89487500D03*
X93500000Y-91312500D03*
%TD*%
%TO.C,R1*%
X73962500Y-96337500D03*
X73962500Y-98162500D03*
%TD*%
D17*
%TO.C,Q6*%
X109000000Y-98250000D03*
X109000000Y-100150000D03*
X107125000Y-99200000D03*
%TD*%
%TO.C,Q4*%
X125100000Y-97187500D03*
X125100000Y-99087500D03*
X123225000Y-98137500D03*
%TD*%
D11*
%TO.C,R5*%
X126587500Y-101300000D03*
X128412500Y-101300000D03*
%TD*%
D10*
%TO.C,R7*%
X112000000Y-103912500D03*
X112000000Y-102087500D03*
%TD*%
D11*
%TO.C,R2*%
X64387500Y-101300000D03*
X66212500Y-101300000D03*
%TD*%
D17*
%TO.C,Q2*%
X60975000Y-98450000D03*
X60975000Y-100350000D03*
X59100000Y-99400000D03*
%TD*%
D18*
%TO.C,D1*%
X100000000Y-94950000D03*
X100000000Y-92450000D03*
%TD*%
D11*
%TO.C,R8*%
X93000000Y-94000000D03*
X94825000Y-94000000D03*
%TD*%
%TO.C,R10*%
X101175000Y-90500000D03*
X103000000Y-90500000D03*
%TD*%
D17*
%TO.C,Q7*%
X90875000Y-89500000D03*
X90875000Y-91400000D03*
X89000000Y-90450000D03*
%TD*%
%TO.C,Q3*%
X131100000Y-96287500D03*
X131100000Y-98187500D03*
X129225000Y-97237500D03*
%TD*%
%TO.C,Q5*%
X114637500Y-97350000D03*
X114637500Y-99250000D03*
X112762500Y-98300000D03*
%TD*%
%TO.C,Q1*%
X68900000Y-96287500D03*
X68900000Y-98187500D03*
X67025000Y-97237500D03*
%TD*%
D19*
%TO.C,U1*%
X101780000Y-102400000D03*
X100000000Y-102400000D03*
X98220000Y-102400000D03*
X101780000Y-103600000D03*
X100000000Y-103600000D03*
X98220000Y-103600000D03*
D20*
X95775000Y-100150000D03*
X96425000Y-100150000D03*
X97075000Y-100150000D03*
X97725000Y-100150000D03*
X98375000Y-100150000D03*
X99025000Y-100150000D03*
X99675000Y-100150000D03*
X100325000Y-100150000D03*
X100975000Y-100150000D03*
X101625000Y-100150000D03*
X102275000Y-100150000D03*
X102925000Y-100150000D03*
X103575000Y-100150000D03*
X104225000Y-100150000D03*
X104225000Y-105850000D03*
X103575000Y-105850000D03*
X102925000Y-105850000D03*
X102275000Y-105850000D03*
X101625000Y-105850000D03*
X100975000Y-105850000D03*
X100325000Y-105850000D03*
X99675000Y-105850000D03*
X99025000Y-105850000D03*
X98375000Y-105850000D03*
X97725000Y-105850000D03*
X97075000Y-105850000D03*
X96425000Y-105850000D03*
X95775000Y-105850000D03*
%TD*%
D12*
%TO.C,R4*%
X96407500Y-109400000D03*
X94582500Y-109400000D03*
%TD*%
M02*
