%TF.GenerationSoftware,KiCad,Pcbnew,8.0.0*%
%TF.CreationDate,2024-11-21T20:10:56+00:00*%
%TF.ProjectId,display-board,64697370-6c61-4792-9d62-6f6172642e6b,rev?*%
%TF.SameCoordinates,Original*%
%TF.FileFunction,Legend,Top*%
%TF.FilePolarity,Positive*%
%FSLAX46Y46*%
G04 Gerber Fmt 4.6, Leading zero omitted, Abs format (unit mm)*
G04 Created by KiCad (PCBNEW 8.0.0) date 2024-11-21 20:10:56*
%MOMM*%
%LPD*%
G01*
G04 APERTURE LIST*
G04 Aperture macros list*
%AMRoundRect*
0 Rectangle with rounded corners*
0 $1 Rounding radius*
0 $2 $3 $4 $5 $6 $7 $8 $9 X,Y pos of 4 corners*
0 Add a 4 corners polygon primitive as box body*
4,1,4,$2,$3,$4,$5,$6,$7,$8,$9,$2,$3,0*
0 Add four circle primitives for the rounded corners*
1,1,$1+$1,$2,$3*
1,1,$1+$1,$4,$5*
1,1,$1+$1,$6,$7*
1,1,$1+$1,$8,$9*
0 Add four rect primitives between the rounded corners*
20,1,$1+$1,$2,$3,$4,$5,0*
20,1,$1+$1,$4,$5,$6,$7,0*
20,1,$1+$1,$6,$7,$8,$9,0*
20,1,$1+$1,$8,$9,$2,$3,0*%
G04 Aperture macros list end*
%ADD10C,0.150000*%
%ADD11C,0.100000*%
%ADD12C,0.120000*%
%ADD13C,0.000000*%
%ADD14R,1.000000X1.000000*%
%ADD15O,1.000000X1.000000*%
%ADD16C,2.000000*%
%ADD17RoundRect,0.225000X-0.225000X-0.875000X0.225000X-0.875000X0.225000X0.875000X-0.225000X0.875000X0*%
%ADD18R,1.524000X2.524000*%
%ADD19O,1.524000X2.524000*%
%ADD20R,2.000000X2.000000*%
G04 APERTURE END LIST*
D10*
X119384160Y-110294295D02*
X119384160Y-109494295D01*
X119384160Y-109494295D02*
X119650826Y-110065723D01*
X119650826Y-110065723D02*
X119917493Y-109494295D01*
X119917493Y-109494295D02*
X119917493Y-110294295D01*
X120641303Y-110294295D02*
X120641303Y-109875247D01*
X120641303Y-109875247D02*
X120603208Y-109799057D01*
X120603208Y-109799057D02*
X120527017Y-109760961D01*
X120527017Y-109760961D02*
X120374636Y-109760961D01*
X120374636Y-109760961D02*
X120298446Y-109799057D01*
X120641303Y-110256200D02*
X120565112Y-110294295D01*
X120565112Y-110294295D02*
X120374636Y-110294295D01*
X120374636Y-110294295D02*
X120298446Y-110256200D01*
X120298446Y-110256200D02*
X120260350Y-110180009D01*
X120260350Y-110180009D02*
X120260350Y-110103819D01*
X120260350Y-110103819D02*
X120298446Y-110027628D01*
X120298446Y-110027628D02*
X120374636Y-109989533D01*
X120374636Y-109989533D02*
X120565112Y-109989533D01*
X120565112Y-109989533D02*
X120641303Y-109951438D01*
X121365113Y-110294295D02*
X121365113Y-109494295D01*
X121365113Y-110256200D02*
X121288922Y-110294295D01*
X121288922Y-110294295D02*
X121136541Y-110294295D01*
X121136541Y-110294295D02*
X121060351Y-110256200D01*
X121060351Y-110256200D02*
X121022256Y-110218104D01*
X121022256Y-110218104D02*
X120984160Y-110141914D01*
X120984160Y-110141914D02*
X120984160Y-109913342D01*
X120984160Y-109913342D02*
X121022256Y-109837152D01*
X121022256Y-109837152D02*
X121060351Y-109799057D01*
X121060351Y-109799057D02*
X121136541Y-109760961D01*
X121136541Y-109760961D02*
X121288922Y-109760961D01*
X121288922Y-109760961D02*
X121365113Y-109799057D01*
X122050828Y-110256200D02*
X121974637Y-110294295D01*
X121974637Y-110294295D02*
X121822256Y-110294295D01*
X121822256Y-110294295D02*
X121746066Y-110256200D01*
X121746066Y-110256200D02*
X121707970Y-110180009D01*
X121707970Y-110180009D02*
X121707970Y-109875247D01*
X121707970Y-109875247D02*
X121746066Y-109799057D01*
X121746066Y-109799057D02*
X121822256Y-109760961D01*
X121822256Y-109760961D02*
X121974637Y-109760961D01*
X121974637Y-109760961D02*
X122050828Y-109799057D01*
X122050828Y-109799057D02*
X122088923Y-109875247D01*
X122088923Y-109875247D02*
X122088923Y-109951438D01*
X122088923Y-109951438D02*
X121707970Y-110027628D01*
X123041304Y-110294295D02*
X123041304Y-109494295D01*
X123041304Y-109799057D02*
X123117494Y-109760961D01*
X123117494Y-109760961D02*
X123269875Y-109760961D01*
X123269875Y-109760961D02*
X123346066Y-109799057D01*
X123346066Y-109799057D02*
X123384161Y-109837152D01*
X123384161Y-109837152D02*
X123422256Y-109913342D01*
X123422256Y-109913342D02*
X123422256Y-110141914D01*
X123422256Y-110141914D02*
X123384161Y-110218104D01*
X123384161Y-110218104D02*
X123346066Y-110256200D01*
X123346066Y-110256200D02*
X123269875Y-110294295D01*
X123269875Y-110294295D02*
X123117494Y-110294295D01*
X123117494Y-110294295D02*
X123041304Y-110256200D01*
X123688923Y-109760961D02*
X123879399Y-110294295D01*
X124069876Y-109760961D02*
X123879399Y-110294295D01*
X123879399Y-110294295D02*
X123803209Y-110484771D01*
X123803209Y-110484771D02*
X123765114Y-110522866D01*
X123765114Y-110522866D02*
X123688923Y-110560961D01*
X125365114Y-110294295D02*
X124984162Y-110294295D01*
X124984162Y-110294295D02*
X124984162Y-109494295D01*
X125974638Y-109760961D02*
X125974638Y-110294295D01*
X125631781Y-109760961D02*
X125631781Y-110180009D01*
X125631781Y-110180009D02*
X125669876Y-110256200D01*
X125669876Y-110256200D02*
X125746066Y-110294295D01*
X125746066Y-110294295D02*
X125860352Y-110294295D01*
X125860352Y-110294295D02*
X125936543Y-110256200D01*
X125936543Y-110256200D02*
X125974638Y-110218104D01*
X126469876Y-110294295D02*
X126393686Y-110256200D01*
X126393686Y-110256200D02*
X126355591Y-110180009D01*
X126355591Y-110180009D02*
X126355591Y-109494295D01*
X127117496Y-110294295D02*
X127117496Y-109875247D01*
X127117496Y-109875247D02*
X127079401Y-109799057D01*
X127079401Y-109799057D02*
X127003210Y-109760961D01*
X127003210Y-109760961D02*
X126850829Y-109760961D01*
X126850829Y-109760961D02*
X126774639Y-109799057D01*
X127117496Y-110256200D02*
X127041305Y-110294295D01*
X127041305Y-110294295D02*
X126850829Y-110294295D01*
X126850829Y-110294295D02*
X126774639Y-110256200D01*
X126774639Y-110256200D02*
X126736543Y-110180009D01*
X126736543Y-110180009D02*
X126736543Y-110103819D01*
X126736543Y-110103819D02*
X126774639Y-110027628D01*
X126774639Y-110027628D02*
X126850829Y-109989533D01*
X126850829Y-109989533D02*
X127041305Y-109989533D01*
X127041305Y-109989533D02*
X127117496Y-109951438D01*
G36*
X77612683Y-109701571D02*
G01*
X77590786Y-109736515D01*
X77571845Y-109772566D01*
X77557191Y-109806302D01*
X77515376Y-109928815D01*
X77367463Y-110335235D01*
X77352259Y-110375199D01*
X77335665Y-110414637D01*
X77317679Y-110453550D01*
X77307086Y-110474942D01*
X77269093Y-110488515D01*
X77257651Y-110489010D01*
X77218146Y-110481096D01*
X77198447Y-110464000D01*
X77181603Y-110419224D01*
X77164289Y-110369795D01*
X77150996Y-110329670D01*
X77137437Y-110286928D01*
X77123614Y-110241569D01*
X77109527Y-110193592D01*
X77095175Y-110142998D01*
X77080559Y-110089787D01*
X77065679Y-110033959D01*
X77055611Y-109995286D01*
X77050533Y-109975514D01*
X77007156Y-109821934D01*
X76996133Y-109781233D01*
X76986155Y-109740886D01*
X76977888Y-109700303D01*
X76974720Y-109670113D01*
X76988184Y-109632884D01*
X76992306Y-109628689D01*
X77029389Y-109613658D01*
X77030799Y-109613644D01*
X77068284Y-109628110D01*
X77084532Y-109659366D01*
X77104853Y-109756477D01*
X77157609Y-109946400D01*
X77167477Y-109984840D01*
X77180559Y-110034522D01*
X77193556Y-110082409D01*
X77206468Y-110128500D01*
X77219293Y-110172797D01*
X77232034Y-110215298D01*
X77244688Y-110256004D01*
X77257258Y-110294915D01*
X77260387Y-110304362D01*
X77263709Y-110295374D01*
X77411036Y-109889931D01*
X77457735Y-109753155D01*
X77473611Y-109716445D01*
X77492055Y-109680811D01*
X77515437Y-109645401D01*
X77524169Y-109634746D01*
X77557955Y-109614385D01*
X77566960Y-109613644D01*
X77604066Y-109628069D01*
X77606235Y-109630057D01*
X77623472Y-109665262D01*
X77623625Y-109669526D01*
X77612683Y-109701571D01*
G37*
G36*
X77984555Y-109892283D02*
G01*
X78025694Y-109905302D01*
X78061748Y-109927914D01*
X78092715Y-109960119D01*
X78111720Y-109988996D01*
X78129223Y-110026043D01*
X78142238Y-110066232D01*
X78150765Y-110109562D01*
X78154502Y-110149203D01*
X78155097Y-110184000D01*
X78152382Y-110228325D01*
X78145407Y-110270150D01*
X78134173Y-110309475D01*
X78118681Y-110346299D01*
X78098929Y-110380623D01*
X78091399Y-110391508D01*
X78063413Y-110424644D01*
X78032213Y-110450923D01*
X77997797Y-110470348D01*
X77960167Y-110482916D01*
X77919322Y-110488629D01*
X77904993Y-110489010D01*
X77865868Y-110485756D01*
X77824155Y-110474069D01*
X77785641Y-110453883D01*
X77754566Y-110429247D01*
X77746137Y-110421013D01*
X77720833Y-110390895D01*
X77700461Y-110357110D01*
X77685021Y-110319656D01*
X77674513Y-110278534D01*
X77668937Y-110233743D01*
X77668175Y-110217998D01*
X77668191Y-110217412D01*
X77776618Y-110217412D01*
X77780050Y-110258954D01*
X77791911Y-110298659D01*
X77814743Y-110334488D01*
X77819996Y-110340120D01*
X77851589Y-110363650D01*
X77890228Y-110375576D01*
X77905188Y-110376463D01*
X77945754Y-110370665D01*
X77981868Y-110353272D01*
X78003471Y-110335235D01*
X78028365Y-110303548D01*
X78044672Y-110265641D01*
X78052007Y-110226206D01*
X78052906Y-110211941D01*
X78052821Y-110162702D01*
X78048656Y-110120008D01*
X78037715Y-110075846D01*
X78016173Y-110036352D01*
X77985453Y-110011585D01*
X77945556Y-110001547D01*
X77938014Y-110001306D01*
X77895450Y-110007160D01*
X77858543Y-110025163D01*
X77827293Y-110055314D01*
X77812376Y-110077314D01*
X77795091Y-110113201D01*
X77783463Y-110151840D01*
X77777491Y-110193229D01*
X77776618Y-110217412D01*
X77668191Y-110217412D01*
X77669427Y-110172587D01*
X77675529Y-110129265D01*
X77686481Y-110088030D01*
X77702283Y-110048884D01*
X77722935Y-110011827D01*
X77730896Y-109999938D01*
X77756377Y-109967909D01*
X77790870Y-109936640D01*
X77829636Y-109913188D01*
X77872674Y-109897553D01*
X77911804Y-109890496D01*
X77945244Y-109888759D01*
X77984555Y-109892283D01*
G37*
G36*
X78427086Y-110024558D02*
G01*
X78418879Y-110302995D01*
X78418170Y-110345837D01*
X78416659Y-110388053D01*
X78414845Y-110427623D01*
X78414581Y-110432932D01*
X78401566Y-110471266D01*
X78366541Y-110488791D01*
X78360652Y-110489010D01*
X78321943Y-110476473D01*
X78306934Y-110438864D01*
X78306723Y-110431955D01*
X78307202Y-110388438D01*
X78308237Y-110347154D01*
X78309586Y-110306588D01*
X78311361Y-110261241D01*
X78312780Y-110228354D01*
X78314525Y-110187521D01*
X78316229Y-110142916D01*
X78317507Y-110103106D01*
X78318459Y-110062721D01*
X78318838Y-110024558D01*
X78318969Y-109984618D01*
X78319361Y-109942246D01*
X78320016Y-109897444D01*
X78320785Y-109857108D01*
X78321573Y-109822129D01*
X78322503Y-109780304D01*
X78323240Y-109740265D01*
X78323857Y-109695810D01*
X78324212Y-109653786D01*
X78324309Y-109619701D01*
X78334631Y-109581366D01*
X78371707Y-109563842D01*
X78378237Y-109563623D01*
X78417227Y-109575945D01*
X78432345Y-109612910D01*
X78432557Y-109619701D01*
X78432426Y-109659641D01*
X78432033Y-109702012D01*
X78431379Y-109746814D01*
X78430610Y-109787151D01*
X78429822Y-109822129D01*
X78428892Y-109863954D01*
X78428155Y-109903993D01*
X78427537Y-109948448D01*
X78427182Y-109990472D01*
X78427086Y-110024558D01*
G37*
G36*
X78733464Y-110024558D02*
G01*
X78725258Y-110302995D01*
X78724548Y-110345837D01*
X78723037Y-110388053D01*
X78721223Y-110427623D01*
X78720959Y-110432932D01*
X78707944Y-110471266D01*
X78672920Y-110488791D01*
X78667030Y-110489010D01*
X78628322Y-110476473D01*
X78613312Y-110438864D01*
X78613101Y-110431955D01*
X78613581Y-110388438D01*
X78614616Y-110347154D01*
X78615964Y-110306588D01*
X78617739Y-110261241D01*
X78619159Y-110228354D01*
X78620904Y-110187521D01*
X78622607Y-110142916D01*
X78623885Y-110103106D01*
X78624837Y-110062721D01*
X78625216Y-110024558D01*
X78625347Y-109984618D01*
X78625739Y-109942246D01*
X78626394Y-109897444D01*
X78627163Y-109857108D01*
X78627951Y-109822129D01*
X78628881Y-109780304D01*
X78629618Y-109740265D01*
X78630235Y-109695810D01*
X78630591Y-109653786D01*
X78630687Y-109619701D01*
X78641009Y-109581366D01*
X78678085Y-109563842D01*
X78684616Y-109563623D01*
X78723605Y-109575945D01*
X78738723Y-109612910D01*
X78738935Y-109619701D01*
X78738804Y-109659641D01*
X78738412Y-109702012D01*
X78737757Y-109746814D01*
X78736988Y-109787151D01*
X78736200Y-109822129D01*
X78735270Y-109863954D01*
X78734533Y-109903993D01*
X78733916Y-109948448D01*
X78733560Y-109990472D01*
X78733464Y-110024558D01*
G37*
G36*
X79185558Y-109890700D02*
G01*
X79224881Y-109896526D01*
X79264098Y-109907721D01*
X79290924Y-109919826D01*
X79325211Y-109944724D01*
X79350146Y-109980002D01*
X79360744Y-110018604D01*
X79361852Y-110037845D01*
X79353114Y-110078181D01*
X79329753Y-110112646D01*
X79299717Y-110139059D01*
X79263963Y-110159020D01*
X79228496Y-110175959D01*
X79188770Y-110193716D01*
X79183262Y-110196114D01*
X78973408Y-110288340D01*
X79000943Y-110320355D01*
X79033379Y-110345275D01*
X79050003Y-110354383D01*
X79089794Y-110368679D01*
X79130932Y-110375406D01*
X79156884Y-110376463D01*
X79198112Y-110373043D01*
X79236501Y-110365230D01*
X79245983Y-110362785D01*
X79285110Y-110349560D01*
X79319080Y-110329054D01*
X79329417Y-110317258D01*
X79359092Y-110290697D01*
X79369668Y-110288926D01*
X79403862Y-110304167D01*
X79419103Y-110339729D01*
X79409505Y-110377926D01*
X79384454Y-110409334D01*
X79349134Y-110434891D01*
X79320819Y-110449736D01*
X79284200Y-110465039D01*
X79242898Y-110477926D01*
X79202183Y-110485903D01*
X79162054Y-110488972D01*
X79157079Y-110489010D01*
X79112140Y-110486826D01*
X79070525Y-110480272D01*
X79032236Y-110469350D01*
X78991767Y-110451086D01*
X78955823Y-110426875D01*
X78927269Y-110399145D01*
X78901424Y-110361898D01*
X78885670Y-110325774D01*
X78875824Y-110285777D01*
X78871885Y-110241905D01*
X78871803Y-110234216D01*
X78873341Y-110194551D01*
X78964030Y-110194551D01*
X79132655Y-110120106D01*
X79173436Y-110101081D01*
X79208758Y-110083160D01*
X79246148Y-110061740D01*
X79274511Y-110042143D01*
X79241256Y-110020608D01*
X79200597Y-110007049D01*
X79157674Y-110001665D01*
X79142034Y-110001306D01*
X79102340Y-110006019D01*
X79063747Y-110022091D01*
X79033270Y-110046599D01*
X79030464Y-110049568D01*
X79004833Y-110084380D01*
X78985551Y-110123869D01*
X78971422Y-110165457D01*
X78964030Y-110194551D01*
X78873341Y-110194551D01*
X78873492Y-110190650D01*
X78878558Y-110149345D01*
X78887002Y-110110302D01*
X78901592Y-110066434D01*
X78921046Y-110025823D01*
X78940973Y-109994467D01*
X78965717Y-109964014D01*
X78998671Y-109934284D01*
X79035184Y-109911986D01*
X79075255Y-109897120D01*
X79118885Y-109889688D01*
X79142034Y-109888759D01*
X79185558Y-109890700D01*
G37*
G36*
X79992976Y-109974341D02*
G01*
X79802857Y-110382129D01*
X79785788Y-110418595D01*
X79765902Y-110462047D01*
X79747628Y-110503133D01*
X79730968Y-110541853D01*
X79715919Y-110578207D01*
X79699989Y-110618709D01*
X79695195Y-110631452D01*
X79658852Y-110737161D01*
X79636190Y-110769076D01*
X79609417Y-110776630D01*
X79571681Y-110763922D01*
X79569556Y-110762171D01*
X79552948Y-110726609D01*
X79560361Y-110687457D01*
X79572522Y-110649716D01*
X79586421Y-110612173D01*
X79604026Y-110568096D01*
X79619663Y-110530751D01*
X79637384Y-110489731D01*
X79657190Y-110445036D01*
X79671552Y-110413197D01*
X79474790Y-110032960D01*
X79450170Y-109992709D01*
X79435683Y-109955686D01*
X79435321Y-109950113D01*
X79448485Y-109912008D01*
X79452515Y-109907321D01*
X79487405Y-109888922D01*
X79491399Y-109888759D01*
X79527616Y-109904967D01*
X79530282Y-109908494D01*
X79553849Y-109943674D01*
X79577848Y-109982389D01*
X79602282Y-110024640D01*
X79627149Y-110070427D01*
X79646084Y-110107086D01*
X79665262Y-110145735D01*
X79684685Y-110186372D01*
X79704351Y-110228998D01*
X79724261Y-110273613D01*
X79730952Y-110288926D01*
X79812236Y-110095290D01*
X79828606Y-110059352D01*
X79847408Y-110019561D01*
X79865893Y-109982069D01*
X79884060Y-109946877D01*
X79896842Y-109923148D01*
X79923098Y-109893595D01*
X79942955Y-109888759D01*
X79979543Y-109902560D01*
X79982815Y-109905563D01*
X80000053Y-109941155D01*
X80000205Y-109945423D01*
X79992976Y-109974341D01*
G37*
G36*
X80204847Y-109619762D02*
G01*
X80210645Y-109648815D01*
X80207909Y-109671285D01*
X80205174Y-109693755D01*
X80203611Y-109813727D01*
X80202438Y-109953630D01*
X80237655Y-109931584D01*
X80274256Y-109912848D01*
X80293297Y-109904976D01*
X80332621Y-109893336D01*
X80372011Y-109888775D01*
X80374385Y-109888759D01*
X80417149Y-109891946D01*
X80456781Y-109901508D01*
X80493280Y-109917445D01*
X80526646Y-109939757D01*
X80556881Y-109968443D01*
X80566263Y-109979422D01*
X80589769Y-110012743D01*
X80608413Y-110048811D01*
X80622193Y-110087627D01*
X80631109Y-110129191D01*
X80635162Y-110173503D01*
X80635432Y-110188884D01*
X80632588Y-110234526D01*
X80624057Y-110277517D01*
X80609837Y-110317856D01*
X80589930Y-110355543D01*
X80564335Y-110390579D01*
X80554539Y-110401669D01*
X80522883Y-110431351D01*
X80488438Y-110454892D01*
X80451204Y-110472292D01*
X80411181Y-110483551D01*
X80368369Y-110488669D01*
X80353478Y-110489010D01*
X80312421Y-110486580D01*
X80273269Y-110479289D01*
X80236022Y-110467138D01*
X80200680Y-110450127D01*
X80170015Y-110474856D01*
X80157889Y-110476505D01*
X80122327Y-110462046D01*
X80107868Y-110425702D01*
X80109151Y-110385609D01*
X80109235Y-110383888D01*
X80110591Y-110344638D01*
X80110603Y-110341878D01*
X80110298Y-110300120D01*
X80109614Y-110258636D01*
X80108695Y-110216446D01*
X80107669Y-110175908D01*
X80107477Y-110168759D01*
X80107472Y-110168563D01*
X80201852Y-110168563D01*
X80202438Y-110250629D01*
X80203025Y-110336993D01*
X80239501Y-110352003D01*
X80277274Y-110366498D01*
X80315714Y-110374273D01*
X80353478Y-110376463D01*
X80396049Y-110372228D01*
X80434076Y-110359523D01*
X80467559Y-110338348D01*
X80484197Y-110322925D01*
X80508944Y-110290613D01*
X80525592Y-110254128D01*
X80534140Y-110213471D01*
X80535390Y-110189080D01*
X80532129Y-110147046D01*
X80522345Y-110109093D01*
X80503825Y-110071709D01*
X80494162Y-110058166D01*
X80463323Y-110028181D01*
X80426492Y-110009302D01*
X80383669Y-110001528D01*
X80374385Y-110001306D01*
X80334614Y-110005943D01*
X80296879Y-110018555D01*
X80282159Y-110025535D01*
X80248342Y-110046237D01*
X80213249Y-110070280D01*
X80203025Y-110077510D01*
X80201852Y-110168563D01*
X80107472Y-110168563D01*
X80106481Y-110127481D01*
X80105579Y-110084446D01*
X80104892Y-110042018D01*
X80104557Y-110002899D01*
X80104546Y-109995444D01*
X80104628Y-109955547D01*
X80104798Y-109912497D01*
X80104995Y-109871234D01*
X80105132Y-109844600D01*
X80105331Y-109805467D01*
X80105512Y-109766099D01*
X80105661Y-109725429D01*
X80105718Y-109693364D01*
X80111609Y-109653141D01*
X80119396Y-109634355D01*
X80147453Y-109605810D01*
X80169417Y-109601138D01*
X80204847Y-109619762D01*
G37*
G36*
X81063697Y-109892854D02*
G01*
X81104735Y-109903905D01*
X81130170Y-109913574D01*
X81166252Y-109931960D01*
X81195991Y-109959648D01*
X81204811Y-109988214D01*
X81193674Y-110014593D01*
X81187503Y-110053902D01*
X81185076Y-110083762D01*
X81183235Y-110123485D01*
X81182175Y-110166608D01*
X81181755Y-110206665D01*
X81182419Y-110246706D01*
X81185936Y-110287299D01*
X81191133Y-110314914D01*
X81203619Y-110354388D01*
X81218809Y-110394564D01*
X81225718Y-110412025D01*
X81238224Y-110441334D01*
X81241545Y-110450713D01*
X81226109Y-110487056D01*
X81190352Y-110501515D01*
X81157460Y-110478407D01*
X81152445Y-110473378D01*
X81126556Y-110442695D01*
X81115711Y-110426484D01*
X81080919Y-110445931D01*
X81043611Y-110464329D01*
X81022704Y-110473183D01*
X80983839Y-110485532D01*
X80955683Y-110489010D01*
X80909922Y-110486475D01*
X80869066Y-110478871D01*
X80827599Y-110463592D01*
X80792808Y-110441412D01*
X80768300Y-110416909D01*
X80746678Y-110383796D01*
X80730366Y-110343782D01*
X80720612Y-110303993D01*
X80714759Y-110259134D01*
X80712862Y-110217879D01*
X80712823Y-110211550D01*
X80821252Y-110211550D01*
X80823771Y-110254671D01*
X80832480Y-110294933D01*
X80851142Y-110332618D01*
X80853101Y-110335235D01*
X80884268Y-110361928D01*
X80922424Y-110374490D01*
X80948845Y-110376463D01*
X80989065Y-110373561D01*
X81028901Y-110362999D01*
X81038335Y-110358877D01*
X81073044Y-110336662D01*
X81093827Y-110320580D01*
X81088761Y-110280573D01*
X81083815Y-110236884D01*
X81080106Y-110197907D01*
X81077341Y-110158391D01*
X81076242Y-110121083D01*
X81078328Y-110081840D01*
X81079173Y-110073993D01*
X81085327Y-110034022D01*
X81088161Y-110019868D01*
X81053381Y-110005800D01*
X81030129Y-110001306D01*
X80988986Y-110005287D01*
X80950750Y-110017230D01*
X80915420Y-110037136D01*
X80882997Y-110065004D01*
X80855983Y-110097977D01*
X80836688Y-110133392D01*
X80825111Y-110171250D01*
X80821252Y-110211550D01*
X80712823Y-110211550D01*
X80712808Y-110209205D01*
X80715041Y-110168746D01*
X80721738Y-110130166D01*
X80735669Y-110086351D01*
X80756030Y-110045243D01*
X80782821Y-110006841D01*
X80804253Y-109982743D01*
X80833754Y-109955668D01*
X80871434Y-109929235D01*
X80911602Y-109909410D01*
X80954256Y-109896193D01*
X80999396Y-109889585D01*
X81022899Y-109888759D01*
X81063697Y-109892854D01*
G37*
G36*
X81473674Y-110024558D02*
G01*
X81465467Y-110302995D01*
X81464758Y-110345837D01*
X81463246Y-110388053D01*
X81461433Y-110427623D01*
X81461168Y-110432932D01*
X81448153Y-110471266D01*
X81413129Y-110488791D01*
X81407240Y-110489010D01*
X81368531Y-110476473D01*
X81353521Y-110438864D01*
X81353311Y-110431955D01*
X81353790Y-110388438D01*
X81354825Y-110347154D01*
X81356174Y-110306588D01*
X81357948Y-110261241D01*
X81359368Y-110228354D01*
X81361113Y-110187521D01*
X81362817Y-110142916D01*
X81364094Y-110103106D01*
X81365047Y-110062721D01*
X81365425Y-110024558D01*
X81365556Y-109984618D01*
X81365949Y-109942246D01*
X81366603Y-109897444D01*
X81367373Y-109857108D01*
X81368161Y-109822129D01*
X81369090Y-109780304D01*
X81369828Y-109740265D01*
X81370445Y-109695810D01*
X81370800Y-109653786D01*
X81370896Y-109619701D01*
X81381219Y-109581366D01*
X81418295Y-109563842D01*
X81424825Y-109563623D01*
X81463814Y-109575945D01*
X81478932Y-109612910D01*
X81479145Y-109619701D01*
X81479014Y-109659641D01*
X81478621Y-109702012D01*
X81477967Y-109746814D01*
X81477197Y-109787151D01*
X81476409Y-109822129D01*
X81475479Y-109863954D01*
X81474742Y-109903993D01*
X81474125Y-109948448D01*
X81473770Y-109990472D01*
X81473674Y-110024558D01*
G37*
G36*
X81780052Y-110024558D02*
G01*
X81771845Y-110302995D01*
X81771136Y-110345837D01*
X81769625Y-110388053D01*
X81767811Y-110427623D01*
X81767547Y-110432932D01*
X81754532Y-110471266D01*
X81719507Y-110488791D01*
X81713618Y-110489010D01*
X81674909Y-110476473D01*
X81659900Y-110438864D01*
X81659689Y-110431955D01*
X81660168Y-110388438D01*
X81661203Y-110347154D01*
X81662552Y-110306588D01*
X81664327Y-110261241D01*
X81665746Y-110228354D01*
X81667491Y-110187521D01*
X81669195Y-110142916D01*
X81670472Y-110103106D01*
X81671425Y-110062721D01*
X81671803Y-110024558D01*
X81671934Y-109984618D01*
X81672327Y-109942246D01*
X81672981Y-109897444D01*
X81673751Y-109857108D01*
X81674539Y-109822129D01*
X81675469Y-109780304D01*
X81676206Y-109740265D01*
X81676823Y-109695810D01*
X81677178Y-109653786D01*
X81677274Y-109619701D01*
X81687597Y-109581366D01*
X81724673Y-109563842D01*
X81731203Y-109563623D01*
X81770192Y-109575945D01*
X81785311Y-109612910D01*
X81785523Y-109619701D01*
X81785392Y-109659641D01*
X81784999Y-109702012D01*
X81784345Y-109746814D01*
X81783575Y-109787151D01*
X81782787Y-109822129D01*
X81781858Y-109863954D01*
X81781120Y-109903993D01*
X81780503Y-109948448D01*
X81780148Y-109990472D01*
X81780052Y-110024558D01*
G37*
G36*
X82278698Y-110329764D02*
G01*
X82293332Y-110292208D01*
X82294330Y-110291271D01*
X82331264Y-110276479D01*
X82334190Y-110276421D01*
X82370900Y-110292907D01*
X82381475Y-110305730D01*
X82406382Y-110337432D01*
X82431496Y-110359659D01*
X82468612Y-110376346D01*
X82511049Y-110385505D01*
X82550962Y-110388710D01*
X82567295Y-110388968D01*
X82609134Y-110386770D01*
X82649459Y-110380175D01*
X82688269Y-110369184D01*
X82725565Y-110353797D01*
X82761957Y-110332453D01*
X82792604Y-110303937D01*
X82813126Y-110266602D01*
X82818963Y-110228745D01*
X82811292Y-110190177D01*
X82788280Y-110157029D01*
X82754452Y-110131829D01*
X82740415Y-110124404D01*
X82700557Y-110108241D01*
X82660950Y-110097921D01*
X82617411Y-110091412D01*
X82576088Y-110088842D01*
X82534310Y-110085203D01*
X82495732Y-110077607D01*
X82456156Y-110064332D01*
X82428175Y-110050545D01*
X82394066Y-110025559D01*
X82367343Y-109991669D01*
X82352953Y-109951659D01*
X82350212Y-109921585D01*
X82355523Y-109879143D01*
X82371455Y-109838328D01*
X82393565Y-109804638D01*
X82423479Y-109772144D01*
X82454368Y-109745979D01*
X82461196Y-109740845D01*
X82494524Y-109718611D01*
X82534971Y-109696904D01*
X82575912Y-109680623D01*
X82617348Y-109669770D01*
X82659278Y-109664343D01*
X82680429Y-109663665D01*
X82722359Y-109666440D01*
X82764175Y-109673860D01*
X82800792Y-109683399D01*
X82839687Y-109697089D01*
X82875023Y-109718824D01*
X82889696Y-109748856D01*
X82878834Y-109786443D01*
X82840261Y-109801222D01*
X82799839Y-109796261D01*
X82763276Y-109788521D01*
X82722728Y-109780269D01*
X82681966Y-109776191D01*
X82678084Y-109776212D01*
X82636892Y-109778959D01*
X82594376Y-109787452D01*
X82555910Y-109801663D01*
X82532515Y-109814314D01*
X82500058Y-109839608D01*
X82476977Y-109874193D01*
X82470966Y-109906540D01*
X82491287Y-109941515D01*
X82528833Y-109958534D01*
X82552250Y-109964376D01*
X82593051Y-109970207D01*
X82634038Y-109973855D01*
X82669291Y-109976295D01*
X82714549Y-109982070D01*
X82755946Y-109992214D01*
X82793482Y-110006727D01*
X82832395Y-110029180D01*
X82866053Y-110057579D01*
X82891330Y-110087601D01*
X82912616Y-110125300D01*
X82925793Y-110166613D01*
X82930671Y-110205728D01*
X82930924Y-110217412D01*
X82927971Y-110258096D01*
X82916632Y-110303415D01*
X82896789Y-110344915D01*
X82873757Y-110376580D01*
X82844819Y-110405594D01*
X82809975Y-110431955D01*
X82776370Y-110451994D01*
X82733890Y-110471558D01*
X82696695Y-110484125D01*
X82657869Y-110493296D01*
X82617412Y-110499070D01*
X82575323Y-110501447D01*
X82566709Y-110501515D01*
X82523498Y-110499636D01*
X82481913Y-110493998D01*
X82441956Y-110484601D01*
X82403625Y-110471446D01*
X82382452Y-110462241D01*
X82347668Y-110442879D01*
X82316030Y-110417094D01*
X82291663Y-110383413D01*
X82279876Y-110345238D01*
X82278698Y-110329764D01*
G37*
G36*
X83305886Y-110489010D02*
G01*
X83264926Y-110486688D01*
X83220474Y-110478110D01*
X83179612Y-110463212D01*
X83142341Y-110441993D01*
X83117916Y-110422967D01*
X83087082Y-110390506D01*
X83063820Y-110353820D01*
X83048133Y-110312907D01*
X83040714Y-110274476D01*
X83038782Y-110240078D01*
X83041392Y-110199244D01*
X83049223Y-110157930D01*
X83062275Y-110116134D01*
X83080547Y-110073858D01*
X83099762Y-110038261D01*
X83113032Y-110016742D01*
X83139310Y-109979872D01*
X83166609Y-109949251D01*
X83200715Y-109920755D01*
X83236291Y-109901257D01*
X83279655Y-109889884D01*
X83298852Y-109888759D01*
X83340965Y-109892413D01*
X83382755Y-109902184D01*
X83419214Y-109914746D01*
X83455973Y-109932381D01*
X83487152Y-109957034D01*
X83503152Y-109993419D01*
X83503234Y-109996421D01*
X83490214Y-110033663D01*
X83489361Y-110034718D01*
X83455362Y-110051327D01*
X83427616Y-110042534D01*
X83404951Y-110025144D01*
X83368678Y-110008848D01*
X83329107Y-110002447D01*
X83298852Y-110001306D01*
X83260436Y-110012065D01*
X83229212Y-110036874D01*
X83201612Y-110071019D01*
X83187868Y-110092360D01*
X83168377Y-110127796D01*
X83151964Y-110165684D01*
X83140973Y-110204980D01*
X83137847Y-110236951D01*
X83143688Y-110279031D01*
X83161212Y-110314462D01*
X83187281Y-110340901D01*
X83222101Y-110361148D01*
X83263155Y-110372990D01*
X83305886Y-110376463D01*
X83346614Y-110370057D01*
X83376228Y-110358291D01*
X83439926Y-110323120D01*
X83463569Y-110313937D01*
X83498740Y-110331327D01*
X83513532Y-110368204D01*
X83513590Y-110370992D01*
X83497396Y-110407911D01*
X83465999Y-110433640D01*
X83428984Y-110453839D01*
X83389228Y-110470841D01*
X83349767Y-110483205D01*
X83308964Y-110488976D01*
X83305886Y-110489010D01*
G37*
G36*
X83918288Y-109892283D02*
G01*
X83959428Y-109905302D01*
X83995481Y-109927914D01*
X84026448Y-109960119D01*
X84045453Y-109988996D01*
X84062956Y-110026043D01*
X84075971Y-110066232D01*
X84084498Y-110109562D01*
X84088235Y-110149203D01*
X84088831Y-110184000D01*
X84086115Y-110228325D01*
X84079140Y-110270150D01*
X84067907Y-110309475D01*
X84052414Y-110346299D01*
X84032662Y-110380623D01*
X84025132Y-110391508D01*
X83997146Y-110424644D01*
X83965946Y-110450923D01*
X83931531Y-110470348D01*
X83893900Y-110482916D01*
X83853055Y-110488629D01*
X83838726Y-110489010D01*
X83799602Y-110485756D01*
X83757888Y-110474069D01*
X83719374Y-110453883D01*
X83688299Y-110429247D01*
X83679870Y-110421013D01*
X83654566Y-110390895D01*
X83634194Y-110357110D01*
X83618754Y-110319656D01*
X83608246Y-110278534D01*
X83602671Y-110233743D01*
X83601908Y-110217998D01*
X83601924Y-110217412D01*
X83710352Y-110217412D01*
X83713783Y-110258954D01*
X83725644Y-110298659D01*
X83748477Y-110334488D01*
X83753729Y-110340120D01*
X83785322Y-110363650D01*
X83823961Y-110375576D01*
X83838921Y-110376463D01*
X83879487Y-110370665D01*
X83915601Y-110353272D01*
X83937205Y-110335235D01*
X83962098Y-110303548D01*
X83978405Y-110265641D01*
X83985740Y-110226206D01*
X83986639Y-110211941D01*
X83986554Y-110162702D01*
X83982390Y-110120008D01*
X83971448Y-110075846D01*
X83949906Y-110036352D01*
X83919186Y-110011585D01*
X83879289Y-110001547D01*
X83871748Y-110001306D01*
X83829183Y-110007160D01*
X83792276Y-110025163D01*
X83761026Y-110055314D01*
X83746109Y-110077314D01*
X83728824Y-110113201D01*
X83717196Y-110151840D01*
X83711225Y-110193229D01*
X83710352Y-110217412D01*
X83601924Y-110217412D01*
X83603161Y-110172587D01*
X83609263Y-110129265D01*
X83620215Y-110088030D01*
X83636017Y-110048884D01*
X83656668Y-110011827D01*
X83664630Y-109999938D01*
X83690110Y-109967909D01*
X83724603Y-109936640D01*
X83763369Y-109913188D01*
X83806408Y-109897553D01*
X83845537Y-109890496D01*
X83878977Y-109888759D01*
X83918288Y-109892283D01*
G37*
G36*
X84648831Y-110046442D02*
G01*
X84640580Y-110084821D01*
X84611394Y-110111483D01*
X84593925Y-110113853D01*
X84557029Y-110098688D01*
X84546639Y-110060120D01*
X84544881Y-110022018D01*
X84543318Y-109976295D01*
X84502090Y-109983232D01*
X84460846Y-109995239D01*
X84425043Y-110011698D01*
X84404197Y-110025144D01*
X84372553Y-110053998D01*
X84347152Y-110087643D01*
X84327032Y-110123959D01*
X84322913Y-110132806D01*
X84324085Y-110433518D01*
X84313688Y-110471452D01*
X84276343Y-110488793D01*
X84269766Y-110489010D01*
X84231955Y-110473459D01*
X84221308Y-110433909D01*
X84221308Y-110051718D01*
X84222211Y-110010639D01*
X84222676Y-109997789D01*
X84223882Y-109958343D01*
X84224043Y-109943860D01*
X84234691Y-109904310D01*
X84272501Y-109888759D01*
X84309345Y-109905327D01*
X84324021Y-109941591D01*
X84326821Y-109975318D01*
X84360357Y-109946779D01*
X84395018Y-109923077D01*
X84430805Y-109904212D01*
X84467718Y-109890185D01*
X84505757Y-109880994D01*
X84544922Y-109876640D01*
X84560903Y-109876254D01*
X84599787Y-109884509D01*
X84627337Y-109909275D01*
X84643185Y-109947434D01*
X84648878Y-109988595D01*
X84649417Y-110008535D01*
X84648831Y-110046442D01*
G37*
G36*
X85044260Y-109890700D02*
G01*
X85083583Y-109896526D01*
X85122800Y-109907721D01*
X85149626Y-109919826D01*
X85183913Y-109944724D01*
X85208848Y-109980002D01*
X85219446Y-110018604D01*
X85220554Y-110037845D01*
X85211816Y-110078181D01*
X85188455Y-110112646D01*
X85158419Y-110139059D01*
X85122665Y-110159020D01*
X85087198Y-110175959D01*
X85047472Y-110193716D01*
X85041964Y-110196114D01*
X84832110Y-110288340D01*
X84859645Y-110320355D01*
X84892081Y-110345275D01*
X84908705Y-110354383D01*
X84948496Y-110368679D01*
X84989634Y-110375406D01*
X85015586Y-110376463D01*
X85056814Y-110373043D01*
X85095204Y-110365230D01*
X85104685Y-110362785D01*
X85143812Y-110349560D01*
X85177782Y-110329054D01*
X85188119Y-110317258D01*
X85217794Y-110290697D01*
X85228370Y-110288926D01*
X85262564Y-110304167D01*
X85277805Y-110339729D01*
X85268207Y-110377926D01*
X85243156Y-110409334D01*
X85207836Y-110434891D01*
X85179521Y-110449736D01*
X85142902Y-110465039D01*
X85101600Y-110477926D01*
X85060885Y-110485903D01*
X85020756Y-110488972D01*
X85015781Y-110489010D01*
X84970842Y-110486826D01*
X84929228Y-110480272D01*
X84890938Y-110469350D01*
X84850469Y-110451086D01*
X84814525Y-110426875D01*
X84785971Y-110399145D01*
X84760126Y-110361898D01*
X84744372Y-110325774D01*
X84734526Y-110285777D01*
X84730587Y-110241905D01*
X84730505Y-110234216D01*
X84732043Y-110194551D01*
X84822732Y-110194551D01*
X84991357Y-110120106D01*
X85032138Y-110101081D01*
X85067460Y-110083160D01*
X85104850Y-110061740D01*
X85133213Y-110042143D01*
X85099958Y-110020608D01*
X85059299Y-110007049D01*
X85016376Y-110001665D01*
X85000736Y-110001306D01*
X84961042Y-110006019D01*
X84922449Y-110022091D01*
X84891972Y-110046599D01*
X84889166Y-110049568D01*
X84863535Y-110084380D01*
X84844253Y-110123869D01*
X84830124Y-110165457D01*
X84822732Y-110194551D01*
X84732043Y-110194551D01*
X84732194Y-110190650D01*
X84737260Y-110149345D01*
X84745704Y-110110302D01*
X84760294Y-110066434D01*
X84779748Y-110025823D01*
X84799675Y-109994467D01*
X84824419Y-109964014D01*
X84857373Y-109934284D01*
X84893886Y-109911986D01*
X84933957Y-109897120D01*
X84977587Y-109889688D01*
X85000736Y-109888759D01*
X85044260Y-109890700D01*
G37*
G36*
X85480493Y-109619762D02*
G01*
X85486290Y-109648815D01*
X85483555Y-109671285D01*
X85480819Y-109693755D01*
X85479256Y-109813727D01*
X85478084Y-109953630D01*
X85513301Y-109931584D01*
X85549902Y-109912848D01*
X85568942Y-109904976D01*
X85608266Y-109893336D01*
X85647657Y-109888775D01*
X85650031Y-109888759D01*
X85692795Y-109891946D01*
X85732426Y-109901508D01*
X85768925Y-109917445D01*
X85802292Y-109939757D01*
X85832526Y-109968443D01*
X85841908Y-109979422D01*
X85865415Y-110012743D01*
X85884058Y-110048811D01*
X85897838Y-110087627D01*
X85906755Y-110129191D01*
X85910807Y-110173503D01*
X85911078Y-110188884D01*
X85908234Y-110234526D01*
X85899702Y-110277517D01*
X85885483Y-110317856D01*
X85865575Y-110355543D01*
X85839980Y-110390579D01*
X85830184Y-110401669D01*
X85798528Y-110431351D01*
X85764083Y-110454892D01*
X85726849Y-110472292D01*
X85686826Y-110483551D01*
X85644014Y-110488669D01*
X85629124Y-110489010D01*
X85588066Y-110486580D01*
X85548914Y-110479289D01*
X85511667Y-110467138D01*
X85476325Y-110450127D01*
X85445661Y-110474856D01*
X85433534Y-110476505D01*
X85397972Y-110462046D01*
X85383513Y-110425702D01*
X85384797Y-110385609D01*
X85384881Y-110383888D01*
X85386237Y-110344638D01*
X85386249Y-110341878D01*
X85385943Y-110300120D01*
X85385259Y-110258636D01*
X85384340Y-110216446D01*
X85383315Y-110175908D01*
X85383122Y-110168759D01*
X85383117Y-110168563D01*
X85477498Y-110168563D01*
X85478084Y-110250629D01*
X85478670Y-110336993D01*
X85515146Y-110352003D01*
X85552920Y-110366498D01*
X85591360Y-110374273D01*
X85629124Y-110376463D01*
X85671695Y-110372228D01*
X85709722Y-110359523D01*
X85743204Y-110338348D01*
X85759842Y-110322925D01*
X85784589Y-110290613D01*
X85801237Y-110254128D01*
X85809786Y-110213471D01*
X85811036Y-110189080D01*
X85807775Y-110147046D01*
X85797991Y-110109093D01*
X85779470Y-110071709D01*
X85769808Y-110058166D01*
X85738968Y-110028181D01*
X85702137Y-110009302D01*
X85659314Y-110001528D01*
X85650031Y-110001306D01*
X85610259Y-110005943D01*
X85572524Y-110018555D01*
X85557805Y-110025535D01*
X85523988Y-110046237D01*
X85488895Y-110070280D01*
X85478670Y-110077510D01*
X85477498Y-110168563D01*
X85383117Y-110168563D01*
X85382126Y-110127481D01*
X85381225Y-110084446D01*
X85380538Y-110042018D01*
X85380203Y-110002899D01*
X85380191Y-109995444D01*
X85380274Y-109955547D01*
X85380444Y-109912497D01*
X85380640Y-109871234D01*
X85380778Y-109844600D01*
X85380977Y-109805467D01*
X85381157Y-109766099D01*
X85381307Y-109725429D01*
X85381364Y-109693364D01*
X85387254Y-109653141D01*
X85395041Y-109634355D01*
X85423099Y-109605810D01*
X85445062Y-109601138D01*
X85480493Y-109619762D01*
G37*
G36*
X86322419Y-109892283D02*
G01*
X86363559Y-109905302D01*
X86399612Y-109927914D01*
X86430579Y-109960119D01*
X86449584Y-109988996D01*
X86467087Y-110026043D01*
X86480102Y-110066232D01*
X86488630Y-110109562D01*
X86492366Y-110149203D01*
X86492962Y-110184000D01*
X86490246Y-110228325D01*
X86483271Y-110270150D01*
X86472038Y-110309475D01*
X86456545Y-110346299D01*
X86436794Y-110380623D01*
X86429263Y-110391508D01*
X86401278Y-110424644D01*
X86370077Y-110450923D01*
X86335662Y-110470348D01*
X86298032Y-110482916D01*
X86257187Y-110488629D01*
X86242857Y-110489010D01*
X86203733Y-110485756D01*
X86162019Y-110474069D01*
X86123505Y-110453883D01*
X86092430Y-110429247D01*
X86084002Y-110421013D01*
X86058697Y-110390895D01*
X86038325Y-110357110D01*
X86022885Y-110319656D01*
X86012377Y-110278534D01*
X86006802Y-110233743D01*
X86006039Y-110217998D01*
X86006055Y-110217412D01*
X86114483Y-110217412D01*
X86117914Y-110258954D01*
X86129775Y-110298659D01*
X86152608Y-110334488D01*
X86157861Y-110340120D01*
X86189453Y-110363650D01*
X86228093Y-110375576D01*
X86243053Y-110376463D01*
X86283618Y-110370665D01*
X86319733Y-110353272D01*
X86341336Y-110335235D01*
X86366230Y-110303548D01*
X86382537Y-110265641D01*
X86389871Y-110226206D01*
X86390771Y-110211941D01*
X86390685Y-110162702D01*
X86386521Y-110120008D01*
X86375579Y-110075846D01*
X86354037Y-110036352D01*
X86323318Y-110011585D01*
X86283421Y-110001547D01*
X86275879Y-110001306D01*
X86233315Y-110007160D01*
X86196407Y-110025163D01*
X86165157Y-110055314D01*
X86150240Y-110077314D01*
X86132955Y-110113201D01*
X86121327Y-110151840D01*
X86115356Y-110193229D01*
X86114483Y-110217412D01*
X86006055Y-110217412D01*
X86007292Y-110172587D01*
X86013394Y-110129265D01*
X86024346Y-110088030D01*
X86040148Y-110048884D01*
X86060799Y-110011827D01*
X86068761Y-109999938D01*
X86094241Y-109967909D01*
X86128734Y-109936640D01*
X86167500Y-109913188D01*
X86210539Y-109897553D01*
X86249668Y-109890496D01*
X86283108Y-109888759D01*
X86322419Y-109892283D01*
G37*
G36*
X86927870Y-109892854D02*
G01*
X86968908Y-109903905D01*
X86994344Y-109913574D01*
X87030425Y-109931960D01*
X87060164Y-109959648D01*
X87068984Y-109988214D01*
X87057847Y-110014593D01*
X87051676Y-110053902D01*
X87049249Y-110083762D01*
X87047408Y-110123485D01*
X87046348Y-110166608D01*
X87045928Y-110206665D01*
X87046592Y-110246706D01*
X87050109Y-110287299D01*
X87055307Y-110314914D01*
X87067792Y-110354388D01*
X87082982Y-110394564D01*
X87089891Y-110412025D01*
X87102397Y-110441334D01*
X87105718Y-110450713D01*
X87090282Y-110487056D01*
X87054525Y-110501515D01*
X87021633Y-110478407D01*
X87016618Y-110473378D01*
X86990729Y-110442695D01*
X86979884Y-110426484D01*
X86945092Y-110445931D01*
X86907784Y-110464329D01*
X86886877Y-110473183D01*
X86848012Y-110485532D01*
X86819856Y-110489010D01*
X86774095Y-110486475D01*
X86733239Y-110478871D01*
X86691772Y-110463592D01*
X86656981Y-110441412D01*
X86632473Y-110416909D01*
X86610851Y-110383796D01*
X86594539Y-110343782D01*
X86584785Y-110303993D01*
X86578932Y-110259134D01*
X86577036Y-110217879D01*
X86576996Y-110211550D01*
X86685425Y-110211550D01*
X86687945Y-110254671D01*
X86696653Y-110294933D01*
X86715315Y-110332618D01*
X86717274Y-110335235D01*
X86748441Y-110361928D01*
X86786597Y-110374490D01*
X86813018Y-110376463D01*
X86853238Y-110373561D01*
X86893074Y-110362999D01*
X86902508Y-110358877D01*
X86937217Y-110336662D01*
X86958000Y-110320580D01*
X86952934Y-110280573D01*
X86947988Y-110236884D01*
X86944279Y-110197907D01*
X86941514Y-110158391D01*
X86940415Y-110121083D01*
X86942501Y-110081840D01*
X86943346Y-110073993D01*
X86949501Y-110034022D01*
X86952334Y-110019868D01*
X86917554Y-110005800D01*
X86894302Y-110001306D01*
X86853159Y-110005287D01*
X86814923Y-110017230D01*
X86779593Y-110037136D01*
X86747170Y-110065004D01*
X86720157Y-110097977D01*
X86700861Y-110133392D01*
X86689284Y-110171250D01*
X86685425Y-110211550D01*
X86576996Y-110211550D01*
X86576981Y-110209205D01*
X86579214Y-110168746D01*
X86585911Y-110130166D01*
X86599842Y-110086351D01*
X86620203Y-110045243D01*
X86646994Y-110006841D01*
X86668426Y-109982743D01*
X86697927Y-109955668D01*
X86735607Y-109929235D01*
X86775775Y-109909410D01*
X86818429Y-109896193D01*
X86863569Y-109889585D01*
X86887072Y-109888759D01*
X86927870Y-109892854D01*
G37*
G36*
X87625858Y-110046442D02*
G01*
X87617607Y-110084821D01*
X87588421Y-110111483D01*
X87570952Y-110113853D01*
X87534056Y-110098688D01*
X87523667Y-110060120D01*
X87521908Y-110022018D01*
X87520345Y-109976295D01*
X87479117Y-109983232D01*
X87437873Y-109995239D01*
X87402070Y-110011698D01*
X87381224Y-110025144D01*
X87349580Y-110053998D01*
X87324179Y-110087643D01*
X87304059Y-110123959D01*
X87299940Y-110132806D01*
X87301113Y-110433518D01*
X87290715Y-110471452D01*
X87253371Y-110488793D01*
X87246793Y-110489010D01*
X87208983Y-110473459D01*
X87198335Y-110433909D01*
X87198335Y-110051718D01*
X87199238Y-110010639D01*
X87199703Y-109997789D01*
X87200909Y-109958343D01*
X87201071Y-109943860D01*
X87211718Y-109904310D01*
X87249528Y-109888759D01*
X87286372Y-109905327D01*
X87301048Y-109941591D01*
X87303848Y-109975318D01*
X87337384Y-109946779D01*
X87372045Y-109923077D01*
X87407833Y-109904212D01*
X87444746Y-109890185D01*
X87482785Y-109880994D01*
X87521949Y-109876640D01*
X87537930Y-109876254D01*
X87576814Y-109884509D01*
X87604364Y-109909275D01*
X87620213Y-109947434D01*
X87625905Y-109988595D01*
X87626444Y-110008535D01*
X87625858Y-110046442D01*
G37*
G36*
X88251706Y-109601920D02*
G01*
X88264211Y-109641780D01*
X88263164Y-109683832D01*
X88261133Y-109724643D01*
X88258740Y-109763755D01*
X88255662Y-109808614D01*
X88251901Y-109859218D01*
X88248631Y-109900941D01*
X88244977Y-109945897D01*
X88242327Y-109977663D01*
X88239420Y-110017829D01*
X88237344Y-110058019D01*
X88236099Y-110098234D01*
X88235683Y-110138473D01*
X88235949Y-110182607D01*
X88236746Y-110223958D01*
X88238489Y-110271730D01*
X88241062Y-110315152D01*
X88244465Y-110354223D01*
X88249645Y-110395366D01*
X88252683Y-110413588D01*
X88253660Y-110426093D01*
X88238224Y-110462241D01*
X88202662Y-110476505D01*
X88167185Y-110457118D01*
X88152641Y-110426875D01*
X88117506Y-110449918D01*
X88081175Y-110468100D01*
X88070575Y-110472401D01*
X88032593Y-110483755D01*
X87993190Y-110488750D01*
X87981671Y-110489010D01*
X87940400Y-110486338D01*
X87901877Y-110478321D01*
X87860406Y-110462214D01*
X87822675Y-110438833D01*
X87793311Y-110413002D01*
X87767148Y-110382293D01*
X87746398Y-110348494D01*
X87731061Y-110311603D01*
X87721137Y-110271622D01*
X87716626Y-110228549D01*
X87716325Y-110213504D01*
X87716433Y-110210964D01*
X87813632Y-110210964D01*
X87818536Y-110251489D01*
X87833247Y-110288313D01*
X87857767Y-110321434D01*
X87863848Y-110327614D01*
X87897015Y-110353374D01*
X87933503Y-110369594D01*
X87973311Y-110376272D01*
X87981671Y-110376463D01*
X88021908Y-110372899D01*
X88059829Y-110360245D01*
X88094458Y-110337076D01*
X88120792Y-110316477D01*
X88136618Y-110300259D01*
X88135055Y-110209401D01*
X88135642Y-110148438D01*
X88136618Y-110086498D01*
X88115803Y-110053303D01*
X88085419Y-110025349D01*
X88081127Y-110022604D01*
X88043122Y-110006630D01*
X88004259Y-110001389D01*
X87998279Y-110001306D01*
X87954963Y-110004579D01*
X87913151Y-110016085D01*
X87878665Y-110035875D01*
X87859745Y-110053672D01*
X87837454Y-110087206D01*
X87823764Y-110124047D01*
X87815838Y-110167507D01*
X87813632Y-110210964D01*
X87716433Y-110210964D01*
X87718224Y-110168895D01*
X87723920Y-110127149D01*
X87733413Y-110088265D01*
X87749817Y-110045382D01*
X87771689Y-110006620D01*
X87794092Y-109977468D01*
X87824883Y-109947321D01*
X87858930Y-109923411D01*
X87896232Y-109905738D01*
X87936791Y-109894303D01*
X87980606Y-109889105D01*
X87995935Y-109888759D01*
X88036398Y-109891091D01*
X88075289Y-109899860D01*
X88094413Y-109908494D01*
X88145997Y-109946400D01*
X88147452Y-109904636D01*
X88148958Y-109865514D01*
X88151046Y-109817459D01*
X88153226Y-109774100D01*
X88156080Y-109726504D01*
X88159077Y-109686245D01*
X88163512Y-109642208D01*
X88164169Y-109637091D01*
X88180191Y-109600748D01*
X88214190Y-109588633D01*
X88251706Y-109601920D01*
G37*
G36*
X88981308Y-110435667D02*
G01*
X88968021Y-110473623D01*
X88931287Y-110486274D01*
X88892990Y-110471313D01*
X88872864Y-110438989D01*
X88788845Y-110216435D01*
X88691147Y-109964963D01*
X88685481Y-109940734D01*
X88701434Y-109904958D01*
X88702480Y-109904000D01*
X88739357Y-109888818D01*
X88742145Y-109888759D01*
X88778684Y-109902981D01*
X88789431Y-109918849D01*
X88928942Y-110302018D01*
X88945158Y-110266343D01*
X88962886Y-110225118D01*
X88978813Y-110186524D01*
X88995790Y-110144075D01*
X89010127Y-110107341D01*
X89025136Y-110068140D01*
X89032892Y-110047614D01*
X89046420Y-110009677D01*
X89061346Y-109970255D01*
X89075677Y-109933606D01*
X89079591Y-109923734D01*
X89106412Y-109893677D01*
X89127854Y-109888759D01*
X89165372Y-109902841D01*
X89167519Y-109904781D01*
X89184501Y-109941130D01*
X89184518Y-109942492D01*
X89171769Y-109985174D01*
X89155832Y-110026875D01*
X89137681Y-110071995D01*
X89119974Y-110114878D01*
X89104834Y-110150999D01*
X89093855Y-110176965D01*
X88981308Y-110435667D01*
G37*
G36*
X89917637Y-110464000D02*
G01*
X89808217Y-110464000D01*
X89699382Y-110463413D01*
X89660273Y-110461276D01*
X89645453Y-110457942D01*
X89619258Y-110427607D01*
X89617512Y-110411438D01*
X89629657Y-110373932D01*
X89666092Y-110353736D01*
X89703876Y-110349889D01*
X89730254Y-110350475D01*
X89752725Y-110351452D01*
X89750893Y-110309916D01*
X89748035Y-110275835D01*
X89744829Y-110236720D01*
X89743346Y-110200608D01*
X89744350Y-110157000D01*
X89746521Y-110115367D01*
X89749349Y-110074309D01*
X89753070Y-110028292D01*
X89756046Y-109994858D01*
X89759522Y-109954019D01*
X89762874Y-109909231D01*
X89765333Y-109869045D01*
X89767074Y-109827979D01*
X89767575Y-109788717D01*
X89734077Y-109816072D01*
X89701581Y-109839275D01*
X89673590Y-109851243D01*
X89636507Y-109835473D01*
X89635488Y-109834439D01*
X89619334Y-109798467D01*
X89619270Y-109795751D01*
X89637741Y-109758428D01*
X89666556Y-109731857D01*
X89699809Y-109706223D01*
X89731071Y-109680221D01*
X89750575Y-109663469D01*
X89780422Y-109637194D01*
X89815081Y-109618509D01*
X89842997Y-109613644D01*
X89876825Y-109635043D01*
X89879731Y-109655067D01*
X89876409Y-109691997D01*
X89873087Y-109728926D01*
X89874377Y-109769945D01*
X89875041Y-109782855D01*
X89876764Y-109822217D01*
X89876995Y-109836588D01*
X89875944Y-109875876D01*
X89873245Y-109918817D01*
X89869521Y-109962581D01*
X89865317Y-110004692D01*
X89863709Y-110019673D01*
X89859259Y-110063186D01*
X89855731Y-110102425D01*
X89852778Y-110142805D01*
X89850822Y-110186176D01*
X89850617Y-110202367D01*
X89851977Y-110241645D01*
X89854916Y-110278180D01*
X89858433Y-110318870D01*
X89859996Y-110351452D01*
X89917637Y-110350475D01*
X89954791Y-110365695D01*
X89955739Y-110366693D01*
X89970920Y-110404142D01*
X89970980Y-110407140D01*
X89958463Y-110444896D01*
X89955739Y-110447977D01*
X89919071Y-110463984D01*
X89917637Y-110464000D01*
G37*
G36*
X90181615Y-110514020D02*
G01*
X90143660Y-110502810D01*
X90133157Y-110494090D01*
X90114656Y-110459139D01*
X90113422Y-110445242D01*
X90124523Y-110407360D01*
X90133157Y-110396784D01*
X90167889Y-110377733D01*
X90181615Y-110376463D01*
X90219204Y-110387893D01*
X90229682Y-110396784D01*
X90248550Y-110431588D01*
X90249808Y-110445242D01*
X90238487Y-110483563D01*
X90229682Y-110494090D01*
X90195170Y-110512775D01*
X90181615Y-110514020D01*
G37*
G36*
X90709571Y-109616649D02*
G01*
X90750044Y-109625665D01*
X90787416Y-109640692D01*
X90821687Y-109661729D01*
X90852857Y-109688777D01*
X90880927Y-109721836D01*
X90891287Y-109736742D01*
X90911383Y-109771160D01*
X90928072Y-109807859D01*
X90941356Y-109846837D01*
X90951233Y-109888096D01*
X90957705Y-109931635D01*
X90960770Y-109977455D01*
X90961043Y-109996421D01*
X90960356Y-110041468D01*
X90958295Y-110084358D01*
X90954860Y-110125090D01*
X90948144Y-110176046D01*
X90938985Y-110223166D01*
X90927383Y-110266452D01*
X90913339Y-110305903D01*
X90896853Y-110341520D01*
X90882885Y-110365716D01*
X90856618Y-110401235D01*
X90826545Y-110430734D01*
X90792665Y-110454213D01*
X90754978Y-110471672D01*
X90713485Y-110483110D01*
X90668184Y-110488528D01*
X90648998Y-110489010D01*
X90608640Y-110486626D01*
X90562151Y-110476939D01*
X90520060Y-110459801D01*
X90482367Y-110435211D01*
X90449073Y-110403171D01*
X90420177Y-110363679D01*
X90404951Y-110336407D01*
X90388176Y-110297922D01*
X90374245Y-110255982D01*
X90363157Y-110210590D01*
X90356333Y-110171789D01*
X90351329Y-110130777D01*
X90348145Y-110087555D01*
X90346780Y-110042123D01*
X90346723Y-110030420D01*
X90346977Y-110022018D01*
X90453213Y-110022018D01*
X90453976Y-110064894D01*
X90456266Y-110105011D01*
X90461275Y-110151276D01*
X90468669Y-110193229D01*
X90480690Y-110237879D01*
X90496146Y-110276320D01*
X90502062Y-110287754D01*
X90525846Y-110322319D01*
X90558731Y-110351427D01*
X90597697Y-110369446D01*
X90636781Y-110376116D01*
X90648803Y-110376463D01*
X90690158Y-110371888D01*
X90726884Y-110358163D01*
X90758980Y-110335288D01*
X90786446Y-110303263D01*
X90809282Y-110262089D01*
X90815865Y-110246330D01*
X90829569Y-110204441D01*
X90838637Y-110164860D01*
X90845231Y-110121886D01*
X90849353Y-110075518D01*
X90850898Y-110034286D01*
X90851036Y-110017133D01*
X90849900Y-109973370D01*
X90846494Y-109933186D01*
X90839410Y-109889687D01*
X90829055Y-109851340D01*
X90812843Y-109813113D01*
X90804532Y-109798877D01*
X90778459Y-109767077D01*
X90746549Y-109744362D01*
X90708801Y-109730734D01*
X90665216Y-109726191D01*
X90622536Y-109731053D01*
X90583914Y-109745639D01*
X90549350Y-109769948D01*
X90518844Y-109803982D01*
X90503234Y-109827796D01*
X90483743Y-109866141D01*
X90469040Y-109906805D01*
X90459124Y-109949788D01*
X90453995Y-109995090D01*
X90453213Y-110022018D01*
X90346977Y-110022018D01*
X90347908Y-109991243D01*
X90352720Y-109944058D01*
X90361234Y-109898858D01*
X90373450Y-109855642D01*
X90389368Y-109814411D01*
X90408988Y-109775164D01*
X90422536Y-109752569D01*
X90445916Y-109720008D01*
X90477975Y-109685413D01*
X90513182Y-109657600D01*
X90551538Y-109636572D01*
X90593042Y-109622326D01*
X90637695Y-109614865D01*
X90665997Y-109613644D01*
X90709571Y-109616649D01*
G37*
X67090476Y-110454819D02*
X67090476Y-109454819D01*
X67090476Y-109454819D02*
X67471428Y-109454819D01*
X67471428Y-109454819D02*
X67566666Y-109502438D01*
X67566666Y-109502438D02*
X67614285Y-109550057D01*
X67614285Y-109550057D02*
X67661904Y-109645295D01*
X67661904Y-109645295D02*
X67661904Y-109788152D01*
X67661904Y-109788152D02*
X67614285Y-109883390D01*
X67614285Y-109883390D02*
X67566666Y-109931009D01*
X67566666Y-109931009D02*
X67471428Y-109978628D01*
X67471428Y-109978628D02*
X67090476Y-109978628D01*
X67995238Y-109454819D02*
X68233333Y-110454819D01*
X68233333Y-110454819D02*
X68423809Y-109740533D01*
X68423809Y-109740533D02*
X68614285Y-110454819D01*
X68614285Y-110454819D02*
X68852381Y-109454819D01*
X69804761Y-110454819D02*
X69471428Y-109978628D01*
X69233333Y-110454819D02*
X69233333Y-109454819D01*
X69233333Y-109454819D02*
X69614285Y-109454819D01*
X69614285Y-109454819D02*
X69709523Y-109502438D01*
X69709523Y-109502438D02*
X69757142Y-109550057D01*
X69757142Y-109550057D02*
X69804761Y-109645295D01*
X69804761Y-109645295D02*
X69804761Y-109788152D01*
X69804761Y-109788152D02*
X69757142Y-109883390D01*
X69757142Y-109883390D02*
X69709523Y-109931009D01*
X69709523Y-109931009D02*
X69614285Y-109978628D01*
X69614285Y-109978628D02*
X69233333Y-109978628D01*
X70138095Y-109454819D02*
X70757142Y-109454819D01*
X70757142Y-109454819D02*
X70423809Y-109835771D01*
X70423809Y-109835771D02*
X70566666Y-109835771D01*
X70566666Y-109835771D02*
X70661904Y-109883390D01*
X70661904Y-109883390D02*
X70709523Y-109931009D01*
X70709523Y-109931009D02*
X70757142Y-110026247D01*
X70757142Y-110026247D02*
X70757142Y-110264342D01*
X70757142Y-110264342D02*
X70709523Y-110359580D01*
X70709523Y-110359580D02*
X70661904Y-110407200D01*
X70661904Y-110407200D02*
X70566666Y-110454819D01*
X70566666Y-110454819D02*
X70280952Y-110454819D01*
X70280952Y-110454819D02*
X70185714Y-110407200D01*
X70185714Y-110407200D02*
X70138095Y-110359580D01*
X75775714Y-87607200D02*
X75918571Y-87654819D01*
X75918571Y-87654819D02*
X76156666Y-87654819D01*
X76156666Y-87654819D02*
X76251904Y-87607200D01*
X76251904Y-87607200D02*
X76299523Y-87559580D01*
X76299523Y-87559580D02*
X76347142Y-87464342D01*
X76347142Y-87464342D02*
X76347142Y-87369104D01*
X76347142Y-87369104D02*
X76299523Y-87273866D01*
X76299523Y-87273866D02*
X76251904Y-87226247D01*
X76251904Y-87226247D02*
X76156666Y-87178628D01*
X76156666Y-87178628D02*
X75966190Y-87131009D01*
X75966190Y-87131009D02*
X75870952Y-87083390D01*
X75870952Y-87083390D02*
X75823333Y-87035771D01*
X75823333Y-87035771D02*
X75775714Y-86940533D01*
X75775714Y-86940533D02*
X75775714Y-86845295D01*
X75775714Y-86845295D02*
X75823333Y-86750057D01*
X75823333Y-86750057D02*
X75870952Y-86702438D01*
X75870952Y-86702438D02*
X75966190Y-86654819D01*
X75966190Y-86654819D02*
X76204285Y-86654819D01*
X76204285Y-86654819D02*
X76347142Y-86702438D01*
X76680476Y-86654819D02*
X76918571Y-87654819D01*
X76918571Y-87654819D02*
X77109047Y-86940533D01*
X77109047Y-86940533D02*
X77299523Y-87654819D01*
X77299523Y-87654819D02*
X77537619Y-86654819D01*
X77680476Y-87750057D02*
X78442380Y-87750057D01*
X79251904Y-87559580D02*
X79204285Y-87607200D01*
X79204285Y-87607200D02*
X79061428Y-87654819D01*
X79061428Y-87654819D02*
X78966190Y-87654819D01*
X78966190Y-87654819D02*
X78823333Y-87607200D01*
X78823333Y-87607200D02*
X78728095Y-87511961D01*
X78728095Y-87511961D02*
X78680476Y-87416723D01*
X78680476Y-87416723D02*
X78632857Y-87226247D01*
X78632857Y-87226247D02*
X78632857Y-87083390D01*
X78632857Y-87083390D02*
X78680476Y-86892914D01*
X78680476Y-86892914D02*
X78728095Y-86797676D01*
X78728095Y-86797676D02*
X78823333Y-86702438D01*
X78823333Y-86702438D02*
X78966190Y-86654819D01*
X78966190Y-86654819D02*
X79061428Y-86654819D01*
X79061428Y-86654819D02*
X79204285Y-86702438D01*
X79204285Y-86702438D02*
X79251904Y-86750057D01*
X80204285Y-87654819D02*
X79632857Y-87654819D01*
X79918571Y-87654819D02*
X79918571Y-86654819D01*
X79918571Y-86654819D02*
X79823333Y-86797676D01*
X79823333Y-86797676D02*
X79728095Y-86892914D01*
X79728095Y-86892914D02*
X79632857Y-86940533D01*
X87861906Y-87954818D02*
X87861906Y-86954818D01*
X87861906Y-86954818D02*
X88100001Y-86954818D01*
X88100001Y-86954818D02*
X88242858Y-87002437D01*
X88242858Y-87002437D02*
X88338096Y-87097675D01*
X88338096Y-87097675D02*
X88385715Y-87192913D01*
X88385715Y-87192913D02*
X88433334Y-87383389D01*
X88433334Y-87383389D02*
X88433334Y-87526246D01*
X88433334Y-87526246D02*
X88385715Y-87716722D01*
X88385715Y-87716722D02*
X88338096Y-87811960D01*
X88338096Y-87811960D02*
X88242858Y-87907199D01*
X88242858Y-87907199D02*
X88100001Y-87954818D01*
X88100001Y-87954818D02*
X87861906Y-87954818D01*
X88861906Y-87954818D02*
X88861906Y-86954818D01*
X88861906Y-86954818D02*
X89100001Y-86954818D01*
X89100001Y-86954818D02*
X89242858Y-87002437D01*
X89242858Y-87002437D02*
X89338096Y-87097675D01*
X89338096Y-87097675D02*
X89385715Y-87192913D01*
X89385715Y-87192913D02*
X89433334Y-87383389D01*
X89433334Y-87383389D02*
X89433334Y-87526246D01*
X89433334Y-87526246D02*
X89385715Y-87716722D01*
X89385715Y-87716722D02*
X89338096Y-87811960D01*
X89338096Y-87811960D02*
X89242858Y-87907199D01*
X89242858Y-87907199D02*
X89100001Y-87954818D01*
X89100001Y-87954818D02*
X88861906Y-87954818D01*
X90385715Y-87954818D02*
X89814287Y-87954818D01*
X90100001Y-87954818D02*
X90100001Y-86954818D01*
X90100001Y-86954818D02*
X90004763Y-87097675D01*
X90004763Y-87097675D02*
X89909525Y-87192913D01*
X89909525Y-87192913D02*
X89814287Y-87240532D01*
X129290476Y-110454819D02*
X129290476Y-109454819D01*
X129290476Y-109454819D02*
X129671428Y-109454819D01*
X129671428Y-109454819D02*
X129766666Y-109502438D01*
X129766666Y-109502438D02*
X129814285Y-109550057D01*
X129814285Y-109550057D02*
X129861904Y-109645295D01*
X129861904Y-109645295D02*
X129861904Y-109788152D01*
X129861904Y-109788152D02*
X129814285Y-109883390D01*
X129814285Y-109883390D02*
X129766666Y-109931009D01*
X129766666Y-109931009D02*
X129671428Y-109978628D01*
X129671428Y-109978628D02*
X129290476Y-109978628D01*
X130195238Y-109454819D02*
X130433333Y-110454819D01*
X130433333Y-110454819D02*
X130623809Y-109740533D01*
X130623809Y-109740533D02*
X130814285Y-110454819D01*
X130814285Y-110454819D02*
X131052381Y-109454819D01*
X132004761Y-110454819D02*
X131671428Y-109978628D01*
X131433333Y-110454819D02*
X131433333Y-109454819D01*
X131433333Y-109454819D02*
X131814285Y-109454819D01*
X131814285Y-109454819D02*
X131909523Y-109502438D01*
X131909523Y-109502438D02*
X131957142Y-109550057D01*
X131957142Y-109550057D02*
X132004761Y-109645295D01*
X132004761Y-109645295D02*
X132004761Y-109788152D01*
X132004761Y-109788152D02*
X131957142Y-109883390D01*
X131957142Y-109883390D02*
X131909523Y-109931009D01*
X131909523Y-109931009D02*
X131814285Y-109978628D01*
X131814285Y-109978628D02*
X131433333Y-109978628D01*
X132861904Y-109788152D02*
X132861904Y-110454819D01*
X132623809Y-109407200D02*
X132385714Y-110121485D01*
X132385714Y-110121485D02*
X133004761Y-110121485D01*
X120015714Y-87607200D02*
X120158571Y-87654819D01*
X120158571Y-87654819D02*
X120396666Y-87654819D01*
X120396666Y-87654819D02*
X120491904Y-87607200D01*
X120491904Y-87607200D02*
X120539523Y-87559580D01*
X120539523Y-87559580D02*
X120587142Y-87464342D01*
X120587142Y-87464342D02*
X120587142Y-87369104D01*
X120587142Y-87369104D02*
X120539523Y-87273866D01*
X120539523Y-87273866D02*
X120491904Y-87226247D01*
X120491904Y-87226247D02*
X120396666Y-87178628D01*
X120396666Y-87178628D02*
X120206190Y-87131009D01*
X120206190Y-87131009D02*
X120110952Y-87083390D01*
X120110952Y-87083390D02*
X120063333Y-87035771D01*
X120063333Y-87035771D02*
X120015714Y-86940533D01*
X120015714Y-86940533D02*
X120015714Y-86845295D01*
X120015714Y-86845295D02*
X120063333Y-86750057D01*
X120063333Y-86750057D02*
X120110952Y-86702438D01*
X120110952Y-86702438D02*
X120206190Y-86654819D01*
X120206190Y-86654819D02*
X120444285Y-86654819D01*
X120444285Y-86654819D02*
X120587142Y-86702438D01*
X120920476Y-86654819D02*
X121158571Y-87654819D01*
X121158571Y-87654819D02*
X121349047Y-86940533D01*
X121349047Y-86940533D02*
X121539523Y-87654819D01*
X121539523Y-87654819D02*
X121777619Y-86654819D01*
X121920476Y-87750057D02*
X122682380Y-87750057D01*
X123491904Y-87559580D02*
X123444285Y-87607200D01*
X123444285Y-87607200D02*
X123301428Y-87654819D01*
X123301428Y-87654819D02*
X123206190Y-87654819D01*
X123206190Y-87654819D02*
X123063333Y-87607200D01*
X123063333Y-87607200D02*
X122968095Y-87511961D01*
X122968095Y-87511961D02*
X122920476Y-87416723D01*
X122920476Y-87416723D02*
X122872857Y-87226247D01*
X122872857Y-87226247D02*
X122872857Y-87083390D01*
X122872857Y-87083390D02*
X122920476Y-86892914D01*
X122920476Y-86892914D02*
X122968095Y-86797676D01*
X122968095Y-86797676D02*
X123063333Y-86702438D01*
X123063333Y-86702438D02*
X123206190Y-86654819D01*
X123206190Y-86654819D02*
X123301428Y-86654819D01*
X123301428Y-86654819D02*
X123444285Y-86702438D01*
X123444285Y-86702438D02*
X123491904Y-86750057D01*
X123872857Y-86750057D02*
X123920476Y-86702438D01*
X123920476Y-86702438D02*
X124015714Y-86654819D01*
X124015714Y-86654819D02*
X124253809Y-86654819D01*
X124253809Y-86654819D02*
X124349047Y-86702438D01*
X124349047Y-86702438D02*
X124396666Y-86750057D01*
X124396666Y-86750057D02*
X124444285Y-86845295D01*
X124444285Y-86845295D02*
X124444285Y-86940533D01*
X124444285Y-86940533D02*
X124396666Y-87083390D01*
X124396666Y-87083390D02*
X123825238Y-87654819D01*
X123825238Y-87654819D02*
X124444285Y-87654819D01*
D11*
X86238095Y-90957419D02*
X86238095Y-91766942D01*
X86238095Y-91766942D02*
X86285714Y-91862180D01*
X86285714Y-91862180D02*
X86333333Y-91909800D01*
X86333333Y-91909800D02*
X86428571Y-91957419D01*
X86428571Y-91957419D02*
X86619047Y-91957419D01*
X86619047Y-91957419D02*
X86714285Y-91909800D01*
X86714285Y-91909800D02*
X86761904Y-91862180D01*
X86761904Y-91862180D02*
X86809523Y-91766942D01*
X86809523Y-91766942D02*
X86809523Y-90957419D01*
X87190476Y-90957419D02*
X87809523Y-90957419D01*
X87809523Y-90957419D02*
X87476190Y-91338371D01*
X87476190Y-91338371D02*
X87619047Y-91338371D01*
X87619047Y-91338371D02*
X87714285Y-91385990D01*
X87714285Y-91385990D02*
X87761904Y-91433609D01*
X87761904Y-91433609D02*
X87809523Y-91528847D01*
X87809523Y-91528847D02*
X87809523Y-91766942D01*
X87809523Y-91766942D02*
X87761904Y-91862180D01*
X87761904Y-91862180D02*
X87714285Y-91909800D01*
X87714285Y-91909800D02*
X87619047Y-91957419D01*
X87619047Y-91957419D02*
X87333333Y-91957419D01*
X87333333Y-91957419D02*
X87238095Y-91909800D01*
X87238095Y-91909800D02*
X87190476Y-91862180D01*
D10*
X70329761Y-87559580D02*
X70282142Y-87607200D01*
X70282142Y-87607200D02*
X70139285Y-87654819D01*
X70139285Y-87654819D02*
X70044047Y-87654819D01*
X70044047Y-87654819D02*
X69901190Y-87607200D01*
X69901190Y-87607200D02*
X69805952Y-87511961D01*
X69805952Y-87511961D02*
X69758333Y-87416723D01*
X69758333Y-87416723D02*
X69710714Y-87226247D01*
X69710714Y-87226247D02*
X69710714Y-87083390D01*
X69710714Y-87083390D02*
X69758333Y-86892914D01*
X69758333Y-86892914D02*
X69805952Y-86797676D01*
X69805952Y-86797676D02*
X69901190Y-86702438D01*
X69901190Y-86702438D02*
X70044047Y-86654819D01*
X70044047Y-86654819D02*
X70139285Y-86654819D01*
X70139285Y-86654819D02*
X70282142Y-86702438D01*
X70282142Y-86702438D02*
X70329761Y-86750057D01*
X70710714Y-87369104D02*
X71186904Y-87369104D01*
X70615476Y-87654819D02*
X70948809Y-86654819D01*
X70948809Y-86654819D02*
X71282142Y-87654819D01*
X72139285Y-87654819D02*
X71567857Y-87654819D01*
X71853571Y-87654819D02*
X71853571Y-86654819D01*
X71853571Y-86654819D02*
X71758333Y-86797676D01*
X71758333Y-86797676D02*
X71663095Y-86892914D01*
X71663095Y-86892914D02*
X71567857Y-86940533D01*
D11*
X112238095Y-90957419D02*
X112238095Y-91766942D01*
X112238095Y-91766942D02*
X112285714Y-91862180D01*
X112285714Y-91862180D02*
X112333333Y-91909800D01*
X112333333Y-91909800D02*
X112428571Y-91957419D01*
X112428571Y-91957419D02*
X112619047Y-91957419D01*
X112619047Y-91957419D02*
X112714285Y-91909800D01*
X112714285Y-91909800D02*
X112761904Y-91862180D01*
X112761904Y-91862180D02*
X112809523Y-91766942D01*
X112809523Y-91766942D02*
X112809523Y-90957419D01*
X113761904Y-90957419D02*
X113285714Y-90957419D01*
X113285714Y-90957419D02*
X113238095Y-91433609D01*
X113238095Y-91433609D02*
X113285714Y-91385990D01*
X113285714Y-91385990D02*
X113380952Y-91338371D01*
X113380952Y-91338371D02*
X113619047Y-91338371D01*
X113619047Y-91338371D02*
X113714285Y-91385990D01*
X113714285Y-91385990D02*
X113761904Y-91433609D01*
X113761904Y-91433609D02*
X113809523Y-91528847D01*
X113809523Y-91528847D02*
X113809523Y-91766942D01*
X113809523Y-91766942D02*
X113761904Y-91862180D01*
X113761904Y-91862180D02*
X113714285Y-91909800D01*
X113714285Y-91909800D02*
X113619047Y-91957419D01*
X113619047Y-91957419D02*
X113380952Y-91957419D01*
X113380952Y-91957419D02*
X113285714Y-91909800D01*
X113285714Y-91909800D02*
X113238095Y-91862180D01*
X144209800Y-92733332D02*
X144257419Y-92590475D01*
X144257419Y-92590475D02*
X144257419Y-92352380D01*
X144257419Y-92352380D02*
X144209800Y-92257142D01*
X144209800Y-92257142D02*
X144162180Y-92209523D01*
X144162180Y-92209523D02*
X144066942Y-92161904D01*
X144066942Y-92161904D02*
X143971704Y-92161904D01*
X143971704Y-92161904D02*
X143876466Y-92209523D01*
X143876466Y-92209523D02*
X143828847Y-92257142D01*
X143828847Y-92257142D02*
X143781228Y-92352380D01*
X143781228Y-92352380D02*
X143733609Y-92542856D01*
X143733609Y-92542856D02*
X143685990Y-92638094D01*
X143685990Y-92638094D02*
X143638371Y-92685713D01*
X143638371Y-92685713D02*
X143543133Y-92733332D01*
X143543133Y-92733332D02*
X143447895Y-92733332D01*
X143447895Y-92733332D02*
X143352657Y-92685713D01*
X143352657Y-92685713D02*
X143305038Y-92638094D01*
X143305038Y-92638094D02*
X143257419Y-92542856D01*
X143257419Y-92542856D02*
X143257419Y-92304761D01*
X143257419Y-92304761D02*
X143305038Y-92161904D01*
X143257419Y-91828570D02*
X144257419Y-91590475D01*
X144257419Y-91590475D02*
X143543133Y-91399999D01*
X143543133Y-91399999D02*
X144257419Y-91209523D01*
X144257419Y-91209523D02*
X143257419Y-90971428D01*
X143352657Y-90638094D02*
X143305038Y-90590475D01*
X143305038Y-90590475D02*
X143257419Y-90495237D01*
X143257419Y-90495237D02*
X143257419Y-90257142D01*
X143257419Y-90257142D02*
X143305038Y-90161904D01*
X143305038Y-90161904D02*
X143352657Y-90114285D01*
X143352657Y-90114285D02*
X143447895Y-90066666D01*
X143447895Y-90066666D02*
X143543133Y-90066666D01*
X143543133Y-90066666D02*
X143685990Y-90114285D01*
X143685990Y-90114285D02*
X144257419Y-90685713D01*
X144257419Y-90685713D02*
X144257419Y-90066666D01*
D10*
X109761905Y-87854819D02*
X109761905Y-86854819D01*
X109761905Y-86854819D02*
X110000000Y-86854819D01*
X110000000Y-86854819D02*
X110142857Y-86902438D01*
X110142857Y-86902438D02*
X110238095Y-86997676D01*
X110238095Y-86997676D02*
X110285714Y-87092914D01*
X110285714Y-87092914D02*
X110333333Y-87283390D01*
X110333333Y-87283390D02*
X110333333Y-87426247D01*
X110333333Y-87426247D02*
X110285714Y-87616723D01*
X110285714Y-87616723D02*
X110238095Y-87711961D01*
X110238095Y-87711961D02*
X110142857Y-87807200D01*
X110142857Y-87807200D02*
X110000000Y-87854819D01*
X110000000Y-87854819D02*
X109761905Y-87854819D01*
X110761905Y-87854819D02*
X110761905Y-86854819D01*
X110761905Y-86854819D02*
X111000000Y-86854819D01*
X111000000Y-86854819D02*
X111142857Y-86902438D01*
X111142857Y-86902438D02*
X111238095Y-86997676D01*
X111238095Y-86997676D02*
X111285714Y-87092914D01*
X111285714Y-87092914D02*
X111333333Y-87283390D01*
X111333333Y-87283390D02*
X111333333Y-87426247D01*
X111333333Y-87426247D02*
X111285714Y-87616723D01*
X111285714Y-87616723D02*
X111238095Y-87711961D01*
X111238095Y-87711961D02*
X111142857Y-87807200D01*
X111142857Y-87807200D02*
X111000000Y-87854819D01*
X111000000Y-87854819D02*
X110761905Y-87854819D01*
X111714286Y-86950057D02*
X111761905Y-86902438D01*
X111761905Y-86902438D02*
X111857143Y-86854819D01*
X111857143Y-86854819D02*
X112095238Y-86854819D01*
X112095238Y-86854819D02*
X112190476Y-86902438D01*
X112190476Y-86902438D02*
X112238095Y-86950057D01*
X112238095Y-86950057D02*
X112285714Y-87045295D01*
X112285714Y-87045295D02*
X112285714Y-87140533D01*
X112285714Y-87140533D02*
X112238095Y-87283390D01*
X112238095Y-87283390D02*
X111666667Y-87854819D01*
X111666667Y-87854819D02*
X112285714Y-87854819D01*
X68138095Y-96854819D02*
X68138095Y-97664342D01*
X68138095Y-97664342D02*
X68185714Y-97759580D01*
X68185714Y-97759580D02*
X68233333Y-97807200D01*
X68233333Y-97807200D02*
X68328571Y-97854819D01*
X68328571Y-97854819D02*
X68519047Y-97854819D01*
X68519047Y-97854819D02*
X68614285Y-97807200D01*
X68614285Y-97807200D02*
X68661904Y-97759580D01*
X68661904Y-97759580D02*
X68709523Y-97664342D01*
X68709523Y-97664342D02*
X68709523Y-96854819D01*
X69138095Y-96950057D02*
X69185714Y-96902438D01*
X69185714Y-96902438D02*
X69280952Y-96854819D01*
X69280952Y-96854819D02*
X69519047Y-96854819D01*
X69519047Y-96854819D02*
X69614285Y-96902438D01*
X69614285Y-96902438D02*
X69661904Y-96950057D01*
X69661904Y-96950057D02*
X69709523Y-97045295D01*
X69709523Y-97045295D02*
X69709523Y-97140533D01*
X69709523Y-97140533D02*
X69661904Y-97283390D01*
X69661904Y-97283390D02*
X69090476Y-97854819D01*
X69090476Y-97854819D02*
X69709523Y-97854819D01*
D11*
X55585200Y-89166667D02*
X55537580Y-89309524D01*
X55537580Y-89309524D02*
X55537580Y-89547619D01*
X55537580Y-89547619D02*
X55585200Y-89642857D01*
X55585200Y-89642857D02*
X55632819Y-89690476D01*
X55632819Y-89690476D02*
X55728057Y-89738095D01*
X55728057Y-89738095D02*
X55823295Y-89738095D01*
X55823295Y-89738095D02*
X55918533Y-89690476D01*
X55918533Y-89690476D02*
X55966152Y-89642857D01*
X55966152Y-89642857D02*
X56013771Y-89547619D01*
X56013771Y-89547619D02*
X56061390Y-89357143D01*
X56061390Y-89357143D02*
X56109009Y-89261905D01*
X56109009Y-89261905D02*
X56156628Y-89214286D01*
X56156628Y-89214286D02*
X56251866Y-89166667D01*
X56251866Y-89166667D02*
X56347104Y-89166667D01*
X56347104Y-89166667D02*
X56442342Y-89214286D01*
X56442342Y-89214286D02*
X56489961Y-89261905D01*
X56489961Y-89261905D02*
X56537580Y-89357143D01*
X56537580Y-89357143D02*
X56537580Y-89595238D01*
X56537580Y-89595238D02*
X56489961Y-89738095D01*
X56537580Y-90071429D02*
X55537580Y-90309524D01*
X55537580Y-90309524D02*
X56251866Y-90500000D01*
X56251866Y-90500000D02*
X55537580Y-90690476D01*
X55537580Y-90690476D02*
X56537580Y-90928572D01*
X55537580Y-91833333D02*
X55537580Y-91261905D01*
X55537580Y-91547619D02*
X56537580Y-91547619D01*
X56537580Y-91547619D02*
X56394723Y-91452381D01*
X56394723Y-91452381D02*
X56299485Y-91357143D01*
X56299485Y-91357143D02*
X56251866Y-91261905D01*
D10*
X106919047Y-88931009D02*
X107061904Y-88978628D01*
X107061904Y-88978628D02*
X107109523Y-89026247D01*
X107109523Y-89026247D02*
X107157142Y-89121485D01*
X107157142Y-89121485D02*
X107157142Y-89264342D01*
X107157142Y-89264342D02*
X107109523Y-89359580D01*
X107109523Y-89359580D02*
X107061904Y-89407200D01*
X107061904Y-89407200D02*
X106966666Y-89454819D01*
X106966666Y-89454819D02*
X106585714Y-89454819D01*
X106585714Y-89454819D02*
X106585714Y-88454819D01*
X106585714Y-88454819D02*
X106919047Y-88454819D01*
X106919047Y-88454819D02*
X107014285Y-88502438D01*
X107014285Y-88502438D02*
X107061904Y-88550057D01*
X107061904Y-88550057D02*
X107109523Y-88645295D01*
X107109523Y-88645295D02*
X107109523Y-88740533D01*
X107109523Y-88740533D02*
X107061904Y-88835771D01*
X107061904Y-88835771D02*
X107014285Y-88883390D01*
X107014285Y-88883390D02*
X106919047Y-88931009D01*
X106919047Y-88931009D02*
X106585714Y-88931009D01*
X107490476Y-88454819D02*
X108157142Y-88454819D01*
X108157142Y-88454819D02*
X107490476Y-89454819D01*
X107490476Y-89454819D02*
X108157142Y-89454819D01*
X109061904Y-89454819D02*
X108490476Y-89454819D01*
X108776190Y-89454819D02*
X108776190Y-88454819D01*
X108776190Y-88454819D02*
X108680952Y-88597676D01*
X108680952Y-88597676D02*
X108585714Y-88692914D01*
X108585714Y-88692914D02*
X108490476Y-88740533D01*
X61590476Y-87654819D02*
X61590476Y-86654819D01*
X61590476Y-86654819D02*
X61971428Y-86654819D01*
X61971428Y-86654819D02*
X62066666Y-86702438D01*
X62066666Y-86702438D02*
X62114285Y-86750057D01*
X62114285Y-86750057D02*
X62161904Y-86845295D01*
X62161904Y-86845295D02*
X62161904Y-86988152D01*
X62161904Y-86988152D02*
X62114285Y-87083390D01*
X62114285Y-87083390D02*
X62066666Y-87131009D01*
X62066666Y-87131009D02*
X61971428Y-87178628D01*
X61971428Y-87178628D02*
X61590476Y-87178628D01*
X62495238Y-86654819D02*
X62733333Y-87654819D01*
X62733333Y-87654819D02*
X62923809Y-86940533D01*
X62923809Y-86940533D02*
X63114285Y-87654819D01*
X63114285Y-87654819D02*
X63352381Y-86654819D01*
X64304761Y-87654819D02*
X63971428Y-87178628D01*
X63733333Y-87654819D02*
X63733333Y-86654819D01*
X63733333Y-86654819D02*
X64114285Y-86654819D01*
X64114285Y-86654819D02*
X64209523Y-86702438D01*
X64209523Y-86702438D02*
X64257142Y-86750057D01*
X64257142Y-86750057D02*
X64304761Y-86845295D01*
X64304761Y-86845295D02*
X64304761Y-86988152D01*
X64304761Y-86988152D02*
X64257142Y-87083390D01*
X64257142Y-87083390D02*
X64209523Y-87131009D01*
X64209523Y-87131009D02*
X64114285Y-87178628D01*
X64114285Y-87178628D02*
X63733333Y-87178628D01*
X65257142Y-87654819D02*
X64685714Y-87654819D01*
X64971428Y-87654819D02*
X64971428Y-86654819D01*
X64971428Y-86654819D02*
X64876190Y-86797676D01*
X64876190Y-86797676D02*
X64780952Y-86892914D01*
X64780952Y-86892914D02*
X64685714Y-86940533D01*
X128479761Y-87559580D02*
X128432142Y-87607200D01*
X128432142Y-87607200D02*
X128289285Y-87654819D01*
X128289285Y-87654819D02*
X128194047Y-87654819D01*
X128194047Y-87654819D02*
X128051190Y-87607200D01*
X128051190Y-87607200D02*
X127955952Y-87511961D01*
X127955952Y-87511961D02*
X127908333Y-87416723D01*
X127908333Y-87416723D02*
X127860714Y-87226247D01*
X127860714Y-87226247D02*
X127860714Y-87083390D01*
X127860714Y-87083390D02*
X127908333Y-86892914D01*
X127908333Y-86892914D02*
X127955952Y-86797676D01*
X127955952Y-86797676D02*
X128051190Y-86702438D01*
X128051190Y-86702438D02*
X128194047Y-86654819D01*
X128194047Y-86654819D02*
X128289285Y-86654819D01*
X128289285Y-86654819D02*
X128432142Y-86702438D01*
X128432142Y-86702438D02*
X128479761Y-86750057D01*
X128860714Y-87369104D02*
X129336904Y-87369104D01*
X128765476Y-87654819D02*
X129098809Y-86654819D01*
X129098809Y-86654819D02*
X129432142Y-87654819D01*
X129717857Y-86750057D02*
X129765476Y-86702438D01*
X129765476Y-86702438D02*
X129860714Y-86654819D01*
X129860714Y-86654819D02*
X130098809Y-86654819D01*
X130098809Y-86654819D02*
X130194047Y-86702438D01*
X130194047Y-86702438D02*
X130241666Y-86750057D01*
X130241666Y-86750057D02*
X130289285Y-86845295D01*
X130289285Y-86845295D02*
X130289285Y-86940533D01*
X130289285Y-86940533D02*
X130241666Y-87083390D01*
X130241666Y-87083390D02*
X129670238Y-87654819D01*
X129670238Y-87654819D02*
X130289285Y-87654819D01*
X130318095Y-96854819D02*
X130318095Y-97664342D01*
X130318095Y-97664342D02*
X130365714Y-97759580D01*
X130365714Y-97759580D02*
X130413333Y-97807200D01*
X130413333Y-97807200D02*
X130508571Y-97854819D01*
X130508571Y-97854819D02*
X130699047Y-97854819D01*
X130699047Y-97854819D02*
X130794285Y-97807200D01*
X130794285Y-97807200D02*
X130841904Y-97759580D01*
X130841904Y-97759580D02*
X130889523Y-97664342D01*
X130889523Y-97664342D02*
X130889523Y-96854819D01*
X131794285Y-97188152D02*
X131794285Y-97854819D01*
X131556190Y-96807200D02*
X131318095Y-97521485D01*
X131318095Y-97521485D02*
X131937142Y-97521485D01*
X135090476Y-87654819D02*
X135090476Y-86654819D01*
X135090476Y-86654819D02*
X135471428Y-86654819D01*
X135471428Y-86654819D02*
X135566666Y-86702438D01*
X135566666Y-86702438D02*
X135614285Y-86750057D01*
X135614285Y-86750057D02*
X135661904Y-86845295D01*
X135661904Y-86845295D02*
X135661904Y-86988152D01*
X135661904Y-86988152D02*
X135614285Y-87083390D01*
X135614285Y-87083390D02*
X135566666Y-87131009D01*
X135566666Y-87131009D02*
X135471428Y-87178628D01*
X135471428Y-87178628D02*
X135090476Y-87178628D01*
X135995238Y-86654819D02*
X136233333Y-87654819D01*
X136233333Y-87654819D02*
X136423809Y-86940533D01*
X136423809Y-86940533D02*
X136614285Y-87654819D01*
X136614285Y-87654819D02*
X136852381Y-86654819D01*
X137804761Y-87654819D02*
X137471428Y-87178628D01*
X137233333Y-87654819D02*
X137233333Y-86654819D01*
X137233333Y-86654819D02*
X137614285Y-86654819D01*
X137614285Y-86654819D02*
X137709523Y-86702438D01*
X137709523Y-86702438D02*
X137757142Y-86750057D01*
X137757142Y-86750057D02*
X137804761Y-86845295D01*
X137804761Y-86845295D02*
X137804761Y-86988152D01*
X137804761Y-86988152D02*
X137757142Y-87083390D01*
X137757142Y-87083390D02*
X137709523Y-87131009D01*
X137709523Y-87131009D02*
X137614285Y-87178628D01*
X137614285Y-87178628D02*
X137233333Y-87178628D01*
X138185714Y-86750057D02*
X138233333Y-86702438D01*
X138233333Y-86702438D02*
X138328571Y-86654819D01*
X138328571Y-86654819D02*
X138566666Y-86654819D01*
X138566666Y-86654819D02*
X138661904Y-86702438D01*
X138661904Y-86702438D02*
X138709523Y-86750057D01*
X138709523Y-86750057D02*
X138757142Y-86845295D01*
X138757142Y-86845295D02*
X138757142Y-86940533D01*
X138757142Y-86940533D02*
X138709523Y-87083390D01*
X138709523Y-87083390D02*
X138138095Y-87654819D01*
X138138095Y-87654819D02*
X138757142Y-87654819D01*
D12*
%TO.C,PWR3*%
X60640000Y-111110000D02*
X60640000Y-110000000D01*
X61400000Y-111110000D02*
X60640000Y-111110000D01*
X62160000Y-108890000D02*
X65905000Y-108890000D01*
X62160000Y-109436529D02*
X62160000Y-108890000D01*
X62160000Y-111110000D02*
X62160000Y-110563471D01*
X62160000Y-111110000D02*
X65905000Y-111110000D01*
X65905000Y-109692470D02*
X65905000Y-108890000D01*
X65905000Y-111110000D02*
X65905000Y-110307530D01*
D13*
%TO.C,G\u002A\u002A\u002A*%
G36*
X112440653Y-109887744D02*
G01*
X112444864Y-109898735D01*
X112440996Y-109916059D01*
X112427232Y-109923225D01*
X112413182Y-109919250D01*
X112405043Y-109906481D01*
X112408147Y-109891348D01*
X112420053Y-109881493D01*
X112425483Y-109880702D01*
X112440653Y-109887744D01*
G37*
G36*
X112597519Y-110216640D02*
G01*
X112597513Y-110230121D01*
X112588570Y-110244123D01*
X112573636Y-110249362D01*
X112562537Y-110244864D01*
X112556556Y-110228979D01*
X112561467Y-110211878D01*
X112570716Y-110204142D01*
X112588124Y-110203997D01*
X112597519Y-110216640D01*
G37*
G36*
X112687368Y-109942082D02*
G01*
X112698412Y-109954311D01*
X112699152Y-109966573D01*
X112690221Y-109980703D01*
X112675317Y-109986031D01*
X112664137Y-109981520D01*
X112658328Y-109966618D01*
X112661501Y-109949938D01*
X112669551Y-109941862D01*
X112687368Y-109942082D01*
G37*
G36*
X112795143Y-110027448D02*
G01*
X112799998Y-110042624D01*
X112793577Y-110059205D01*
X112778481Y-110070878D01*
X112766712Y-110066319D01*
X112762862Y-110059097D01*
X112761357Y-110039401D01*
X112770077Y-110024692D01*
X112780967Y-110020870D01*
X112795143Y-110027448D01*
G37*
G36*
X113313901Y-110205426D02*
G01*
X113324945Y-110217655D01*
X113325686Y-110229917D01*
X113316754Y-110244047D01*
X113301850Y-110249375D01*
X113290670Y-110244864D01*
X113284861Y-110229963D01*
X113288034Y-110213283D01*
X113296084Y-110205207D01*
X113313901Y-110205426D01*
G37*
G36*
X113350324Y-110149907D02*
G01*
X113362585Y-110159985D01*
X113365167Y-110173188D01*
X113360683Y-110191843D01*
X113349510Y-110196626D01*
X113335857Y-110186913D01*
X113329218Y-110170205D01*
X113333642Y-110155655D01*
X113346677Y-110149528D01*
X113350324Y-110149907D01*
G37*
G36*
X113449368Y-110213921D02*
G01*
X113460412Y-110226150D01*
X113461152Y-110238412D01*
X113452221Y-110252542D01*
X113437317Y-110257870D01*
X113426137Y-110253359D01*
X113420328Y-110238458D01*
X113423501Y-110221778D01*
X113431551Y-110213702D01*
X113449368Y-110213921D01*
G37*
G36*
X113892514Y-110290900D02*
G01*
X113899251Y-110306331D01*
X113893443Y-110323518D01*
X113879789Y-110334267D01*
X113866709Y-110329169D01*
X113860556Y-110322550D01*
X113853947Y-110304944D01*
X113860364Y-110290086D01*
X113876228Y-110284214D01*
X113892514Y-110290900D01*
G37*
G36*
X114110996Y-110255483D02*
G01*
X114114467Y-110271472D01*
X114110543Y-110288078D01*
X114097268Y-110292709D01*
X114081062Y-110287356D01*
X114075351Y-110280373D01*
X114075041Y-110262008D01*
X114088419Y-110251465D01*
X114098033Y-110250234D01*
X114110996Y-110255483D01*
G37*
G36*
X114463241Y-110321422D02*
G01*
X114465833Y-110335184D01*
X114460599Y-110351790D01*
X114448811Y-110359652D01*
X114436344Y-110356514D01*
X114431035Y-110348554D01*
X114429143Y-110328805D01*
X114437215Y-110314591D01*
X114450991Y-110311311D01*
X114463241Y-110321422D01*
G37*
G36*
X114654514Y-110290900D02*
G01*
X114661251Y-110306331D01*
X114655443Y-110323518D01*
X114641789Y-110334267D01*
X114628709Y-110329169D01*
X114622556Y-110322550D01*
X114615947Y-110304944D01*
X114622364Y-110290086D01*
X114638228Y-110284214D01*
X114654514Y-110290900D01*
G37*
G36*
X115131246Y-110293689D02*
G01*
X115134700Y-110308991D01*
X115130199Y-110327994D01*
X115117618Y-110332525D01*
X115106350Y-110327657D01*
X115097683Y-110314374D01*
X115100547Y-110298969D01*
X115112670Y-110289159D01*
X115117883Y-110288462D01*
X115131246Y-110293689D01*
G37*
G36*
X115132108Y-110193998D02*
G01*
X115134700Y-110207759D01*
X115129466Y-110224365D01*
X115117678Y-110232227D01*
X115105211Y-110229090D01*
X115099902Y-110221130D01*
X115098010Y-110201380D01*
X115106082Y-110187166D01*
X115119858Y-110183887D01*
X115132108Y-110193998D01*
G37*
G36*
X115199743Y-110251933D02*
G01*
X115202136Y-110266234D01*
X115194069Y-110278824D01*
X115184461Y-110282539D01*
X115168230Y-110279823D01*
X115161961Y-110273274D01*
X115161975Y-110255142D01*
X115173989Y-110243933D01*
X115186515Y-110243143D01*
X115199743Y-110251933D01*
G37*
G36*
X115362834Y-110086497D02*
G01*
X115373879Y-110098725D01*
X115374619Y-110110987D01*
X115365688Y-110125117D01*
X115350783Y-110130446D01*
X115339604Y-110125935D01*
X115333795Y-110111033D01*
X115336968Y-110094353D01*
X115345018Y-110086277D01*
X115362834Y-110086497D01*
G37*
G36*
X115608368Y-110078002D02*
G01*
X115619412Y-110090230D01*
X115620153Y-110102492D01*
X115611221Y-110116622D01*
X115596317Y-110121951D01*
X115585137Y-110117440D01*
X115579328Y-110102538D01*
X115582501Y-110085858D01*
X115590551Y-110077782D01*
X115608368Y-110078002D01*
G37*
G36*
X115615653Y-110023663D02*
G01*
X115619864Y-110034655D01*
X115615996Y-110051979D01*
X115602233Y-110059144D01*
X115588183Y-110055169D01*
X115580043Y-110042401D01*
X115583147Y-110027267D01*
X115595053Y-110017413D01*
X115600483Y-110016622D01*
X115615653Y-110023663D01*
G37*
G36*
X115689942Y-110018810D02*
G01*
X115695787Y-110033945D01*
X115689177Y-110050710D01*
X115675074Y-110062276D01*
X115662184Y-110057944D01*
X115656291Y-110051679D01*
X115650485Y-110034435D01*
X115657258Y-110019021D01*
X115673505Y-110012375D01*
X115689942Y-110018810D01*
G37*
G36*
X115770462Y-110000634D02*
G01*
X115773933Y-110016622D01*
X115770010Y-110033228D01*
X115756734Y-110037860D01*
X115740529Y-110032506D01*
X115734817Y-110025524D01*
X115734508Y-110007159D01*
X115747886Y-109996616D01*
X115757500Y-109995385D01*
X115770462Y-110000634D01*
G37*
G36*
X114025428Y-110094110D02*
G01*
X114033866Y-110107627D01*
X114034033Y-110110183D01*
X114027496Y-110124200D01*
X114012871Y-110130382D01*
X113997642Y-110127284D01*
X113990538Y-110118587D01*
X113990287Y-110102176D01*
X113993910Y-110095957D01*
X114009615Y-110089336D01*
X114025428Y-110094110D01*
G37*
G36*
X114035312Y-110161007D02*
G01*
X114041740Y-110170609D01*
X114041361Y-110186904D01*
X114032531Y-110202048D01*
X114021333Y-110207759D01*
X114011220Y-110201992D01*
X114004400Y-110195017D01*
X113998128Y-110181420D01*
X114004400Y-110169532D01*
X114020707Y-110157930D01*
X114035312Y-110161007D01*
G37*
G36*
X114892285Y-110248407D02*
G01*
X114897483Y-110265025D01*
X114895681Y-110273595D01*
X114885258Y-110282645D01*
X114869167Y-110283065D01*
X114856105Y-110275216D01*
X114854284Y-110271878D01*
X114854017Y-110253441D01*
X114867303Y-110242857D01*
X114876060Y-110241739D01*
X114892285Y-110248407D01*
G37*
G36*
X114552701Y-110159983D02*
G01*
X114560180Y-110169640D01*
X114559286Y-110185161D01*
X114550185Y-110200681D01*
X114537833Y-110207759D01*
X114537800Y-110207759D01*
X114527686Y-110201992D01*
X114520867Y-110195017D01*
X114514595Y-110181420D01*
X114520867Y-110169532D01*
X114537223Y-110158132D01*
X114552701Y-110159983D01*
G37*
G36*
X114656395Y-110197371D02*
G01*
X114668125Y-110209883D01*
X114672228Y-110229339D01*
X114662351Y-110246276D01*
X114641353Y-110256390D01*
X114636725Y-110257141D01*
X114619120Y-110255663D01*
X114610395Y-110242519D01*
X114609116Y-110237917D01*
X114609459Y-110214498D01*
X114620566Y-110198455D01*
X114637767Y-110192007D01*
X114656395Y-110197371D01*
G37*
G36*
X112259401Y-109914791D02*
G01*
X112265889Y-109920931D01*
X112275089Y-109934037D01*
X112270839Y-109946031D01*
X112269086Y-109948236D01*
X112257279Y-109959119D01*
X112251800Y-109961405D01*
X112241738Y-109955628D01*
X112234514Y-109948236D01*
X112228313Y-109935726D01*
X112235422Y-109923292D01*
X112237711Y-109920931D01*
X112249613Y-109911407D01*
X112259401Y-109914791D01*
G37*
G36*
X114139001Y-110178136D02*
G01*
X114145489Y-110184275D01*
X114154689Y-110197381D01*
X114150439Y-110209375D01*
X114148686Y-110211580D01*
X114136879Y-110222463D01*
X114131400Y-110224749D01*
X114121338Y-110218972D01*
X114114114Y-110211580D01*
X114107913Y-110199071D01*
X114115022Y-110186637D01*
X114117311Y-110184275D01*
X114129213Y-110174751D01*
X114139001Y-110178136D01*
G37*
G36*
X113944642Y-110212411D02*
G01*
X113965025Y-110227356D01*
X113969763Y-110234389D01*
X113977462Y-110252141D01*
X113975007Y-110266616D01*
X113967718Y-110278988D01*
X113947888Y-110296982D01*
X113924482Y-110300150D01*
X113902144Y-110288035D01*
X113899879Y-110285669D01*
X113887337Y-110261229D01*
X113889602Y-110235770D01*
X113899631Y-110220647D01*
X113920850Y-110209784D01*
X113944642Y-110212411D01*
G37*
G36*
X112485799Y-109976304D02*
G01*
X112497930Y-109990535D01*
X112505375Y-110005114D01*
X112505800Y-110008127D01*
X112499316Y-110024402D01*
X112484621Y-110039602D01*
X112468852Y-110046354D01*
X112468789Y-110046355D01*
X112454074Y-110040850D01*
X112448227Y-110036161D01*
X112439132Y-110016956D01*
X112442054Y-109995412D01*
X112454505Y-109977682D01*
X112474001Y-109969916D01*
X112475005Y-109969900D01*
X112485799Y-109976304D01*
G37*
G36*
X112909381Y-108932352D02*
G01*
X112967013Y-108954240D01*
X113025204Y-108991447D01*
X113059645Y-109020007D01*
X113092513Y-109053103D01*
X113130956Y-109097924D01*
X113172491Y-109151251D01*
X113214638Y-109209866D01*
X113254914Y-109270549D01*
X113264197Y-109285337D01*
X113282914Y-109315462D01*
X113298332Y-109340173D01*
X113308202Y-109355873D01*
X113310372Y-109359244D01*
X113319763Y-109360080D01*
X113343074Y-109358296D01*
X113377546Y-109354212D01*
X113420422Y-109348150D01*
X113462808Y-109341454D01*
X113598650Y-109320401D01*
X113721984Y-109304334D01*
X113836363Y-109292849D01*
X113945338Y-109285543D01*
X113963151Y-109284707D01*
X114087002Y-109279243D01*
X114102348Y-109302741D01*
X114112149Y-109320761D01*
X114111820Y-109334881D01*
X114105196Y-109348621D01*
X114099661Y-109357510D01*
X114092717Y-109363838D01*
X114081470Y-109368236D01*
X114063026Y-109371335D01*
X114034488Y-109373768D01*
X113992964Y-109376164D01*
X113974466Y-109377130D01*
X113916304Y-109380589D01*
X113858579Y-109385029D01*
X113799058Y-109390735D01*
X113735507Y-109397991D01*
X113665691Y-109407083D01*
X113587376Y-109418296D01*
X113498328Y-109431914D01*
X113396312Y-109448224D01*
X113322833Y-109460264D01*
X113243976Y-109473244D01*
X113162511Y-109486588D01*
X113081898Y-109499733D01*
X113005597Y-109512118D01*
X112937068Y-109523180D01*
X112879769Y-109532357D01*
X112852933Y-109536613D01*
X112743993Y-109554419D01*
X112646562Y-109571825D01*
X112555279Y-109589918D01*
X112464787Y-109609787D01*
X112369724Y-109632520D01*
X112323767Y-109644040D01*
X112230476Y-109668901D01*
X112153367Y-109692319D01*
X112091807Y-109714864D01*
X112045164Y-109737105D01*
X112012806Y-109759613D01*
X111994100Y-109782955D01*
X111988414Y-109807702D01*
X111995115Y-109834423D01*
X112013571Y-109863687D01*
X112043149Y-109896064D01*
X112043483Y-109896390D01*
X112082972Y-109929472D01*
X112131689Y-109960145D01*
X112191177Y-109989078D01*
X112262983Y-110016942D01*
X112348652Y-110044409D01*
X112446533Y-110071325D01*
X112495066Y-110084144D01*
X112529756Y-110094226D01*
X112553267Y-110102626D01*
X112568264Y-110110396D01*
X112577411Y-110118590D01*
X112581496Y-110124669D01*
X112588961Y-110142045D01*
X112586244Y-110156619D01*
X112579184Y-110168553D01*
X112561892Y-110185518D01*
X112545821Y-110190644D01*
X112531393Y-110188274D01*
X112504071Y-110181822D01*
X112467162Y-110172140D01*
X112423978Y-110160079D01*
X112399985Y-110153106D01*
X112356367Y-110140510D01*
X112318791Y-110130145D01*
X112290095Y-110122755D01*
X112273117Y-110119084D01*
X112269749Y-110118958D01*
X112272507Y-110127288D01*
X112283156Y-110147062D01*
X112300053Y-110175684D01*
X112321552Y-110210560D01*
X112346009Y-110249095D01*
X112371779Y-110288693D01*
X112397217Y-110326760D01*
X112420678Y-110360699D01*
X112438652Y-110385450D01*
X112472552Y-110427644D01*
X112509974Y-110469465D01*
X112548115Y-110508188D01*
X112584169Y-110541084D01*
X112615332Y-110565426D01*
X112636099Y-110577447D01*
X112681848Y-110589529D01*
X112730770Y-110588290D01*
X112783663Y-110573375D01*
X112841327Y-110544433D01*
X112904561Y-110501110D01*
X112974165Y-110443054D01*
X113005075Y-110414585D01*
X113074602Y-110348960D01*
X112970118Y-110321380D01*
X112911769Y-110305234D01*
X112854388Y-110288003D01*
X112801017Y-110270716D01*
X112754698Y-110254403D01*
X112718472Y-110240092D01*
X112695381Y-110228811D01*
X112694183Y-110228064D01*
X112679547Y-110210466D01*
X112674318Y-110186820D01*
X112678640Y-110163774D01*
X112692459Y-110148083D01*
X112703643Y-110144886D01*
X112720014Y-110146072D01*
X112744701Y-110152290D01*
X112780836Y-110164189D01*
X112796039Y-110169556D01*
X112913936Y-110207961D01*
X113039381Y-110241533D01*
X113174301Y-110270654D01*
X113320623Y-110295709D01*
X113480274Y-110317080D01*
X113606467Y-110330585D01*
X113635799Y-110333242D01*
X113677953Y-110336792D01*
X113730877Y-110341082D01*
X113792519Y-110345958D01*
X113860829Y-110351267D01*
X113933755Y-110356856D01*
X114009246Y-110362573D01*
X114085251Y-110368263D01*
X114159718Y-110373774D01*
X114230596Y-110378953D01*
X114295834Y-110383646D01*
X114353381Y-110387700D01*
X114401185Y-110390962D01*
X114437196Y-110393280D01*
X114459361Y-110394499D01*
X114464484Y-110394649D01*
X114475780Y-110387447D01*
X114480061Y-110376403D01*
X114489199Y-110355021D01*
X114505197Y-110345516D01*
X114523126Y-110347567D01*
X114538061Y-110360848D01*
X114544712Y-110380639D01*
X114547391Y-110403144D01*
X114681390Y-110403144D01*
X114733183Y-110402900D01*
X114770408Y-110402022D01*
X114795429Y-110400295D01*
X114810606Y-110397502D01*
X114818301Y-110393426D01*
X114820262Y-110390401D01*
X114831725Y-110379098D01*
X114838367Y-110377659D01*
X114852733Y-110384536D01*
X114856471Y-110390401D01*
X114866829Y-110396087D01*
X114890724Y-110400159D01*
X114924834Y-110402619D01*
X114965840Y-110403466D01*
X115010420Y-110402701D01*
X115055256Y-110400323D01*
X115097025Y-110396334D01*
X115132409Y-110390733D01*
X115134078Y-110390384D01*
X115186171Y-110377939D01*
X115224948Y-110365719D01*
X115249405Y-110354147D01*
X115258538Y-110343643D01*
X115256917Y-110338767D01*
X115249412Y-110317908D01*
X115253801Y-110293810D01*
X115268278Y-110273216D01*
X115275938Y-110267774D01*
X115293285Y-110259902D01*
X115305525Y-110262365D01*
X115316155Y-110270946D01*
X115329355Y-110289300D01*
X115333667Y-110305321D01*
X115334710Y-110315679D01*
X115340548Y-110320123D01*
X115355245Y-110319548D01*
X115379631Y-110315436D01*
X115425596Y-110307077D01*
X115420885Y-110250694D01*
X115419918Y-110200253D01*
X115426423Y-110150641D01*
X115441384Y-110097359D01*
X115465786Y-110035906D01*
X115469888Y-110026670D01*
X115495680Y-109964631D01*
X115511385Y-109913581D01*
X115516703Y-109870648D01*
X115511338Y-109832960D01*
X115494991Y-109797642D01*
X115467365Y-109761823D01*
X115439477Y-109733297D01*
X115406388Y-109700164D01*
X115383981Y-109672828D01*
X115369784Y-109646392D01*
X115361321Y-109615955D01*
X115356119Y-109576621D01*
X115355176Y-109566388D01*
X115350772Y-109531482D01*
X115344587Y-109501078D01*
X115337831Y-109480891D01*
X115336641Y-109478773D01*
X115313312Y-109453619D01*
X115276417Y-109427657D01*
X115229171Y-109402360D01*
X115174789Y-109379201D01*
X115116484Y-109359653D01*
X115057471Y-109345189D01*
X115037333Y-109341614D01*
X114982095Y-109335824D01*
X114912933Y-109333422D01*
X114832503Y-109334355D01*
X114743465Y-109338572D01*
X114648475Y-109346023D01*
X114609767Y-109349859D01*
X114550708Y-109355785D01*
X114489307Y-109361473D01*
X114430710Y-109366478D01*
X114380062Y-109370354D01*
X114351225Y-109372207D01*
X114308256Y-109374309D01*
X114278875Y-109374752D01*
X114259796Y-109373268D01*
X114247731Y-109369592D01*
X114239392Y-109363457D01*
X114239042Y-109363109D01*
X114228143Y-109343662D01*
X114224919Y-109319731D01*
X114229799Y-109298999D01*
X114235117Y-109292463D01*
X114247197Y-109288875D01*
X114272644Y-109285089D01*
X114307901Y-109281522D01*
X114349411Y-109278594D01*
X114355767Y-109278246D01*
X114408558Y-109274881D01*
X114470364Y-109270039D01*
X114533398Y-109264375D01*
X114588600Y-109258685D01*
X114642801Y-109253744D01*
X114708136Y-109249577D01*
X114778809Y-109246468D01*
X114849029Y-109244699D01*
X114880700Y-109244410D01*
X114960711Y-109245157D01*
X115027344Y-109248304D01*
X115084056Y-109254402D01*
X115134300Y-109264005D01*
X115181534Y-109277665D01*
X115229212Y-109295934D01*
X115244492Y-109302561D01*
X115287872Y-109324789D01*
X115331570Y-109352306D01*
X115371471Y-109382074D01*
X115403460Y-109411055D01*
X115421791Y-109433482D01*
X115431006Y-109446785D01*
X115441458Y-109457081D01*
X115456310Y-109465969D01*
X115478723Y-109475045D01*
X115511858Y-109485905D01*
X115546376Y-109496400D01*
X115612107Y-109515782D01*
X115665243Y-109530386D01*
X115709254Y-109540805D01*
X115747608Y-109547634D01*
X115783776Y-109551466D01*
X115821227Y-109552895D01*
X115863430Y-109552514D01*
X115872866Y-109552270D01*
X115916463Y-109550874D01*
X115946633Y-109549073D01*
X115966875Y-109546145D01*
X115980694Y-109541369D01*
X115991590Y-109534026D01*
X116000329Y-109526037D01*
X116023489Y-109509142D01*
X116050369Y-109502972D01*
X116060703Y-109502676D01*
X116088152Y-109505033D01*
X116111214Y-109510885D01*
X116115273Y-109512756D01*
X116134475Y-109517902D01*
X116166365Y-109520576D01*
X116202947Y-109520553D01*
X116237671Y-109519835D01*
X116259366Y-109520976D01*
X116271899Y-109524710D01*
X116279138Y-109531770D01*
X116281263Y-109535399D01*
X116289855Y-109564122D01*
X116283179Y-109587288D01*
X116262329Y-109603708D01*
X116228400Y-109612195D01*
X116209628Y-109613110D01*
X116181269Y-109614160D01*
X116162285Y-109619464D01*
X116145145Y-109632257D01*
X116130505Y-109647090D01*
X116108802Y-109667729D01*
X116090504Y-109677924D01*
X116069106Y-109681012D01*
X116064253Y-109681070D01*
X116027192Y-109674301D01*
X116007504Y-109663145D01*
X115996387Y-109655563D01*
X115983572Y-109650544D01*
X115965599Y-109647636D01*
X115939011Y-109646387D01*
X115900347Y-109646345D01*
X115880633Y-109646566D01*
X115817860Y-109645627D01*
X115757832Y-109640637D01*
X115696242Y-109630880D01*
X115628787Y-109615640D01*
X115551162Y-109594202D01*
X115532764Y-109588725D01*
X115497633Y-109578468D01*
X115469103Y-109570726D01*
X115450665Y-109566411D01*
X115445568Y-109565963D01*
X115444103Y-109578918D01*
X115454078Y-109601319D01*
X115474317Y-109631285D01*
X115503641Y-109666933D01*
X115519951Y-109684821D01*
X115552336Y-109721441D01*
X115577526Y-109754212D01*
X115593185Y-109779999D01*
X115596016Y-109786902D01*
X115604264Y-109835798D01*
X115600791Y-109895463D01*
X115585773Y-109964580D01*
X115563272Y-110031848D01*
X115547624Y-110074255D01*
X115538248Y-110103987D01*
X115534460Y-110123862D01*
X115535576Y-110136696D01*
X115536995Y-110140041D01*
X115540745Y-110155262D01*
X115531159Y-110169065D01*
X115528635Y-110171301D01*
X115514086Y-110187137D01*
X115513418Y-110196534D01*
X115524770Y-110199312D01*
X115546280Y-110195288D01*
X115576087Y-110184281D01*
X115590964Y-110177370D01*
X115615360Y-110163213D01*
X115648242Y-110141156D01*
X115685185Y-110114291D01*
X115719548Y-110087509D01*
X115771695Y-110046574D01*
X115815365Y-110015858D01*
X115854194Y-109993711D01*
X115891820Y-109978483D01*
X115931882Y-109968524D01*
X115978017Y-109962184D01*
X116000246Y-109960190D01*
X116047168Y-109957282D01*
X116083132Y-109956831D01*
X116105762Y-109958829D01*
X116110895Y-109960489D01*
X116132044Y-109967542D01*
X116164492Y-109973677D01*
X116202608Y-109978305D01*
X116240762Y-109980837D01*
X116273324Y-109980681D01*
X116287938Y-109979033D01*
X116316459Y-109971042D01*
X116342222Y-109959459D01*
X116360488Y-109946835D01*
X116366600Y-109936688D01*
X116359041Y-109931299D01*
X116339802Y-109925800D01*
X116326383Y-109923387D01*
X116288397Y-109913392D01*
X116265410Y-109896581D01*
X116256665Y-109872356D01*
X116256533Y-109868342D01*
X116260435Y-109847121D01*
X116272756Y-109833428D01*
X116294417Y-109827393D01*
X116326341Y-109829141D01*
X116369450Y-109838800D01*
X116424665Y-109856497D01*
X116492909Y-109882360D01*
X116560473Y-109910274D01*
X116718903Y-109970449D01*
X116883743Y-110019728D01*
X116946567Y-110035089D01*
X116986340Y-110042527D01*
X117031009Y-110047324D01*
X117084756Y-110049808D01*
X117141300Y-110050343D01*
X117191597Y-110050027D01*
X117228948Y-110048978D01*
X117257338Y-110046689D01*
X117280751Y-110042652D01*
X117303174Y-110036362D01*
X117328591Y-110027309D01*
X117331800Y-110026101D01*
X117356567Y-110015828D01*
X117389155Y-110001020D01*
X117426579Y-109983186D01*
X117465849Y-109963837D01*
X117503979Y-109944485D01*
X117537979Y-109926640D01*
X117564863Y-109911813D01*
X117581643Y-109901515D01*
X117585800Y-109897660D01*
X117578281Y-109897871D01*
X117557532Y-109902974D01*
X117526266Y-109912135D01*
X117487196Y-109924519D01*
X117443034Y-109939291D01*
X117396493Y-109955617D01*
X117391067Y-109957572D01*
X117336518Y-109975229D01*
X117284088Y-109987331D01*
X117231349Y-109993740D01*
X117175875Y-109994321D01*
X117115238Y-109988935D01*
X117047013Y-109977445D01*
X116968773Y-109959714D01*
X116878090Y-109935605D01*
X116847068Y-109926814D01*
X116794738Y-109912336D01*
X116742596Y-109898839D01*
X116695071Y-109887405D01*
X116656591Y-109879116D01*
X116639229Y-109876033D01*
X116595524Y-109868713D01*
X116565749Y-109861561D01*
X116546961Y-109853293D01*
X116536219Y-109842625D01*
X116530687Y-109828707D01*
X116529926Y-109802005D01*
X116543324Y-109784514D01*
X116570908Y-109776223D01*
X116612702Y-109777121D01*
X116647748Y-109782677D01*
X116671367Y-109788070D01*
X116707682Y-109797267D01*
X116753127Y-109809324D01*
X116804140Y-109823297D01*
X116855215Y-109837685D01*
X116909742Y-109852834D01*
X116963622Y-109867030D01*
X117012864Y-109879278D01*
X117053476Y-109888582D01*
X117079449Y-109893631D01*
X117179198Y-109901377D01*
X117277724Y-109892639D01*
X117360965Y-109871702D01*
X117436090Y-109846722D01*
X117326795Y-109841257D01*
X117293132Y-109839490D01*
X117263720Y-109837624D01*
X117236079Y-109835311D01*
X117207728Y-109832208D01*
X117176188Y-109827969D01*
X117138979Y-109822249D01*
X117093620Y-109814703D01*
X117052902Y-109807636D01*
X117556167Y-109807636D01*
X117619667Y-109803017D01*
X117666674Y-109801846D01*
X117702353Y-109806481D01*
X117717033Y-109810952D01*
X117741730Y-109819909D01*
X117756164Y-109823830D01*
X117765964Y-109823545D01*
X117776759Y-109819885D01*
X117776992Y-109819796D01*
X117775834Y-109815686D01*
X117759203Y-109808995D01*
X117728299Y-109800119D01*
X117686989Y-109790064D01*
X117646066Y-109780586D01*
X117610445Y-109772172D01*
X117583766Y-109765695D01*
X117569670Y-109762023D01*
X117569188Y-109761875D01*
X117559625Y-109763329D01*
X117556251Y-109777957D01*
X117556167Y-109782682D01*
X117556167Y-109807636D01*
X117052902Y-109807636D01*
X117037631Y-109804985D01*
X116968533Y-109792751D01*
X116933867Y-109786577D01*
X116875659Y-109776756D01*
X116816201Y-109767700D01*
X116760123Y-109760045D01*
X116712053Y-109754428D01*
X116680613Y-109751712D01*
X116627822Y-109746410D01*
X116590787Y-109737569D01*
X116568572Y-109724514D01*
X116560243Y-109706572D01*
X116564864Y-109683069D01*
X116570098Y-109672017D01*
X116580100Y-109663125D01*
X116599491Y-109657520D01*
X116629166Y-109655279D01*
X116670019Y-109656481D01*
X116722943Y-109661204D01*
X116788832Y-109669527D01*
X116868580Y-109681527D01*
X116963082Y-109697284D01*
X117065100Y-109715397D01*
X117136433Y-109727455D01*
X117199468Y-109735824D01*
X117261749Y-109741278D01*
X117330820Y-109744591D01*
X117357200Y-109745368D01*
X117414501Y-109746461D01*
X117455945Y-109746371D01*
X117481235Y-109745108D01*
X117490070Y-109742681D01*
X117488433Y-109741132D01*
X117471210Y-109734395D01*
X117440282Y-109723777D01*
X117398228Y-109710058D01*
X117347625Y-109694019D01*
X117291051Y-109676441D01*
X117231087Y-109658105D01*
X117170308Y-109639792D01*
X117111295Y-109622283D01*
X117056625Y-109606358D01*
X117008876Y-109592800D01*
X116970627Y-109582388D01*
X116944456Y-109575903D01*
X116939472Y-109574864D01*
X116877807Y-109566408D01*
X116810938Y-109562890D01*
X116745091Y-109564307D01*
X116686494Y-109570657D01*
X116664698Y-109574992D01*
X116638393Y-109582603D01*
X116600567Y-109595381D01*
X116555290Y-109611866D01*
X116506631Y-109630593D01*
X116478431Y-109641921D01*
X116405909Y-109670681D01*
X116346929Y-109691930D01*
X116299967Y-109705917D01*
X116263500Y-109712888D01*
X116236005Y-109713090D01*
X116215959Y-109706771D01*
X116201839Y-109694179D01*
X116197550Y-109687515D01*
X116190289Y-109662295D01*
X116198849Y-109642616D01*
X116222654Y-109629774D01*
X116223272Y-109629598D01*
X116281740Y-109612604D01*
X116331588Y-109596447D01*
X116380285Y-109578513D01*
X116435295Y-109556189D01*
X116447033Y-109551253D01*
X116515207Y-109523646D01*
X116573216Y-109503211D01*
X116625662Y-109488805D01*
X116677147Y-109479285D01*
X116732274Y-109473509D01*
X116768767Y-109471376D01*
X116815343Y-109470056D01*
X116858908Y-109470898D01*
X116901854Y-109474397D01*
X116946572Y-109481049D01*
X116995455Y-109491349D01*
X117050892Y-109505792D01*
X117115278Y-109524874D01*
X117191002Y-109549089D01*
X117268259Y-109574817D01*
X117378462Y-109611282D01*
X117475963Y-109641925D01*
X117563690Y-109667456D01*
X117644573Y-109688584D01*
X117721540Y-109706022D01*
X117797521Y-109720480D01*
X117875443Y-109732668D01*
X117958237Y-109743297D01*
X117966505Y-109744257D01*
X118015855Y-109750587D01*
X118050720Y-109757133D01*
X118073521Y-109765048D01*
X118086680Y-109775484D01*
X118092619Y-109789592D01*
X118093800Y-109804831D01*
X118090964Y-109822577D01*
X118080842Y-109834040D01*
X118061016Y-109840023D01*
X118029067Y-109841325D01*
X117989815Y-109839298D01*
X117952127Y-109836172D01*
X117918271Y-109832707D01*
X117893677Y-109829483D01*
X117887563Y-109828372D01*
X117871149Y-109825808D01*
X117867981Y-109830363D01*
X117873044Y-109841308D01*
X117877077Y-109860390D01*
X117872785Y-109879565D01*
X117862368Y-109891935D01*
X117856435Y-109893445D01*
X117850699Y-109900828D01*
X117848267Y-109918617D01*
X117848267Y-109918930D01*
X117842808Y-109942059D01*
X117829376Y-109963256D01*
X117812382Y-109976561D01*
X117804220Y-109978395D01*
X117792308Y-109972891D01*
X117774504Y-109959068D01*
X117767365Y-109952454D01*
X117740690Y-109926513D01*
X117550014Y-110023843D01*
X117478423Y-110059958D01*
X117418941Y-110088625D01*
X117368856Y-110110613D01*
X117325457Y-110126693D01*
X117286032Y-110137634D01*
X117247870Y-110144206D01*
X117208258Y-110147178D01*
X117164486Y-110147321D01*
X117120645Y-110145731D01*
X116998373Y-110135156D01*
X116880282Y-110114545D01*
X116762177Y-110082884D01*
X116639861Y-110039159D01*
X116583724Y-110015878D01*
X116540692Y-109997532D01*
X116503035Y-109981821D01*
X116473526Y-109969876D01*
X116454941Y-109962826D01*
X116450006Y-109961405D01*
X116444001Y-109968474D01*
X116442800Y-109977154D01*
X116435358Y-109998009D01*
X116415133Y-110021408D01*
X116385277Y-110044147D01*
X116366163Y-110055073D01*
X116333100Y-110066217D01*
X116289794Y-110072861D01*
X116242446Y-110074556D01*
X116197256Y-110070854D01*
X116183502Y-110068290D01*
X116165585Y-110066550D01*
X116155419Y-110074549D01*
X116149095Y-110088732D01*
X116132103Y-110112287D01*
X116104598Y-110129302D01*
X116072612Y-110136860D01*
X116052685Y-110135409D01*
X116029861Y-110124459D01*
X116007720Y-110104730D01*
X115991306Y-110081703D01*
X115985600Y-110062531D01*
X115979518Y-110051074D01*
X115962124Y-110050351D01*
X115934694Y-110059732D01*
X115898504Y-110078586D01*
X115854831Y-110106284D01*
X115804951Y-110142197D01*
X115771909Y-110167958D01*
X115709965Y-110214975D01*
X115656348Y-110249773D01*
X115608974Y-110273531D01*
X115565759Y-110287430D01*
X115558033Y-110289018D01*
X115526462Y-110299792D01*
X115510036Y-110317708D01*
X115508329Y-110343236D01*
X115508413Y-110343679D01*
X115508324Y-110367790D01*
X115496248Y-110385088D01*
X115470653Y-110396738D01*
X115430007Y-110403905D01*
X115429096Y-110404004D01*
X115394946Y-110409680D01*
X115351753Y-110419726D01*
X115306301Y-110432467D01*
X115281910Y-110440318D01*
X115229519Y-110457870D01*
X115188141Y-110470639D01*
X115152874Y-110479647D01*
X115118816Y-110485912D01*
X115081064Y-110490453D01*
X115034715Y-110494292D01*
X115016017Y-110495626D01*
X114963223Y-110497885D01*
X114895409Y-110498502D01*
X114814399Y-110497593D01*
X114722014Y-110495276D01*
X114620078Y-110491669D01*
X114510412Y-110486892D01*
X114394840Y-110481060D01*
X114275183Y-110474293D01*
X114153265Y-110466709D01*
X114030908Y-110458424D01*
X113909934Y-110449559D01*
X113792167Y-110440229D01*
X113679428Y-110430554D01*
X113573541Y-110420652D01*
X113476328Y-110410640D01*
X113389611Y-110400636D01*
X113315213Y-110390759D01*
X113259225Y-110381887D01*
X113189624Y-110369609D01*
X113091364Y-110459728D01*
X113021392Y-110522427D01*
X112960699Y-110573307D01*
X112907531Y-110613440D01*
X112860136Y-110643898D01*
X112816761Y-110665752D01*
X112775653Y-110680072D01*
X112735059Y-110687932D01*
X112715095Y-110689733D01*
X112680713Y-110690955D01*
X112655513Y-110688613D01*
X112631861Y-110681168D01*
X112602126Y-110667082D01*
X112601739Y-110666885D01*
X112555115Y-110638979D01*
X112507884Y-110601901D01*
X112459152Y-110554605D01*
X112408028Y-110496044D01*
X112353619Y-110425173D01*
X112295033Y-110340945D01*
X112231378Y-110242315D01*
X112209371Y-110206856D01*
X112177212Y-110154808D01*
X112152211Y-110115193D01*
X112132734Y-110085926D01*
X112117145Y-110064919D01*
X112103808Y-110050087D01*
X112091088Y-110039344D01*
X112077349Y-110030603D01*
X112066588Y-110024738D01*
X112026687Y-109999820D01*
X111986915Y-109968407D01*
X111951338Y-109934287D01*
X111924023Y-109901246D01*
X111911975Y-109880741D01*
X111898282Y-109831334D01*
X111900297Y-109781785D01*
X111917152Y-109735431D01*
X111947983Y-109695609D01*
X111963402Y-109682720D01*
X111983374Y-109669881D01*
X112011460Y-109654167D01*
X112043356Y-109637699D01*
X112074761Y-109622601D01*
X112101369Y-109610994D01*
X112118878Y-109605001D01*
X112121767Y-109604615D01*
X112134321Y-109597555D01*
X112156268Y-109576386D01*
X112179710Y-109550002D01*
X112312178Y-109550002D01*
X112314044Y-109551057D01*
X112326651Y-109547546D01*
X112352780Y-109541207D01*
X112389390Y-109532744D01*
X112433438Y-109522865D01*
X112469804Y-109514891D01*
X112513518Y-109505851D01*
X112570643Y-109494730D01*
X112637868Y-109482135D01*
X112711882Y-109468672D01*
X112789375Y-109454948D01*
X112867038Y-109441567D01*
X112906204Y-109434978D01*
X112974749Y-109423436D01*
X113037922Y-109412580D01*
X113093796Y-109402758D01*
X113140445Y-109394317D01*
X113175941Y-109387606D01*
X113198358Y-109382973D01*
X113205742Y-109380883D01*
X113204024Y-109371380D01*
X113193433Y-109351216D01*
X113175761Y-109322925D01*
X113152804Y-109289041D01*
X113126354Y-109252097D01*
X113098204Y-109214629D01*
X113070149Y-109179170D01*
X113043983Y-109148253D01*
X113031134Y-109134197D01*
X112983948Y-109086560D01*
X112944091Y-109051963D01*
X112909170Y-109029535D01*
X112876794Y-109018406D01*
X112844570Y-109017704D01*
X112810105Y-109026559D01*
X112776279Y-109041437D01*
X112743487Y-109062043D01*
X112702952Y-109094361D01*
X112656811Y-109136303D01*
X112607200Y-109185784D01*
X112556257Y-109240717D01*
X112506119Y-109299016D01*
X112482215Y-109328528D01*
X112448784Y-109370633D01*
X112414070Y-109414245D01*
X112381736Y-109454768D01*
X112355445Y-109487607D01*
X112350755Y-109493444D01*
X112330677Y-109519539D01*
X112317289Y-109539222D01*
X112312178Y-109550002D01*
X112179710Y-109550002D01*
X112187595Y-109541126D01*
X112228285Y-109491792D01*
X112278325Y-109428402D01*
X112332167Y-109358261D01*
X112387411Y-109286157D01*
X112434414Y-109226269D01*
X112474636Y-109176888D01*
X112509537Y-109136304D01*
X112540576Y-109102806D01*
X112569212Y-109074685D01*
X112590467Y-109055685D01*
X112662077Y-108999699D01*
X112728656Y-108959458D01*
X112791321Y-108934876D01*
X112851190Y-108925869D01*
X112909381Y-108932352D01*
G37*
D12*
%TO.C,SW_C1*%
X75890000Y-86010000D02*
X75890000Y-84900000D01*
X76650000Y-86010000D02*
X75890000Y-86010000D01*
X77410000Y-83790000D02*
X79885000Y-83790000D01*
X77410000Y-84336529D02*
X77410000Y-83790000D01*
X77410000Y-86010000D02*
X77410000Y-85463471D01*
X77410000Y-86010000D02*
X79885000Y-86010000D01*
X79885000Y-84592470D02*
X79885000Y-83790000D01*
X79885000Y-86010000D02*
X79885000Y-85207530D01*
%TO.C,DD1*%
X82245000Y-83570000D02*
X83005000Y-83570000D01*
X82245000Y-84900000D02*
X82245000Y-83570000D01*
X83640000Y-83570000D02*
X95130000Y-83570000D01*
X83640000Y-84140000D02*
X83640000Y-83570000D01*
X83640000Y-86230000D02*
X83640000Y-85660000D01*
X83640000Y-86230000D02*
X95130000Y-86230000D01*
X95130000Y-84592470D02*
X95130000Y-83570000D01*
X95130000Y-86230000D02*
X95130000Y-85207530D01*
%TO.C,PWR4*%
X134095000Y-108890000D02*
X134095000Y-109692470D01*
X134095000Y-110307530D02*
X134095000Y-111110000D01*
X137840000Y-108890000D02*
X134095000Y-108890000D01*
X137840000Y-108890000D02*
X137840000Y-109436529D01*
X137840000Y-110563471D02*
X137840000Y-111110000D01*
X137840000Y-111110000D02*
X134095000Y-111110000D01*
X138600000Y-108890000D02*
X139360000Y-108890000D01*
X139360000Y-108890000D02*
X139360000Y-110000000D01*
%TO.C,SW_C2*%
X120115000Y-83790000D02*
X120115000Y-84592470D01*
X120115000Y-85207530D02*
X120115000Y-86010000D01*
X122590000Y-83790000D02*
X120115000Y-83790000D01*
X122590000Y-83790000D02*
X122590000Y-84336529D01*
X122590000Y-85463471D02*
X122590000Y-86010000D01*
X122590000Y-86010000D02*
X120115000Y-86010000D01*
X123350000Y-83790000D02*
X124110000Y-83790000D01*
X124110000Y-83790000D02*
X124110000Y-84900000D01*
D11*
%TO.C,U3*%
X83000000Y-94000000D02*
X83000000Y-106000000D01*
X83000000Y-106000000D02*
X91000000Y-106000000D01*
D10*
X85700000Y-99600000D02*
X85700000Y-97600000D01*
X85700000Y-102400000D02*
X85700000Y-100400000D01*
X86000000Y-97200000D02*
X88000000Y-97200000D01*
X86000000Y-100000000D02*
X88000000Y-100000000D01*
X86000000Y-102800000D02*
X88000000Y-102800000D01*
X88300000Y-99600000D02*
X88300000Y-97600000D01*
X88300000Y-102400000D02*
X88300000Y-100400000D01*
D11*
X91000000Y-94000000D02*
X83000000Y-94000000D01*
X91000000Y-106000000D02*
X91000000Y-94000000D01*
D10*
X89700000Y-102600000D02*
G75*
G02*
X89100000Y-102600000I-300000J0D01*
G01*
X89100000Y-102600000D02*
G75*
G02*
X89700000Y-102600000I300000J0D01*
G01*
D12*
%TO.C,CA1*%
X68265000Y-86010000D02*
X68265000Y-84900000D01*
X69025000Y-86010000D02*
X68265000Y-86010000D01*
X69785000Y-83790000D02*
X73530000Y-83790000D01*
X69785000Y-84336529D02*
X69785000Y-83790000D01*
X69785000Y-86010000D02*
X69785000Y-85463471D01*
X69785000Y-86010000D02*
X73530000Y-86010000D01*
X73530000Y-84592470D02*
X73530000Y-83790000D01*
X73530000Y-86010000D02*
X73530000Y-85207530D01*
D11*
%TO.C,U5*%
X109000000Y-94000000D02*
X109000000Y-106000000D01*
X109000000Y-106000000D02*
X117000000Y-106000000D01*
D10*
X111700000Y-99600000D02*
X111700000Y-97600000D01*
X111700000Y-102400000D02*
X111700000Y-100400000D01*
X112000000Y-97200000D02*
X114000000Y-97200000D01*
X112000000Y-100000000D02*
X114000000Y-100000000D01*
X112000000Y-102800000D02*
X114000000Y-102800000D01*
X114300000Y-99600000D02*
X114300000Y-97600000D01*
X114300000Y-102400000D02*
X114300000Y-100400000D01*
D11*
X117000000Y-94000000D02*
X109000000Y-94000000D01*
X117000000Y-106000000D02*
X117000000Y-94000000D01*
D10*
X115700000Y-102600000D02*
G75*
G02*
X115100000Y-102600000I-300000J0D01*
G01*
X115100000Y-102600000D02*
G75*
G02*
X115700000Y-102600000I300000J0D01*
G01*
D11*
%TO.C,SW2*%
X144700000Y-92150000D02*
X145450000Y-91400000D01*
X144700000Y-93850000D02*
X144700000Y-92150000D01*
X144700000Y-98900000D02*
X144700000Y-95900000D01*
X144700000Y-102650000D02*
X144700000Y-100950000D01*
X144700000Y-102650000D02*
X145450000Y-103400000D01*
X145450000Y-91400000D02*
X155950000Y-91400000D01*
X146200000Y-92900000D02*
X155200000Y-92900000D01*
X146200000Y-101900000D02*
X155200000Y-101900000D01*
X155950000Y-91400000D02*
X156700000Y-92150000D01*
X155950000Y-103400000D02*
X145450000Y-103400000D01*
X156700000Y-93850000D02*
X156700000Y-92150000D01*
X156700000Y-98900000D02*
X156700000Y-95900000D01*
X156700000Y-102650000D02*
X155950000Y-103400000D01*
X156700000Y-102650000D02*
X156700000Y-100950000D01*
X153700000Y-97400000D02*
G75*
G02*
X147700000Y-97400000I-3000000J0D01*
G01*
X147700000Y-97400000D02*
G75*
G02*
X153700000Y-97400000I3000000J0D01*
G01*
D12*
%TO.C,DD2*%
X104870000Y-83570000D02*
X104870000Y-84592470D01*
X104870000Y-85207530D02*
X104870000Y-86230000D01*
X116360000Y-83570000D02*
X104870000Y-83570000D01*
X116360000Y-83570000D02*
X116360000Y-84140000D01*
X116360000Y-85660000D02*
X116360000Y-86230000D01*
X116360000Y-86230000D02*
X104870000Y-86230000D01*
X117755000Y-84900000D02*
X117755000Y-86230000D01*
X117755000Y-86230000D02*
X116995000Y-86230000D01*
D10*
%TO.C,U2*%
X57460000Y-105000000D02*
X57460000Y-106905000D01*
X57460000Y-106905000D02*
X58730000Y-106905000D01*
X58730000Y-87855000D02*
X57460000Y-87855000D01*
X58730000Y-106905000D02*
X68890000Y-106905000D01*
X60000000Y-103095000D02*
X64445000Y-103095000D01*
X60635000Y-96745000D02*
X61905000Y-91665000D01*
X60635000Y-98015000D02*
X59365000Y-103095000D01*
X61397000Y-97380000D02*
X65715000Y-97380000D01*
X61524000Y-97380000D02*
X65588000Y-97380000D01*
X62540000Y-91665000D02*
X66985000Y-91665000D01*
X66350000Y-96745000D02*
X67620000Y-91665000D01*
X66350000Y-98015000D02*
X65080000Y-103095000D01*
X68890000Y-87855000D02*
X58730000Y-87855000D01*
X68890000Y-106905000D02*
X70160000Y-106905000D01*
X69525000Y-103095000D02*
X70795000Y-98015000D01*
X70160000Y-87855000D02*
X68890000Y-87855000D01*
X70160000Y-87855000D02*
X80320000Y-87855000D01*
X70160000Y-103095000D02*
X74605000Y-103095000D01*
X70795000Y-96745000D02*
X72065000Y-91665000D01*
X71430000Y-97380000D02*
X75875000Y-97380000D01*
X72700000Y-91665000D02*
X77145000Y-91665000D01*
X76510000Y-96745000D02*
X77780000Y-91665000D01*
X76510000Y-98015000D02*
X75240000Y-103095000D01*
X80320000Y-87855000D02*
X80320000Y-106905000D01*
X80320000Y-106905000D02*
X70160000Y-106905000D01*
X68255000Y-102460000D02*
G75*
G02*
X66985000Y-102460000I-635000J0D01*
G01*
X66985000Y-102460000D02*
G75*
G02*
X68255000Y-102460000I635000J0D01*
G01*
X78415000Y-102460000D02*
G75*
G02*
X77145000Y-102460000I-635000J0D01*
G01*
X77145000Y-102460000D02*
G75*
G02*
X78415000Y-102460000I635000J0D01*
G01*
D11*
%TO.C,SW1*%
X43300000Y-92150000D02*
X43300000Y-93850000D01*
X43300000Y-92150000D02*
X44050000Y-91400000D01*
X43300000Y-95900000D02*
X43300000Y-98900000D01*
X43300000Y-100950000D02*
X43300000Y-102650000D01*
X44050000Y-91400000D02*
X54550000Y-91400000D01*
X44050000Y-103400000D02*
X43300000Y-102650000D01*
X53800000Y-92900000D02*
X44800000Y-92900000D01*
X53800000Y-101900000D02*
X44800000Y-101900000D01*
X54550000Y-103400000D02*
X44050000Y-103400000D01*
X55300000Y-92150000D02*
X54550000Y-91400000D01*
X55300000Y-92150000D02*
X55300000Y-93850000D01*
X55300000Y-95900000D02*
X55300000Y-98900000D01*
X55300000Y-100950000D02*
X55300000Y-102650000D01*
X55300000Y-102650000D02*
X54550000Y-103400000D01*
X52300000Y-97400000D02*
G75*
G02*
X46300000Y-97400000I-3000000J0D01*
G01*
X46300000Y-97400000D02*
G75*
G02*
X52300000Y-97400000I3000000J0D01*
G01*
D12*
%TO.C,BZ1*%
X106400000Y-92500000D02*
G75*
G02*
X106400000Y-95499999I-6400000J-1499999D01*
G01*
X106230000Y-93999999D02*
G75*
G02*
X93770000Y-93999999I-6230000J0D01*
G01*
X93770000Y-93999999D02*
G75*
G02*
X106230000Y-93999999I6230000J0D01*
G01*
%TO.C,PWR1*%
X60640000Y-86010000D02*
X60640000Y-84900000D01*
X61400000Y-86010000D02*
X60640000Y-86010000D01*
X62160000Y-83790000D02*
X65905000Y-83790000D01*
X62160000Y-84336529D02*
X62160000Y-83790000D01*
X62160000Y-86010000D02*
X62160000Y-85463471D01*
X62160000Y-86010000D02*
X65905000Y-86010000D01*
X65905000Y-84592470D02*
X65905000Y-83790000D01*
X65905000Y-86010000D02*
X65905000Y-85207530D01*
%TO.C,CA2*%
X126470000Y-83790000D02*
X126470000Y-84592470D01*
X126470000Y-85207530D02*
X126470000Y-86010000D01*
X130215000Y-83790000D02*
X126470000Y-83790000D01*
X130215000Y-83790000D02*
X130215000Y-84336529D01*
X130215000Y-85463471D02*
X130215000Y-86010000D01*
X130215000Y-86010000D02*
X126470000Y-86010000D01*
X130975000Y-83790000D02*
X131735000Y-83790000D01*
X131735000Y-83790000D02*
X131735000Y-84900000D01*
D10*
%TO.C,U4*%
X119640000Y-105000000D02*
X119640000Y-106905000D01*
X119640000Y-106905000D02*
X120910000Y-106905000D01*
X120910000Y-87855000D02*
X119640000Y-87855000D01*
X120910000Y-106905000D02*
X131070000Y-106905000D01*
X122180000Y-103095000D02*
X126625000Y-103095000D01*
X122815000Y-96745000D02*
X124085000Y-91665000D01*
X122815000Y-98015000D02*
X121545000Y-103095000D01*
X123577000Y-97380000D02*
X127895000Y-97380000D01*
X123704000Y-97380000D02*
X127768000Y-97380000D01*
X124720000Y-91665000D02*
X129165000Y-91665000D01*
X128530000Y-96745000D02*
X129800000Y-91665000D01*
X128530000Y-98015000D02*
X127260000Y-103095000D01*
X131070000Y-87855000D02*
X120910000Y-87855000D01*
X131070000Y-106905000D02*
X132340000Y-106905000D01*
X131705000Y-103095000D02*
X132975000Y-98015000D01*
X132340000Y-87855000D02*
X131070000Y-87855000D01*
X132340000Y-87855000D02*
X142500000Y-87855000D01*
X132340000Y-103095000D02*
X136785000Y-103095000D01*
X132975000Y-96745000D02*
X134245000Y-91665000D01*
X133610000Y-97380000D02*
X138055000Y-97380000D01*
X134880000Y-91665000D02*
X139325000Y-91665000D01*
X138690000Y-96745000D02*
X139960000Y-91665000D01*
X138690000Y-98015000D02*
X137420000Y-103095000D01*
X142500000Y-87855000D02*
X142500000Y-106905000D01*
X142500000Y-106905000D02*
X132340000Y-106905000D01*
X130435000Y-102460000D02*
G75*
G02*
X129165000Y-102460000I-635000J0D01*
G01*
X129165000Y-102460000D02*
G75*
G02*
X130435000Y-102460000I635000J0D01*
G01*
X140595000Y-102460000D02*
G75*
G02*
X139325000Y-102460000I-635000J0D01*
G01*
X139325000Y-102460000D02*
G75*
G02*
X140595000Y-102460000I635000J0D01*
G01*
D12*
%TO.C,PWR2*%
X134095000Y-83790000D02*
X134095000Y-84592470D01*
X134095000Y-85207530D02*
X134095000Y-86010000D01*
X137840000Y-83790000D02*
X134095000Y-83790000D01*
X137840000Y-83790000D02*
X137840000Y-84336529D01*
X137840000Y-85463471D02*
X137840000Y-86010000D01*
X137840000Y-86010000D02*
X134095000Y-86010000D01*
X138600000Y-83790000D02*
X139360000Y-83790000D01*
X139360000Y-83790000D02*
X139360000Y-84900000D01*
%TD*%
%LPC*%
D14*
%TO.C,PWR3*%
X61400000Y-110000000D03*
D15*
X62670000Y-110000000D03*
X63940000Y-110000000D03*
X65210000Y-110000000D03*
%TD*%
D14*
%TO.C,SW_C1*%
X76650000Y-84900000D03*
D15*
X77920000Y-84900000D03*
X79190000Y-84900000D03*
%TD*%
D14*
%TO.C,DD1*%
X83005000Y-84900000D03*
D15*
X84275000Y-84900000D03*
X85545000Y-84900000D03*
X86815000Y-84900000D03*
X88085000Y-84900000D03*
X89355000Y-84900000D03*
X90625000Y-84900000D03*
X91895000Y-84900000D03*
X93165000Y-84900000D03*
X94435000Y-84900000D03*
%TD*%
D14*
%TO.C,PWR4*%
X138600000Y-110000000D03*
D15*
X137330000Y-110000000D03*
X136060000Y-110000000D03*
X134790000Y-110000000D03*
%TD*%
D14*
%TO.C,SW_C2*%
X123350000Y-84900000D03*
D15*
X122080000Y-84900000D03*
X120810000Y-84900000D03*
%TD*%
D16*
%TO.C,J4*%
X143200000Y-109700000D03*
%TD*%
D17*
%TO.C,U3*%
X84120000Y-104400000D03*
X85560000Y-104400000D03*
X87000000Y-104400000D03*
X88440000Y-104400000D03*
X89880000Y-104400000D03*
X89880000Y-95600000D03*
X88440000Y-95600000D03*
X87000000Y-95600000D03*
X85560000Y-95600000D03*
X84120000Y-95600000D03*
%TD*%
D14*
%TO.C,CA1*%
X69025000Y-84900000D03*
D15*
X70295000Y-84900000D03*
X71565000Y-84900000D03*
X72835000Y-84900000D03*
%TD*%
D17*
%TO.C,U5*%
X110120000Y-104400000D03*
X111560000Y-104400000D03*
X113000000Y-104400000D03*
X114440000Y-104400000D03*
X115880000Y-104400000D03*
X115880000Y-95600000D03*
X114440000Y-95600000D03*
X113000000Y-95600000D03*
X111560000Y-95600000D03*
X110120000Y-95600000D03*
%TD*%
D16*
%TO.C,SW2*%
X144200000Y-99900000D03*
X157200000Y-99900000D03*
X144200000Y-94900000D03*
X157200000Y-94900000D03*
%TD*%
D14*
%TO.C,DD2*%
X116995000Y-84900000D03*
D15*
X115725000Y-84900000D03*
X114455000Y-84900000D03*
X113185000Y-84900000D03*
X111915000Y-84900000D03*
X110645000Y-84900000D03*
X109375000Y-84900000D03*
X108105000Y-84900000D03*
X106835000Y-84900000D03*
X105565000Y-84900000D03*
%TD*%
D18*
%TO.C,U2*%
X63820000Y-105000000D03*
D19*
X66360000Y-105000000D03*
X68900000Y-105000000D03*
X71440000Y-105000000D03*
X73980000Y-105000000D03*
X73980000Y-89760000D03*
X71440000Y-89760000D03*
X68900000Y-89760000D03*
X66360000Y-89760000D03*
D18*
X63820000Y-89760000D03*
%TD*%
D16*
%TO.C,SW1*%
X55800000Y-94900000D03*
X42800000Y-94900000D03*
X55800000Y-99900000D03*
X42800000Y-99900000D03*
%TD*%
D20*
%TO.C,BZ1*%
X102500000Y-93999999D03*
D16*
X97500000Y-93999999D03*
%TD*%
D14*
%TO.C,PWR1*%
X61400000Y-84900000D03*
D15*
X62670000Y-84900000D03*
X63940000Y-84900000D03*
X65210000Y-84900000D03*
%TD*%
D14*
%TO.C,CA2*%
X130975000Y-84900000D03*
D15*
X129705000Y-84900000D03*
X128435000Y-84900000D03*
X127165000Y-84900000D03*
%TD*%
D16*
%TO.C,J1*%
X56795000Y-85300000D03*
%TD*%
%TO.C,J5*%
X100000000Y-85300000D03*
%TD*%
%TO.C,J3*%
X143195000Y-85300000D03*
%TD*%
%TO.C,J2*%
X56800000Y-109700000D03*
%TD*%
%TO.C,J6*%
X100000000Y-109700000D03*
%TD*%
D18*
%TO.C,U4*%
X126000000Y-105000000D03*
D19*
X128540000Y-105000000D03*
X131080000Y-105000000D03*
X133620000Y-105000000D03*
X136160000Y-105000000D03*
X136160000Y-89760000D03*
X133620000Y-89760000D03*
X131080000Y-89760000D03*
X128540000Y-89760000D03*
D18*
X126000000Y-89760000D03*
%TD*%
D14*
%TO.C,PWR2*%
X138600000Y-84900000D03*
D15*
X137330000Y-84900000D03*
X136060000Y-84900000D03*
X134790000Y-84900000D03*
%TD*%
%LPD*%
M02*
