%TF.GenerationSoftware,KiCad,Pcbnew,8.0.0*%
%TF.CreationDate,2024-11-21T20:10:56+00:00*%
%TF.ProjectId,display-board,64697370-6c61-4792-9d62-6f6172642e6b,rev?*%
%TF.SameCoordinates,Original*%
%TF.FileFunction,Copper,L2,Inr*%
%TF.FilePolarity,Positive*%
%FSLAX46Y46*%
G04 Gerber Fmt 4.6, Leading zero omitted, Abs format (unit mm)*
G04 Created by KiCad (PCBNEW 8.0.0) date 2024-11-21 20:10:56*
%MOMM*%
%LPD*%
G01*
G04 APERTURE LIST*
%TA.AperFunction,ComponentPad*%
%ADD10R,1.000000X1.000000*%
%TD*%
%TA.AperFunction,ComponentPad*%
%ADD11O,1.000000X1.000000*%
%TD*%
%TA.AperFunction,ComponentPad*%
%ADD12C,2.000000*%
%TD*%
%TA.AperFunction,ComponentPad*%
%ADD13R,1.524000X2.524000*%
%TD*%
%TA.AperFunction,ComponentPad*%
%ADD14O,1.524000X2.524000*%
%TD*%
%TA.AperFunction,ComponentPad*%
%ADD15R,2.000000X2.000000*%
%TD*%
%TA.AperFunction,ComponentPad*%
%ADD16C,0.600000*%
%TD*%
%TA.AperFunction,ViaPad*%
%ADD17C,0.600000*%
%TD*%
%TA.AperFunction,Conductor*%
%ADD18C,0.300000*%
%TD*%
%TA.AperFunction,Conductor*%
%ADD19C,0.400000*%
%TD*%
%TA.AperFunction,Conductor*%
%ADD20C,0.200000*%
%TD*%
%TA.AperFunction,Conductor*%
%ADD21C,0.500000*%
%TD*%
G04 APERTURE END LIST*
D10*
%TO.N,/BAT+*%
%TO.C,PWR3*%
X61400000Y-110000000D03*
D11*
%TO.N,/LDO*%
X62670000Y-110000000D03*
%TO.N,/BUZZER*%
X63940000Y-110000000D03*
%TO.N,GND*%
X65210000Y-110000000D03*
%TD*%
D10*
%TO.N,/SW1*%
%TO.C,SW_C1*%
X76650000Y-84900000D03*
D11*
%TO.N,/SW2*%
X77920000Y-84900000D03*
%TO.N,GND*%
X79190000Y-84900000D03*
%TD*%
D10*
%TO.N,/VPRG*%
%TO.C,DD1*%
X83005000Y-84900000D03*
D11*
%TO.N,/CTRL*%
X84275000Y-84900000D03*
%TO.N,/GSCLK*%
X85545000Y-84900000D03*
%TO.N,/BLANK*%
X86815000Y-84900000D03*
%TO.N,/XLAT*%
X88085000Y-84900000D03*
%TO.N,/XERR*%
X89355000Y-84900000D03*
%TO.N,/SCLK*%
X90625000Y-84900000D03*
%TO.N,/SIN*%
X91895000Y-84900000D03*
%TO.N,/SOUT*%
X93165000Y-84900000D03*
%TO.N,GND*%
X94435000Y-84900000D03*
%TD*%
D10*
%TO.N,/BAT+*%
%TO.C,PWR4*%
X138600000Y-110000000D03*
D11*
%TO.N,/LDO*%
X137330000Y-110000000D03*
%TO.N,/BUZZER*%
X136060000Y-110000000D03*
%TO.N,GND*%
X134790000Y-110000000D03*
%TD*%
D10*
%TO.N,/SW1*%
%TO.C,SW_C2*%
X123350000Y-84900000D03*
D11*
%TO.N,/SW2*%
X122080000Y-84900000D03*
%TO.N,GND*%
X120810000Y-84900000D03*
%TD*%
D10*
%TO.N,/MC_DD_1*%
%TO.C,CA1*%
X69025000Y-84900000D03*
D11*
%TO.N,/MC_DD_2*%
X70295000Y-84900000D03*
%TO.N,/MC_SD*%
X71565000Y-84900000D03*
%TO.N,GND*%
X72835000Y-84900000D03*
%TD*%
D12*
%TO.N,GND*%
%TO.C,SW2*%
X144200000Y-99900000D03*
%TO.N,N/C*%
X157200000Y-99900000D03*
%TO.N,Net-(R11-Pad1)*%
X144200000Y-94900000D03*
%TO.N,N/C*%
X157200000Y-94900000D03*
%TD*%
D10*
%TO.N,/VPRG*%
%TO.C,DD2*%
X116995000Y-84900000D03*
D11*
%TO.N,/CTRL*%
X115725000Y-84900000D03*
%TO.N,/GSCLK*%
X114455000Y-84900000D03*
%TO.N,/BLANK*%
X113185000Y-84900000D03*
%TO.N,/XLAT*%
X111915000Y-84900000D03*
%TO.N,/XERR*%
X110645000Y-84900000D03*
%TO.N,/SCLK*%
X109375000Y-84900000D03*
%TO.N,/SIN*%
X108105000Y-84900000D03*
%TO.N,/SOUT*%
X106835000Y-84900000D03*
%TO.N,GND*%
X105565000Y-84900000D03*
%TD*%
D13*
%TO.N,Net-(U1-OUT2)*%
%TO.C,U2*%
X63820000Y-105000000D03*
D14*
%TO.N,Net-(U1-OUT7)*%
X66360000Y-105000000D03*
%TO.N,Net-(U1-OUT4)*%
X68900000Y-105000000D03*
%TO.N,Net-(U1-OUT3)*%
X71440000Y-105000000D03*
%TO.N,Net-(U1-OUT6)*%
X73980000Y-105000000D03*
%TO.N,Net-(U1-OUT5)*%
X73980000Y-89760000D03*
%TO.N,/7SEG_DD_2*%
X71440000Y-89760000D03*
%TO.N,/7SEG_DD_1*%
X68900000Y-89760000D03*
%TO.N,Net-(U1-OUT1)*%
X66360000Y-89760000D03*
D13*
%TO.N,Net-(U1-OUT0)*%
X63820000Y-89760000D03*
%TD*%
D12*
%TO.N,Net-(R13-Pad1)*%
%TO.C,SW1*%
X55800000Y-94900000D03*
%TO.N,N/C*%
X42800000Y-94900000D03*
%TO.N,GND*%
X55800000Y-99900000D03*
%TO.N,N/C*%
X42800000Y-99900000D03*
%TD*%
D15*
%TO.N,VCC*%
%TO.C,BZ1*%
X102500000Y-93999999D03*
D12*
%TO.N,Net-(BZ1-+)*%
X97500000Y-93999999D03*
%TD*%
D10*
%TO.N,/BAT+*%
%TO.C,PWR1*%
X61400000Y-84900000D03*
D11*
%TO.N,/LDO*%
X62670000Y-84900000D03*
%TO.N,/BUZZER*%
X63940000Y-84900000D03*
%TO.N,GND*%
X65210000Y-84900000D03*
%TD*%
D10*
%TO.N,/MC_DD_1*%
%TO.C,CA2*%
X130975000Y-84900000D03*
D11*
%TO.N,/MC_DD_2*%
X129705000Y-84900000D03*
%TO.N,/MC_SD*%
X128435000Y-84900000D03*
%TO.N,GND*%
X127165000Y-84900000D03*
%TD*%
D13*
%TO.N,Net-(U1-OUT10)*%
%TO.C,U4*%
X126000000Y-105000000D03*
D14*
%TO.N,Net-(U1-OUT15)*%
X128540000Y-105000000D03*
%TO.N,Net-(U1-OUT12)*%
X131080000Y-105000000D03*
%TO.N,Net-(U1-OUT11)*%
X133620000Y-105000000D03*
%TO.N,Net-(U1-OUT14)*%
X136160000Y-105000000D03*
%TO.N,Net-(U1-OUT13)*%
X136160000Y-89760000D03*
%TO.N,/7SEG_DD_2*%
X133620000Y-89760000D03*
%TO.N,/7SEG_DD_1*%
X131080000Y-89760000D03*
%TO.N,Net-(U1-OUT9)*%
X128540000Y-89760000D03*
D13*
%TO.N,Net-(U1-OUT8)*%
X126000000Y-89760000D03*
%TD*%
D10*
%TO.N,/BAT+*%
%TO.C,PWR2*%
X138600000Y-84900000D03*
D11*
%TO.N,/LDO*%
X137330000Y-84900000D03*
%TO.N,/BUZZER*%
X136060000Y-84900000D03*
%TO.N,GND*%
X134790000Y-84900000D03*
%TD*%
D16*
%TO.N,GND*%
%TO.C,U1*%
X104450000Y-101700000D03*
X102670000Y-101700000D03*
X100890000Y-101700000D03*
X99110000Y-101700000D03*
X97330000Y-101700000D03*
X95550000Y-101700000D03*
X104450000Y-103000000D03*
X102670000Y-103000000D03*
X100890000Y-103000000D03*
X99110000Y-103000000D03*
X97330000Y-103000000D03*
X95550000Y-103000000D03*
X104450000Y-104300000D03*
X102670000Y-104300000D03*
X100890000Y-104300000D03*
X99110000Y-104300000D03*
X97330000Y-104300000D03*
X95550000Y-104300000D03*
%TD*%
D17*
%TO.N,/SW1*%
X55795000Y-103100000D03*
%TO.N,/SW2*%
X144432500Y-88900000D03*
%TO.N,/SW1*%
X55557500Y-88900000D03*
%TO.N,/CTRL*%
X75995000Y-110450000D03*
%TO.N,/BUZZER*%
X102995000Y-90400000D03*
%TO.N,VCC*%
X105350001Y-99350001D03*
X93000000Y-100000000D03*
%TO.N,/MC_DD_2*%
X62395000Y-94400000D03*
%TO.N,/LDO*%
X73795000Y-110450000D03*
X106195000Y-90500000D03*
%TO.N,/BAT+*%
X77795000Y-110450000D03*
X108795000Y-90500000D03*
%TO.N,/MC_DD_1*%
X122000000Y-93500000D03*
%TO.N,/MC_SD*%
X113295000Y-93000000D03*
%TO.N,GND*%
X70795000Y-98200000D03*
X97095000Y-84900000D03*
X94895000Y-90800000D03*
X98395000Y-91000000D03*
X98295000Y-84900000D03*
X67695000Y-101500000D03*
X67695000Y-99700000D03*
X71595000Y-98900000D03*
X94895000Y-92000000D03*
X69295000Y-99700000D03*
X71595000Y-97500000D03*
X102795000Y-84900000D03*
X95895000Y-84900000D03*
X95995000Y-91500000D03*
X72295000Y-98200000D03*
X103770735Y-84924265D03*
X101705000Y-84900000D03*
X99595000Y-91000000D03*
X95995000Y-92800000D03*
%TO.N,/7SEG_DD_1*%
X123225000Y-98137500D03*
%TO.N,/7SEG_SD*%
X113100000Y-95600000D03*
X87000000Y-104400000D03*
X86995000Y-95600000D03*
X112995000Y-104400000D03*
X107095000Y-99200000D03*
%TO.N,/GSCLK*%
X97995000Y-107600000D03*
%TO.N,Net-(U1-OUT4)*%
X91095000Y-96100000D03*
%TO.N,/SIN*%
X98374576Y-99200000D03*
%TO.N,/XERR*%
X99020735Y-107609799D03*
%TO.N,/BLANK*%
X96184232Y-98600011D03*
%TO.N,Net-(U1-OUT10)*%
X114440000Y-104400000D03*
%TO.N,/SOUT*%
X98410136Y-106864682D03*
%TO.N,Net-(U1-OUT0)*%
X99695000Y-99100000D03*
X88440000Y-95600000D03*
%TO.N,Net-(U1-OUT11)*%
X111560000Y-107600000D03*
%TO.N,Net-(U1-OUT8)*%
X109200000Y-102000000D03*
%TO.N,Net-(U1-OUT2)*%
X88400000Y-104500000D03*
X100095803Y-97799197D03*
%TO.N,/SCLK*%
X97695000Y-98700000D03*
%TO.N,Net-(U1-OUT3)*%
X99565230Y-97200000D03*
%TO.N,Net-(U1-OUT1)*%
X89880000Y-95600000D03*
%TO.N,Net-(U1-OUT14)*%
X108000000Y-109400000D03*
%TO.N,/XLAT*%
X96984234Y-98200000D03*
X97595000Y-90287500D03*
X88486422Y-86008578D03*
%TO.N,Net-(U1-OUT7)*%
X103221765Y-96873235D03*
%TO.N,Net-(U1-OUT9)*%
X109200000Y-103000000D03*
%TO.N,Net-(U1-OUT15)*%
X115880000Y-104400000D03*
%TO.N,Net-(U1-OUT13)*%
X109000000Y-109000000D03*
X111600000Y-95600000D03*
X110500000Y-91900000D03*
%TO.N,/VPRG*%
X99045000Y-98450000D03*
X92295000Y-90300000D03*
%TO.N,Net-(U1-OUT5)*%
X85560000Y-95600000D03*
%TO.N,Net-(U1-OUT6)*%
X84120000Y-95600000D03*
X76500000Y-99000000D03*
X76500000Y-101000000D03*
%TO.N,Net-(U1-OUT12)*%
X110200000Y-108600000D03*
%TD*%
D18*
%TO.N,/CTRL*%
X75995000Y-110450000D02*
X75995000Y-108100000D01*
X75995000Y-108100000D02*
X81495000Y-102600000D01*
X81495000Y-102600000D02*
X81495000Y-90500000D01*
X81495000Y-90500000D02*
X84275000Y-87720000D01*
X84275000Y-87720000D02*
X84275000Y-84900000D01*
D19*
%TO.N,/SW1*%
X55795000Y-103100000D02*
X56495000Y-103100000D01*
X56495000Y-103100000D02*
X58195000Y-101400000D01*
X58195000Y-101400000D02*
X58195000Y-91537500D01*
X58195000Y-91537500D02*
X55557500Y-88900000D01*
D20*
%TO.N,/SW2*%
X132895000Y-85700000D02*
X132895000Y-84100000D01*
X122080000Y-85607106D02*
X122572894Y-86100000D01*
X122080000Y-84900000D02*
X122080000Y-85607106D01*
X140495000Y-86600000D02*
X142795000Y-88900000D01*
X132495000Y-86100000D02*
X132895000Y-85700000D01*
X122572894Y-86100000D02*
X132495000Y-86100000D01*
X132895000Y-84100000D02*
X133395000Y-83600000D01*
X133395000Y-83600000D02*
X139595000Y-83600000D01*
X139595000Y-83600000D02*
X140495000Y-84500000D01*
X140495000Y-84500000D02*
X140495000Y-86600000D01*
X142795000Y-88900000D02*
X144432500Y-88900000D01*
%TO.N,/SW1*%
X76650000Y-83845000D02*
X76405000Y-83600000D01*
X59795000Y-84400000D02*
X59795000Y-86200000D01*
X76405000Y-83600000D02*
X60595000Y-83600000D01*
X60595000Y-83600000D02*
X59795000Y-84400000D01*
X59795000Y-86200000D02*
X57995000Y-88000000D01*
X56457500Y-88000000D02*
X55557500Y-88900000D01*
X57995000Y-88000000D02*
X56457500Y-88000000D01*
D19*
%TO.N,/LDO*%
X62670000Y-110000000D02*
X62670000Y-109225000D01*
X62670000Y-109225000D02*
X63295000Y-108600000D01*
X63295000Y-108600000D02*
X72795000Y-108600000D01*
X72795000Y-108600000D02*
X73795000Y-109600000D01*
X73795000Y-109600000D02*
X73795000Y-110450000D01*
D21*
%TO.N,/BAT+*%
X61400000Y-110000000D02*
X61400000Y-111000000D01*
X61400000Y-111000000D02*
X62000000Y-111600000D01*
X77795000Y-110800000D02*
X77795000Y-110450000D01*
X62000000Y-111600000D02*
X76995000Y-111600000D01*
X76995000Y-111600000D02*
X77795000Y-110800000D01*
D20*
%TO.N,/XERR*%
X110645000Y-84900000D02*
X110645000Y-85650000D01*
X110645000Y-85650000D02*
X110195000Y-86100000D01*
X107095000Y-86100000D02*
X106395000Y-86800000D01*
X110195000Y-86100000D02*
X107095000Y-86100000D01*
X106395000Y-86800000D02*
X95495000Y-86800000D01*
X95495000Y-86800000D02*
X95295000Y-87000000D01*
%TO.N,/XLAT*%
X111915000Y-84900000D02*
X111915000Y-85607106D01*
X107295000Y-86900000D02*
X106595000Y-87600000D01*
X111915000Y-85607106D02*
X110622106Y-86900000D01*
X110622106Y-86900000D02*
X107295000Y-86900000D01*
X99095000Y-87600000D02*
X97595000Y-89100000D01*
X106595000Y-87600000D02*
X99095000Y-87600000D01*
X97595000Y-89100000D02*
X97595000Y-90287500D01*
D21*
%TO.N,/BUZZER*%
X102995000Y-90400000D02*
X104845000Y-88550000D01*
X135095000Y-86800000D02*
X136060000Y-85835000D01*
X104845000Y-88550000D02*
X122745000Y-88550000D01*
X122745000Y-88550000D02*
X124495000Y-86800000D01*
X124495000Y-86800000D02*
X135095000Y-86800000D01*
X136060000Y-85835000D02*
X136060000Y-84900000D01*
%TO.N,/LDO*%
X122995000Y-89400000D02*
X124795000Y-87600000D01*
X106195000Y-90400000D02*
X107195000Y-89400000D01*
X107195000Y-89400000D02*
X122995000Y-89400000D01*
X106195000Y-90500000D02*
X106195000Y-90400000D01*
X135337106Y-87600000D02*
X137330000Y-85607106D01*
X124795000Y-87600000D02*
X135337106Y-87600000D01*
X137330000Y-85607106D02*
X137330000Y-84900000D01*
D20*
%TO.N,/7SEG_SD*%
X112995000Y-98000000D02*
X113100000Y-97895000D01*
X88395000Y-106600000D02*
X87000000Y-105205000D01*
X105895000Y-105000000D02*
X105195000Y-105700000D01*
X101795000Y-105700000D02*
X99285201Y-108209799D01*
X99285201Y-108209799D02*
X95373428Y-108209799D01*
X112995000Y-104400000D02*
X113100000Y-104295000D01*
X87000000Y-105205000D02*
X87000000Y-104400000D01*
X107095000Y-99200000D02*
X108295000Y-98000000D01*
X95373428Y-108209799D02*
X93763629Y-106600000D01*
X107095000Y-99200000D02*
X106495000Y-99200000D01*
X105195000Y-105700000D02*
X101795000Y-105700000D01*
X106495000Y-99200000D02*
X105895000Y-99800000D01*
X113100000Y-104295000D02*
X113100000Y-98105000D01*
X105895000Y-99800000D02*
X105895000Y-105000000D01*
X93763629Y-106600000D02*
X88395000Y-106600000D01*
X86995000Y-95600000D02*
X86995000Y-104395000D01*
X113100000Y-98105000D02*
X112995000Y-98000000D01*
X113100000Y-97895000D02*
X113100000Y-95600000D01*
X108295000Y-98000000D02*
X112995000Y-98000000D01*
X86995000Y-104395000D02*
X87000000Y-104400000D01*
%TO.N,/GSCLK*%
X94295000Y-106000000D02*
X94295000Y-95497058D01*
X94295000Y-95497058D02*
X89395000Y-90597057D01*
X86763628Y-85700000D02*
X85895000Y-85700000D01*
X85545000Y-85350000D02*
X85545000Y-84900000D01*
X97404799Y-107009799D02*
X96685201Y-107009799D01*
X96595000Y-107100000D02*
X95395000Y-107100000D01*
X89395000Y-88331372D02*
X86763628Y-85700000D01*
X85895000Y-85700000D02*
X85545000Y-85350000D01*
X95395000Y-107100000D02*
X94295000Y-106000000D01*
X96685201Y-107009799D02*
X96595000Y-107100000D01*
X97995000Y-107600000D02*
X97404799Y-107009799D01*
X89395000Y-90597057D02*
X89395000Y-88331372D01*
%TO.N,/SIN*%
X91095000Y-86300000D02*
X91895000Y-85500000D01*
X98395000Y-97665686D02*
X98195000Y-97465686D01*
X98195000Y-97100000D02*
X91095000Y-90000000D01*
X91895000Y-85500000D02*
X91895000Y-84900000D01*
X91095000Y-90000000D02*
X91095000Y-86300000D01*
X98374576Y-99200000D02*
X98395000Y-99179576D01*
X98195000Y-97465686D02*
X98195000Y-97100000D01*
X98395000Y-99179576D02*
X98395000Y-97665686D01*
%TO.N,/XERR*%
X101695000Y-100000000D02*
X101095803Y-99400803D01*
X101095803Y-97384983D02*
X100995000Y-97284180D01*
X95295000Y-89034314D02*
X95295000Y-84628629D01*
X89595000Y-84100000D02*
X89355000Y-84340000D01*
X94766371Y-84100000D02*
X89595000Y-84100000D01*
X99319515Y-107609799D02*
X101629314Y-105300000D01*
X100995000Y-94734315D02*
X95295000Y-89034314D01*
X95295000Y-84628629D02*
X94766371Y-84100000D01*
X99020735Y-107609799D02*
X99319515Y-107609799D01*
X101095803Y-99400803D02*
X101095803Y-97384983D01*
X100995000Y-97284180D02*
X100995000Y-94734315D01*
X105495000Y-104834314D02*
X105495000Y-100800000D01*
X101629314Y-105300000D02*
X105029314Y-105300000D01*
X105029314Y-105300000D02*
X105495000Y-104834314D01*
X105495000Y-100800000D02*
X104695000Y-100000000D01*
X89355000Y-84340000D02*
X89355000Y-84900000D01*
X104695000Y-100000000D02*
X101695000Y-100000000D01*
%TO.N,/BLANK*%
X96184232Y-98600011D02*
X96184232Y-96820604D01*
X89795000Y-88165686D02*
X86815000Y-85185686D01*
X89795000Y-90431372D02*
X89795000Y-88165686D01*
X96184232Y-96820604D02*
X89795000Y-90431372D01*
X86815000Y-85185686D02*
X86815000Y-84900000D01*
%TO.N,/SOUT*%
X100695803Y-97550668D02*
X100595000Y-97449865D01*
X96519516Y-106609799D02*
X96429315Y-106700000D01*
X95495000Y-100200000D02*
X100095000Y-100200000D01*
X98345454Y-106800000D02*
X97860686Y-106800000D01*
X100595000Y-97449865D02*
X100595000Y-94900000D01*
X100095000Y-100200000D02*
X100695803Y-99599197D01*
X94695000Y-105834314D02*
X94695000Y-101000000D01*
X100595000Y-94900000D02*
X93165000Y-87470000D01*
X94695000Y-101000000D02*
X95495000Y-100200000D01*
X96429315Y-106700000D02*
X95560686Y-106700000D01*
X98410136Y-106864682D02*
X98345454Y-106800000D01*
X95560686Y-106700000D02*
X94695000Y-105834314D01*
X97670484Y-106609799D02*
X96519516Y-106609799D01*
X97860686Y-106800000D02*
X97670484Y-106609799D01*
X93165000Y-87470000D02*
X93165000Y-84900000D01*
X100695803Y-99599197D02*
X100695803Y-97550668D01*
%TO.N,/CTRL*%
X84275000Y-85380000D02*
X84275000Y-84900000D01*
%TO.N,/SCLK*%
X97695000Y-98700000D02*
X97695000Y-97200000D01*
X97695000Y-97200000D02*
X90625000Y-90130000D01*
X90625000Y-90130000D02*
X90625000Y-84900000D01*
%TO.N,/XLAT*%
X96984234Y-97054920D02*
X90195000Y-90265686D01*
X90195000Y-90265686D02*
X90195000Y-87717156D01*
X96984234Y-98200000D02*
X96984234Y-97054920D01*
X88085000Y-85607156D02*
X88085000Y-84900000D01*
X90195000Y-87717156D02*
X88085000Y-85607156D01*
%TO.N,/VPRG*%
X98860686Y-97665686D02*
X98860686Y-97200000D01*
X99045000Y-97850000D02*
X98860686Y-97665686D01*
X99045000Y-98450000D02*
X99045000Y-97850000D01*
X92295000Y-90634314D02*
X92295000Y-90300000D01*
X98860686Y-97200000D02*
X92295000Y-90634314D01*
%TO.N,/SW1*%
X122695000Y-83300000D02*
X77195000Y-83300000D01*
X123350000Y-83955000D02*
X122695000Y-83300000D01*
X76650000Y-83845000D02*
X76650000Y-84900000D01*
X123350000Y-84900000D02*
X123350000Y-83955000D01*
X77195000Y-83300000D02*
X76650000Y-83845000D01*
%TO.N,/SW2*%
X78495000Y-83700000D02*
X121895000Y-83700000D01*
X122080000Y-83885000D02*
X122080000Y-84900000D01*
X77920000Y-84275000D02*
X78495000Y-83700000D01*
X121895000Y-83700000D02*
X122080000Y-83885000D01*
X77920000Y-84900000D02*
X77920000Y-84275000D01*
%TD*%
M02*
