M48
; DRILL file {KiCad 8.0.0} date 2024-11-21T20:10:56+0000
; FORMAT={-:-/ absolute / inch / decimal}
; #@! TF.CreationDate,2024-11-21T20:10:56+00:00
; #@! TF.GenerationSoftware,Kicad,Pcbnew,8.0.0
; #@! TF.FileFunction,Plated,1,4,PTH
FMAT,2
INCH
; #@! TA.AperFunction,Plated,PTH,ViaDrill
T1C0.0118
; #@! TA.AperFunction,Plated,PTH,ComponentDrill
T2C0.0118
; #@! TA.AperFunction,Plated,PTH,ComponentDrill
T3C0.0256
; #@! TA.AperFunction,Plated,PTH,ComponentDrill
T4C0.0276
; #@! TA.AperFunction,Plated,PTH,ComponentDrill
T5C0.0315
; #@! TA.AperFunction,Plated,PTH,ComponentDrill
T6C0.0394
%
G90
G05
T1
X2.1873Y-3.5
X2.1967Y-4.0591
X2.4565Y-3.7165
X2.6652Y-3.9252
X2.6652Y-3.9961
X2.7281Y-3.9252
X2.7872Y-3.8661
X2.8187Y-3.8386
X2.8187Y-3.8937
X2.8463Y-3.8661
X2.9053Y-4.3484
X2.9919Y-4.3484
X3.0118Y-3.8976
X3.0118Y-3.9764
X3.0628Y-4.3484
X3.3118Y-3.7638
X3.3685Y-3.7638
X3.425Y-3.7638
X3.4252Y-4.1102
X3.4803Y-4.1142
X3.4819Y-3.7638
X3.4837Y-3.3862
X3.5386Y-3.7638
X3.5864Y-3.7835
X3.6337Y-3.5551
X3.6614Y-3.937
X3.736Y-3.5748
X3.736Y-3.622
X3.7754Y-3.3425
X3.7793Y-3.6024
X3.7793Y-3.6535
X3.7868Y-3.8819
X3.8183Y-3.8661
X3.8226Y-3.3425
X3.8423Y-3.5546
X3.8463Y-3.8858
X3.8581Y-4.2362
X3.8699Y-3.3425
X3.873Y-3.9055
X3.8738Y-3.5827
X3.8744Y-4.2073
X3.8985Y-4.2366
X3.8994Y-3.876
X3.9199Y-3.8268
X3.9211Y-3.5827
X3.925Y-3.9016
X3.9408Y-3.8504
X4.0041Y-3.3425
X4.047Y-3.3425
X4.0549Y-3.5591
X4.0638Y-3.8139
X4.0855Y-3.3435
X4.1476Y-3.9114
X4.1809Y-3.563
X4.2163Y-3.9055
X4.252Y-4.3071
X4.2833Y-3.563
X4.2913Y-4.2913
X4.2992Y-4.0157
X4.2992Y-4.0551
X4.3386Y-4.2756
X4.3504Y-3.6181
X4.3921Y-4.2362
X4.3937Y-3.7638
X4.4486Y-4.1102
X4.4528Y-3.7638
X4.4604Y-3.6614
X4.5055Y-4.1102
X4.5622Y-4.1102
X4.8031Y-3.6811
X4.8514Y-3.8637
X5.6863Y-3.5
T2
X3.7618Y-4.0039
X3.7618Y-4.0551
X3.7618Y-4.1063
X3.8319Y-4.0039
X3.8319Y-4.0551
X3.8319Y-4.1063
X3.902Y-4.0039
X3.902Y-4.0551
X3.902Y-4.1063
X3.972Y-4.0039
X3.972Y-4.0551
X3.972Y-4.1063
X4.0421Y-4.0039
X4.0421Y-4.0551
X4.0421Y-4.1063
X4.1122Y-4.0039
X4.1122Y-4.0551
X4.1122Y-4.1063
T3
X2.4173Y-3.3425
X2.4173Y-4.3307
X2.4673Y-3.3425
X2.4673Y-4.3307
X2.5173Y-3.3425
X2.5173Y-4.3307
X2.5673Y-3.3425
X2.5673Y-4.3307
X2.7175Y-3.3425
X2.7675Y-3.3425
X2.8175Y-3.3425
X2.8675Y-3.3425
X3.0177Y-3.3425
X3.0677Y-3.3425
X3.1177Y-3.3425
X4.7563Y-3.3425
X4.8063Y-3.3425
X4.8563Y-3.3425
X5.0065Y-3.3425
X5.0565Y-3.3425
X5.1065Y-3.3425
X5.1565Y-3.3425
X5.3067Y-3.3425
X5.3067Y-4.3307
X5.3567Y-3.3425
X5.3567Y-4.3307
X5.4067Y-3.3425
X5.4067Y-4.3307
X5.4567Y-3.3425
X5.4567Y-4.3307
T4
X3.2679Y-3.3425
X3.3179Y-3.3425
X3.3679Y-3.3425
X3.4179Y-3.3425
X3.4679Y-3.3425
X3.5179Y-3.3425
X3.5679Y-3.3425
X3.6179Y-3.3425
X3.6679Y-3.3425
X3.7179Y-3.3425
X4.1561Y-3.3425
X4.2061Y-3.3425
X4.2561Y-3.3425
X4.3061Y-3.3425
X4.3561Y-3.3425
X4.4061Y-3.3425
X4.4561Y-3.3425
X4.5061Y-3.3425
X4.5561Y-3.3425
X4.6061Y-3.3425
T5
X2.5126Y-3.5339
X2.5126Y-4.1339
X2.6126Y-3.5339
X2.6126Y-4.1339
X2.7126Y-3.5339
X2.7126Y-4.1339
X2.8126Y-3.5339
X2.8126Y-4.1339
X2.9126Y-3.5339
X2.9126Y-4.1339
X4.9606Y-3.5339
X4.9606Y-4.1339
X5.0606Y-3.5339
X5.0606Y-4.1339
X5.1606Y-3.5339
X5.1606Y-4.1339
X5.2606Y-3.5339
X5.2606Y-4.1339
X5.3606Y-3.5339
X5.3606Y-4.1339
T6
X1.685Y-3.7362
X1.685Y-3.9331
X2.1969Y-3.7362
X2.1969Y-3.9331
X3.8386Y-3.7008
X4.0354Y-3.7008
X5.6772Y-3.7362
X5.6772Y-3.9331
X6.189Y-3.7362
X6.189Y-3.9331
M30
