%TF.GenerationSoftware,KiCad,Pcbnew,8.0.0*%
%TF.CreationDate,2024-12-15T19:06:57+00:00*%
%TF.ProjectId,main-board,6d61696e-2d62-46f6-9172-642e6b696361,rev?*%
%TF.SameCoordinates,Original*%
%TF.FileFunction,Other,Comment*%
%FSLAX46Y46*%
G04 Gerber Fmt 4.6, Leading zero omitted, Abs format (unit mm)*
G04 Created by KiCad (PCBNEW 8.0.0) date 2024-12-15 19:06:57*
%MOMM*%
%LPD*%
G01*
G04 APERTURE LIST*
%ADD10C,0.150000*%
G04 APERTURE END LIST*
D10*
X166007438Y-112142857D02*
X164007438Y-112142857D01*
X166007438Y-111000000D02*
X164864580Y-111857143D01*
X164007438Y-111000000D02*
X165150295Y-112142857D01*
X164959819Y-110142857D02*
X164959819Y-109476190D01*
X166007438Y-109190476D02*
X166007438Y-110142857D01*
X166007438Y-110142857D02*
X164007438Y-110142857D01*
X164007438Y-110142857D02*
X164007438Y-109190476D01*
X164959819Y-108333333D02*
X164959819Y-107666666D01*
X166007438Y-107380952D02*
X166007438Y-108333333D01*
X166007438Y-108333333D02*
X164007438Y-108333333D01*
X164007438Y-108333333D02*
X164007438Y-107380952D01*
X166007438Y-106523809D02*
X164007438Y-106523809D01*
X164007438Y-106523809D02*
X164007438Y-105761904D01*
X164007438Y-105761904D02*
X164102676Y-105571428D01*
X164102676Y-105571428D02*
X164197914Y-105476190D01*
X164197914Y-105476190D02*
X164388390Y-105380952D01*
X164388390Y-105380952D02*
X164674104Y-105380952D01*
X164674104Y-105380952D02*
X164864580Y-105476190D01*
X164864580Y-105476190D02*
X164959819Y-105571428D01*
X164959819Y-105571428D02*
X165055057Y-105761904D01*
X165055057Y-105761904D02*
X165055057Y-106523809D01*
X165245533Y-104523809D02*
X165245533Y-103000000D01*
X164007438Y-101666667D02*
X164007438Y-101285714D01*
X164007438Y-101285714D02*
X164102676Y-101095238D01*
X164102676Y-101095238D02*
X164293152Y-100904762D01*
X164293152Y-100904762D02*
X164674104Y-100809524D01*
X164674104Y-100809524D02*
X165340771Y-100809524D01*
X165340771Y-100809524D02*
X165721723Y-100904762D01*
X165721723Y-100904762D02*
X165912200Y-101095238D01*
X165912200Y-101095238D02*
X166007438Y-101285714D01*
X166007438Y-101285714D02*
X166007438Y-101666667D01*
X166007438Y-101666667D02*
X165912200Y-101857143D01*
X165912200Y-101857143D02*
X165721723Y-102047619D01*
X165721723Y-102047619D02*
X165340771Y-102142857D01*
X165340771Y-102142857D02*
X164674104Y-102142857D01*
X164674104Y-102142857D02*
X164293152Y-102047619D01*
X164293152Y-102047619D02*
X164102676Y-101857143D01*
X164102676Y-101857143D02*
X164007438Y-101666667D01*
X164007438Y-99952381D02*
X165626485Y-99952381D01*
X165626485Y-99952381D02*
X165816961Y-99857143D01*
X165816961Y-99857143D02*
X165912200Y-99761905D01*
X165912200Y-99761905D02*
X166007438Y-99571429D01*
X166007438Y-99571429D02*
X166007438Y-99190476D01*
X166007438Y-99190476D02*
X165912200Y-99000000D01*
X165912200Y-99000000D02*
X165816961Y-98904762D01*
X165816961Y-98904762D02*
X165626485Y-98809524D01*
X165626485Y-98809524D02*
X164007438Y-98809524D01*
X164007438Y-98142857D02*
X164007438Y-97000000D01*
X166007438Y-97571429D02*
X164007438Y-97571429D01*
X164007438Y-94999999D02*
X164007438Y-93666666D01*
X164007438Y-93666666D02*
X166007438Y-94999999D01*
X166007438Y-94999999D02*
X166007438Y-93666666D01*
X164007438Y-92523809D02*
X164007438Y-92142856D01*
X164007438Y-92142856D02*
X164102676Y-91952380D01*
X164102676Y-91952380D02*
X164293152Y-91761904D01*
X164293152Y-91761904D02*
X164674104Y-91666666D01*
X164674104Y-91666666D02*
X165340771Y-91666666D01*
X165340771Y-91666666D02*
X165721723Y-91761904D01*
X165721723Y-91761904D02*
X165912200Y-91952380D01*
X165912200Y-91952380D02*
X166007438Y-92142856D01*
X166007438Y-92142856D02*
X166007438Y-92523809D01*
X166007438Y-92523809D02*
X165912200Y-92714285D01*
X165912200Y-92714285D02*
X165721723Y-92904761D01*
X165721723Y-92904761D02*
X165340771Y-92999999D01*
X165340771Y-92999999D02*
X164674104Y-92999999D01*
X164674104Y-92999999D02*
X164293152Y-92904761D01*
X164293152Y-92904761D02*
X164102676Y-92714285D01*
X164102676Y-92714285D02*
X164007438Y-92523809D01*
X166007438Y-90809523D02*
X164007438Y-90809523D01*
X164007438Y-90809523D02*
X166007438Y-89666666D01*
X166007438Y-89666666D02*
X164007438Y-89666666D01*
X164959819Y-88714285D02*
X164959819Y-88047618D01*
X166007438Y-87761904D02*
X166007438Y-88714285D01*
X166007438Y-88714285D02*
X164007438Y-88714285D01*
X164007438Y-88714285D02*
X164007438Y-87761904D01*
X154363330Y-103839285D02*
X154363330Y-103244047D01*
X154720473Y-103958333D02*
X153470473Y-103541666D01*
X153470473Y-103541666D02*
X154720473Y-103125000D01*
X154720473Y-102708332D02*
X153470473Y-102708332D01*
X153470473Y-102708332D02*
X154720473Y-101994047D01*
X154720473Y-101994047D02*
X153470473Y-101994047D01*
X153470473Y-101577380D02*
X153470473Y-100863094D01*
X154720473Y-101220237D02*
X153470473Y-101220237D01*
X154065711Y-100446427D02*
X154065711Y-100029761D01*
X154720473Y-99851189D02*
X154720473Y-100446427D01*
X154720473Y-100446427D02*
X153470473Y-100446427D01*
X153470473Y-100446427D02*
X153470473Y-99851189D01*
X154720473Y-99315475D02*
X153470473Y-99315475D01*
X153470473Y-99315475D02*
X154720473Y-98601190D01*
X154720473Y-98601190D02*
X153470473Y-98601190D01*
X154720473Y-98005951D02*
X153470473Y-98005951D01*
X153470473Y-98005951D02*
X154720473Y-97291666D01*
X154720473Y-97291666D02*
X153470473Y-97291666D01*
X154363330Y-96755951D02*
X154363330Y-96160713D01*
X154720473Y-96874999D02*
X153470473Y-96458332D01*
X153470473Y-96458332D02*
X154720473Y-96041666D01*
%TO.C,H3*%
X102000000Y-89700000D02*
G75*
G02*
X98000000Y-89700000I-2000000J0D01*
G01*
X98000000Y-89700000D02*
G75*
G02*
X102000000Y-89700000I2000000J0D01*
G01*
%TO.C,H8*%
X119000000Y-100000000D02*
G75*
G02*
X115000000Y-100000000I-2000000J0D01*
G01*
X115000000Y-100000000D02*
G75*
G02*
X119000000Y-100000000I2000000J0D01*
G01*
%TO.C,H1*%
X54000000Y-87000000D02*
G75*
G02*
X50000000Y-87000000I-2000000J0D01*
G01*
X50000000Y-87000000D02*
G75*
G02*
X54000000Y-87000000I2000000J0D01*
G01*
%TO.C,H5*%
X150000000Y-87000000D02*
G75*
G02*
X146000000Y-87000000I-2000000J0D01*
G01*
X146000000Y-87000000D02*
G75*
G02*
X150000000Y-87000000I2000000J0D01*
G01*
%TO.C,H6*%
X150000000Y-113000000D02*
G75*
G02*
X146000000Y-113000000I-2000000J0D01*
G01*
X146000000Y-113000000D02*
G75*
G02*
X150000000Y-113000000I2000000J0D01*
G01*
%TO.C,H4*%
X102000000Y-110300000D02*
G75*
G02*
X98000000Y-110300000I-2000000J0D01*
G01*
X98000000Y-110300000D02*
G75*
G02*
X102000000Y-110300000I2000000J0D01*
G01*
%TO.C,H7*%
X85000000Y-100000000D02*
G75*
G02*
X81000000Y-100000000I-2000000J0D01*
G01*
X81000000Y-100000000D02*
G75*
G02*
X85000000Y-100000000I2000000J0D01*
G01*
%TO.C,H2*%
X54000000Y-113000000D02*
G75*
G02*
X50000000Y-113000000I-2000000J0D01*
G01*
X50000000Y-113000000D02*
G75*
G02*
X54000000Y-113000000I2000000J0D01*
G01*
%TD*%
M02*
