%TF.GenerationSoftware,KiCad,Pcbnew,8.0.0*%
%TF.CreationDate,2024-11-21T20:10:56+00:00*%
%TF.ProjectId,display-board,64697370-6c61-4792-9d62-6f6172642e6b,rev?*%
%TF.SameCoordinates,Original*%
%TF.FileFunction,Copper,L1,Top*%
%TF.FilePolarity,Positive*%
%FSLAX46Y46*%
G04 Gerber Fmt 4.6, Leading zero omitted, Abs format (unit mm)*
G04 Created by KiCad (PCBNEW 8.0.0) date 2024-11-21 20:10:56*
%MOMM*%
%LPD*%
G01*
G04 APERTURE LIST*
G04 Aperture macros list*
%AMRoundRect*
0 Rectangle with rounded corners*
0 $1 Rounding radius*
0 $2 $3 $4 $5 $6 $7 $8 $9 X,Y pos of 4 corners*
0 Add a 4 corners polygon primitive as box body*
4,1,4,$2,$3,$4,$5,$6,$7,$8,$9,$2,$3,0*
0 Add four circle primitives for the rounded corners*
1,1,$1+$1,$2,$3*
1,1,$1+$1,$4,$5*
1,1,$1+$1,$6,$7*
1,1,$1+$1,$8,$9*
0 Add four rect primitives between the rounded corners*
20,1,$1+$1,$2,$3,$4,$5,0*
20,1,$1+$1,$4,$5,$6,$7,0*
20,1,$1+$1,$6,$7,$8,$9,0*
20,1,$1+$1,$8,$9,$2,$3,0*%
G04 Aperture macros list end*
%TA.AperFunction,ComponentPad*%
%ADD10R,1.000000X1.000000*%
%TD*%
%TA.AperFunction,ComponentPad*%
%ADD11O,1.000000X1.000000*%
%TD*%
%TA.AperFunction,SMDPad,CuDef*%
%ADD12RoundRect,0.225000X-0.225000X-0.875000X0.225000X-0.875000X0.225000X0.875000X-0.225000X0.875000X0*%
%TD*%
%TA.AperFunction,ComponentPad*%
%ADD13C,2.000000*%
%TD*%
%TA.AperFunction,ComponentPad*%
%ADD14R,1.524000X2.524000*%
%TD*%
%TA.AperFunction,ComponentPad*%
%ADD15O,1.524000X2.524000*%
%TD*%
%TA.AperFunction,ComponentPad*%
%ADD16R,2.000000X2.000000*%
%TD*%
%TA.AperFunction,ComponentPad*%
%ADD17C,0.600000*%
%TD*%
%TA.AperFunction,SMDPad,CuDef*%
%ADD18R,9.700000X3.400000*%
%TD*%
%TA.AperFunction,ViaPad*%
%ADD19C,0.600000*%
%TD*%
%TA.AperFunction,Conductor*%
%ADD20C,0.500000*%
%TD*%
%TA.AperFunction,Conductor*%
%ADD21C,0.400000*%
%TD*%
%TA.AperFunction,Conductor*%
%ADD22C,0.200000*%
%TD*%
G04 APERTURE END LIST*
D10*
%TO.P,PWR3,1,Pin_1*%
%TO.N,/BAT+*%
X61400000Y-110000000D03*
D11*
%TO.P,PWR3,2,Pin_2*%
%TO.N,/LDO*%
X62670000Y-110000000D03*
%TO.P,PWR3,3,Pin_3*%
%TO.N,/BUZZER*%
X63940000Y-110000000D03*
%TO.P,PWR3,4,Pin_4*%
%TO.N,GND*%
X65210000Y-110000000D03*
%TD*%
D10*
%TO.P,SW_C1,1,Pin_1*%
%TO.N,/SW1*%
X76650000Y-84900000D03*
D11*
%TO.P,SW_C1,2,Pin_2*%
%TO.N,/SW2*%
X77920000Y-84900000D03*
%TO.P,SW_C1,3,Pin_3*%
%TO.N,GND*%
X79190000Y-84900000D03*
%TD*%
D10*
%TO.P,DD1,1,Pin_1*%
%TO.N,/VPRG*%
X83005000Y-84900000D03*
D11*
%TO.P,DD1,2,Pin_2*%
%TO.N,/CTRL*%
X84275000Y-84900000D03*
%TO.P,DD1,3,Pin_3*%
%TO.N,/GSCLK*%
X85545000Y-84900000D03*
%TO.P,DD1,4,Pin_4*%
%TO.N,/BLANK*%
X86815000Y-84900000D03*
%TO.P,DD1,5,Pin_5*%
%TO.N,/XLAT*%
X88085000Y-84900000D03*
%TO.P,DD1,6,Pin_6*%
%TO.N,/XERR*%
X89355000Y-84900000D03*
%TO.P,DD1,7,Pin_7*%
%TO.N,/SCLK*%
X90625000Y-84900000D03*
%TO.P,DD1,8,Pin_8*%
%TO.N,/SIN*%
X91895000Y-84900000D03*
%TO.P,DD1,9,Pin_9*%
%TO.N,/SOUT*%
X93165000Y-84900000D03*
%TO.P,DD1,10,Pin_10*%
%TO.N,GND*%
X94435000Y-84900000D03*
%TD*%
D10*
%TO.P,PWR4,1,Pin_1*%
%TO.N,/BAT+*%
X138600000Y-110000000D03*
D11*
%TO.P,PWR4,2,Pin_2*%
%TO.N,/LDO*%
X137330000Y-110000000D03*
%TO.P,PWR4,3,Pin_3*%
%TO.N,/BUZZER*%
X136060000Y-110000000D03*
%TO.P,PWR4,4,Pin_4*%
%TO.N,GND*%
X134790000Y-110000000D03*
%TD*%
D10*
%TO.P,SW_C2,1,Pin_1*%
%TO.N,/SW1*%
X123350000Y-84900000D03*
D11*
%TO.P,SW_C2,2,Pin_2*%
%TO.N,/SW2*%
X122080000Y-84900000D03*
%TO.P,SW_C2,3,Pin_3*%
%TO.N,GND*%
X120810000Y-84900000D03*
%TD*%
D12*
%TO.P,U3,1,E*%
%TO.N,Net-(U1-OUT4)*%
X84120000Y-104400000D03*
%TO.P,U3,2,D*%
%TO.N,Net-(U1-OUT3)*%
X85560000Y-104400000D03*
%TO.P,U3,3,CA*%
%TO.N,/7SEG_SD*%
X87000000Y-104400000D03*
%TO.P,U3,4,C*%
%TO.N,Net-(U1-OUT2)*%
X88440000Y-104400000D03*
%TO.P,U3,5,DP*%
%TO.N,Net-(U1-OUT7)*%
X89880000Y-104400000D03*
%TO.P,U3,6,B*%
%TO.N,Net-(U1-OUT1)*%
X89880000Y-95600000D03*
%TO.P,U3,7,A*%
%TO.N,Net-(U1-OUT0)*%
X88440000Y-95600000D03*
%TO.P,U3,8,CA*%
%TO.N,/7SEG_SD*%
X87000000Y-95600000D03*
%TO.P,U3,9,F*%
%TO.N,Net-(U1-OUT5)*%
X85560000Y-95600000D03*
%TO.P,U3,10,G*%
%TO.N,Net-(U1-OUT6)*%
X84120000Y-95600000D03*
%TD*%
D10*
%TO.P,CA1,1,Pin_1*%
%TO.N,/MC_DD_1*%
X69025000Y-84900000D03*
D11*
%TO.P,CA1,2,Pin_2*%
%TO.N,/MC_DD_2*%
X70295000Y-84900000D03*
%TO.P,CA1,3,Pin_3*%
%TO.N,/MC_SD*%
X71565000Y-84900000D03*
%TO.P,CA1,4,Pin_4*%
%TO.N,GND*%
X72835000Y-84900000D03*
%TD*%
D12*
%TO.P,U5,1,E*%
%TO.N,Net-(U1-OUT12)*%
X110120000Y-104400000D03*
%TO.P,U5,2,D*%
%TO.N,Net-(U1-OUT11)*%
X111560000Y-104400000D03*
%TO.P,U5,3,CA*%
%TO.N,/7SEG_SD*%
X113000000Y-104400000D03*
%TO.P,U5,4,C*%
%TO.N,Net-(U1-OUT10)*%
X114440000Y-104400000D03*
%TO.P,U5,5,DP*%
%TO.N,Net-(U1-OUT15)*%
X115880000Y-104400000D03*
%TO.P,U5,6,B*%
%TO.N,Net-(U1-OUT9)*%
X115880000Y-95600000D03*
%TO.P,U5,7,A*%
%TO.N,Net-(U1-OUT8)*%
X114440000Y-95600000D03*
%TO.P,U5,8,CA*%
%TO.N,/7SEG_SD*%
X113000000Y-95600000D03*
%TO.P,U5,9,F*%
%TO.N,Net-(U1-OUT13)*%
X111560000Y-95600000D03*
%TO.P,U5,10,G*%
%TO.N,Net-(U1-OUT14)*%
X110120000Y-95600000D03*
%TD*%
D13*
%TO.P,SW2,1,1*%
%TO.N,GND*%
X144200000Y-99900000D03*
%TO.N,N/C*%
X157200000Y-99900000D03*
%TO.P,SW2,2,2*%
%TO.N,Net-(R11-Pad1)*%
X144200000Y-94900000D03*
%TO.N,N/C*%
X157200000Y-94900000D03*
%TD*%
D10*
%TO.P,DD2,1,Pin_1*%
%TO.N,/VPRG*%
X116995000Y-84900000D03*
D11*
%TO.P,DD2,2,Pin_2*%
%TO.N,/CTRL*%
X115725000Y-84900000D03*
%TO.P,DD2,3,Pin_3*%
%TO.N,/GSCLK*%
X114455000Y-84900000D03*
%TO.P,DD2,4,Pin_4*%
%TO.N,/BLANK*%
X113185000Y-84900000D03*
%TO.P,DD2,5,Pin_5*%
%TO.N,/XLAT*%
X111915000Y-84900000D03*
%TO.P,DD2,6,Pin_6*%
%TO.N,/XERR*%
X110645000Y-84900000D03*
%TO.P,DD2,7,Pin_7*%
%TO.N,/SCLK*%
X109375000Y-84900000D03*
%TO.P,DD2,8,Pin_8*%
%TO.N,/SIN*%
X108105000Y-84900000D03*
%TO.P,DD2,9,Pin_9*%
%TO.N,/SOUT*%
X106835000Y-84900000D03*
%TO.P,DD2,10,Pin_10*%
%TO.N,GND*%
X105565000Y-84900000D03*
%TD*%
D14*
%TO.P,U2,1,c*%
%TO.N,Net-(U1-OUT2)*%
X63820000Y-105000000D03*
D15*
%TO.P,U2,2,DP*%
%TO.N,Net-(U1-OUT7)*%
X66360000Y-105000000D03*
%TO.P,U2,3,e*%
%TO.N,Net-(U1-OUT4)*%
X68900000Y-105000000D03*
%TO.P,U2,4,d*%
%TO.N,Net-(U1-OUT3)*%
X71440000Y-105000000D03*
%TO.P,U2,5,g*%
%TO.N,Net-(U1-OUT6)*%
X73980000Y-105000000D03*
%TO.P,U2,6,f*%
%TO.N,Net-(U1-OUT5)*%
X73980000Y-89760000D03*
%TO.P,U2,7,CA_D2*%
%TO.N,/7SEG_DD_2*%
X71440000Y-89760000D03*
%TO.P,U2,8,CA_D1*%
%TO.N,/7SEG_DD_1*%
X68900000Y-89760000D03*
%TO.P,U2,9,b*%
%TO.N,Net-(U1-OUT1)*%
X66360000Y-89760000D03*
D14*
%TO.P,U2,10,a*%
%TO.N,Net-(U1-OUT0)*%
X63820000Y-89760000D03*
%TD*%
D13*
%TO.P,SW1,1,1*%
%TO.N,Net-(R13-Pad1)*%
X55800000Y-94900000D03*
%TO.N,N/C*%
X42800000Y-94900000D03*
%TO.P,SW1,2,2*%
%TO.N,GND*%
X55800000Y-99900000D03*
%TO.N,N/C*%
X42800000Y-99900000D03*
%TD*%
D16*
%TO.P,BZ1,1,-*%
%TO.N,VCC*%
X102500000Y-93999999D03*
D13*
%TO.P,BZ1,2,+*%
%TO.N,Net-(BZ1-+)*%
X97500000Y-93999999D03*
%TD*%
D10*
%TO.P,PWR1,1,Pin_1*%
%TO.N,/BAT+*%
X61400000Y-84900000D03*
D11*
%TO.P,PWR1,2,Pin_2*%
%TO.N,/LDO*%
X62670000Y-84900000D03*
%TO.P,PWR1,3,Pin_3*%
%TO.N,/BUZZER*%
X63940000Y-84900000D03*
%TO.P,PWR1,4,Pin_4*%
%TO.N,GND*%
X65210000Y-84900000D03*
%TD*%
D10*
%TO.P,CA2,1,Pin_1*%
%TO.N,/MC_DD_1*%
X130975000Y-84900000D03*
D11*
%TO.P,CA2,2,Pin_2*%
%TO.N,/MC_DD_2*%
X129705000Y-84900000D03*
%TO.P,CA2,3,Pin_3*%
%TO.N,/MC_SD*%
X128435000Y-84900000D03*
%TO.P,CA2,4,Pin_4*%
%TO.N,GND*%
X127165000Y-84900000D03*
%TD*%
D14*
%TO.P,U4,1,c*%
%TO.N,Net-(U1-OUT10)*%
X126000000Y-105000000D03*
D15*
%TO.P,U4,2,DP*%
%TO.N,Net-(U1-OUT15)*%
X128540000Y-105000000D03*
%TO.P,U4,3,e*%
%TO.N,Net-(U1-OUT12)*%
X131080000Y-105000000D03*
%TO.P,U4,4,d*%
%TO.N,Net-(U1-OUT11)*%
X133620000Y-105000000D03*
%TO.P,U4,5,g*%
%TO.N,Net-(U1-OUT14)*%
X136160000Y-105000000D03*
%TO.P,U4,6,f*%
%TO.N,Net-(U1-OUT13)*%
X136160000Y-89760000D03*
%TO.P,U4,7,CA_D2*%
%TO.N,/7SEG_DD_2*%
X133620000Y-89760000D03*
%TO.P,U4,8,CA_D1*%
%TO.N,/7SEG_DD_1*%
X131080000Y-89760000D03*
%TO.P,U4,9,b*%
%TO.N,Net-(U1-OUT9)*%
X128540000Y-89760000D03*
D14*
%TO.P,U4,10,a*%
%TO.N,Net-(U1-OUT8)*%
X126000000Y-89760000D03*
%TD*%
D10*
%TO.P,PWR2,1,Pin_1*%
%TO.N,/BAT+*%
X138600000Y-84900000D03*
D11*
%TO.P,PWR2,2,Pin_2*%
%TO.N,/LDO*%
X137330000Y-84900000D03*
%TO.P,PWR2,3,Pin_3*%
%TO.N,/BUZZER*%
X136060000Y-84900000D03*
%TO.P,PWR2,4,Pin_4*%
%TO.N,GND*%
X134790000Y-84900000D03*
%TD*%
D17*
%TO.P,U1,29,PAD*%
%TO.N,GND*%
X104450000Y-101700000D03*
X102670000Y-101700000D03*
X100890000Y-101700000D03*
X99110000Y-101700000D03*
X97330000Y-101700000D03*
X95550000Y-101700000D03*
X104450000Y-103000000D03*
X102670000Y-103000000D03*
X100890000Y-103000000D03*
D18*
X100000000Y-103000000D03*
D17*
X99110000Y-103000000D03*
X97330000Y-103000000D03*
X95550000Y-103000000D03*
X104450000Y-104300000D03*
X102670000Y-104300000D03*
X100890000Y-104300000D03*
X99110000Y-104300000D03*
X97330000Y-104300000D03*
X95550000Y-104300000D03*
%TD*%
D19*
%TO.N,/SW1*%
X55795000Y-103100000D03*
%TO.N,/SW2*%
X144432500Y-88900000D03*
%TO.N,/SW1*%
X55557500Y-88900000D03*
%TO.N,/CTRL*%
X75995000Y-110450000D03*
%TO.N,/BUZZER*%
X102995000Y-90400000D03*
%TO.N,VCC*%
X105350001Y-99350001D03*
X93000000Y-100000000D03*
%TO.N,/MC_DD_2*%
X62395000Y-94400000D03*
%TO.N,/LDO*%
X73795000Y-110450000D03*
X106195000Y-90500000D03*
%TO.N,/BAT+*%
X77795000Y-110450000D03*
X108795000Y-90500000D03*
%TO.N,/MC_DD_1*%
X122000000Y-93500000D03*
%TO.N,/MC_SD*%
X113295000Y-93000000D03*
%TO.N,GND*%
X70795000Y-98200000D03*
X97095000Y-84900000D03*
X94895000Y-90800000D03*
X98395000Y-91000000D03*
X98295000Y-84900000D03*
X67695000Y-101500000D03*
X67695000Y-99700000D03*
X71595000Y-98900000D03*
X94895000Y-92000000D03*
X69295000Y-99700000D03*
X71595000Y-97500000D03*
X102795000Y-84900000D03*
X95895000Y-84900000D03*
X95995000Y-91500000D03*
X72295000Y-98200000D03*
X103770735Y-84924265D03*
X101705000Y-84900000D03*
X99595000Y-91000000D03*
X95995000Y-92800000D03*
%TO.N,/7SEG_DD_1*%
X123225000Y-98137500D03*
%TO.N,/7SEG_SD*%
X113100000Y-95600000D03*
X87000000Y-104400000D03*
X86995000Y-95600000D03*
X112995000Y-104400000D03*
X107095000Y-99200000D03*
%TO.N,/GSCLK*%
X97995000Y-107600000D03*
%TO.N,Net-(U1-OUT4)*%
X91095000Y-96100000D03*
%TO.N,/SIN*%
X98374576Y-99200000D03*
%TO.N,/XERR*%
X99020735Y-107609799D03*
%TO.N,/BLANK*%
X96184232Y-98600011D03*
%TO.N,Net-(U1-OUT10)*%
X114440000Y-104400000D03*
%TO.N,/SOUT*%
X98410136Y-106864682D03*
%TO.N,Net-(U1-OUT0)*%
X99695000Y-99100000D03*
X88440000Y-95600000D03*
%TO.N,Net-(U1-OUT11)*%
X111560000Y-107600000D03*
%TO.N,Net-(U1-OUT8)*%
X109200000Y-102000000D03*
%TO.N,Net-(U1-OUT2)*%
X88400000Y-104500000D03*
X100095803Y-97799197D03*
%TO.N,/SCLK*%
X97695000Y-98700000D03*
%TO.N,Net-(U1-OUT3)*%
X99565230Y-97200000D03*
%TO.N,Net-(U1-OUT1)*%
X89880000Y-95600000D03*
%TO.N,Net-(U1-OUT14)*%
X108000000Y-109400000D03*
%TO.N,/XLAT*%
X96984234Y-98200000D03*
X97595000Y-90287500D03*
X88486422Y-86008578D03*
%TO.N,Net-(U1-OUT7)*%
X103221765Y-96873235D03*
%TO.N,Net-(U1-OUT9)*%
X109200000Y-103000000D03*
%TO.N,Net-(U1-OUT15)*%
X115880000Y-104400000D03*
%TO.N,Net-(U1-OUT13)*%
X109000000Y-109000000D03*
X111600000Y-95600000D03*
X110500000Y-91900000D03*
%TO.N,/VPRG*%
X99045000Y-98450000D03*
X92295000Y-90300000D03*
%TO.N,Net-(U1-OUT5)*%
X85560000Y-95600000D03*
%TO.N,Net-(U1-OUT6)*%
X84120000Y-95600000D03*
X76500000Y-99000000D03*
X76500000Y-101000000D03*
%TO.N,Net-(U1-OUT12)*%
X110200000Y-108600000D03*
%TD*%
D20*
%TO.N,/BAT+*%
X61400000Y-84900000D02*
X61400000Y-86595000D01*
X61400000Y-86595000D02*
X60095000Y-87900000D01*
X60095000Y-87900000D02*
X60095000Y-107500000D01*
X60095000Y-107500000D02*
X61400000Y-108805000D01*
X61400000Y-108805000D02*
X61400000Y-110000000D01*
D21*
%TO.N,/LDO*%
X62670000Y-84900000D02*
X62670000Y-86417894D01*
X62670000Y-109075000D02*
X62670000Y-110000000D01*
X62670000Y-86417894D02*
X60895000Y-88192894D01*
X60895000Y-88192894D02*
X60895000Y-107300000D01*
X60895000Y-107300000D02*
X62670000Y-109075000D01*
D22*
%TO.N,/BUZZER*%
X63940000Y-110000000D02*
X63940000Y-109637894D01*
X63940000Y-109637894D02*
X61395000Y-107092894D01*
X61395000Y-88400000D02*
X63940000Y-85855000D01*
X61395000Y-107092894D02*
X61395000Y-88400000D01*
X63940000Y-85855000D02*
X63940000Y-84900000D01*
D20*
%TO.N,VCC*%
X94460661Y-100000000D02*
X94810661Y-100350000D01*
X104350002Y-100350000D02*
X105350001Y-99350001D01*
X94810661Y-100350000D02*
X104350002Y-100350000D01*
X93000000Y-100000000D02*
X94460661Y-100000000D01*
D22*
%TO.N,/MC_DD_2*%
X70295000Y-86000000D02*
X70295000Y-84900000D01*
X62895000Y-87500000D02*
X68795000Y-87500000D01*
X62295000Y-94300000D02*
X62295000Y-88100000D01*
X68795000Y-87500000D02*
X70295000Y-86000000D01*
X62295000Y-88100000D02*
X62895000Y-87500000D01*
X62395000Y-94400000D02*
X62295000Y-94300000D01*
D21*
%TO.N,/BAT+*%
X125095000Y-86700000D02*
X125095000Y-84000000D01*
D20*
X61400000Y-110000000D02*
X61400000Y-111000000D01*
X61400000Y-111000000D02*
X62000000Y-111600000D01*
X137945000Y-111600000D02*
X138600000Y-110945000D01*
D21*
X125095000Y-84000000D02*
X125895000Y-83200000D01*
X125895000Y-83200000D02*
X137695000Y-83200000D01*
X137695000Y-83200000D02*
X138600000Y-84105000D01*
X108795000Y-90500000D02*
X109595000Y-89700000D01*
D20*
X138600000Y-110945000D02*
X138600000Y-110000000D01*
D21*
X109595000Y-89700000D02*
X122095000Y-89700000D01*
D20*
X62000000Y-111600000D02*
X137945000Y-111600000D01*
D21*
X122095000Y-89700000D02*
X125095000Y-86700000D01*
X138600000Y-84105000D02*
X138600000Y-84900000D01*
D22*
%TO.N,/MC_SD*%
X99643466Y-96273235D02*
X107371765Y-96273235D01*
X71565000Y-87070000D02*
X72195000Y-87700000D01*
X71565000Y-84900000D02*
X71565000Y-87070000D01*
X91695000Y-96100000D02*
X92295000Y-96700000D01*
X72195000Y-87700000D02*
X74860685Y-87700000D01*
X75695000Y-90343628D02*
X78451372Y-93100000D01*
X107371765Y-96273235D02*
X110645000Y-93000000D01*
X88095000Y-93100000D02*
X88895000Y-93900000D01*
X88895000Y-93900000D02*
X90195000Y-93900000D01*
X92295000Y-96700000D02*
X99216701Y-96700000D01*
X78451372Y-93100000D02*
X88095000Y-93100000D01*
X75695000Y-88534314D02*
X75695000Y-90343628D01*
X74860685Y-87700000D02*
X75695000Y-88534314D01*
X91695000Y-95400000D02*
X91695000Y-96100000D01*
X90195000Y-93900000D02*
X91695000Y-95400000D01*
X110645000Y-93000000D02*
X113295000Y-93000000D01*
X99216701Y-96700000D02*
X99643466Y-96273235D01*
D21*
%TO.N,/7SEG_DD_1*%
X131080000Y-89760000D02*
X131080000Y-93520000D01*
X131080000Y-93520000D02*
X126462500Y-98137500D01*
X126462500Y-98137500D02*
X123225000Y-98137500D01*
D22*
%TO.N,/GSCLK*%
X85895000Y-87100000D02*
X85545000Y-86750000D01*
X113795000Y-87100000D02*
X85895000Y-87100000D01*
X114455000Y-86440000D02*
X113795000Y-87100000D01*
X114455000Y-84900000D02*
X114455000Y-86440000D01*
X85545000Y-86750000D02*
X85545000Y-84900000D01*
%TO.N,Net-(U1-OUT4)*%
X70100000Y-102900000D02*
X83800000Y-102900000D01*
X68900000Y-105000000D02*
X68900000Y-104100000D01*
X68900000Y-104100000D02*
X70100000Y-102900000D01*
X91095000Y-96100000D02*
X91095000Y-97405000D01*
X84120000Y-103220000D02*
X84120000Y-104400000D01*
X91095000Y-97405000D02*
X88000000Y-100500000D01*
X86950000Y-102400000D02*
X84800000Y-102400000D01*
X84800000Y-102400000D02*
X84120000Y-103080000D01*
X84120000Y-103080000D02*
X84120000Y-104400000D01*
X83800000Y-102900000D02*
X84120000Y-103220000D01*
X88000000Y-100500000D02*
X88000000Y-101350000D01*
X88000000Y-101350000D02*
X86950000Y-102400000D01*
%TO.N,/SIN*%
X91895000Y-84450000D02*
X91895000Y-84900000D01*
X108105000Y-84900000D02*
X108105000Y-84310000D01*
X108105000Y-84310000D02*
X107345000Y-83550000D01*
X92795000Y-83550000D02*
X91895000Y-84450000D01*
X107345000Y-83550000D02*
X92795000Y-83550000D01*
%TO.N,Net-(U1-OUT10)*%
X126000000Y-105000000D02*
X126000000Y-102600000D01*
X126000000Y-102600000D02*
X125100000Y-101700000D01*
X125100000Y-101700000D02*
X115300000Y-101700000D01*
X114440000Y-102560000D02*
X114440000Y-104400000D01*
X115300000Y-101700000D02*
X114440000Y-102560000D01*
%TO.N,/SOUT*%
X106835000Y-84900000D02*
X106835000Y-84240000D01*
X106545000Y-83950000D02*
X93745000Y-83950000D01*
X93745000Y-83950000D02*
X93165000Y-84530000D01*
X106835000Y-84240000D02*
X106545000Y-83950000D01*
X93165000Y-84530000D02*
X93165000Y-84900000D01*
%TO.N,Net-(U1-OUT0)*%
X88440000Y-94045000D02*
X87895000Y-93500000D01*
X75295000Y-88700000D02*
X74695000Y-88100000D01*
X78285686Y-93500000D02*
X75295000Y-90509314D01*
X65480000Y-88100000D02*
X63820000Y-89760000D01*
X88440000Y-95600000D02*
X88440000Y-94045000D01*
X75295000Y-90509314D02*
X75295000Y-88700000D01*
X74695000Y-88100000D02*
X65480000Y-88100000D01*
X87895000Y-93500000D02*
X78285686Y-93500000D01*
%TO.N,Net-(U1-OUT11)*%
X131100000Y-100900000D02*
X113500000Y-100900000D01*
X133620000Y-103420000D02*
X131100000Y-100900000D01*
X111560000Y-107600000D02*
X111560000Y-104400000D01*
X111560000Y-102840000D02*
X111560000Y-104400000D01*
X133620000Y-105000000D02*
X133620000Y-103420000D01*
X113500000Y-100900000D02*
X111560000Y-102840000D01*
%TO.N,Net-(U1-OUT8)*%
X114440000Y-97060000D02*
X114440000Y-95600000D01*
X117431304Y-92200000D02*
X124900000Y-92200000D01*
X124900000Y-92200000D02*
X126000000Y-91100000D01*
X126000000Y-91100000D02*
X126000000Y-89760000D01*
X114440000Y-95191304D02*
X117431304Y-92200000D01*
X114440000Y-95600000D02*
X114440000Y-95191304D01*
X109200000Y-102000000D02*
X109500000Y-102000000D01*
X109500000Y-102000000D02*
X114440000Y-97060000D01*
%TO.N,/CTRL*%
X115725000Y-86770000D02*
X115725000Y-84900000D01*
X84275000Y-84900000D02*
X84275000Y-86580000D01*
X84275000Y-86580000D02*
X85295000Y-87600000D01*
X114895000Y-87600000D02*
X115725000Y-86770000D01*
X85295000Y-87600000D02*
X114895000Y-87600000D01*
%TO.N,Net-(U1-OUT2)*%
X89000000Y-100900000D02*
X89000000Y-101565686D01*
X99814180Y-97799197D02*
X99813377Y-97800000D01*
X98995000Y-97600000D02*
X92300000Y-97600000D01*
X92300000Y-97600000D02*
X89000000Y-100900000D01*
X88440000Y-102125686D02*
X88440000Y-104400000D01*
X89000000Y-101565686D02*
X88440000Y-102125686D01*
X100095803Y-97799197D02*
X99814180Y-97799197D01*
X99813377Y-97800000D02*
X99195000Y-97800000D01*
X99195000Y-97800000D02*
X98995000Y-97600000D01*
%TO.N,/SCLK*%
X108245000Y-83150000D02*
X109375000Y-84280000D01*
X90625000Y-84900000D02*
X90625000Y-84270000D01*
X91745000Y-83150000D02*
X108245000Y-83150000D01*
X109375000Y-84280000D02*
X109375000Y-84900000D01*
X90625000Y-84270000D02*
X91745000Y-83150000D01*
%TO.N,Net-(U1-OUT3)*%
X71440000Y-105500000D02*
X73140000Y-107200000D01*
X71440000Y-105000000D02*
X71440000Y-105500000D01*
X92000000Y-97200000D02*
X88500000Y-100700000D01*
X88500000Y-101500000D02*
X87200000Y-102800000D01*
X73140000Y-107200000D02*
X85000000Y-107200000D01*
X85800000Y-102800000D02*
X85560000Y-103040000D01*
X99565230Y-97200000D02*
X92000000Y-97200000D01*
X87200000Y-102800000D02*
X85800000Y-102800000D01*
X85000000Y-107200000D02*
X85560000Y-106640000D01*
X85560000Y-103040000D02*
X85560000Y-104400000D01*
X88500000Y-100700000D02*
X88500000Y-101500000D01*
X85560000Y-106640000D02*
X85560000Y-104400000D01*
%TO.N,Net-(U1-OUT1)*%
X89880000Y-96920000D02*
X89880000Y-95600000D01*
X77954314Y-94300000D02*
X80195000Y-94300000D01*
X67795000Y-91600000D02*
X75254314Y-91600000D01*
X66360000Y-89760000D02*
X66360000Y-90165000D01*
X89100000Y-97700000D02*
X89880000Y-96920000D01*
X80195000Y-94300000D02*
X83595000Y-97700000D01*
X83595000Y-97700000D02*
X89100000Y-97700000D01*
X66360000Y-90165000D02*
X67795000Y-91600000D01*
X75254314Y-91600000D02*
X77954314Y-94300000D01*
%TO.N,Net-(U1-OUT14)*%
X136160000Y-105000000D02*
X136160000Y-107240000D01*
X108000000Y-109900000D02*
X108000000Y-96500000D01*
X133500000Y-109900000D02*
X108000000Y-109900000D01*
X136160000Y-107240000D02*
X133500000Y-109900000D01*
X108000000Y-96500000D02*
X108900000Y-95600000D01*
X108900000Y-95600000D02*
X110120000Y-95600000D01*
%TO.N,Net-(U1-OUT7)*%
X88300000Y-108000000D02*
X89880000Y-106420000D01*
X93995000Y-98000000D02*
X92700000Y-98000000D01*
X92700000Y-98000000D02*
X89880000Y-100820000D01*
X66360000Y-105000000D02*
X69360000Y-108000000D01*
X89880000Y-106420000D02*
X89880000Y-104400000D01*
X103221765Y-96873235D02*
X100295000Y-99800000D01*
X69360000Y-108000000D02*
X88300000Y-108000000D01*
X95795000Y-99800000D02*
X93995000Y-98000000D01*
X100295000Y-99800000D02*
X95795000Y-99800000D01*
X89880000Y-100820000D02*
X89880000Y-104400000D01*
%TO.N,Net-(U1-OUT9)*%
X109500000Y-103000000D02*
X110000000Y-102500000D01*
X118780000Y-92700000D02*
X127400000Y-92700000D01*
X110500000Y-102500000D02*
X115880000Y-97120000D01*
X115880000Y-95600000D02*
X118780000Y-92700000D01*
X109200000Y-103000000D02*
X109500000Y-103000000D01*
X115880000Y-97120000D02*
X115880000Y-95600000D01*
X128540000Y-91560000D02*
X128540000Y-89760000D01*
X110000000Y-102500000D02*
X110500000Y-102500000D01*
X127400000Y-92700000D02*
X128540000Y-91560000D01*
%TO.N,Net-(U1-OUT15)*%
X127400000Y-107800000D02*
X117800000Y-107800000D01*
X128540000Y-105000000D02*
X128540000Y-106660000D01*
X117800000Y-107800000D02*
X115880000Y-105880000D01*
X128540000Y-106660000D02*
X127400000Y-107800000D01*
X115880000Y-105880000D02*
X115880000Y-104400000D01*
%TO.N,Net-(U1-OUT13)*%
X122302106Y-90200000D02*
X124502106Y-88000000D01*
X135100000Y-88000000D02*
X136160000Y-89060000D01*
X108600000Y-101400000D02*
X111560000Y-98440000D01*
X124502106Y-88000000D02*
X135100000Y-88000000D01*
X110500000Y-91900000D02*
X110500000Y-90800000D01*
X109000000Y-104074265D02*
X108600000Y-103674265D01*
X111600000Y-95600000D02*
X111560000Y-95600000D01*
X136160000Y-89060000D02*
X136160000Y-89760000D01*
X109000000Y-109000000D02*
X109000000Y-104074265D01*
X111100000Y-90200000D02*
X122302106Y-90200000D01*
X111560000Y-98440000D02*
X111600000Y-95600000D01*
X110500000Y-90800000D02*
X111100000Y-90200000D01*
X108600000Y-103674265D02*
X108600000Y-101400000D01*
%TO.N,/VPRG*%
X83005000Y-84900000D02*
X83005000Y-86710000D01*
X116995000Y-84900000D02*
X116895000Y-84900000D01*
X84395000Y-88100000D02*
X91895000Y-88100000D01*
X116995000Y-86900000D02*
X116995000Y-84900000D01*
X92695000Y-88100000D02*
X115795000Y-88100000D01*
X92295000Y-90300000D02*
X92295000Y-88500000D01*
X115795000Y-88100000D02*
X116995000Y-86900000D01*
X92295000Y-88500000D02*
X92695000Y-88100000D01*
X83005000Y-86710000D02*
X84395000Y-88100000D01*
X91895000Y-88100000D02*
X92295000Y-88500000D01*
%TO.N,Net-(U1-OUT5)*%
X78120000Y-93900000D02*
X73980000Y-89760000D01*
X85560000Y-95600000D02*
X85560000Y-94165000D01*
X85560000Y-94165000D02*
X85295000Y-93900000D01*
X85295000Y-93900000D02*
X78120000Y-93900000D01*
%TO.N,Net-(U1-OUT6)*%
X76500000Y-99000000D02*
X76500000Y-101000000D01*
%TO.N,Net-(U1-OUT12)*%
X110200000Y-108600000D02*
X110200000Y-104480000D01*
X128700000Y-108600000D02*
X131080000Y-106220000D01*
X110200000Y-104480000D02*
X110120000Y-104400000D01*
X110200000Y-108600000D02*
X128700000Y-108600000D01*
X131080000Y-106220000D02*
X131080000Y-105000000D01*
%TO.N,/BUZZER*%
X136060000Y-110635000D02*
X136060000Y-110000000D01*
X64345000Y-111050000D02*
X135645000Y-111050000D01*
X135645000Y-111050000D02*
X136060000Y-110635000D01*
X63940000Y-110000000D02*
X63940000Y-110645000D01*
X63940000Y-110645000D02*
X64345000Y-111050000D01*
%TD*%
%TA.AperFunction,Conductor*%
%TO.N,GND*%
G36*
X90812942Y-83020185D02*
G01*
X90858697Y-83072989D01*
X90868641Y-83142147D01*
X90839616Y-83205703D01*
X90833584Y-83212181D01*
X90256286Y-83789478D01*
X90144481Y-83901282D01*
X90144479Y-83901285D01*
X90126194Y-83932956D01*
X90095196Y-83986648D01*
X90094361Y-83988094D01*
X90094358Y-83988098D01*
X90078190Y-84016100D01*
X90027622Y-84064314D01*
X89959015Y-84077535D01*
X89912352Y-84063455D01*
X89739733Y-83971188D01*
X89739727Y-83971186D01*
X89551132Y-83913976D01*
X89551129Y-83913975D01*
X89355000Y-83894659D01*
X89158870Y-83913975D01*
X88970266Y-83971188D01*
X88796467Y-84064086D01*
X88791399Y-84067473D01*
X88790305Y-84065836D01*
X88734337Y-84089596D01*
X88665471Y-84077795D01*
X88648843Y-84067109D01*
X88648601Y-84067473D01*
X88643532Y-84064086D01*
X88469733Y-83971188D01*
X88469727Y-83971186D01*
X88281132Y-83913976D01*
X88281129Y-83913975D01*
X88085000Y-83894659D01*
X87888870Y-83913975D01*
X87700266Y-83971188D01*
X87526467Y-84064086D01*
X87521399Y-84067473D01*
X87520305Y-84065836D01*
X87464337Y-84089596D01*
X87395471Y-84077795D01*
X87378843Y-84067109D01*
X87378601Y-84067473D01*
X87373532Y-84064086D01*
X87199733Y-83971188D01*
X87199727Y-83971186D01*
X87011132Y-83913976D01*
X87011129Y-83913975D01*
X86815000Y-83894659D01*
X86618870Y-83913975D01*
X86430266Y-83971188D01*
X86256467Y-84064086D01*
X86251399Y-84067473D01*
X86250305Y-84065836D01*
X86194337Y-84089596D01*
X86125471Y-84077795D01*
X86108843Y-84067109D01*
X86108601Y-84067473D01*
X86103532Y-84064086D01*
X85929733Y-83971188D01*
X85929727Y-83971186D01*
X85741132Y-83913976D01*
X85741129Y-83913975D01*
X85545000Y-83894659D01*
X85348870Y-83913975D01*
X85160266Y-83971188D01*
X84986467Y-84064086D01*
X84981399Y-84067473D01*
X84980305Y-84065836D01*
X84924337Y-84089596D01*
X84855471Y-84077795D01*
X84838843Y-84067109D01*
X84838601Y-84067473D01*
X84833532Y-84064086D01*
X84659733Y-83971188D01*
X84659727Y-83971186D01*
X84471132Y-83913976D01*
X84471129Y-83913975D01*
X84275000Y-83894659D01*
X84078870Y-83913975D01*
X83954242Y-83951781D01*
X83890273Y-83971186D01*
X83890272Y-83971186D01*
X83890267Y-83971188D01*
X83888143Y-83972324D01*
X83886898Y-83972583D01*
X83884641Y-83973518D01*
X83884463Y-83973089D01*
X83819740Y-83986564D01*
X83755382Y-83962231D01*
X83747331Y-83956204D01*
X83747328Y-83956202D01*
X83612482Y-83905908D01*
X83612483Y-83905908D01*
X83552883Y-83899501D01*
X83552881Y-83899500D01*
X83552873Y-83899500D01*
X83552864Y-83899500D01*
X82457129Y-83899500D01*
X82457123Y-83899501D01*
X82397516Y-83905908D01*
X82262671Y-83956202D01*
X82262664Y-83956206D01*
X82147455Y-84042452D01*
X82147452Y-84042455D01*
X82061206Y-84157664D01*
X82061202Y-84157671D01*
X82010908Y-84292517D01*
X82005617Y-84341739D01*
X82004501Y-84352123D01*
X82004500Y-84352135D01*
X82004500Y-85447870D01*
X82004501Y-85447876D01*
X82010908Y-85507483D01*
X82061202Y-85642328D01*
X82061206Y-85642335D01*
X82147452Y-85757544D01*
X82147455Y-85757547D01*
X82262664Y-85843793D01*
X82262669Y-85843796D01*
X82323833Y-85866608D01*
X82379766Y-85908478D01*
X82404184Y-85973942D01*
X82404500Y-85982790D01*
X82404500Y-86623330D01*
X82404499Y-86623348D01*
X82404499Y-86789054D01*
X82404498Y-86789054D01*
X82445423Y-86941787D01*
X82450451Y-86950495D01*
X82450453Y-86950497D01*
X82524477Y-87078712D01*
X82524481Y-87078717D01*
X82643349Y-87197585D01*
X82643355Y-87197590D01*
X83910139Y-88464374D01*
X83910149Y-88464385D01*
X83914479Y-88468715D01*
X83914480Y-88468716D01*
X84026284Y-88580520D01*
X84097538Y-88621658D01*
X84163215Y-88659577D01*
X84315943Y-88700501D01*
X84315946Y-88700501D01*
X84481653Y-88700501D01*
X84481669Y-88700500D01*
X91570500Y-88700500D01*
X91637539Y-88720185D01*
X91683294Y-88772989D01*
X91694500Y-88824500D01*
X91694500Y-89717587D01*
X91674815Y-89784626D01*
X91667450Y-89794896D01*
X91665186Y-89797734D01*
X91569211Y-89950476D01*
X91509631Y-90120745D01*
X91509630Y-90120750D01*
X91489435Y-90299996D01*
X91489435Y-90300003D01*
X91509630Y-90479249D01*
X91509631Y-90479254D01*
X91569211Y-90649523D01*
X91629842Y-90746016D01*
X91665184Y-90802262D01*
X91792738Y-90929816D01*
X91945478Y-91025789D01*
X92080022Y-91072868D01*
X92115745Y-91085368D01*
X92115750Y-91085369D01*
X92294996Y-91105565D01*
X92295000Y-91105565D01*
X92295004Y-91105565D01*
X92474249Y-91085369D01*
X92474252Y-91085368D01*
X92474255Y-91085368D01*
X92644522Y-91025789D01*
X92797262Y-90929816D01*
X92924816Y-90802262D01*
X93020789Y-90649522D01*
X93080368Y-90479255D01*
X93080369Y-90479249D01*
X93100565Y-90300003D01*
X93100565Y-90299996D01*
X93099157Y-90287503D01*
X96789435Y-90287503D01*
X96809630Y-90466749D01*
X96809631Y-90466754D01*
X96869211Y-90637023D01*
X96965184Y-90789762D01*
X97092738Y-90917316D01*
X97099706Y-90921694D01*
X97244088Y-91012416D01*
X97245478Y-91013289D01*
X97296668Y-91031201D01*
X97415745Y-91072868D01*
X97415750Y-91072869D01*
X97594996Y-91093065D01*
X97595000Y-91093065D01*
X97595004Y-91093065D01*
X97774249Y-91072869D01*
X97774252Y-91072868D01*
X97774255Y-91072868D01*
X97944522Y-91013289D01*
X98097262Y-90917316D01*
X98224816Y-90789762D01*
X98320789Y-90637022D01*
X98380368Y-90466755D01*
X98387889Y-90400003D01*
X102189435Y-90400003D01*
X102209630Y-90579249D01*
X102209631Y-90579254D01*
X102269211Y-90749523D01*
X102332045Y-90849522D01*
X102365184Y-90902262D01*
X102492738Y-91029816D01*
X102645478Y-91125789D01*
X102656984Y-91129815D01*
X102815745Y-91185368D01*
X102815750Y-91185369D01*
X102994996Y-91205565D01*
X102995000Y-91205565D01*
X102995004Y-91205565D01*
X103174249Y-91185369D01*
X103174252Y-91185368D01*
X103174255Y-91185368D01*
X103344522Y-91125789D01*
X103497262Y-91029816D01*
X103624816Y-90902262D01*
X103720789Y-90749522D01*
X103780368Y-90579255D01*
X103780369Y-90579249D01*
X103789298Y-90500003D01*
X105389435Y-90500003D01*
X105409630Y-90679249D01*
X105409631Y-90679254D01*
X105469211Y-90849523D01*
X105563449Y-90999500D01*
X105565184Y-91002262D01*
X105692738Y-91129816D01*
X105845478Y-91225789D01*
X105955616Y-91264328D01*
X106015745Y-91285368D01*
X106015750Y-91285369D01*
X106194996Y-91305565D01*
X106195000Y-91305565D01*
X106195004Y-91305565D01*
X106374249Y-91285369D01*
X106374252Y-91285368D01*
X106374255Y-91285368D01*
X106544522Y-91225789D01*
X106697262Y-91129816D01*
X106824816Y-91002262D01*
X106920789Y-90849522D01*
X106980368Y-90679255D01*
X106980369Y-90679249D01*
X107000565Y-90500003D01*
X107000565Y-90499996D01*
X106980369Y-90320750D01*
X106980368Y-90320745D01*
X106920788Y-90150476D01*
X106857955Y-90050478D01*
X106824816Y-89997738D01*
X106697262Y-89870184D01*
X106544523Y-89774211D01*
X106374254Y-89714631D01*
X106374249Y-89714630D01*
X106195004Y-89694435D01*
X106194996Y-89694435D01*
X106015750Y-89714630D01*
X106015745Y-89714631D01*
X105845476Y-89774211D01*
X105692737Y-89870184D01*
X105565184Y-89997737D01*
X105469211Y-90150476D01*
X105409631Y-90320745D01*
X105409630Y-90320750D01*
X105389435Y-90499996D01*
X105389435Y-90500003D01*
X103789298Y-90500003D01*
X103800565Y-90400003D01*
X103800565Y-90399996D01*
X103780369Y-90220750D01*
X103780368Y-90220745D01*
X103720789Y-90050478D01*
X103716423Y-90043530D01*
X103657955Y-89950478D01*
X103624816Y-89897738D01*
X103497262Y-89770184D01*
X103446029Y-89737992D01*
X103344523Y-89674211D01*
X103174254Y-89614631D01*
X103174249Y-89614630D01*
X102995004Y-89594435D01*
X102994996Y-89594435D01*
X102815750Y-89614630D01*
X102815745Y-89614631D01*
X102645476Y-89674211D01*
X102492737Y-89770184D01*
X102365184Y-89897737D01*
X102269211Y-90050476D01*
X102209631Y-90220745D01*
X102209630Y-90220750D01*
X102189435Y-90399996D01*
X102189435Y-90400003D01*
X98387889Y-90400003D01*
X98400565Y-90287503D01*
X98400565Y-90287496D01*
X98380369Y-90108250D01*
X98380368Y-90108245D01*
X98341700Y-89997738D01*
X98320789Y-89937978D01*
X98224816Y-89785238D01*
X98097262Y-89657684D01*
X97944523Y-89561711D01*
X97774254Y-89502131D01*
X97774249Y-89502130D01*
X97595004Y-89481935D01*
X97594996Y-89481935D01*
X97415750Y-89502130D01*
X97415745Y-89502131D01*
X97245476Y-89561711D01*
X97092737Y-89657684D01*
X96965184Y-89785237D01*
X96869211Y-89937976D01*
X96809631Y-90108245D01*
X96809630Y-90108250D01*
X96789435Y-90287496D01*
X96789435Y-90287503D01*
X93099157Y-90287503D01*
X93080369Y-90120750D01*
X93080368Y-90120745D01*
X93062572Y-90069888D01*
X93020789Y-89950478D01*
X93012933Y-89937976D01*
X92924813Y-89797734D01*
X92922550Y-89794896D01*
X92921659Y-89792715D01*
X92921111Y-89791842D01*
X92921264Y-89791745D01*
X92896144Y-89730209D01*
X92895500Y-89717587D01*
X92895500Y-88824500D01*
X92915185Y-88757461D01*
X92967989Y-88711706D01*
X93019500Y-88700500D01*
X115708331Y-88700500D01*
X115708347Y-88700501D01*
X115715943Y-88700501D01*
X115874054Y-88700501D01*
X115874057Y-88700501D01*
X116026785Y-88659577D01*
X116092462Y-88621658D01*
X116163716Y-88580520D01*
X116275520Y-88468716D01*
X116275520Y-88468714D01*
X116285724Y-88458511D01*
X116285728Y-88458506D01*
X117353506Y-87390728D01*
X117353511Y-87390724D01*
X117363714Y-87380520D01*
X117363716Y-87380520D01*
X117475520Y-87268716D01*
X117546057Y-87146542D01*
X117554577Y-87131785D01*
X117595500Y-86979058D01*
X117595500Y-86820943D01*
X117595500Y-85982790D01*
X117615185Y-85915751D01*
X117667989Y-85869996D01*
X117676146Y-85866616D01*
X117737331Y-85843796D01*
X117852546Y-85757546D01*
X117938796Y-85642331D01*
X117989091Y-85507483D01*
X117995500Y-85447873D01*
X117995500Y-85150000D01*
X119840840Y-85150000D01*
X119881652Y-85284541D01*
X119974503Y-85458253D01*
X119974507Y-85458260D01*
X120099471Y-85610528D01*
X120251739Y-85735491D01*
X120425465Y-85828349D01*
X120560000Y-85869159D01*
X120560000Y-85150000D01*
X119840840Y-85150000D01*
X117995500Y-85150000D01*
X117995499Y-84649999D01*
X119840839Y-84649999D01*
X119840840Y-84650000D01*
X120560000Y-84650000D01*
X120560000Y-83930839D01*
X120559999Y-83930839D01*
X120425458Y-83971652D01*
X120251746Y-84064503D01*
X120251739Y-84064507D01*
X120099471Y-84189471D01*
X119974507Y-84341739D01*
X119974503Y-84341746D01*
X119881652Y-84515458D01*
X119840839Y-84649999D01*
X117995499Y-84649999D01*
X117995499Y-84352128D01*
X117989091Y-84292517D01*
X117965951Y-84230476D01*
X117938797Y-84157671D01*
X117938793Y-84157664D01*
X117852547Y-84042455D01*
X117852544Y-84042452D01*
X117737335Y-83956206D01*
X117737328Y-83956202D01*
X117602482Y-83905908D01*
X117602483Y-83905908D01*
X117542883Y-83899501D01*
X117542881Y-83899500D01*
X117542873Y-83899500D01*
X117542864Y-83899500D01*
X116447129Y-83899500D01*
X116447123Y-83899501D01*
X116387516Y-83905908D01*
X116252671Y-83956202D01*
X116252666Y-83956205D01*
X116244614Y-83962233D01*
X116179149Y-83986648D01*
X116115530Y-83973104D01*
X116115359Y-83973518D01*
X116113123Y-83972592D01*
X116111850Y-83972321D01*
X116109729Y-83971187D01*
X116109728Y-83971186D01*
X116109727Y-83971186D01*
X115921132Y-83913976D01*
X115921129Y-83913975D01*
X115725000Y-83894659D01*
X115528870Y-83913975D01*
X115340266Y-83971188D01*
X115166467Y-84064086D01*
X115161399Y-84067473D01*
X115160305Y-84065836D01*
X115104337Y-84089596D01*
X115035471Y-84077795D01*
X115018843Y-84067109D01*
X115018601Y-84067473D01*
X115013532Y-84064086D01*
X114839733Y-83971188D01*
X114839727Y-83971186D01*
X114651132Y-83913976D01*
X114651129Y-83913975D01*
X114455000Y-83894659D01*
X114258870Y-83913975D01*
X114070266Y-83971188D01*
X113896467Y-84064086D01*
X113891399Y-84067473D01*
X113890305Y-84065836D01*
X113834337Y-84089596D01*
X113765471Y-84077795D01*
X113748843Y-84067109D01*
X113748601Y-84067473D01*
X113743532Y-84064086D01*
X113569733Y-83971188D01*
X113569727Y-83971186D01*
X113381132Y-83913976D01*
X113381129Y-83913975D01*
X113185000Y-83894659D01*
X112988870Y-83913975D01*
X112800266Y-83971188D01*
X112626467Y-84064086D01*
X112621399Y-84067473D01*
X112620305Y-84065836D01*
X112564337Y-84089596D01*
X112495471Y-84077795D01*
X112478843Y-84067109D01*
X112478601Y-84067473D01*
X112473532Y-84064086D01*
X112299733Y-83971188D01*
X112299727Y-83971186D01*
X112111132Y-83913976D01*
X112111129Y-83913975D01*
X111915000Y-83894659D01*
X111718870Y-83913975D01*
X111530266Y-83971188D01*
X111356467Y-84064086D01*
X111351399Y-84067473D01*
X111350305Y-84065836D01*
X111294337Y-84089596D01*
X111225471Y-84077795D01*
X111208843Y-84067109D01*
X111208601Y-84067473D01*
X111203532Y-84064086D01*
X111029733Y-83971188D01*
X111029727Y-83971186D01*
X110841132Y-83913976D01*
X110841129Y-83913975D01*
X110645000Y-83894659D01*
X110448870Y-83913975D01*
X110354570Y-83942581D01*
X110260273Y-83971186D01*
X110260271Y-83971186D01*
X110260271Y-83971187D01*
X110083235Y-84065814D01*
X110014832Y-84080055D01*
X109949588Y-84055055D01*
X109917395Y-84018455D01*
X109855522Y-83911287D01*
X109855521Y-83911286D01*
X109855520Y-83911284D01*
X109743716Y-83799480D01*
X109743715Y-83799479D01*
X109739385Y-83795149D01*
X109739374Y-83795139D01*
X109156416Y-83212181D01*
X109122931Y-83150858D01*
X109127915Y-83081166D01*
X109169787Y-83025233D01*
X109235251Y-83000816D01*
X109244097Y-83000500D01*
X124804481Y-83000500D01*
X124871520Y-83020185D01*
X124917275Y-83072989D01*
X124927219Y-83142147D01*
X124898194Y-83205703D01*
X124892162Y-83212181D01*
X124550888Y-83553453D01*
X124550887Y-83553454D01*
X124474223Y-83668192D01*
X124421421Y-83795668D01*
X124421418Y-83795679D01*
X124406448Y-83870942D01*
X124406448Y-83870944D01*
X124394500Y-83931005D01*
X124394500Y-83934685D01*
X124393954Y-83936542D01*
X124393903Y-83937067D01*
X124393803Y-83937057D01*
X124374815Y-84001724D01*
X124322011Y-84047479D01*
X124252853Y-84057423D01*
X124196189Y-84033952D01*
X124179358Y-84021352D01*
X124092331Y-83956204D01*
X124092329Y-83956203D01*
X124092328Y-83956202D01*
X123957482Y-83905908D01*
X123957483Y-83905908D01*
X123897883Y-83899501D01*
X123897881Y-83899500D01*
X123897873Y-83899500D01*
X123897864Y-83899500D01*
X122802129Y-83899500D01*
X122802123Y-83899501D01*
X122742516Y-83905908D01*
X122607671Y-83956202D01*
X122607666Y-83956205D01*
X122599614Y-83962233D01*
X122534149Y-83986648D01*
X122470530Y-83973104D01*
X122470359Y-83973518D01*
X122468123Y-83972592D01*
X122466850Y-83972321D01*
X122464729Y-83971187D01*
X122464728Y-83971186D01*
X122464727Y-83971186D01*
X122276132Y-83913976D01*
X122276129Y-83913975D01*
X122080000Y-83894659D01*
X121883870Y-83913975D01*
X121695266Y-83971188D01*
X121521467Y-84064086D01*
X121516399Y-84067473D01*
X121515386Y-84065958D01*
X121458936Y-84089920D01*
X121390071Y-84078115D01*
X121373574Y-84067511D01*
X121373322Y-84067890D01*
X121368253Y-84064503D01*
X121194541Y-83971652D01*
X121060000Y-83930839D01*
X121060000Y-84690382D01*
X121009554Y-84639936D01*
X120935445Y-84597149D01*
X120852787Y-84575000D01*
X120767213Y-84575000D01*
X120684555Y-84597149D01*
X120610446Y-84639936D01*
X120549936Y-84700446D01*
X120507149Y-84774555D01*
X120485000Y-84857213D01*
X120485000Y-84942787D01*
X120507149Y-85025445D01*
X120549936Y-85099554D01*
X120610446Y-85160064D01*
X120684555Y-85202851D01*
X120767213Y-85225000D01*
X120852787Y-85225000D01*
X120935445Y-85202851D01*
X121009554Y-85160064D01*
X121060000Y-85109618D01*
X121060000Y-85869159D01*
X121194534Y-85828349D01*
X121368259Y-85735492D01*
X121373320Y-85732111D01*
X121374444Y-85733793D01*
X121430203Y-85710086D01*
X121499075Y-85721851D01*
X121516186Y-85732843D01*
X121516399Y-85732526D01*
X121521457Y-85735906D01*
X121521462Y-85735910D01*
X121642268Y-85800482D01*
X121693147Y-85827678D01*
X121695273Y-85828814D01*
X121883868Y-85886024D01*
X122080000Y-85905341D01*
X122276132Y-85886024D01*
X122464727Y-85828814D01*
X122466853Y-85827677D01*
X122468095Y-85827418D01*
X122470355Y-85826483D01*
X122470532Y-85826911D01*
X122535254Y-85813435D01*
X122599615Y-85837767D01*
X122607669Y-85843796D01*
X122665362Y-85865314D01*
X122742517Y-85894091D01*
X122742516Y-85894091D01*
X122749444Y-85894835D01*
X122802127Y-85900500D01*
X123897872Y-85900499D01*
X123957483Y-85894091D01*
X124092331Y-85843796D01*
X124196189Y-85766047D01*
X124261653Y-85741630D01*
X124329926Y-85756481D01*
X124379332Y-85805886D01*
X124394500Y-85865314D01*
X124394500Y-86358481D01*
X124374815Y-86425520D01*
X124358181Y-86446162D01*
X121841162Y-88963181D01*
X121779839Y-88996666D01*
X121753481Y-88999500D01*
X109526004Y-88999500D01*
X109390677Y-89026418D01*
X109390667Y-89026421D01*
X109263192Y-89079222D01*
X109148454Y-89155887D01*
X108595709Y-89708632D01*
X108548984Y-89737992D01*
X108445476Y-89774211D01*
X108445475Y-89774212D01*
X108292737Y-89870184D01*
X108165184Y-89997737D01*
X108069211Y-90150476D01*
X108009631Y-90320745D01*
X108009630Y-90320750D01*
X107989435Y-90499996D01*
X107989435Y-90500003D01*
X108009630Y-90679249D01*
X108009631Y-90679254D01*
X108069211Y-90849523D01*
X108163449Y-90999500D01*
X108165184Y-91002262D01*
X108292738Y-91129816D01*
X108445478Y-91225789D01*
X108555616Y-91264328D01*
X108615745Y-91285368D01*
X108615750Y-91285369D01*
X108794996Y-91305565D01*
X108795000Y-91305565D01*
X108795004Y-91305565D01*
X108974249Y-91285369D01*
X108974252Y-91285368D01*
X108974255Y-91285368D01*
X109144522Y-91225789D01*
X109297262Y-91129816D01*
X109424816Y-91002262D01*
X109520789Y-90849522D01*
X109557007Y-90746013D01*
X109586363Y-90699292D01*
X109694812Y-90590844D01*
X109756132Y-90557362D01*
X109825824Y-90562346D01*
X109881757Y-90604218D01*
X109906174Y-90669683D01*
X109902265Y-90710620D01*
X109899499Y-90720941D01*
X109899499Y-90889046D01*
X109899500Y-90889059D01*
X109899500Y-91317587D01*
X109879815Y-91384626D01*
X109872450Y-91394896D01*
X109870186Y-91397734D01*
X109774211Y-91550476D01*
X109714631Y-91720745D01*
X109714630Y-91720750D01*
X109694435Y-91899996D01*
X109694435Y-91900003D01*
X109714630Y-92079249D01*
X109714631Y-92079254D01*
X109774211Y-92249523D01*
X109870184Y-92402262D01*
X109997737Y-92529815D01*
X109997740Y-92529817D01*
X110030794Y-92550587D01*
X110077085Y-92602922D01*
X110087732Y-92671975D01*
X110059357Y-92735823D01*
X110052502Y-92743261D01*
X107159349Y-95636416D01*
X107098026Y-95669901D01*
X107071668Y-95672735D01*
X103808886Y-95672735D01*
X103741847Y-95653050D01*
X103696092Y-95600246D01*
X103686148Y-95531088D01*
X103715173Y-95467532D01*
X103736287Y-95450521D01*
X103735231Y-95449111D01*
X103829118Y-95378826D01*
X103857546Y-95357545D01*
X103943796Y-95242330D01*
X103994091Y-95107482D01*
X104000500Y-95047872D01*
X104000499Y-92952127D01*
X103994091Y-92892516D01*
X103959771Y-92800500D01*
X103943797Y-92757670D01*
X103943793Y-92757663D01*
X103857547Y-92642454D01*
X103857544Y-92642451D01*
X103742335Y-92556205D01*
X103742328Y-92556201D01*
X103607482Y-92505907D01*
X103607483Y-92505907D01*
X103547883Y-92499500D01*
X103547881Y-92499499D01*
X103547873Y-92499499D01*
X103547864Y-92499499D01*
X101452129Y-92499499D01*
X101452123Y-92499500D01*
X101392516Y-92505907D01*
X101257671Y-92556201D01*
X101257664Y-92556205D01*
X101142455Y-92642451D01*
X101142452Y-92642454D01*
X101056206Y-92757663D01*
X101056202Y-92757670D01*
X101005908Y-92892516D01*
X100999501Y-92952115D01*
X100999501Y-92952122D01*
X100999500Y-92952134D01*
X100999500Y-95047869D01*
X100999501Y-95047875D01*
X101005908Y-95107482D01*
X101056202Y-95242327D01*
X101056206Y-95242334D01*
X101142452Y-95357543D01*
X101142455Y-95357546D01*
X101264769Y-95449111D01*
X101262617Y-95451985D01*
X101299932Y-95489282D01*
X101314800Y-95557552D01*
X101290399Y-95623022D01*
X101234475Y-95664906D01*
X101191114Y-95672735D01*
X99730135Y-95672735D01*
X99730119Y-95672734D01*
X99722523Y-95672734D01*
X99564409Y-95672734D01*
X99457053Y-95701500D01*
X99411676Y-95713659D01*
X99411675Y-95713660D01*
X99361562Y-95742594D01*
X99361561Y-95742595D01*
X99318155Y-95767655D01*
X99274751Y-95792714D01*
X99274748Y-95792716D01*
X99162944Y-95904520D01*
X99162944Y-95904521D01*
X99004283Y-96063182D01*
X98942962Y-96096666D01*
X98916604Y-96099500D01*
X92595097Y-96099500D01*
X92528058Y-96079815D01*
X92507416Y-96063181D01*
X92331819Y-95887584D01*
X92298334Y-95826261D01*
X92295500Y-95799903D01*
X92295500Y-95320944D01*
X92295500Y-95320943D01*
X92288676Y-95295477D01*
X92269672Y-95224553D01*
X92267386Y-95216023D01*
X92254577Y-95168216D01*
X92254576Y-95168213D01*
X92175524Y-95031290D01*
X92175521Y-95031286D01*
X92175520Y-95031284D01*
X92063716Y-94919480D01*
X92063715Y-94919479D01*
X92059385Y-94915149D01*
X92059374Y-94915139D01*
X91144239Y-94000004D01*
X95994357Y-94000004D01*
X96014890Y-94247811D01*
X96014892Y-94247823D01*
X96075936Y-94488880D01*
X96175826Y-94716605D01*
X96311833Y-94924781D01*
X96311836Y-94924784D01*
X96480256Y-95107737D01*
X96676491Y-95260473D01*
X96895190Y-95378827D01*
X97130386Y-95459570D01*
X97375665Y-95500499D01*
X97624335Y-95500499D01*
X97869614Y-95459570D01*
X98104810Y-95378827D01*
X98323509Y-95260473D01*
X98519744Y-95107737D01*
X98688164Y-94924784D01*
X98824173Y-94716606D01*
X98924063Y-94488880D01*
X98985108Y-94247820D01*
X98987351Y-94220750D01*
X99005643Y-94000004D01*
X99005643Y-93999993D01*
X98985109Y-93752186D01*
X98985107Y-93752174D01*
X98924063Y-93511117D01*
X98824173Y-93283392D01*
X98688166Y-93075216D01*
X98618927Y-93000003D01*
X98519744Y-92892261D01*
X98323509Y-92739525D01*
X98323507Y-92739524D01*
X98323506Y-92739523D01*
X98104811Y-92621171D01*
X98104802Y-92621168D01*
X97869616Y-92540428D01*
X97624335Y-92499499D01*
X97375665Y-92499499D01*
X97130383Y-92540428D01*
X96895197Y-92621168D01*
X96895188Y-92621171D01*
X96676493Y-92739523D01*
X96480257Y-92892260D01*
X96311833Y-93075216D01*
X96175826Y-93283392D01*
X96075936Y-93511117D01*
X96014892Y-93752174D01*
X96014890Y-93752186D01*
X95994357Y-93999993D01*
X95994357Y-94000004D01*
X91144239Y-94000004D01*
X90682590Y-93538355D01*
X90682588Y-93538352D01*
X90563717Y-93419481D01*
X90563709Y-93419475D01*
X90464534Y-93362217D01*
X90464532Y-93362216D01*
X90426790Y-93340425D01*
X90426789Y-93340424D01*
X90413335Y-93336819D01*
X90274057Y-93299499D01*
X90115943Y-93299499D01*
X90108347Y-93299499D01*
X90108331Y-93299500D01*
X89195097Y-93299500D01*
X89128058Y-93279815D01*
X89107416Y-93263181D01*
X88582590Y-92738355D01*
X88582588Y-92738352D01*
X88463717Y-92619481D01*
X88463716Y-92619480D01*
X88354117Y-92556203D01*
X88354115Y-92556202D01*
X88326785Y-92540423D01*
X88326784Y-92540422D01*
X88326783Y-92540422D01*
X88270881Y-92525443D01*
X88174057Y-92499499D01*
X88015943Y-92499499D01*
X88008347Y-92499499D01*
X88008331Y-92499500D01*
X78751470Y-92499500D01*
X78684431Y-92479815D01*
X78663789Y-92463181D01*
X76331819Y-90131211D01*
X76298334Y-90069888D01*
X76295500Y-90043530D01*
X76295500Y-88623373D01*
X76295501Y-88623360D01*
X76295501Y-88455257D01*
X76295501Y-88455256D01*
X76254577Y-88302529D01*
X76235902Y-88270184D01*
X76223960Y-88249499D01*
X76223960Y-88249498D01*
X76175524Y-88165604D01*
X76175521Y-88165600D01*
X76175520Y-88165598D01*
X76063716Y-88053794D01*
X76063715Y-88053793D01*
X76059385Y-88049463D01*
X76059374Y-88049453D01*
X75229402Y-87219481D01*
X75229394Y-87219475D01*
X75092475Y-87140426D01*
X75092470Y-87140423D01*
X75054287Y-87130192D01*
X74939742Y-87099499D01*
X74939739Y-87099499D01*
X74781627Y-87099500D01*
X72495098Y-87099500D01*
X72428059Y-87079815D01*
X72407417Y-87063181D01*
X72201819Y-86857583D01*
X72168334Y-86796260D01*
X72165500Y-86769902D01*
X72165500Y-85882915D01*
X72185185Y-85815876D01*
X72237989Y-85770121D01*
X72307147Y-85760177D01*
X72347953Y-85773556D01*
X72450465Y-85828349D01*
X72585000Y-85869159D01*
X72585000Y-85109618D01*
X72635446Y-85160064D01*
X72709555Y-85202851D01*
X72792213Y-85225000D01*
X72877787Y-85225000D01*
X72960445Y-85202851D01*
X73034554Y-85160064D01*
X73044618Y-85150000D01*
X73085000Y-85150000D01*
X73085000Y-85869159D01*
X73219534Y-85828349D01*
X73393260Y-85735491D01*
X73545528Y-85610528D01*
X73670492Y-85458260D01*
X73670496Y-85458253D01*
X73676046Y-85447870D01*
X75649500Y-85447870D01*
X75649501Y-85447876D01*
X75655908Y-85507483D01*
X75706202Y-85642328D01*
X75706206Y-85642335D01*
X75792452Y-85757544D01*
X75792455Y-85757547D01*
X75907664Y-85843793D01*
X75907671Y-85843797D01*
X76042517Y-85894091D01*
X76042516Y-85894091D01*
X76049444Y-85894835D01*
X76102127Y-85900500D01*
X77197872Y-85900499D01*
X77257483Y-85894091D01*
X77392331Y-85843796D01*
X77400379Y-85837770D01*
X77465842Y-85813351D01*
X77529474Y-85826895D01*
X77529645Y-85826483D01*
X77531875Y-85827406D01*
X77533146Y-85827677D01*
X77535273Y-85828814D01*
X77723868Y-85886024D01*
X77920000Y-85905341D01*
X78116132Y-85886024D01*
X78304727Y-85828814D01*
X78478538Y-85735910D01*
X78478544Y-85735904D01*
X78483607Y-85732523D01*
X78484624Y-85734045D01*
X78541021Y-85710084D01*
X78609890Y-85721866D01*
X78626424Y-85732489D01*
X78626678Y-85732110D01*
X78631738Y-85735491D01*
X78805465Y-85828349D01*
X78940000Y-85869159D01*
X78940000Y-85109618D01*
X78990446Y-85160064D01*
X79064555Y-85202851D01*
X79147213Y-85225000D01*
X79232787Y-85225000D01*
X79315445Y-85202851D01*
X79389554Y-85160064D01*
X79399618Y-85150000D01*
X79440000Y-85150000D01*
X79440000Y-85869159D01*
X79574534Y-85828349D01*
X79748260Y-85735491D01*
X79900528Y-85610528D01*
X80025492Y-85458260D01*
X80025496Y-85458253D01*
X80118347Y-85284541D01*
X80159160Y-85150000D01*
X79440000Y-85150000D01*
X79399618Y-85150000D01*
X79450064Y-85099554D01*
X79492851Y-85025445D01*
X79515000Y-84942787D01*
X79515000Y-84857213D01*
X79492851Y-84774555D01*
X79450064Y-84700446D01*
X79389554Y-84639936D01*
X79315445Y-84597149D01*
X79232787Y-84575000D01*
X79147213Y-84575000D01*
X79064555Y-84597149D01*
X78990446Y-84639936D01*
X78940000Y-84690382D01*
X78940000Y-83930839D01*
X79440000Y-83930839D01*
X79440000Y-84650000D01*
X80159160Y-84650000D01*
X80159160Y-84649999D01*
X80118347Y-84515458D01*
X80025496Y-84341746D01*
X80025492Y-84341739D01*
X79900528Y-84189471D01*
X79748260Y-84064507D01*
X79748253Y-84064503D01*
X79574541Y-83971652D01*
X79440000Y-83930839D01*
X78940000Y-83930839D01*
X78939999Y-83930839D01*
X78805458Y-83971652D01*
X78631742Y-84064505D01*
X78626673Y-84067893D01*
X78625556Y-84066221D01*
X78569715Y-84089921D01*
X78500851Y-84078111D01*
X78483811Y-84067158D01*
X78483601Y-84067473D01*
X78478532Y-84064086D01*
X78304733Y-83971188D01*
X78304727Y-83971186D01*
X78116132Y-83913976D01*
X78116129Y-83913975D01*
X77920000Y-83894659D01*
X77723870Y-83913975D01*
X77599242Y-83951781D01*
X77535273Y-83971186D01*
X77535272Y-83971186D01*
X77535267Y-83971188D01*
X77533143Y-83972324D01*
X77531898Y-83972583D01*
X77529641Y-83973518D01*
X77529463Y-83973089D01*
X77464740Y-83986564D01*
X77400382Y-83962231D01*
X77392331Y-83956204D01*
X77392328Y-83956202D01*
X77257482Y-83905908D01*
X77257483Y-83905908D01*
X77197883Y-83899501D01*
X77197881Y-83899500D01*
X77197873Y-83899500D01*
X77197864Y-83899500D01*
X76102129Y-83899500D01*
X76102123Y-83899501D01*
X76042516Y-83905908D01*
X75907671Y-83956202D01*
X75907664Y-83956206D01*
X75792455Y-84042452D01*
X75792452Y-84042455D01*
X75706206Y-84157664D01*
X75706202Y-84157671D01*
X75655908Y-84292517D01*
X75650617Y-84341739D01*
X75649501Y-84352123D01*
X75649500Y-84352135D01*
X75649500Y-85447870D01*
X73676046Y-85447870D01*
X73763347Y-85284541D01*
X73804160Y-85150000D01*
X73085000Y-85150000D01*
X73044618Y-85150000D01*
X73095064Y-85099554D01*
X73137851Y-85025445D01*
X73160000Y-84942787D01*
X73160000Y-84857213D01*
X73137851Y-84774555D01*
X73095064Y-84700446D01*
X73034554Y-84639936D01*
X72960445Y-84597149D01*
X72877787Y-84575000D01*
X72792213Y-84575000D01*
X72709555Y-84597149D01*
X72635446Y-84639936D01*
X72585000Y-84690382D01*
X72585000Y-83930839D01*
X73085000Y-83930839D01*
X73085000Y-84650000D01*
X73804160Y-84650000D01*
X73804160Y-84649999D01*
X73763347Y-84515458D01*
X73670496Y-84341746D01*
X73670492Y-84341739D01*
X73545528Y-84189471D01*
X73393260Y-84064507D01*
X73393253Y-84064503D01*
X73219541Y-83971652D01*
X73085000Y-83930839D01*
X72585000Y-83930839D01*
X72584999Y-83930839D01*
X72450458Y-83971652D01*
X72276742Y-84064505D01*
X72271673Y-84067893D01*
X72270556Y-84066221D01*
X72214715Y-84089921D01*
X72145851Y-84078111D01*
X72128811Y-84067158D01*
X72128601Y-84067473D01*
X72123532Y-84064086D01*
X71949733Y-83971188D01*
X71949727Y-83971186D01*
X71761132Y-83913976D01*
X71761129Y-83913975D01*
X71565000Y-83894659D01*
X71368870Y-83913975D01*
X71180266Y-83971188D01*
X71006467Y-84064086D01*
X71001399Y-84067473D01*
X71000305Y-84065836D01*
X70944337Y-84089596D01*
X70875471Y-84077795D01*
X70858843Y-84067109D01*
X70858601Y-84067473D01*
X70853532Y-84064086D01*
X70679733Y-83971188D01*
X70679727Y-83971186D01*
X70491132Y-83913976D01*
X70491129Y-83913975D01*
X70295000Y-83894659D01*
X70098870Y-83913975D01*
X69974242Y-83951781D01*
X69910273Y-83971186D01*
X69910272Y-83971186D01*
X69910267Y-83971188D01*
X69908143Y-83972324D01*
X69906898Y-83972583D01*
X69904641Y-83973518D01*
X69904463Y-83973089D01*
X69839740Y-83986564D01*
X69775382Y-83962231D01*
X69767331Y-83956204D01*
X69767328Y-83956202D01*
X69632482Y-83905908D01*
X69632483Y-83905908D01*
X69572883Y-83899501D01*
X69572881Y-83899500D01*
X69572873Y-83899500D01*
X69572864Y-83899500D01*
X68477129Y-83899500D01*
X68477123Y-83899501D01*
X68417516Y-83905908D01*
X68282671Y-83956202D01*
X68282664Y-83956206D01*
X68167455Y-84042452D01*
X68167452Y-84042455D01*
X68081206Y-84157664D01*
X68081202Y-84157671D01*
X68030908Y-84292517D01*
X68025617Y-84341739D01*
X68024501Y-84352123D01*
X68024500Y-84352135D01*
X68024500Y-85447870D01*
X68024501Y-85447876D01*
X68030908Y-85507483D01*
X68081202Y-85642328D01*
X68081206Y-85642335D01*
X68167452Y-85757544D01*
X68167455Y-85757547D01*
X68282664Y-85843793D01*
X68282671Y-85843797D01*
X68417517Y-85894091D01*
X68417516Y-85894091D01*
X68424444Y-85894835D01*
X68477127Y-85900500D01*
X69245902Y-85900499D01*
X69312941Y-85920183D01*
X69358696Y-85972987D01*
X69368640Y-86042146D01*
X69339615Y-86105702D01*
X69333583Y-86112180D01*
X68582584Y-86863181D01*
X68521261Y-86896666D01*
X68494903Y-86899500D01*
X64044098Y-86899500D01*
X63977059Y-86879815D01*
X63931304Y-86827011D01*
X63921360Y-86757853D01*
X63950385Y-86694297D01*
X63956417Y-86687819D01*
X64185354Y-86458882D01*
X64420520Y-86223716D01*
X64499577Y-86086784D01*
X64540501Y-85934057D01*
X64540501Y-85882915D01*
X64560186Y-85815876D01*
X64612990Y-85770121D01*
X64682148Y-85760177D01*
X64722954Y-85773557D01*
X64825461Y-85828348D01*
X64960000Y-85869159D01*
X64960000Y-85109618D01*
X65010446Y-85160064D01*
X65084555Y-85202851D01*
X65167213Y-85225000D01*
X65252787Y-85225000D01*
X65335445Y-85202851D01*
X65409554Y-85160064D01*
X65419618Y-85150000D01*
X65460000Y-85150000D01*
X65460000Y-85869159D01*
X65594534Y-85828349D01*
X65768260Y-85735491D01*
X65920528Y-85610528D01*
X66045492Y-85458260D01*
X66045496Y-85458253D01*
X66138347Y-85284541D01*
X66179160Y-85150000D01*
X65460000Y-85150000D01*
X65419618Y-85150000D01*
X65470064Y-85099554D01*
X65512851Y-85025445D01*
X65535000Y-84942787D01*
X65535000Y-84857213D01*
X65512851Y-84774555D01*
X65470064Y-84700446D01*
X65409554Y-84639936D01*
X65335445Y-84597149D01*
X65252787Y-84575000D01*
X65167213Y-84575000D01*
X65084555Y-84597149D01*
X65010446Y-84639936D01*
X64960000Y-84690382D01*
X64960000Y-83930839D01*
X65460000Y-83930839D01*
X65460000Y-84650000D01*
X66179160Y-84650000D01*
X66179160Y-84649999D01*
X66138347Y-84515458D01*
X66045496Y-84341746D01*
X66045492Y-84341739D01*
X65920528Y-84189471D01*
X65768260Y-84064507D01*
X65768253Y-84064503D01*
X65594541Y-83971652D01*
X65460000Y-83930839D01*
X64960000Y-83930839D01*
X64959999Y-83930839D01*
X64825458Y-83971652D01*
X64651742Y-84064505D01*
X64646673Y-84067893D01*
X64645556Y-84066221D01*
X64589715Y-84089921D01*
X64520851Y-84078111D01*
X64503811Y-84067158D01*
X64503601Y-84067473D01*
X64498532Y-84064086D01*
X64324733Y-83971188D01*
X64324727Y-83971186D01*
X64136132Y-83913976D01*
X64136129Y-83913975D01*
X63940000Y-83894659D01*
X63743870Y-83913975D01*
X63555266Y-83971188D01*
X63381467Y-84064086D01*
X63376399Y-84067473D01*
X63375305Y-84065836D01*
X63319337Y-84089596D01*
X63250471Y-84077795D01*
X63233843Y-84067109D01*
X63233601Y-84067473D01*
X63228532Y-84064086D01*
X63054733Y-83971188D01*
X63054727Y-83971186D01*
X62866132Y-83913976D01*
X62866129Y-83913975D01*
X62670000Y-83894659D01*
X62473870Y-83913975D01*
X62349242Y-83951781D01*
X62285273Y-83971186D01*
X62285272Y-83971186D01*
X62285267Y-83971188D01*
X62283143Y-83972324D01*
X62281898Y-83972583D01*
X62279641Y-83973518D01*
X62279463Y-83973089D01*
X62214740Y-83986564D01*
X62150382Y-83962231D01*
X62142331Y-83956204D01*
X62142328Y-83956202D01*
X62007482Y-83905908D01*
X62007483Y-83905908D01*
X61947883Y-83899501D01*
X61947881Y-83899500D01*
X61947873Y-83899500D01*
X61947864Y-83899500D01*
X60852129Y-83899500D01*
X60852123Y-83899501D01*
X60792516Y-83905908D01*
X60657671Y-83956202D01*
X60657664Y-83956206D01*
X60542455Y-84042452D01*
X60542452Y-84042455D01*
X60456206Y-84157664D01*
X60456202Y-84157671D01*
X60405908Y-84292517D01*
X60400617Y-84341739D01*
X60399501Y-84352123D01*
X60399500Y-84352135D01*
X60399500Y-85447870D01*
X60399501Y-85447876D01*
X60405908Y-85507483D01*
X60456202Y-85642328D01*
X60456203Y-85642329D01*
X60456204Y-85642331D01*
X60541657Y-85756481D01*
X60542452Y-85757543D01*
X60542455Y-85757547D01*
X60546723Y-85760742D01*
X60578966Y-85784879D01*
X60599810Y-85800482D01*
X60641682Y-85856415D01*
X60649500Y-85899749D01*
X60649500Y-86232769D01*
X60629815Y-86299808D01*
X60613181Y-86320450D01*
X59512052Y-87421578D01*
X59512049Y-87421581D01*
X59480555Y-87468715D01*
X59480556Y-87468716D01*
X59429914Y-87544508D01*
X59373343Y-87681082D01*
X59373340Y-87681092D01*
X59344500Y-87826079D01*
X59344500Y-87826082D01*
X59344500Y-107573918D01*
X59344500Y-107573920D01*
X59344499Y-107573920D01*
X59373340Y-107718907D01*
X59373343Y-107718917D01*
X59429913Y-107855490D01*
X59429916Y-107855495D01*
X59442419Y-107874206D01*
X59442420Y-107874211D01*
X59442422Y-107874211D01*
X59499289Y-107959321D01*
X59512051Y-107978420D01*
X59512052Y-107978421D01*
X60523687Y-108990055D01*
X60557172Y-109051378D01*
X60552188Y-109121070D01*
X60535273Y-109152045D01*
X60524950Y-109165836D01*
X60456203Y-109257669D01*
X60456202Y-109257671D01*
X60405908Y-109392517D01*
X60400617Y-109441739D01*
X60399501Y-109452123D01*
X60399500Y-109452135D01*
X60399500Y-110547870D01*
X60399501Y-110547876D01*
X60405908Y-110607483D01*
X60456202Y-110742328D01*
X60456203Y-110742329D01*
X60456204Y-110742331D01*
X60536431Y-110849500D01*
X60542452Y-110857543D01*
X60542455Y-110857547D01*
X60599810Y-110900482D01*
X60641682Y-110956415D01*
X60649500Y-110999749D01*
X60649500Y-111073918D01*
X60649500Y-111073920D01*
X60649499Y-111073920D01*
X60678340Y-111218907D01*
X60678343Y-111218917D01*
X60734912Y-111355488D01*
X60734916Y-111355495D01*
X60752014Y-111381084D01*
X60752015Y-111381087D01*
X60817046Y-111478414D01*
X60817052Y-111478421D01*
X61126451Y-111787819D01*
X61159936Y-111849142D01*
X61154952Y-111918833D01*
X61113081Y-111974767D01*
X61047616Y-111999184D01*
X61038770Y-111999500D01*
X54624500Y-111999500D01*
X54557461Y-111979815D01*
X54511706Y-111927011D01*
X54500500Y-111875500D01*
X54500500Y-109798422D01*
X55549500Y-109798422D01*
X55580290Y-109992826D01*
X55641117Y-110180029D01*
X55706247Y-110307853D01*
X55730476Y-110355405D01*
X55846172Y-110514646D01*
X55985354Y-110653828D01*
X56144595Y-110769524D01*
X56227455Y-110811743D01*
X56319970Y-110858882D01*
X56319972Y-110858882D01*
X56319975Y-110858884D01*
X56420317Y-110891487D01*
X56507173Y-110919709D01*
X56701578Y-110950500D01*
X56701583Y-110950500D01*
X56898422Y-110950500D01*
X57092826Y-110919709D01*
X57152000Y-110900482D01*
X57280025Y-110858884D01*
X57455405Y-110769524D01*
X57614646Y-110653828D01*
X57753828Y-110514646D01*
X57869524Y-110355405D01*
X57958884Y-110180025D01*
X58019709Y-109992826D01*
X58023359Y-109969783D01*
X58050500Y-109798422D01*
X58050500Y-109601577D01*
X58019709Y-109407173D01*
X57984723Y-109299500D01*
X57958884Y-109219975D01*
X57958882Y-109219972D01*
X57958882Y-109219970D01*
X57890757Y-109086268D01*
X57869524Y-109044595D01*
X57753828Y-108885354D01*
X57614646Y-108746172D01*
X57455405Y-108630476D01*
X57280029Y-108541117D01*
X57092826Y-108480290D01*
X56898422Y-108449500D01*
X56898417Y-108449500D01*
X56701583Y-108449500D01*
X56701578Y-108449500D01*
X56507173Y-108480290D01*
X56319970Y-108541117D01*
X56144594Y-108630476D01*
X56053741Y-108696485D01*
X55985354Y-108746172D01*
X55985352Y-108746174D01*
X55985351Y-108746174D01*
X55846174Y-108885351D01*
X55846174Y-108885352D01*
X55846172Y-108885354D01*
X55796485Y-108953741D01*
X55730476Y-109044594D01*
X55641117Y-109219970D01*
X55580290Y-109407173D01*
X55549500Y-109601577D01*
X55549500Y-109798422D01*
X54500500Y-109798422D01*
X54500500Y-103100003D01*
X54989435Y-103100003D01*
X55009630Y-103279249D01*
X55009631Y-103279254D01*
X55069211Y-103449523D01*
X55150928Y-103579574D01*
X55165184Y-103602262D01*
X55292738Y-103729816D01*
X55383080Y-103786582D01*
X55432645Y-103817726D01*
X55445478Y-103825789D01*
X55481247Y-103838305D01*
X55615745Y-103885368D01*
X55615750Y-103885369D01*
X55794996Y-103905565D01*
X55795000Y-103905565D01*
X55795004Y-103905565D01*
X55974249Y-103885369D01*
X55974252Y-103885368D01*
X55974255Y-103885368D01*
X56144522Y-103825789D01*
X56297262Y-103729816D01*
X56424816Y-103602262D01*
X56520789Y-103449522D01*
X56580368Y-103279255D01*
X56581570Y-103268587D01*
X56600565Y-103100003D01*
X56600565Y-103099996D01*
X56580369Y-102920750D01*
X56580368Y-102920745D01*
X56563604Y-102872836D01*
X56520789Y-102750478D01*
X56424816Y-102597738D01*
X56297262Y-102470184D01*
X56216569Y-102419481D01*
X56144523Y-102374211D01*
X55974254Y-102314631D01*
X55974249Y-102314630D01*
X55795004Y-102294435D01*
X55794996Y-102294435D01*
X55615750Y-102314630D01*
X55615745Y-102314631D01*
X55445476Y-102374211D01*
X55292737Y-102470184D01*
X55165184Y-102597737D01*
X55069211Y-102750476D01*
X55009631Y-102920745D01*
X55009630Y-102920750D01*
X54989435Y-103099996D01*
X54989435Y-103100003D01*
X54500500Y-103100003D01*
X54500500Y-100897308D01*
X54520185Y-100830269D01*
X54536819Y-100809627D01*
X55317037Y-100029409D01*
X55334075Y-100092993D01*
X55399901Y-100207007D01*
X55492993Y-100300099D01*
X55607007Y-100365925D01*
X55670590Y-100382962D01*
X54929942Y-101123609D01*
X54976768Y-101160055D01*
X54976770Y-101160056D01*
X55195385Y-101278364D01*
X55195396Y-101278369D01*
X55430506Y-101359083D01*
X55675707Y-101400000D01*
X55924293Y-101400000D01*
X56169493Y-101359083D01*
X56404603Y-101278369D01*
X56404614Y-101278364D01*
X56623228Y-101160057D01*
X56623231Y-101160055D01*
X56670056Y-101123609D01*
X55929409Y-100382962D01*
X55992993Y-100365925D01*
X56107007Y-100300099D01*
X56200099Y-100207007D01*
X56265925Y-100092993D01*
X56282962Y-100029409D01*
X57023434Y-100769882D01*
X57123731Y-100616369D01*
X57223587Y-100388717D01*
X57284612Y-100147738D01*
X57284614Y-100147729D01*
X57305141Y-99900005D01*
X57305141Y-99899994D01*
X57284614Y-99652270D01*
X57284612Y-99652261D01*
X57223587Y-99411282D01*
X57123731Y-99183630D01*
X57023434Y-99030116D01*
X56282962Y-99770589D01*
X56265925Y-99707007D01*
X56200099Y-99592993D01*
X56107007Y-99499901D01*
X55992993Y-99434075D01*
X55929410Y-99417037D01*
X56670057Y-98676390D01*
X56670056Y-98676389D01*
X56623229Y-98639943D01*
X56404614Y-98521635D01*
X56404603Y-98521630D01*
X56169493Y-98440916D01*
X55924293Y-98400000D01*
X55675707Y-98400000D01*
X55430506Y-98440916D01*
X55195396Y-98521630D01*
X55195390Y-98521632D01*
X54976761Y-98639949D01*
X54929942Y-98676388D01*
X54929942Y-98676390D01*
X55670590Y-99417037D01*
X55607007Y-99434075D01*
X55492993Y-99499901D01*
X55399901Y-99592993D01*
X55334075Y-99707007D01*
X55317037Y-99770589D01*
X54536819Y-98990371D01*
X54503334Y-98929048D01*
X54500500Y-98902690D01*
X54500500Y-96021626D01*
X54520185Y-95954587D01*
X54572989Y-95908832D01*
X54642147Y-95898888D01*
X54705703Y-95927913D01*
X54715721Y-95937634D01*
X54780256Y-96007738D01*
X54976491Y-96160474D01*
X55195190Y-96278828D01*
X55430386Y-96359571D01*
X55675665Y-96400500D01*
X55924335Y-96400500D01*
X56169614Y-96359571D01*
X56404810Y-96278828D01*
X56623509Y-96160474D01*
X56819744Y-96007738D01*
X56988164Y-95824785D01*
X57124173Y-95616607D01*
X57224063Y-95388881D01*
X57285108Y-95147821D01*
X57286934Y-95125788D01*
X57305643Y-94900005D01*
X57305643Y-94899994D01*
X57285109Y-94652187D01*
X57285107Y-94652175D01*
X57224063Y-94411118D01*
X57124173Y-94183393D01*
X56988166Y-93975217D01*
X56941209Y-93924208D01*
X56819744Y-93792262D01*
X56623509Y-93639526D01*
X56623507Y-93639525D01*
X56623506Y-93639524D01*
X56404811Y-93521172D01*
X56404802Y-93521169D01*
X56169616Y-93440429D01*
X55924335Y-93399500D01*
X55675665Y-93399500D01*
X55430383Y-93440429D01*
X55195197Y-93521169D01*
X55195188Y-93521172D01*
X54976493Y-93639524D01*
X54780255Y-93792262D01*
X54780252Y-93792265D01*
X54715729Y-93862356D01*
X54655842Y-93898347D01*
X54586004Y-93896246D01*
X54528388Y-93856722D01*
X54501287Y-93792322D01*
X54500500Y-93778373D01*
X54500500Y-88900003D01*
X54751935Y-88900003D01*
X54772130Y-89079249D01*
X54772131Y-89079254D01*
X54831711Y-89249523D01*
X54927684Y-89402262D01*
X55055238Y-89529816D01*
X55105999Y-89561711D01*
X55190221Y-89614632D01*
X55207978Y-89625789D01*
X55299129Y-89657684D01*
X55378245Y-89685368D01*
X55378250Y-89685369D01*
X55557496Y-89705565D01*
X55557500Y-89705565D01*
X55557504Y-89705565D01*
X55736749Y-89685369D01*
X55736752Y-89685368D01*
X55736755Y-89685368D01*
X55907022Y-89625789D01*
X56059762Y-89529816D01*
X56187316Y-89402262D01*
X56283289Y-89249522D01*
X56342868Y-89079255D01*
X56342869Y-89079249D01*
X56363065Y-88900003D01*
X56363065Y-88899996D01*
X56342869Y-88720750D01*
X56342868Y-88720745D01*
X56308796Y-88623373D01*
X56283289Y-88550478D01*
X56187316Y-88397738D01*
X56059762Y-88270184D01*
X56026842Y-88249499D01*
X55907023Y-88174211D01*
X55736754Y-88114631D01*
X55736749Y-88114630D01*
X55557504Y-88094435D01*
X55557496Y-88094435D01*
X55378250Y-88114630D01*
X55378245Y-88114631D01*
X55207976Y-88174211D01*
X55055237Y-88270184D01*
X54927684Y-88397737D01*
X54831711Y-88550476D01*
X54772131Y-88720745D01*
X54772130Y-88720750D01*
X54751935Y-88899996D01*
X54751935Y-88900003D01*
X54500500Y-88900003D01*
X54500500Y-85398422D01*
X55544500Y-85398422D01*
X55575290Y-85592826D01*
X55636117Y-85780029D01*
X55707917Y-85920943D01*
X55725476Y-85955405D01*
X55841172Y-86114646D01*
X55980354Y-86253828D01*
X56139595Y-86369524D01*
X56151324Y-86375500D01*
X56314970Y-86458882D01*
X56314972Y-86458882D01*
X56314975Y-86458884D01*
X56415317Y-86491487D01*
X56502173Y-86519709D01*
X56696578Y-86550500D01*
X56696583Y-86550500D01*
X56893422Y-86550500D01*
X57087826Y-86519709D01*
X57145581Y-86500943D01*
X57275025Y-86458884D01*
X57450405Y-86369524D01*
X57609646Y-86253828D01*
X57748828Y-86114646D01*
X57864524Y-85955405D01*
X57953884Y-85780025D01*
X58014709Y-85592826D01*
X58036022Y-85458260D01*
X58045500Y-85398422D01*
X58045500Y-85201577D01*
X58014709Y-85007173D01*
X57953882Y-84819970D01*
X57888753Y-84692147D01*
X57864524Y-84644595D01*
X57748828Y-84485354D01*
X57609646Y-84346172D01*
X57450405Y-84230476D01*
X57275029Y-84141117D01*
X57087826Y-84080290D01*
X56893422Y-84049500D01*
X56893417Y-84049500D01*
X56696583Y-84049500D01*
X56696578Y-84049500D01*
X56502173Y-84080290D01*
X56314970Y-84141117D01*
X56139594Y-84230476D01*
X56079029Y-84274480D01*
X55980354Y-84346172D01*
X55980352Y-84346174D01*
X55980351Y-84346174D01*
X55841174Y-84485351D01*
X55841174Y-84485352D01*
X55841172Y-84485354D01*
X55819300Y-84515458D01*
X55725476Y-84644594D01*
X55636117Y-84819970D01*
X55575290Y-85007173D01*
X55544500Y-85201577D01*
X55544500Y-85398422D01*
X54500500Y-85398422D01*
X54500500Y-83124500D01*
X54520185Y-83057461D01*
X54572989Y-83011706D01*
X54624500Y-83000500D01*
X90745903Y-83000500D01*
X90812942Y-83020185D01*
G37*
%TD.AperFunction*%
%TA.AperFunction,Conductor*%
G36*
X145442539Y-83020185D02*
G01*
X145488294Y-83072989D01*
X145499500Y-83124500D01*
X145499500Y-93778373D01*
X145479815Y-93845412D01*
X145427011Y-93891167D01*
X145357853Y-93901111D01*
X145294297Y-93872086D01*
X145284271Y-93862356D01*
X145219747Y-93792265D01*
X145219744Y-93792262D01*
X145156987Y-93743416D01*
X145023509Y-93639526D01*
X145023507Y-93639525D01*
X145023506Y-93639524D01*
X144804811Y-93521172D01*
X144804802Y-93521169D01*
X144569616Y-93440429D01*
X144324335Y-93399500D01*
X144075665Y-93399500D01*
X143830383Y-93440429D01*
X143595197Y-93521169D01*
X143595188Y-93521172D01*
X143376493Y-93639524D01*
X143180257Y-93792261D01*
X143011833Y-93975217D01*
X142875826Y-94183393D01*
X142775936Y-94411118D01*
X142714892Y-94652175D01*
X142714890Y-94652187D01*
X142694357Y-94899994D01*
X142694357Y-94900005D01*
X142714890Y-95147812D01*
X142714892Y-95147824D01*
X142775936Y-95388881D01*
X142875826Y-95616606D01*
X143011833Y-95824782D01*
X143044245Y-95859991D01*
X143180256Y-96007738D01*
X143376491Y-96160474D01*
X143595190Y-96278828D01*
X143830386Y-96359571D01*
X144075665Y-96400500D01*
X144324335Y-96400500D01*
X144569614Y-96359571D01*
X144804810Y-96278828D01*
X145023509Y-96160474D01*
X145219744Y-96007738D01*
X145284272Y-95937641D01*
X145344157Y-95901653D01*
X145413995Y-95903753D01*
X145471611Y-95943277D01*
X145498713Y-96007676D01*
X145499500Y-96021626D01*
X145499500Y-98902689D01*
X145479815Y-98969728D01*
X145463181Y-98990370D01*
X144682962Y-99770589D01*
X144665925Y-99707007D01*
X144600099Y-99592993D01*
X144507007Y-99499901D01*
X144392993Y-99434075D01*
X144329410Y-99417037D01*
X145070057Y-98676390D01*
X145070056Y-98676389D01*
X145023229Y-98639943D01*
X144804614Y-98521635D01*
X144804603Y-98521630D01*
X144569493Y-98440916D01*
X144324293Y-98400000D01*
X144075707Y-98400000D01*
X143830506Y-98440916D01*
X143595396Y-98521630D01*
X143595390Y-98521632D01*
X143376761Y-98639949D01*
X143329942Y-98676388D01*
X143329942Y-98676390D01*
X144070590Y-99417037D01*
X144007007Y-99434075D01*
X143892993Y-99499901D01*
X143799901Y-99592993D01*
X143734075Y-99707007D01*
X143717037Y-99770589D01*
X142976564Y-99030116D01*
X142876267Y-99183632D01*
X142776412Y-99411282D01*
X142715387Y-99652261D01*
X142715385Y-99652270D01*
X142694859Y-99899994D01*
X142694859Y-99900005D01*
X142715385Y-100147729D01*
X142715387Y-100147738D01*
X142776412Y-100388717D01*
X142876266Y-100616364D01*
X142976564Y-100769882D01*
X143717037Y-100029409D01*
X143734075Y-100092993D01*
X143799901Y-100207007D01*
X143892993Y-100300099D01*
X144007007Y-100365925D01*
X144070590Y-100382962D01*
X143329942Y-101123609D01*
X143376768Y-101160055D01*
X143376770Y-101160056D01*
X143595385Y-101278364D01*
X143595396Y-101278369D01*
X143830506Y-101359083D01*
X144075707Y-101400000D01*
X144324293Y-101400000D01*
X144569493Y-101359083D01*
X144804603Y-101278369D01*
X144804614Y-101278364D01*
X145023228Y-101160057D01*
X145023231Y-101160055D01*
X145070056Y-101123609D01*
X144329409Y-100382962D01*
X144392993Y-100365925D01*
X144507007Y-100300099D01*
X144600099Y-100207007D01*
X144665925Y-100092993D01*
X144682962Y-100029410D01*
X145463181Y-100809629D01*
X145496666Y-100870952D01*
X145499500Y-100897310D01*
X145499500Y-111875500D01*
X145479815Y-111942539D01*
X145427011Y-111988294D01*
X145375500Y-111999500D01*
X138906230Y-111999500D01*
X138839191Y-111979815D01*
X138793436Y-111927011D01*
X138783492Y-111857853D01*
X138812517Y-111794297D01*
X138818549Y-111787819D01*
X139182952Y-111423416D01*
X139232186Y-111349729D01*
X139265084Y-111300495D01*
X139321658Y-111163913D01*
X139350500Y-111018918D01*
X139350500Y-110999749D01*
X139370185Y-110932710D01*
X139400190Y-110900482D01*
X139457546Y-110857546D01*
X139543796Y-110742331D01*
X139594091Y-110607483D01*
X139600500Y-110547873D01*
X139600499Y-109798422D01*
X141949500Y-109798422D01*
X141980290Y-109992826D01*
X142041117Y-110180029D01*
X142106247Y-110307853D01*
X142130476Y-110355405D01*
X142246172Y-110514646D01*
X142385354Y-110653828D01*
X142544595Y-110769524D01*
X142627455Y-110811743D01*
X142719970Y-110858882D01*
X142719972Y-110858882D01*
X142719975Y-110858884D01*
X142820317Y-110891487D01*
X142907173Y-110919709D01*
X143101578Y-110950500D01*
X143101583Y-110950500D01*
X143298422Y-110950500D01*
X143492826Y-110919709D01*
X143552000Y-110900482D01*
X143680025Y-110858884D01*
X143855405Y-110769524D01*
X144014646Y-110653828D01*
X144153828Y-110514646D01*
X144269524Y-110355405D01*
X144358884Y-110180025D01*
X144419709Y-109992826D01*
X144423359Y-109969783D01*
X144450500Y-109798422D01*
X144450500Y-109601577D01*
X144419709Y-109407173D01*
X144384723Y-109299500D01*
X144358884Y-109219975D01*
X144358882Y-109219972D01*
X144358882Y-109219970D01*
X144290757Y-109086268D01*
X144269524Y-109044595D01*
X144153828Y-108885354D01*
X144014646Y-108746172D01*
X143855405Y-108630476D01*
X143680029Y-108541117D01*
X143492826Y-108480290D01*
X143298422Y-108449500D01*
X143298417Y-108449500D01*
X143101583Y-108449500D01*
X143101578Y-108449500D01*
X142907173Y-108480290D01*
X142719970Y-108541117D01*
X142544594Y-108630476D01*
X142453741Y-108696485D01*
X142385354Y-108746172D01*
X142385352Y-108746174D01*
X142385351Y-108746174D01*
X142246174Y-108885351D01*
X142246174Y-108885352D01*
X142246172Y-108885354D01*
X142196485Y-108953741D01*
X142130476Y-109044594D01*
X142041117Y-109219970D01*
X141980290Y-109407173D01*
X141949500Y-109601577D01*
X141949500Y-109798422D01*
X139600499Y-109798422D01*
X139600499Y-109452128D01*
X139594091Y-109392517D01*
X139555657Y-109289471D01*
X139543797Y-109257671D01*
X139543793Y-109257664D01*
X139457547Y-109142455D01*
X139457544Y-109142452D01*
X139342335Y-109056206D01*
X139342328Y-109056202D01*
X139207482Y-109005908D01*
X139207483Y-109005908D01*
X139147883Y-108999501D01*
X139147881Y-108999500D01*
X139147873Y-108999500D01*
X139147864Y-108999500D01*
X138052129Y-108999500D01*
X138052123Y-108999501D01*
X137992516Y-109005908D01*
X137857671Y-109056202D01*
X137857666Y-109056205D01*
X137849614Y-109062233D01*
X137784149Y-109086648D01*
X137720530Y-109073104D01*
X137720359Y-109073518D01*
X137718123Y-109072592D01*
X137716850Y-109072321D01*
X137714729Y-109071187D01*
X137714728Y-109071186D01*
X137714727Y-109071186D01*
X137526132Y-109013976D01*
X137526129Y-109013975D01*
X137330000Y-108994659D01*
X137133870Y-109013975D01*
X136945266Y-109071188D01*
X136771467Y-109164086D01*
X136766399Y-109167473D01*
X136765305Y-109165836D01*
X136709337Y-109189596D01*
X136640471Y-109177795D01*
X136623843Y-109167109D01*
X136623601Y-109167473D01*
X136618532Y-109164086D01*
X136444733Y-109071188D01*
X136444727Y-109071186D01*
X136311722Y-109030839D01*
X136256129Y-109013975D01*
X136060000Y-108994659D01*
X135863870Y-109013975D01*
X135675266Y-109071188D01*
X135501467Y-109164086D01*
X135496399Y-109167473D01*
X135495386Y-109165958D01*
X135438936Y-109189920D01*
X135370071Y-109178115D01*
X135353579Y-109167514D01*
X135353327Y-109167893D01*
X135348261Y-109164508D01*
X135323974Y-109151527D01*
X135274129Y-109102565D01*
X135258668Y-109034428D01*
X135282499Y-108968748D01*
X135294732Y-108954501D01*
X136518506Y-107730728D01*
X136518511Y-107730724D01*
X136528714Y-107720520D01*
X136528716Y-107720520D01*
X136640520Y-107608716D01*
X136700788Y-107504328D01*
X136719577Y-107471785D01*
X136760500Y-107319057D01*
X136760500Y-107160943D01*
X136760500Y-106686730D01*
X136780185Y-106619691D01*
X136817866Y-106582808D01*
X136817752Y-106582651D01*
X136818823Y-106581872D01*
X136819715Y-106581000D01*
X136821690Y-106579789D01*
X136821689Y-106579789D01*
X136821694Y-106579787D01*
X136982464Y-106462981D01*
X137122981Y-106322464D01*
X137239787Y-106161694D01*
X137330005Y-105984632D01*
X137391413Y-105795636D01*
X137422500Y-105599361D01*
X137422500Y-104400639D01*
X137391413Y-104204364D01*
X137330005Y-104015368D01*
X137330005Y-104015367D01*
X137263766Y-103885368D01*
X137239787Y-103838306D01*
X137122981Y-103677536D01*
X136982464Y-103537019D01*
X136821694Y-103420213D01*
X136813416Y-103415995D01*
X136644632Y-103329994D01*
X136644629Y-103329993D01*
X136455637Y-103268587D01*
X136357498Y-103253043D01*
X136259361Y-103237500D01*
X136060639Y-103237500D01*
X135995214Y-103247862D01*
X135864362Y-103268587D01*
X135675370Y-103329993D01*
X135675367Y-103329994D01*
X135498305Y-103420213D01*
X135337533Y-103537021D01*
X135197021Y-103677533D01*
X135080213Y-103838305D01*
X135000485Y-103994780D01*
X134952510Y-104045576D01*
X134884689Y-104062371D01*
X134818554Y-104039833D01*
X134779515Y-103994780D01*
X134723766Y-103885368D01*
X134699787Y-103838306D01*
X134582981Y-103677536D01*
X134442464Y-103537019D01*
X134281694Y-103420213D01*
X134281690Y-103420210D01*
X134277546Y-103417671D01*
X134278572Y-103415995D01*
X134233819Y-103373730D01*
X134221133Y-103343309D01*
X134220500Y-103340946D01*
X134220500Y-103340943D01*
X134179577Y-103188215D01*
X134146996Y-103131784D01*
X134146996Y-103131783D01*
X134100522Y-103051287D01*
X134100521Y-103051286D01*
X134100520Y-103051284D01*
X133988716Y-102939480D01*
X133988715Y-102939479D01*
X133984385Y-102935149D01*
X133984374Y-102935139D01*
X131587590Y-100538355D01*
X131587588Y-100538352D01*
X131468717Y-100419481D01*
X131468716Y-100419480D01*
X131364960Y-100359577D01*
X131364959Y-100359576D01*
X131331783Y-100340422D01*
X131275018Y-100325212D01*
X131179057Y-100299499D01*
X131020943Y-100299499D01*
X131013347Y-100299499D01*
X131013331Y-100299500D01*
X113849097Y-100299500D01*
X113782058Y-100279815D01*
X113736303Y-100227011D01*
X113726359Y-100157853D01*
X113755384Y-100094297D01*
X113761416Y-100087819D01*
X114378568Y-99470667D01*
X116238506Y-97610727D01*
X116238511Y-97610724D01*
X116248714Y-97600520D01*
X116248716Y-97600520D01*
X116360520Y-97488716D01*
X116423717Y-97379255D01*
X116439577Y-97351785D01*
X116480501Y-97199057D01*
X116480501Y-97165003D01*
X116500186Y-97097964D01*
X116539405Y-97059464D01*
X116558044Y-97047968D01*
X116677968Y-96928044D01*
X116767003Y-96783697D01*
X116820349Y-96622708D01*
X116830500Y-96523345D01*
X116830499Y-95550095D01*
X116850183Y-95483057D01*
X116866813Y-95462420D01*
X118992416Y-93336819D01*
X119053739Y-93303334D01*
X119080097Y-93300500D01*
X121078157Y-93300500D01*
X121145196Y-93320185D01*
X121190951Y-93372989D01*
X121201377Y-93438383D01*
X121194435Y-93499996D01*
X121194435Y-93500003D01*
X121214630Y-93679249D01*
X121214631Y-93679254D01*
X121274211Y-93849523D01*
X121367339Y-93997735D01*
X121370184Y-94002262D01*
X121497738Y-94129816D01*
X121510378Y-94137758D01*
X121642450Y-94220745D01*
X121650478Y-94225789D01*
X121713448Y-94247823D01*
X121820745Y-94285368D01*
X121820750Y-94285369D01*
X121999996Y-94305565D01*
X122000000Y-94305565D01*
X122000004Y-94305565D01*
X122179249Y-94285369D01*
X122179252Y-94285368D01*
X122179255Y-94285368D01*
X122349522Y-94225789D01*
X122502262Y-94129816D01*
X122629816Y-94002262D01*
X122725789Y-93849522D01*
X122785368Y-93679255D01*
X122785369Y-93679249D01*
X122805565Y-93500003D01*
X122805565Y-93499996D01*
X122798623Y-93438383D01*
X122810678Y-93369561D01*
X122858027Y-93318182D01*
X122921843Y-93300500D01*
X127313331Y-93300500D01*
X127313347Y-93300501D01*
X127320943Y-93300501D01*
X127479054Y-93300501D01*
X127479057Y-93300501D01*
X127631785Y-93259577D01*
X127695380Y-93222860D01*
X127768716Y-93180520D01*
X127880520Y-93068716D01*
X127880520Y-93068714D01*
X127890724Y-93058511D01*
X127890728Y-93058506D01*
X128898506Y-92050728D01*
X128898511Y-92050724D01*
X128908714Y-92040520D01*
X128908716Y-92040520D01*
X129020520Y-91928716D01*
X129099577Y-91791784D01*
X129140500Y-91639057D01*
X129140500Y-91446730D01*
X129160185Y-91379691D01*
X129197866Y-91342808D01*
X129197752Y-91342651D01*
X129198823Y-91341872D01*
X129199715Y-91341000D01*
X129201690Y-91339789D01*
X129201689Y-91339789D01*
X129201694Y-91339787D01*
X129362464Y-91222981D01*
X129502981Y-91082464D01*
X129619787Y-90921694D01*
X129699515Y-90765218D01*
X129747490Y-90714423D01*
X129815311Y-90697628D01*
X129881446Y-90720165D01*
X129920484Y-90765218D01*
X130000213Y-90921694D01*
X130117019Y-91082464D01*
X130257536Y-91222981D01*
X130328384Y-91274455D01*
X130371051Y-91329784D01*
X130379500Y-91374773D01*
X130379500Y-93178481D01*
X130359815Y-93245520D01*
X130343181Y-93266162D01*
X126208662Y-97400681D01*
X126147339Y-97434166D01*
X126120981Y-97437000D01*
X123650494Y-97437000D01*
X123584523Y-97417994D01*
X123574525Y-97411712D01*
X123404254Y-97352131D01*
X123404249Y-97352130D01*
X123225004Y-97331935D01*
X123224996Y-97331935D01*
X123045750Y-97352130D01*
X123045745Y-97352131D01*
X122875476Y-97411711D01*
X122722737Y-97507684D01*
X122595184Y-97635237D01*
X122499211Y-97787976D01*
X122439631Y-97958245D01*
X122439630Y-97958250D01*
X122419435Y-98137496D01*
X122419435Y-98137503D01*
X122439630Y-98316749D01*
X122439631Y-98316754D01*
X122499211Y-98487023D01*
X122570514Y-98600500D01*
X122595184Y-98639762D01*
X122722738Y-98767316D01*
X122783770Y-98805665D01*
X122875474Y-98863287D01*
X122875478Y-98863289D01*
X122988077Y-98902689D01*
X123045745Y-98922868D01*
X123045750Y-98922869D01*
X123224996Y-98943065D01*
X123225000Y-98943065D01*
X123225004Y-98943065D01*
X123404249Y-98922869D01*
X123404252Y-98922868D01*
X123404255Y-98922868D01*
X123574522Y-98863289D01*
X123575488Y-98862681D01*
X123584523Y-98857006D01*
X123650494Y-98838000D01*
X126531496Y-98838000D01*
X126622540Y-98819889D01*
X126666828Y-98811080D01*
X126730569Y-98784677D01*
X126794307Y-98758277D01*
X126794308Y-98758276D01*
X126794311Y-98758275D01*
X126909043Y-98681614D01*
X131624114Y-93966543D01*
X131700775Y-93851811D01*
X131753580Y-93724328D01*
X131756795Y-93708164D01*
X131780500Y-93588993D01*
X131780500Y-91374773D01*
X131800185Y-91307734D01*
X131831614Y-91274455D01*
X131902464Y-91222981D01*
X132042981Y-91082464D01*
X132159787Y-90921694D01*
X132239515Y-90765218D01*
X132287490Y-90714423D01*
X132355311Y-90697628D01*
X132421446Y-90720165D01*
X132460484Y-90765218D01*
X132540213Y-90921694D01*
X132657019Y-91082464D01*
X132797536Y-91222981D01*
X132958306Y-91339787D01*
X133014505Y-91368422D01*
X133135367Y-91430005D01*
X133135370Y-91430006D01*
X133212095Y-91454935D01*
X133324364Y-91491413D01*
X133520639Y-91522500D01*
X133520640Y-91522500D01*
X133719360Y-91522500D01*
X133719361Y-91522500D01*
X133915636Y-91491413D01*
X134104632Y-91430005D01*
X134281694Y-91339787D01*
X134442464Y-91222981D01*
X134582981Y-91082464D01*
X134699787Y-90921694D01*
X134779515Y-90765218D01*
X134827490Y-90714423D01*
X134895311Y-90697628D01*
X134961446Y-90720165D01*
X135000484Y-90765218D01*
X135080213Y-90921694D01*
X135197019Y-91082464D01*
X135337536Y-91222981D01*
X135498306Y-91339787D01*
X135554505Y-91368422D01*
X135675367Y-91430005D01*
X135675370Y-91430006D01*
X135752095Y-91454935D01*
X135864364Y-91491413D01*
X136060639Y-91522500D01*
X136060640Y-91522500D01*
X136259360Y-91522500D01*
X136259361Y-91522500D01*
X136455636Y-91491413D01*
X136644632Y-91430005D01*
X136821694Y-91339787D01*
X136982464Y-91222981D01*
X137122981Y-91082464D01*
X137239787Y-90921694D01*
X137330005Y-90744632D01*
X137391413Y-90555636D01*
X137422500Y-90359361D01*
X137422500Y-89160639D01*
X137391413Y-88964364D01*
X137370501Y-88900003D01*
X143626935Y-88900003D01*
X143647130Y-89079249D01*
X143647131Y-89079254D01*
X143706711Y-89249523D01*
X143802684Y-89402262D01*
X143930238Y-89529816D01*
X143980999Y-89561711D01*
X144065221Y-89614632D01*
X144082978Y-89625789D01*
X144174129Y-89657684D01*
X144253245Y-89685368D01*
X144253250Y-89685369D01*
X144432496Y-89705565D01*
X144432500Y-89705565D01*
X144432504Y-89705565D01*
X144611749Y-89685369D01*
X144611752Y-89685368D01*
X144611755Y-89685368D01*
X144782022Y-89625789D01*
X144934762Y-89529816D01*
X145062316Y-89402262D01*
X145158289Y-89249522D01*
X145217868Y-89079255D01*
X145217869Y-89079249D01*
X145238065Y-88900003D01*
X145238065Y-88899996D01*
X145217869Y-88720750D01*
X145217868Y-88720745D01*
X145183796Y-88623373D01*
X145158289Y-88550478D01*
X145062316Y-88397738D01*
X144934762Y-88270184D01*
X144901842Y-88249499D01*
X144782023Y-88174211D01*
X144611754Y-88114631D01*
X144611749Y-88114630D01*
X144432504Y-88094435D01*
X144432496Y-88094435D01*
X144253250Y-88114630D01*
X144253245Y-88114631D01*
X144082976Y-88174211D01*
X143930237Y-88270184D01*
X143802684Y-88397737D01*
X143706711Y-88550476D01*
X143647131Y-88720745D01*
X143647130Y-88720750D01*
X143626935Y-88899996D01*
X143626935Y-88900003D01*
X137370501Y-88900003D01*
X137337040Y-88797019D01*
X137330006Y-88775370D01*
X137330005Y-88775367D01*
X137252559Y-88623373D01*
X137239787Y-88598306D01*
X137122981Y-88437536D01*
X136982464Y-88297019D01*
X136821694Y-88180213D01*
X136644632Y-88089994D01*
X136644629Y-88089993D01*
X136455637Y-88028587D01*
X136295286Y-88003190D01*
X136259361Y-87997500D01*
X136060639Y-87997500D01*
X136060638Y-87997500D01*
X136024709Y-88003190D01*
X135955415Y-87994234D01*
X135917632Y-87968397D01*
X135587590Y-87638355D01*
X135587588Y-87638352D01*
X135468717Y-87519481D01*
X135468716Y-87519480D01*
X135364960Y-87459577D01*
X135364959Y-87459576D01*
X135331783Y-87440422D01*
X135261478Y-87421584D01*
X135179057Y-87399499D01*
X135020943Y-87399499D01*
X135013347Y-87399499D01*
X135013331Y-87399500D01*
X125685520Y-87399500D01*
X125618481Y-87379815D01*
X125572726Y-87327011D01*
X125562782Y-87257853D01*
X125591807Y-87194297D01*
X125597839Y-87187819D01*
X125639111Y-87146546D01*
X125639115Y-87146542D01*
X125683700Y-87079815D01*
X125715775Y-87031811D01*
X125768580Y-86904328D01*
X125785167Y-86820943D01*
X125795500Y-86768996D01*
X125795500Y-85150000D01*
X126195840Y-85150000D01*
X126236652Y-85284541D01*
X126329503Y-85458253D01*
X126329507Y-85458260D01*
X126454471Y-85610528D01*
X126606739Y-85735491D01*
X126780465Y-85828349D01*
X126915000Y-85869159D01*
X126915000Y-85150000D01*
X126195840Y-85150000D01*
X125795500Y-85150000D01*
X125795500Y-84341519D01*
X125815185Y-84274480D01*
X125831819Y-84253838D01*
X126148838Y-83936819D01*
X126210161Y-83903334D01*
X126236519Y-83900500D01*
X126460027Y-83900500D01*
X126527066Y-83920185D01*
X126572821Y-83972989D01*
X126582765Y-84042147D01*
X126553740Y-84105703D01*
X126538692Y-84120353D01*
X126454471Y-84189471D01*
X126329507Y-84341739D01*
X126329503Y-84341746D01*
X126236652Y-84515458D01*
X126195839Y-84649999D01*
X126195840Y-84650000D01*
X126955382Y-84650000D01*
X126904936Y-84700446D01*
X126862149Y-84774555D01*
X126840000Y-84857213D01*
X126840000Y-84942787D01*
X126862149Y-85025445D01*
X126904936Y-85099554D01*
X126965446Y-85160064D01*
X127039555Y-85202851D01*
X127122213Y-85225000D01*
X127207787Y-85225000D01*
X127290445Y-85202851D01*
X127364554Y-85160064D01*
X127415000Y-85109618D01*
X127415000Y-85869159D01*
X127549534Y-85828349D01*
X127723259Y-85735492D01*
X127728320Y-85732111D01*
X127729444Y-85733793D01*
X127785203Y-85710086D01*
X127854075Y-85721851D01*
X127871186Y-85732843D01*
X127871399Y-85732526D01*
X127876457Y-85735906D01*
X127876462Y-85735910D01*
X127997268Y-85800482D01*
X128048147Y-85827678D01*
X128050273Y-85828814D01*
X128238868Y-85886024D01*
X128435000Y-85905341D01*
X128631132Y-85886024D01*
X128819727Y-85828814D01*
X128993538Y-85735910D01*
X128993544Y-85735904D01*
X128998607Y-85732523D01*
X128999703Y-85734164D01*
X129055639Y-85710405D01*
X129124507Y-85722194D01*
X129141148Y-85732888D01*
X129141393Y-85732523D01*
X129146458Y-85735907D01*
X129146462Y-85735910D01*
X129267268Y-85800482D01*
X129318147Y-85827678D01*
X129320273Y-85828814D01*
X129508868Y-85886024D01*
X129705000Y-85905341D01*
X129901132Y-85886024D01*
X130089727Y-85828814D01*
X130091853Y-85827677D01*
X130093095Y-85827418D01*
X130095355Y-85826483D01*
X130095532Y-85826911D01*
X130160254Y-85813435D01*
X130224615Y-85837767D01*
X130232669Y-85843796D01*
X130290362Y-85865314D01*
X130367517Y-85894091D01*
X130367516Y-85894091D01*
X130374444Y-85894835D01*
X130427127Y-85900500D01*
X131522872Y-85900499D01*
X131582483Y-85894091D01*
X131717331Y-85843796D01*
X131832546Y-85757546D01*
X131918796Y-85642331D01*
X131969091Y-85507483D01*
X131975500Y-85447873D01*
X131975500Y-85150000D01*
X133820840Y-85150000D01*
X133861652Y-85284541D01*
X133954503Y-85458253D01*
X133954507Y-85458260D01*
X134079471Y-85610528D01*
X134231739Y-85735491D01*
X134405465Y-85828349D01*
X134540000Y-85869159D01*
X134540000Y-85150000D01*
X133820840Y-85150000D01*
X131975500Y-85150000D01*
X131975499Y-84352128D01*
X131969091Y-84292517D01*
X131945951Y-84230476D01*
X131918797Y-84157671D01*
X131918795Y-84157668D01*
X131879894Y-84105703D01*
X131874734Y-84098810D01*
X131850317Y-84033348D01*
X131865168Y-83965075D01*
X131914573Y-83915669D01*
X131974001Y-83900500D01*
X134085027Y-83900500D01*
X134152066Y-83920185D01*
X134197821Y-83972989D01*
X134207765Y-84042147D01*
X134178740Y-84105703D01*
X134163692Y-84120353D01*
X134079471Y-84189471D01*
X133954507Y-84341739D01*
X133954503Y-84341746D01*
X133861652Y-84515458D01*
X133820839Y-84649999D01*
X133820840Y-84650000D01*
X134580382Y-84650000D01*
X134529936Y-84700446D01*
X134487149Y-84774555D01*
X134465000Y-84857213D01*
X134465000Y-84942787D01*
X134487149Y-85025445D01*
X134529936Y-85099554D01*
X134590446Y-85160064D01*
X134664555Y-85202851D01*
X134747213Y-85225000D01*
X134832787Y-85225000D01*
X134915445Y-85202851D01*
X134989554Y-85160064D01*
X135040000Y-85109618D01*
X135040000Y-85869159D01*
X135174534Y-85828349D01*
X135348259Y-85735492D01*
X135353320Y-85732111D01*
X135354444Y-85733793D01*
X135410203Y-85710086D01*
X135479075Y-85721851D01*
X135496186Y-85732843D01*
X135496399Y-85732526D01*
X135501457Y-85735906D01*
X135501462Y-85735910D01*
X135622268Y-85800482D01*
X135673147Y-85827678D01*
X135675273Y-85828814D01*
X135863868Y-85886024D01*
X136060000Y-85905341D01*
X136256132Y-85886024D01*
X136444727Y-85828814D01*
X136618538Y-85735910D01*
X136618544Y-85735904D01*
X136623607Y-85732523D01*
X136624703Y-85734164D01*
X136680639Y-85710405D01*
X136749507Y-85722194D01*
X136766148Y-85732888D01*
X136766393Y-85732523D01*
X136771458Y-85735907D01*
X136771462Y-85735910D01*
X136892268Y-85800482D01*
X136943147Y-85827678D01*
X136945273Y-85828814D01*
X137133868Y-85886024D01*
X137330000Y-85905341D01*
X137526132Y-85886024D01*
X137714727Y-85828814D01*
X137716853Y-85827677D01*
X137718095Y-85827418D01*
X137720355Y-85826483D01*
X137720532Y-85826911D01*
X137785254Y-85813435D01*
X137849615Y-85837767D01*
X137857669Y-85843796D01*
X137915362Y-85865314D01*
X137992517Y-85894091D01*
X137992516Y-85894091D01*
X137999444Y-85894835D01*
X138052127Y-85900500D01*
X139147872Y-85900499D01*
X139207483Y-85894091D01*
X139342331Y-85843796D01*
X139457546Y-85757546D01*
X139543796Y-85642331D01*
X139594091Y-85507483D01*
X139600500Y-85447873D01*
X139600500Y-85398422D01*
X141944500Y-85398422D01*
X141975290Y-85592826D01*
X142036117Y-85780029D01*
X142107917Y-85920943D01*
X142125476Y-85955405D01*
X142241172Y-86114646D01*
X142380354Y-86253828D01*
X142539595Y-86369524D01*
X142551324Y-86375500D01*
X142714970Y-86458882D01*
X142714972Y-86458882D01*
X142714975Y-86458884D01*
X142815317Y-86491487D01*
X142902173Y-86519709D01*
X143096578Y-86550500D01*
X143096583Y-86550500D01*
X143293422Y-86550500D01*
X143487826Y-86519709D01*
X143545581Y-86500943D01*
X143675025Y-86458884D01*
X143850405Y-86369524D01*
X144009646Y-86253828D01*
X144148828Y-86114646D01*
X144264524Y-85955405D01*
X144353884Y-85780025D01*
X144414709Y-85592826D01*
X144436022Y-85458260D01*
X144445500Y-85398422D01*
X144445500Y-85201577D01*
X144414709Y-85007173D01*
X144353882Y-84819970D01*
X144288753Y-84692147D01*
X144264524Y-84644595D01*
X144148828Y-84485354D01*
X144009646Y-84346172D01*
X143850405Y-84230476D01*
X143675029Y-84141117D01*
X143487826Y-84080290D01*
X143293422Y-84049500D01*
X143293417Y-84049500D01*
X143096583Y-84049500D01*
X143096578Y-84049500D01*
X142902173Y-84080290D01*
X142714970Y-84141117D01*
X142539594Y-84230476D01*
X142479029Y-84274480D01*
X142380354Y-84346172D01*
X142380352Y-84346174D01*
X142380351Y-84346174D01*
X142241174Y-84485351D01*
X142241174Y-84485352D01*
X142241172Y-84485354D01*
X142219300Y-84515458D01*
X142125476Y-84644594D01*
X142036117Y-84819970D01*
X141975290Y-85007173D01*
X141944500Y-85201577D01*
X141944500Y-85398422D01*
X139600500Y-85398422D01*
X139600499Y-84352128D01*
X139594091Y-84292517D01*
X139570951Y-84230476D01*
X139543797Y-84157671D01*
X139543793Y-84157664D01*
X139457547Y-84042455D01*
X139457544Y-84042452D01*
X139342334Y-83956205D01*
X139341450Y-83955875D01*
X139338790Y-83954883D01*
X139335765Y-83952619D01*
X139334551Y-83951956D01*
X139334646Y-83951781D01*
X139282858Y-83913011D01*
X139267568Y-83886158D01*
X139227522Y-83789478D01*
X139220778Y-83773195D01*
X139220776Y-83773192D01*
X139220775Y-83773189D01*
X139144114Y-83658457D01*
X139144112Y-83658454D01*
X139144111Y-83658453D01*
X138697838Y-83212181D01*
X138664353Y-83150858D01*
X138669337Y-83081167D01*
X138711208Y-83025233D01*
X138776673Y-83000816D01*
X138785519Y-83000500D01*
X145375500Y-83000500D01*
X145442539Y-83020185D01*
G37*
%TD.AperFunction*%
%TA.AperFunction,Conductor*%
G36*
X65287699Y-90937483D02*
G01*
X65306817Y-90958312D01*
X65397019Y-91082464D01*
X65537536Y-91222981D01*
X65698306Y-91339787D01*
X65754505Y-91368422D01*
X65875367Y-91430005D01*
X65875370Y-91430006D01*
X65952095Y-91454935D01*
X66064364Y-91491413D01*
X66260639Y-91522500D01*
X66260640Y-91522500D01*
X66459360Y-91522500D01*
X66459361Y-91522500D01*
X66655636Y-91491413D01*
X66720390Y-91470372D01*
X66790230Y-91468378D01*
X66846388Y-91500623D01*
X67310139Y-91964374D01*
X67310149Y-91964385D01*
X67314479Y-91968715D01*
X67314480Y-91968716D01*
X67426284Y-92080520D01*
X67426286Y-92080521D01*
X67426290Y-92080524D01*
X67563209Y-92159573D01*
X67563216Y-92159577D01*
X67675019Y-92189534D01*
X67715942Y-92200500D01*
X67715943Y-92200500D01*
X74954217Y-92200500D01*
X75021256Y-92220185D01*
X75041897Y-92236818D01*
X77585598Y-94780520D01*
X77585600Y-94780521D01*
X77585604Y-94780524D01*
X77722523Y-94859573D01*
X77722530Y-94859577D01*
X77875257Y-94900501D01*
X77875259Y-94900501D01*
X78040968Y-94900501D01*
X78040984Y-94900500D01*
X79894903Y-94900500D01*
X79961942Y-94920185D01*
X79982584Y-94936819D01*
X83110139Y-98064374D01*
X83110149Y-98064385D01*
X83114479Y-98068715D01*
X83114480Y-98068716D01*
X83226284Y-98180520D01*
X83313095Y-98230639D01*
X83313097Y-98230641D01*
X83347475Y-98250489D01*
X83363215Y-98259577D01*
X83515943Y-98300500D01*
X89013331Y-98300500D01*
X89013347Y-98300501D01*
X89050902Y-98300501D01*
X89117941Y-98320186D01*
X89163696Y-98372990D01*
X89173640Y-98442148D01*
X89144615Y-98505704D01*
X89138589Y-98512175D01*
X88381948Y-99268816D01*
X87631286Y-100019478D01*
X87519481Y-100131282D01*
X87519479Y-100131285D01*
X87509980Y-100147738D01*
X87483020Y-100194435D01*
X87440423Y-100268215D01*
X87399499Y-100420943D01*
X87399499Y-100420945D01*
X87399499Y-100589046D01*
X87399500Y-100589059D01*
X87399500Y-101049903D01*
X87379815Y-101116942D01*
X87363181Y-101137584D01*
X86737584Y-101763181D01*
X86676261Y-101796666D01*
X86649903Y-101799500D01*
X84720942Y-101799500D01*
X84568214Y-101840423D01*
X84519213Y-101868715D01*
X84519211Y-101868715D01*
X84431290Y-101919475D01*
X84431282Y-101919481D01*
X84319478Y-102031286D01*
X84065496Y-102285267D01*
X84004173Y-102318752D01*
X83945723Y-102317361D01*
X83879058Y-102299499D01*
X83879057Y-102299499D01*
X83720943Y-102299499D01*
X83713347Y-102299499D01*
X83713331Y-102299500D01*
X70179057Y-102299500D01*
X70020942Y-102299500D01*
X69868215Y-102340423D01*
X69842182Y-102355453D01*
X69835206Y-102359481D01*
X69835205Y-102359480D01*
X69731287Y-102419477D01*
X69731282Y-102419481D01*
X69669821Y-102480943D01*
X69619480Y-102531284D01*
X69619478Y-102531286D01*
X69267607Y-102883158D01*
X68949584Y-103201181D01*
X68888261Y-103234666D01*
X68861903Y-103237500D01*
X68800639Y-103237500D01*
X68735214Y-103247862D01*
X68604362Y-103268587D01*
X68415370Y-103329993D01*
X68415367Y-103329994D01*
X68238305Y-103420213D01*
X68077533Y-103537021D01*
X67937021Y-103677533D01*
X67820213Y-103838305D01*
X67740485Y-103994780D01*
X67692510Y-104045576D01*
X67624689Y-104062371D01*
X67558554Y-104039833D01*
X67519515Y-103994780D01*
X67463766Y-103885368D01*
X67439787Y-103838306D01*
X67322981Y-103677536D01*
X67182464Y-103537019D01*
X67021694Y-103420213D01*
X67013416Y-103415995D01*
X66844632Y-103329994D01*
X66844629Y-103329993D01*
X66655637Y-103268587D01*
X66557498Y-103253043D01*
X66459361Y-103237500D01*
X66260639Y-103237500D01*
X66195214Y-103247862D01*
X66064362Y-103268587D01*
X65875370Y-103329993D01*
X65875367Y-103329994D01*
X65698305Y-103420213D01*
X65537533Y-103537021D01*
X65397021Y-103677533D01*
X65397021Y-103677534D01*
X65397019Y-103677536D01*
X65348938Y-103743712D01*
X65306817Y-103801688D01*
X65251487Y-103844353D01*
X65181873Y-103850332D01*
X65120078Y-103817726D01*
X65085721Y-103756887D01*
X65082499Y-103728802D01*
X65082499Y-103690129D01*
X65082498Y-103690123D01*
X65082497Y-103690116D01*
X65076091Y-103630517D01*
X65054634Y-103572989D01*
X65025797Y-103495671D01*
X65025793Y-103495664D01*
X64939547Y-103380455D01*
X64939544Y-103380452D01*
X64824335Y-103294206D01*
X64824328Y-103294202D01*
X64689482Y-103243908D01*
X64689483Y-103243908D01*
X64629883Y-103237501D01*
X64629881Y-103237500D01*
X64629873Y-103237500D01*
X64629864Y-103237500D01*
X63010129Y-103237500D01*
X63010123Y-103237501D01*
X62950516Y-103243908D01*
X62815671Y-103294202D01*
X62815664Y-103294206D01*
X62700455Y-103380452D01*
X62700452Y-103380455D01*
X62614206Y-103495664D01*
X62614202Y-103495671D01*
X62563908Y-103630517D01*
X62557501Y-103690116D01*
X62557501Y-103690123D01*
X62557500Y-103690135D01*
X62557500Y-106309870D01*
X62557501Y-106309876D01*
X62563908Y-106369483D01*
X62614202Y-106504328D01*
X62614206Y-106504335D01*
X62700452Y-106619544D01*
X62700455Y-106619547D01*
X62815664Y-106705793D01*
X62815671Y-106705797D01*
X62950517Y-106756091D01*
X62950516Y-106756091D01*
X62957444Y-106756835D01*
X63010127Y-106762500D01*
X64629872Y-106762499D01*
X64689483Y-106756091D01*
X64824331Y-106705796D01*
X64939546Y-106619546D01*
X65025796Y-106504331D01*
X65076091Y-106369483D01*
X65082500Y-106309873D01*
X65082499Y-106271197D01*
X65102182Y-106204161D01*
X65154985Y-106158405D01*
X65224143Y-106148460D01*
X65287699Y-106177483D01*
X65306817Y-106198312D01*
X65397019Y-106322464D01*
X65537536Y-106462981D01*
X65698306Y-106579787D01*
X65759500Y-106610967D01*
X65875367Y-106670005D01*
X65875370Y-106670006D01*
X65969866Y-106700709D01*
X66064364Y-106731413D01*
X66260639Y-106762500D01*
X66260640Y-106762500D01*
X66459360Y-106762500D01*
X66459361Y-106762500D01*
X66655636Y-106731413D01*
X66844632Y-106670005D01*
X66844632Y-106670004D01*
X66844637Y-106670003D01*
X66987036Y-106597446D01*
X67055706Y-106584549D01*
X67120446Y-106610825D01*
X67131013Y-106620249D01*
X68991284Y-108480520D01*
X68991286Y-108480521D01*
X68991290Y-108480524D01*
X69096240Y-108541116D01*
X69128216Y-108559577D01*
X69280943Y-108600501D01*
X69280945Y-108600501D01*
X69446654Y-108600501D01*
X69446670Y-108600500D01*
X88213331Y-108600500D01*
X88213347Y-108600501D01*
X88220943Y-108600501D01*
X88379054Y-108600501D01*
X88379057Y-108600501D01*
X88531785Y-108559577D01*
X88581904Y-108530639D01*
X88668716Y-108480520D01*
X88780520Y-108368716D01*
X88780520Y-108368714D01*
X88790728Y-108358507D01*
X88790730Y-108358504D01*
X89549231Y-107600003D01*
X97189435Y-107600003D01*
X97209630Y-107779249D01*
X97209631Y-107779254D01*
X97269211Y-107949523D01*
X97300614Y-107999500D01*
X97365184Y-108102262D01*
X97492738Y-108229816D01*
X97645478Y-108325789D01*
X97815745Y-108385368D01*
X97815750Y-108385369D01*
X97994996Y-108405565D01*
X97995000Y-108405565D01*
X97995004Y-108405565D01*
X98174249Y-108385369D01*
X98174252Y-108385368D01*
X98174255Y-108385368D01*
X98344522Y-108325789D01*
X98434097Y-108269504D01*
X98501334Y-108250504D01*
X98566043Y-108269505D01*
X98671210Y-108335587D01*
X98841480Y-108395167D01*
X98841485Y-108395168D01*
X99020731Y-108415364D01*
X99020735Y-108415364D01*
X99020739Y-108415364D01*
X99199984Y-108395168D01*
X99199987Y-108395167D01*
X99199990Y-108395167D01*
X99370257Y-108335588D01*
X99522997Y-108239615D01*
X99650551Y-108112061D01*
X99746524Y-107959321D01*
X99806103Y-107789054D01*
X99806242Y-107787819D01*
X99826300Y-107609802D01*
X99826300Y-107609795D01*
X99806104Y-107430549D01*
X99806103Y-107430544D01*
X99767092Y-107319057D01*
X99746524Y-107260277D01*
X99739527Y-107249142D01*
X99671276Y-107140521D01*
X99650551Y-107107537D01*
X99522997Y-106979983D01*
X99507399Y-106970182D01*
X99370257Y-106884009D01*
X99370253Y-106884008D01*
X99285165Y-106854234D01*
X99228389Y-106813513D01*
X99202900Y-106751078D01*
X99195504Y-106685427D01*
X99135925Y-106515160D01*
X99039952Y-106362420D01*
X98912398Y-106234866D01*
X98868979Y-106207584D01*
X98759659Y-106138893D01*
X98589390Y-106079313D01*
X98589385Y-106079312D01*
X98410140Y-106059117D01*
X98410132Y-106059117D01*
X98230886Y-106079312D01*
X98230881Y-106079313D01*
X98060612Y-106138893D01*
X97907873Y-106234866D01*
X97780320Y-106362419D01*
X97684347Y-106515158D01*
X97624767Y-106685427D01*
X97624766Y-106685431D01*
X97606984Y-106843259D01*
X97579917Y-106907673D01*
X97549737Y-106934368D01*
X97492740Y-106970182D01*
X97492737Y-106970184D01*
X97365184Y-107097737D01*
X97269211Y-107250476D01*
X97209631Y-107420745D01*
X97209630Y-107420750D01*
X97189435Y-107599996D01*
X97189435Y-107600003D01*
X89549231Y-107600003D01*
X90238506Y-106910728D01*
X90238511Y-106910724D01*
X90248714Y-106900520D01*
X90248716Y-106900520D01*
X90360520Y-106788716D01*
X90439577Y-106651784D01*
X90480500Y-106499057D01*
X90480500Y-105965004D01*
X90500185Y-105897965D01*
X90539403Y-105859465D01*
X90558044Y-105847968D01*
X90677968Y-105728044D01*
X90767003Y-105583697D01*
X90820349Y-105422708D01*
X90830500Y-105323345D01*
X90830499Y-103476656D01*
X90827727Y-103449523D01*
X90820349Y-103377292D01*
X90820348Y-103377289D01*
X90792817Y-103294206D01*
X90778169Y-103250000D01*
X94650000Y-103250000D01*
X94650000Y-104747844D01*
X94656401Y-104807372D01*
X94656403Y-104807379D01*
X94706645Y-104942086D01*
X94706649Y-104942093D01*
X94792809Y-105057187D01*
X94792812Y-105057190D01*
X94907906Y-105143350D01*
X94907913Y-105143354D01*
X95042620Y-105193596D01*
X95042627Y-105193598D01*
X95102155Y-105199999D01*
X95102172Y-105200000D01*
X99750000Y-105200000D01*
X99750000Y-103250000D01*
X100250000Y-103250000D01*
X100250000Y-105200000D01*
X104897828Y-105200000D01*
X104897844Y-105199999D01*
X104957372Y-105193598D01*
X104957379Y-105193596D01*
X105092086Y-105143354D01*
X105092093Y-105143350D01*
X105207187Y-105057190D01*
X105207190Y-105057187D01*
X105293350Y-104942093D01*
X105293354Y-104942086D01*
X105343596Y-104807379D01*
X105343598Y-104807372D01*
X105349999Y-104747844D01*
X105350000Y-104747827D01*
X105350000Y-103250000D01*
X100250000Y-103250000D01*
X99750000Y-103250000D01*
X94650000Y-103250000D01*
X90778169Y-103250000D01*
X90767003Y-103216303D01*
X90766999Y-103216297D01*
X90766998Y-103216294D01*
X90677970Y-103071959D01*
X90677969Y-103071958D01*
X90677968Y-103071956D01*
X90635849Y-103029837D01*
X95400000Y-103029837D01*
X95422836Y-103084968D01*
X95465032Y-103127164D01*
X95520163Y-103150000D01*
X95579837Y-103150000D01*
X95634968Y-103127164D01*
X95677164Y-103084968D01*
X95700000Y-103029837D01*
X97180000Y-103029837D01*
X97202836Y-103084968D01*
X97245032Y-103127164D01*
X97300163Y-103150000D01*
X97359837Y-103150000D01*
X97414968Y-103127164D01*
X97457164Y-103084968D01*
X97480000Y-103029837D01*
X98960000Y-103029837D01*
X98982836Y-103084968D01*
X99025032Y-103127164D01*
X99080163Y-103150000D01*
X99139837Y-103150000D01*
X99194968Y-103127164D01*
X99237164Y-103084968D01*
X99260000Y-103029837D01*
X100740000Y-103029837D01*
X100762836Y-103084968D01*
X100805032Y-103127164D01*
X100860163Y-103150000D01*
X100919837Y-103150000D01*
X100974968Y-103127164D01*
X101017164Y-103084968D01*
X101040000Y-103029837D01*
X102520000Y-103029837D01*
X102542836Y-103084968D01*
X102585032Y-103127164D01*
X102640163Y-103150000D01*
X102699837Y-103150000D01*
X102754968Y-103127164D01*
X102797164Y-103084968D01*
X102820000Y-103029837D01*
X104300000Y-103029837D01*
X104322836Y-103084968D01*
X104365032Y-103127164D01*
X104420163Y-103150000D01*
X104479837Y-103150000D01*
X104534968Y-103127164D01*
X104577164Y-103084968D01*
X104600000Y-103029837D01*
X104600000Y-102970163D01*
X104577164Y-102915032D01*
X104534968Y-102872836D01*
X104479837Y-102850000D01*
X104420163Y-102850000D01*
X104365032Y-102872836D01*
X104322836Y-102915032D01*
X104300000Y-102970163D01*
X104300000Y-103029837D01*
X102820000Y-103029837D01*
X102820000Y-102970163D01*
X102797164Y-102915032D01*
X102754968Y-102872836D01*
X102699837Y-102850000D01*
X102640163Y-102850000D01*
X102585032Y-102872836D01*
X102542836Y-102915032D01*
X102520000Y-102970163D01*
X102520000Y-103029837D01*
X101040000Y-103029837D01*
X101040000Y-102970163D01*
X101017164Y-102915032D01*
X100974968Y-102872836D01*
X100919837Y-102850000D01*
X100860163Y-102850000D01*
X100805032Y-102872836D01*
X100762836Y-102915032D01*
X100740000Y-102970163D01*
X100740000Y-103029837D01*
X99260000Y-103029837D01*
X99260000Y-102970163D01*
X99237164Y-102915032D01*
X99194968Y-102872836D01*
X99139837Y-102850000D01*
X99080163Y-102850000D01*
X99025032Y-102872836D01*
X98982836Y-102915032D01*
X98960000Y-102970163D01*
X98960000Y-103029837D01*
X97480000Y-103029837D01*
X97480000Y-102970163D01*
X97457164Y-102915032D01*
X97414968Y-102872836D01*
X97359837Y-102850000D01*
X97300163Y-102850000D01*
X97245032Y-102872836D01*
X97202836Y-102915032D01*
X97180000Y-102970163D01*
X97180000Y-103029837D01*
X95700000Y-103029837D01*
X95700000Y-102970163D01*
X95677164Y-102915032D01*
X95634968Y-102872836D01*
X95579837Y-102850000D01*
X95520163Y-102850000D01*
X95465032Y-102872836D01*
X95422836Y-102915032D01*
X95400000Y-102970163D01*
X95400000Y-103029837D01*
X90635849Y-103029837D01*
X90558044Y-102952032D01*
X90539399Y-102940531D01*
X90492677Y-102888582D01*
X90480500Y-102834995D01*
X90480500Y-101120097D01*
X90500185Y-101053058D01*
X90516819Y-101032416D01*
X91322224Y-100227011D01*
X92130779Y-99418455D01*
X92192100Y-99384972D01*
X92261792Y-99389956D01*
X92317725Y-99431828D01*
X92342142Y-99497292D01*
X92327290Y-99565565D01*
X92323452Y-99572109D01*
X92274212Y-99650474D01*
X92214631Y-99820745D01*
X92214630Y-99820750D01*
X92194435Y-99999996D01*
X92194435Y-100000003D01*
X92214630Y-100179249D01*
X92214631Y-100179254D01*
X92274211Y-100349523D01*
X92363576Y-100491745D01*
X92370184Y-100502262D01*
X92497738Y-100629816D01*
X92650478Y-100725789D01*
X92820745Y-100785368D01*
X92820750Y-100785369D01*
X92999996Y-100805565D01*
X93000000Y-100805565D01*
X93000004Y-100805565D01*
X93179249Y-100785369D01*
X93179252Y-100785368D01*
X93179255Y-100785368D01*
X93259017Y-100757457D01*
X93299972Y-100750500D01*
X94098431Y-100750500D01*
X94165470Y-100770185D01*
X94186112Y-100786819D01*
X94332247Y-100932954D01*
X94359846Y-100951394D01*
X94401248Y-100979057D01*
X94455166Y-101015084D01*
X94455168Y-101015085D01*
X94455172Y-101015087D01*
X94511740Y-101038518D01*
X94539226Y-101049903D01*
X94580337Y-101066932D01*
X94634740Y-101110771D01*
X94656805Y-101177066D01*
X94656173Y-101194747D01*
X94650001Y-101252153D01*
X94650000Y-101252172D01*
X94650000Y-102750000D01*
X105350000Y-102750000D01*
X105350000Y-101252172D01*
X105349999Y-101252155D01*
X105343598Y-101192627D01*
X105343596Y-101192620D01*
X105293354Y-101057913D01*
X105293350Y-101057906D01*
X105207190Y-100942812D01*
X105099494Y-100862190D01*
X105057624Y-100806256D01*
X105052640Y-100736565D01*
X105086123Y-100675246D01*
X105658060Y-100103307D01*
X105694133Y-100080658D01*
X105693245Y-100078814D01*
X105699516Y-100075793D01*
X105699517Y-100075791D01*
X105699523Y-100075790D01*
X105852263Y-99979817D01*
X105979817Y-99852263D01*
X106075790Y-99699523D01*
X106131702Y-99539734D01*
X106172424Y-99482959D01*
X106237376Y-99457211D01*
X106305938Y-99470667D01*
X106356341Y-99519054D01*
X106365785Y-99539734D01*
X106369209Y-99549519D01*
X106400614Y-99599500D01*
X106465184Y-99702262D01*
X106592738Y-99829816D01*
X106683080Y-99886582D01*
X106704425Y-99899994D01*
X106745478Y-99925789D01*
X106859897Y-99965826D01*
X106915745Y-99985368D01*
X106915750Y-99985369D01*
X107094996Y-100005565D01*
X107095000Y-100005565D01*
X107095003Y-100005565D01*
X107236484Y-99989623D01*
X107261616Y-99986792D01*
X107330438Y-99998846D01*
X107381818Y-100046195D01*
X107399500Y-100110012D01*
X107399500Y-108817587D01*
X107379815Y-108884626D01*
X107372450Y-108894896D01*
X107370186Y-108897734D01*
X107274211Y-109050476D01*
X107214631Y-109220745D01*
X107214630Y-109220750D01*
X107194435Y-109399996D01*
X107194435Y-109400003D01*
X107214630Y-109579249D01*
X107214631Y-109579254D01*
X107274211Y-109749523D01*
X107370185Y-109902263D01*
X107372445Y-109905097D01*
X107373334Y-109907275D01*
X107373889Y-109908158D01*
X107373734Y-109908255D01*
X107398855Y-109969783D01*
X107399219Y-109976927D01*
X107399500Y-109979056D01*
X107399500Y-109979057D01*
X107438725Y-110125445D01*
X107440423Y-110131783D01*
X107440423Y-110131784D01*
X107516469Y-110263501D01*
X107532941Y-110331401D01*
X107510088Y-110397428D01*
X107455166Y-110440618D01*
X107409081Y-110449500D01*
X101223930Y-110449500D01*
X101156891Y-110429815D01*
X101111136Y-110377011D01*
X101101192Y-110307853D01*
X101113445Y-110269205D01*
X101158882Y-110180029D01*
X101158882Y-110180028D01*
X101158884Y-110180025D01*
X101219709Y-109992826D01*
X101223359Y-109969783D01*
X101250500Y-109798422D01*
X101250500Y-109601577D01*
X101219709Y-109407173D01*
X101184723Y-109299500D01*
X101158884Y-109219975D01*
X101158882Y-109219972D01*
X101158882Y-109219970D01*
X101090757Y-109086268D01*
X101069524Y-109044595D01*
X100953828Y-108885354D01*
X100814646Y-108746172D01*
X100655405Y-108630476D01*
X100480029Y-108541117D01*
X100292826Y-108480290D01*
X100098422Y-108449500D01*
X100098417Y-108449500D01*
X99901583Y-108449500D01*
X99901578Y-108449500D01*
X99707173Y-108480290D01*
X99519970Y-108541117D01*
X99344594Y-108630476D01*
X99253741Y-108696485D01*
X99185354Y-108746172D01*
X99185352Y-108746174D01*
X99185351Y-108746174D01*
X99046174Y-108885351D01*
X99046174Y-108885352D01*
X99046172Y-108885354D01*
X98996485Y-108953741D01*
X98930476Y-109044594D01*
X98841117Y-109219970D01*
X98780290Y-109407173D01*
X98749500Y-109601577D01*
X98749500Y-109798422D01*
X98780290Y-109992826D01*
X98841117Y-110180029D01*
X98886555Y-110269205D01*
X98899451Y-110337875D01*
X98873174Y-110402615D01*
X98816068Y-110442872D01*
X98776070Y-110449500D01*
X78711322Y-110449500D01*
X78644283Y-110429815D01*
X78598528Y-110377011D01*
X78588102Y-110339383D01*
X78580369Y-110270750D01*
X78580368Y-110270748D01*
X78580368Y-110270745D01*
X78520789Y-110100478D01*
X78424816Y-109947738D01*
X78297262Y-109820184D01*
X78262620Y-109798417D01*
X78144523Y-109724211D01*
X77974254Y-109664631D01*
X77974249Y-109664630D01*
X77795004Y-109644435D01*
X77794996Y-109644435D01*
X77615750Y-109664630D01*
X77615745Y-109664631D01*
X77445476Y-109724211D01*
X77292737Y-109820184D01*
X77165184Y-109947737D01*
X77069210Y-110100478D01*
X77042256Y-110177511D01*
X77013370Y-110260064D01*
X77012042Y-110263859D01*
X76971320Y-110320635D01*
X76906368Y-110346383D01*
X76837806Y-110332927D01*
X76787403Y-110284540D01*
X76777958Y-110263859D01*
X76776630Y-110260064D01*
X76720789Y-110100478D01*
X76624816Y-109947738D01*
X76497262Y-109820184D01*
X76462620Y-109798417D01*
X76344523Y-109724211D01*
X76174254Y-109664631D01*
X76174249Y-109664630D01*
X75995004Y-109644435D01*
X75994996Y-109644435D01*
X75815750Y-109664630D01*
X75815745Y-109664631D01*
X75645476Y-109724211D01*
X75492737Y-109820184D01*
X75365184Y-109947737D01*
X75269210Y-110100478D01*
X75209630Y-110270750D01*
X75201898Y-110339383D01*
X75174832Y-110403797D01*
X75117237Y-110443352D01*
X75078678Y-110449500D01*
X74711322Y-110449500D01*
X74644283Y-110429815D01*
X74598528Y-110377011D01*
X74588102Y-110339383D01*
X74580369Y-110270750D01*
X74580368Y-110270748D01*
X74580368Y-110270745D01*
X74520789Y-110100478D01*
X74424816Y-109947738D01*
X74297262Y-109820184D01*
X74262620Y-109798417D01*
X74144523Y-109724211D01*
X73974254Y-109664631D01*
X73974249Y-109664630D01*
X73795004Y-109644435D01*
X73794996Y-109644435D01*
X73615750Y-109664630D01*
X73615745Y-109664631D01*
X73445476Y-109724211D01*
X73292737Y-109820184D01*
X73165184Y-109947737D01*
X73069210Y-110100478D01*
X73009630Y-110270750D01*
X73001898Y-110339383D01*
X72974832Y-110403797D01*
X72917237Y-110443352D01*
X72878678Y-110449500D01*
X66285838Y-110449500D01*
X66218799Y-110429815D01*
X66173044Y-110377011D01*
X66163100Y-110307853D01*
X66167177Y-110289505D01*
X66179160Y-110250000D01*
X65419618Y-110250000D01*
X65470064Y-110199554D01*
X65512851Y-110125445D01*
X65535000Y-110042787D01*
X65535000Y-109957213D01*
X65512851Y-109874555D01*
X65470064Y-109800446D01*
X65409554Y-109739936D01*
X65335445Y-109697149D01*
X65252787Y-109675000D01*
X65167213Y-109675000D01*
X65084555Y-109697149D01*
X65010446Y-109739936D01*
X64960000Y-109790382D01*
X64960000Y-109030839D01*
X65460000Y-109030839D01*
X65460000Y-109750000D01*
X66179160Y-109750000D01*
X66179160Y-109749999D01*
X66138347Y-109615458D01*
X66045496Y-109441746D01*
X66045492Y-109441739D01*
X65920528Y-109289471D01*
X65768260Y-109164507D01*
X65768253Y-109164503D01*
X65594541Y-109071652D01*
X65460000Y-109030839D01*
X64960000Y-109030839D01*
X64959999Y-109030839D01*
X64825458Y-109071652D01*
X64651742Y-109164505D01*
X64646673Y-109167893D01*
X64645556Y-109166221D01*
X64589715Y-109189921D01*
X64520851Y-109178111D01*
X64503811Y-109167158D01*
X64503601Y-109167473D01*
X64498532Y-109164086D01*
X64324728Y-109071186D01*
X64207748Y-109035700D01*
X64156063Y-109004721D01*
X62031819Y-106880477D01*
X61998334Y-106819154D01*
X61995500Y-106792796D01*
X61995500Y-101000003D01*
X75694435Y-101000003D01*
X75714630Y-101179249D01*
X75714631Y-101179254D01*
X75774211Y-101349523D01*
X75805928Y-101400000D01*
X75870184Y-101502262D01*
X75997738Y-101629816D01*
X76150478Y-101725789D01*
X76319602Y-101784968D01*
X76320745Y-101785368D01*
X76320750Y-101785369D01*
X76499996Y-101805565D01*
X76500000Y-101805565D01*
X76500004Y-101805565D01*
X76679249Y-101785369D01*
X76679252Y-101785368D01*
X76679255Y-101785368D01*
X76849522Y-101725789D01*
X77002262Y-101629816D01*
X77129816Y-101502262D01*
X77225789Y-101349522D01*
X77285368Y-101179255D01*
X77287531Y-101160057D01*
X77305565Y-101000003D01*
X77305565Y-100999996D01*
X77285369Y-100820750D01*
X77285368Y-100820745D01*
X77252141Y-100725788D01*
X77225789Y-100650478D01*
X77129816Y-100497738D01*
X77129814Y-100497736D01*
X77129813Y-100497734D01*
X77127550Y-100494896D01*
X77126659Y-100492715D01*
X77126111Y-100491842D01*
X77126264Y-100491745D01*
X77101144Y-100430209D01*
X77100500Y-100417587D01*
X77100500Y-99582412D01*
X77120185Y-99515373D01*
X77127555Y-99505097D01*
X77129810Y-99502267D01*
X77129816Y-99502262D01*
X77225789Y-99349522D01*
X77285368Y-99179255D01*
X77286542Y-99168834D01*
X77305565Y-99000003D01*
X77305565Y-98999996D01*
X77285369Y-98820750D01*
X77285368Y-98820745D01*
X77266672Y-98767315D01*
X77225789Y-98650478D01*
X77219169Y-98639943D01*
X77159158Y-98544436D01*
X77129816Y-98497738D01*
X77002262Y-98370184D01*
X76922691Y-98320186D01*
X76849523Y-98274211D01*
X76679254Y-98214631D01*
X76679249Y-98214630D01*
X76500004Y-98194435D01*
X76499996Y-98194435D01*
X76320750Y-98214630D01*
X76320745Y-98214631D01*
X76150476Y-98274211D01*
X75997737Y-98370184D01*
X75870184Y-98497737D01*
X75774211Y-98650476D01*
X75714631Y-98820745D01*
X75714630Y-98820750D01*
X75694435Y-98999996D01*
X75694435Y-99000003D01*
X75714630Y-99179249D01*
X75714631Y-99179254D01*
X75774211Y-99349523D01*
X75799617Y-99389956D01*
X75868700Y-99499901D01*
X75870185Y-99502263D01*
X75872445Y-99505097D01*
X75873334Y-99507275D01*
X75873889Y-99508158D01*
X75873734Y-99508255D01*
X75898855Y-99569783D01*
X75899500Y-99582412D01*
X75899500Y-100417587D01*
X75879815Y-100484626D01*
X75872450Y-100494896D01*
X75870186Y-100497734D01*
X75774211Y-100650476D01*
X75714631Y-100820745D01*
X75714630Y-100820750D01*
X75694435Y-100999996D01*
X75694435Y-101000003D01*
X61995500Y-101000003D01*
X61995500Y-95283062D01*
X62015185Y-95216023D01*
X62067989Y-95170268D01*
X62137147Y-95160324D01*
X62160448Y-95166018D01*
X62215745Y-95185368D01*
X62215748Y-95185368D01*
X62215750Y-95185369D01*
X62394996Y-95205565D01*
X62395000Y-95205565D01*
X62395004Y-95205565D01*
X62574249Y-95185369D01*
X62574252Y-95185368D01*
X62574255Y-95185368D01*
X62744522Y-95125789D01*
X62897262Y-95029816D01*
X63024816Y-94902262D01*
X63120789Y-94749522D01*
X63180368Y-94579255D01*
X63189206Y-94500816D01*
X63200565Y-94400003D01*
X63200565Y-94399996D01*
X63180369Y-94220750D01*
X63180368Y-94220745D01*
X63154083Y-94145628D01*
X63120789Y-94050478D01*
X63106977Y-94028497D01*
X63026935Y-93901111D01*
X63024816Y-93897738D01*
X62931818Y-93804740D01*
X62898334Y-93743416D01*
X62895500Y-93717059D01*
X62895500Y-91646499D01*
X62915185Y-91579460D01*
X62967989Y-91533705D01*
X63019495Y-91522499D01*
X64629872Y-91522499D01*
X64689483Y-91516091D01*
X64824331Y-91465796D01*
X64939546Y-91379546D01*
X65025796Y-91264331D01*
X65076091Y-91129483D01*
X65082500Y-91069873D01*
X65082499Y-91031197D01*
X65102182Y-90964161D01*
X65154985Y-90918405D01*
X65224143Y-90908460D01*
X65287699Y-90937483D01*
G37*
%TD.AperFunction*%
%TA.AperFunction,Conductor*%
G36*
X98843109Y-84570185D02*
G01*
X98888864Y-84622989D01*
X98898808Y-84692147D01*
X98886555Y-84730795D01*
X98841117Y-84819970D01*
X98780290Y-85007173D01*
X98749500Y-85201577D01*
X98749500Y-85398422D01*
X98780290Y-85592826D01*
X98841117Y-85780029D01*
X98912917Y-85920943D01*
X98930476Y-85955405D01*
X99046172Y-86114646D01*
X99185354Y-86253828D01*
X99214747Y-86275183D01*
X99257411Y-86330512D01*
X99263390Y-86400126D01*
X99230784Y-86461921D01*
X99169945Y-86496278D01*
X99141860Y-86499500D01*
X89337495Y-86499500D01*
X89270456Y-86479815D01*
X89224701Y-86427011D01*
X89214757Y-86357853D01*
X89220454Y-86334545D01*
X89271788Y-86187840D01*
X89271791Y-86187828D01*
X89291810Y-86010145D01*
X89318876Y-85945731D01*
X89376471Y-85906176D01*
X89402871Y-85900626D01*
X89551132Y-85886024D01*
X89739727Y-85828814D01*
X89913538Y-85735910D01*
X89913544Y-85735904D01*
X89918607Y-85732523D01*
X89919703Y-85734164D01*
X89975639Y-85710405D01*
X90044507Y-85722194D01*
X90061148Y-85732888D01*
X90061393Y-85732523D01*
X90066458Y-85735907D01*
X90066462Y-85735910D01*
X90187268Y-85800482D01*
X90238147Y-85827678D01*
X90240273Y-85828814D01*
X90428868Y-85886024D01*
X90625000Y-85905341D01*
X90821132Y-85886024D01*
X91009727Y-85828814D01*
X91183538Y-85735910D01*
X91183544Y-85735904D01*
X91188607Y-85732523D01*
X91189703Y-85734164D01*
X91245639Y-85710405D01*
X91314507Y-85722194D01*
X91331148Y-85732888D01*
X91331393Y-85732523D01*
X91336458Y-85735907D01*
X91336462Y-85735910D01*
X91457268Y-85800482D01*
X91508147Y-85827678D01*
X91510273Y-85828814D01*
X91698868Y-85886024D01*
X91895000Y-85905341D01*
X92091132Y-85886024D01*
X92279727Y-85828814D01*
X92453538Y-85735910D01*
X92453544Y-85735904D01*
X92458607Y-85732523D01*
X92459703Y-85734164D01*
X92515639Y-85710405D01*
X92584507Y-85722194D01*
X92601148Y-85732888D01*
X92601393Y-85732523D01*
X92606458Y-85735907D01*
X92606462Y-85735910D01*
X92727268Y-85800482D01*
X92778147Y-85827678D01*
X92780273Y-85828814D01*
X92968868Y-85886024D01*
X93165000Y-85905341D01*
X93361132Y-85886024D01*
X93549727Y-85828814D01*
X93723538Y-85735910D01*
X93723544Y-85735904D01*
X93728607Y-85732523D01*
X93729624Y-85734045D01*
X93786021Y-85710084D01*
X93854890Y-85721866D01*
X93871424Y-85732489D01*
X93871678Y-85732110D01*
X93876738Y-85735491D01*
X94050465Y-85828349D01*
X94185000Y-85869159D01*
X94185000Y-85144975D01*
X94220095Y-85180070D01*
X94299905Y-85226148D01*
X94388922Y-85250000D01*
X94481078Y-85250000D01*
X94570095Y-85226148D01*
X94649905Y-85180070D01*
X94679975Y-85150000D01*
X94685000Y-85150000D01*
X94685000Y-85869159D01*
X94819534Y-85828349D01*
X94993260Y-85735491D01*
X95145528Y-85610528D01*
X95270492Y-85458260D01*
X95270496Y-85458253D01*
X95363347Y-85284541D01*
X95404160Y-85150000D01*
X94685000Y-85150000D01*
X94679975Y-85150000D01*
X94715070Y-85114905D01*
X94761148Y-85035095D01*
X94785000Y-84946078D01*
X94785000Y-84853922D01*
X94761148Y-84764905D01*
X94715070Y-84685095D01*
X94679975Y-84650000D01*
X95404160Y-84650000D01*
X95440773Y-84600633D01*
X95496519Y-84558513D01*
X95540371Y-84550500D01*
X98776070Y-84550500D01*
X98843109Y-84570185D01*
G37*
%TD.AperFunction*%
%TA.AperFunction,Conductor*%
G36*
X104526668Y-84570185D02*
G01*
X104559227Y-84600633D01*
X104595840Y-84650000D01*
X105320025Y-84650000D01*
X105284930Y-84685095D01*
X105238852Y-84764905D01*
X105215000Y-84853922D01*
X105215000Y-84946078D01*
X105238852Y-85035095D01*
X105284930Y-85114905D01*
X105350095Y-85180070D01*
X105429905Y-85226148D01*
X105518922Y-85250000D01*
X105611078Y-85250000D01*
X105700095Y-85226148D01*
X105779905Y-85180070D01*
X105815000Y-85144975D01*
X105815000Y-85869159D01*
X105949534Y-85828349D01*
X106123259Y-85735492D01*
X106128320Y-85732111D01*
X106129444Y-85733793D01*
X106185203Y-85710086D01*
X106254075Y-85721851D01*
X106271186Y-85732843D01*
X106271399Y-85732526D01*
X106276457Y-85735906D01*
X106276462Y-85735910D01*
X106397268Y-85800482D01*
X106448147Y-85827678D01*
X106450273Y-85828814D01*
X106638868Y-85886024D01*
X106835000Y-85905341D01*
X107031132Y-85886024D01*
X107219727Y-85828814D01*
X107393538Y-85735910D01*
X107393544Y-85735904D01*
X107398607Y-85732523D01*
X107399703Y-85734164D01*
X107455639Y-85710405D01*
X107524507Y-85722194D01*
X107541148Y-85732888D01*
X107541393Y-85732523D01*
X107546458Y-85735907D01*
X107546462Y-85735910D01*
X107667268Y-85800482D01*
X107718147Y-85827678D01*
X107720273Y-85828814D01*
X107908868Y-85886024D01*
X108105000Y-85905341D01*
X108301132Y-85886024D01*
X108489727Y-85828814D01*
X108663538Y-85735910D01*
X108663544Y-85735904D01*
X108668607Y-85732523D01*
X108669703Y-85734164D01*
X108725639Y-85710405D01*
X108794507Y-85722194D01*
X108811148Y-85732888D01*
X108811393Y-85732523D01*
X108816458Y-85735907D01*
X108816462Y-85735910D01*
X108937268Y-85800482D01*
X108988147Y-85827678D01*
X108990273Y-85828814D01*
X109178868Y-85886024D01*
X109375000Y-85905341D01*
X109571132Y-85886024D01*
X109759727Y-85828814D01*
X109933538Y-85735910D01*
X109933544Y-85735904D01*
X109938607Y-85732523D01*
X109939703Y-85734164D01*
X109995639Y-85710405D01*
X110064507Y-85722194D01*
X110081148Y-85732888D01*
X110081393Y-85732523D01*
X110086458Y-85735907D01*
X110086462Y-85735910D01*
X110207268Y-85800482D01*
X110258147Y-85827678D01*
X110260273Y-85828814D01*
X110448868Y-85886024D01*
X110645000Y-85905341D01*
X110841132Y-85886024D01*
X111029727Y-85828814D01*
X111203538Y-85735910D01*
X111203544Y-85735904D01*
X111208607Y-85732523D01*
X111209703Y-85734164D01*
X111265639Y-85710405D01*
X111334507Y-85722194D01*
X111351148Y-85732888D01*
X111351393Y-85732523D01*
X111356458Y-85735907D01*
X111356462Y-85735910D01*
X111477268Y-85800482D01*
X111528147Y-85827678D01*
X111530273Y-85828814D01*
X111718868Y-85886024D01*
X111915000Y-85905341D01*
X112111132Y-85886024D01*
X112299727Y-85828814D01*
X112473538Y-85735910D01*
X112473544Y-85735904D01*
X112478607Y-85732523D01*
X112479703Y-85734164D01*
X112535639Y-85710405D01*
X112604507Y-85722194D01*
X112621148Y-85732888D01*
X112621393Y-85732523D01*
X112626458Y-85735907D01*
X112626462Y-85735910D01*
X112747268Y-85800482D01*
X112798147Y-85827678D01*
X112800273Y-85828814D01*
X112988868Y-85886024D01*
X113185000Y-85905341D01*
X113381132Y-85886024D01*
X113569727Y-85828814D01*
X113672049Y-85774121D01*
X113740448Y-85759880D01*
X113805692Y-85784879D01*
X113847063Y-85841184D01*
X113854500Y-85883480D01*
X113854500Y-86139903D01*
X113834815Y-86206942D01*
X113818181Y-86227584D01*
X113582584Y-86463181D01*
X113521261Y-86496666D01*
X113494903Y-86499500D01*
X100858140Y-86499500D01*
X100791101Y-86479815D01*
X100745346Y-86427011D01*
X100735402Y-86357853D01*
X100764427Y-86294297D01*
X100785250Y-86275185D01*
X100814646Y-86253828D01*
X100953828Y-86114646D01*
X101069524Y-85955405D01*
X101158884Y-85780025D01*
X101219709Y-85592826D01*
X101241022Y-85458260D01*
X101250500Y-85398422D01*
X101250500Y-85201577D01*
X101242331Y-85150000D01*
X104595840Y-85150000D01*
X104636652Y-85284541D01*
X104729503Y-85458253D01*
X104729507Y-85458260D01*
X104854471Y-85610528D01*
X105006739Y-85735491D01*
X105180465Y-85828349D01*
X105315000Y-85869159D01*
X105315000Y-85150000D01*
X104595840Y-85150000D01*
X101242331Y-85150000D01*
X101219709Y-85007173D01*
X101158882Y-84819970D01*
X101113445Y-84730795D01*
X101100549Y-84662125D01*
X101126826Y-84597385D01*
X101183932Y-84557128D01*
X101223930Y-84550500D01*
X104459629Y-84550500D01*
X104526668Y-84570185D01*
G37*
%TD.AperFunction*%
%TD*%
M02*
