%TF.GenerationSoftware,KiCad,Pcbnew,8.0.0*%
%TF.CreationDate,2024-12-15T19:06:57+00:00*%
%TF.ProjectId,main-board,6d61696e-2d62-46f6-9172-642e6b696361,rev?*%
%TF.SameCoordinates,Original*%
%TF.FileFunction,Paste,Top*%
%TF.FilePolarity,Positive*%
%FSLAX46Y46*%
G04 Gerber Fmt 4.6, Leading zero omitted, Abs format (unit mm)*
G04 Created by KiCad (PCBNEW 8.0.0) date 2024-12-15 19:06:57*
%MOMM*%
%LPD*%
G01*
G04 APERTURE LIST*
G04 Aperture macros list*
%AMRoundRect*
0 Rectangle with rounded corners*
0 $1 Rounding radius*
0 $2 $3 $4 $5 $6 $7 $8 $9 X,Y pos of 4 corners*
0 Add a 4 corners polygon primitive as box body*
4,1,4,$2,$3,$4,$5,$6,$7,$8,$9,$2,$3,0*
0 Add four circle primitives for the rounded corners*
1,1,$1+$1,$2,$3*
1,1,$1+$1,$4,$5*
1,1,$1+$1,$6,$7*
1,1,$1+$1,$8,$9*
0 Add four rect primitives between the rounded corners*
20,1,$1+$1,$2,$3,$4,$5,0*
20,1,$1+$1,$4,$5,$6,$7,0*
20,1,$1+$1,$6,$7,$8,$9,0*
20,1,$1+$1,$8,$9,$2,$3,0*%
G04 Aperture macros list end*
%ADD10RoundRect,0.250000X0.550000X-1.050000X0.550000X1.050000X-0.550000X1.050000X-0.550000X-1.050000X0*%
%ADD11RoundRect,0.250000X-0.475000X0.337500X-0.475000X-0.337500X0.475000X-0.337500X0.475000X0.337500X0*%
%ADD12RoundRect,0.150000X-0.587500X-0.150000X0.587500X-0.150000X0.587500X0.150000X-0.587500X0.150000X0*%
%ADD13RoundRect,0.230000X0.375000X-0.230000X0.375000X0.230000X-0.375000X0.230000X-0.375000X-0.230000X0*%
%ADD14RoundRect,0.150000X0.150000X-0.825000X0.150000X0.825000X-0.150000X0.825000X-0.150000X-0.825000X0*%
%ADD15RoundRect,0.237500X0.237500X-0.250000X0.237500X0.250000X-0.237500X0.250000X-0.237500X-0.250000X0*%
%ADD16RoundRect,0.150000X0.150000X-0.587500X0.150000X0.587500X-0.150000X0.587500X-0.150000X-0.587500X0*%
%ADD17RoundRect,0.237500X-0.250000X-0.237500X0.250000X-0.237500X0.250000X0.237500X-0.250000X0.237500X0*%
%ADD18RoundRect,0.237500X0.237500X-0.287500X0.237500X0.287500X-0.237500X0.287500X-0.237500X-0.287500X0*%
%ADD19R,0.550000X0.250000*%
%ADD20RoundRect,0.237500X0.300000X0.237500X-0.300000X0.237500X-0.300000X-0.237500X0.300000X-0.237500X0*%
%ADD21R,0.630000X0.830000*%
%ADD22RoundRect,0.250000X0.475000X-0.337500X0.475000X0.337500X-0.475000X0.337500X-0.475000X-0.337500X0*%
%ADD23RoundRect,0.237500X-0.237500X0.300000X-0.237500X-0.300000X0.237500X-0.300000X0.237500X0.300000X0*%
%ADD24RoundRect,0.250000X0.337500X0.475000X-0.337500X0.475000X-0.337500X-0.475000X0.337500X-0.475000X0*%
%ADD25RoundRect,0.237500X0.237500X-0.300000X0.237500X0.300000X-0.237500X0.300000X-0.237500X-0.300000X0*%
%ADD26RoundRect,0.237500X0.287500X0.237500X-0.287500X0.237500X-0.287500X-0.237500X0.287500X-0.237500X0*%
%ADD27RoundRect,0.250000X-0.750000X-0.250000X0.750000X-0.250000X0.750000X0.250000X-0.750000X0.250000X0*%
%ADD28RoundRect,0.237500X-0.287500X-0.237500X0.287500X-0.237500X0.287500X0.237500X-0.287500X0.237500X0*%
%ADD29RoundRect,0.237500X-0.237500X0.250000X-0.237500X-0.250000X0.237500X-0.250000X0.237500X0.250000X0*%
%ADD30RoundRect,0.237500X-0.300000X-0.237500X0.300000X-0.237500X0.300000X0.237500X-0.300000X0.237500X0*%
%ADD31RoundRect,0.237500X0.250000X0.237500X-0.250000X0.237500X-0.250000X-0.237500X0.250000X-0.237500X0*%
%ADD32R,0.900000X1.500000*%
%ADD33R,1.500000X0.900000*%
%ADD34R,4.100000X4.100000*%
%ADD35RoundRect,0.150000X-0.425000X0.150000X-0.425000X-0.150000X0.425000X-0.150000X0.425000X0.150000X0*%
%ADD36RoundRect,0.075000X-0.500000X0.075000X-0.500000X-0.075000X0.500000X-0.075000X0.500000X0.075000X0*%
%ADD37O,2.100000X1.000000*%
%ADD38O,1.800000X1.000000*%
%ADD39RoundRect,0.150000X0.587500X0.150000X-0.587500X0.150000X-0.587500X-0.150000X0.587500X-0.150000X0*%
G04 APERTURE END LIST*
D10*
%TO.C,C4*%
X77100000Y-95400000D03*
X77100000Y-91800000D03*
%TD*%
D11*
%TO.C,C10*%
X96600000Y-84862500D03*
X96600000Y-86937500D03*
%TD*%
D12*
%TO.C,Q4*%
X88062500Y-105850000D03*
X88062500Y-107750000D03*
X89937500Y-106800000D03*
%TD*%
D13*
%TO.C,U6*%
X56500000Y-110200000D03*
X58000000Y-110200000D03*
X56500000Y-109060000D03*
X58000000Y-109060000D03*
D14*
X55345000Y-112105000D03*
X56615000Y-112105000D03*
X57885000Y-112105000D03*
X59155000Y-112105000D03*
X59155000Y-107155000D03*
X57885000Y-107155000D03*
X56615000Y-107155000D03*
X55345000Y-107155000D03*
%TD*%
D15*
%TO.C,R24*%
X84500000Y-107712500D03*
X84500000Y-105887500D03*
%TD*%
D16*
%TO.C,Q8*%
X71300000Y-102500000D03*
X73200000Y-102500000D03*
X72250000Y-100625000D03*
%TD*%
D17*
%TO.C,R29*%
X61987500Y-109100000D03*
X63812500Y-109100000D03*
%TD*%
D18*
%TO.C,D3*%
X121377500Y-100875000D03*
X121377500Y-99125000D03*
%TD*%
D19*
%TO.C,U4*%
X101375000Y-85700000D03*
X101375000Y-85200000D03*
X101375000Y-84700000D03*
X98625000Y-84700000D03*
X98625000Y-85200000D03*
X98625000Y-85700000D03*
%TD*%
D17*
%TO.C,R4*%
X107587500Y-101600000D03*
X109412500Y-101600000D03*
%TD*%
D20*
%TO.C,R32*%
X72562500Y-91900000D03*
X70837500Y-91900000D03*
%TD*%
D21*
%TO.C,D2*%
X88650000Y-100200000D03*
X86350000Y-100200000D03*
%TD*%
D10*
%TO.C,C17*%
X65400000Y-95500000D03*
X65400000Y-91900000D03*
%TD*%
D22*
%TO.C,C11*%
X91600000Y-103537500D03*
X91600000Y-101462500D03*
%TD*%
D23*
%TO.C,R10*%
X113200000Y-96137500D03*
X113200000Y-97862500D03*
%TD*%
D24*
%TO.C,C13*%
X73037500Y-96300000D03*
X70962500Y-96300000D03*
%TD*%
D12*
%TO.C,Q1*%
X97725000Y-95750000D03*
X97725000Y-97650000D03*
X99600000Y-96700000D03*
%TD*%
D23*
%TO.C,R23*%
X96400000Y-113437500D03*
X96400000Y-115162500D03*
%TD*%
D25*
%TO.C,R20*%
X103600000Y-86562500D03*
X103600000Y-84837500D03*
%TD*%
%TO.C,R33*%
X76000000Y-108662500D03*
X76000000Y-106937500D03*
%TD*%
D26*
%TO.C,D4*%
X109375000Y-105300000D03*
X107625000Y-105300000D03*
%TD*%
D27*
%TO.C,BOOT*%
X117650000Y-92800000D03*
X122350000Y-92800000D03*
X117650000Y-95200000D03*
X122350000Y-95200000D03*
%TD*%
D10*
%TO.C,C15*%
X57300000Y-90300000D03*
X57300000Y-86700000D03*
%TD*%
D15*
%TO.C,R28*%
X86000000Y-97612500D03*
X86000000Y-95787500D03*
%TD*%
D11*
%TO.C,C5*%
X82200000Y-92162500D03*
X82200000Y-94237500D03*
%TD*%
D17*
%TO.C,R27*%
X50687500Y-108800000D03*
X52512500Y-108800000D03*
%TD*%
D12*
%TO.C,Q5*%
X89525000Y-95750000D03*
X89525000Y-97650000D03*
X91400000Y-96700000D03*
%TD*%
D22*
%TO.C,C2*%
X114300000Y-107037500D03*
X114300000Y-104962500D03*
%TD*%
D28*
%TO.C,D5*%
X108925000Y-93100000D03*
X110675000Y-93100000D03*
%TD*%
D17*
%TO.C,R26*%
X50687500Y-92800000D03*
X52512500Y-92800000D03*
%TD*%
D29*
%TO.C,R3*%
X102800000Y-95787500D03*
X102800000Y-97612500D03*
%TD*%
D28*
%TO.C,D7*%
X50725000Y-106600000D03*
X52475000Y-106600000D03*
%TD*%
D16*
%TO.C,Q9*%
X71300000Y-108400000D03*
X73200000Y-108400000D03*
X72250000Y-106525000D03*
%TD*%
D29*
%TO.C,R25*%
X78900000Y-101287500D03*
X78900000Y-103112500D03*
%TD*%
D30*
%TO.C,C14*%
X59637500Y-95400000D03*
X61362500Y-95400000D03*
%TD*%
D21*
%TO.C,D1*%
X88650000Y-103000000D03*
X86350000Y-103000000D03*
%TD*%
D27*
%TO.C,RST*%
X117650000Y-104800000D03*
X122350000Y-104800000D03*
X117650000Y-107200000D03*
X122350000Y-107200000D03*
%TD*%
D21*
%TO.C,D11*%
X66050000Y-110300000D03*
X68350000Y-110300000D03*
%TD*%
D29*
%TO.C,R31*%
X64800000Y-100287500D03*
X64800000Y-102112500D03*
%TD*%
D31*
%TO.C,R15*%
X109412500Y-109300000D03*
X107587500Y-109300000D03*
%TD*%
D32*
%TO.C,U2*%
X149775000Y-91375000D03*
X148275000Y-91375000D03*
X146775000Y-91375000D03*
X145275000Y-91375000D03*
X143775000Y-91375000D03*
X142275000Y-91375000D03*
X140775000Y-91375000D03*
X139275000Y-91375000D03*
X137775000Y-91375000D03*
X136275000Y-91375000D03*
X134775000Y-91375000D03*
X133275000Y-91375000D03*
X131775000Y-91375000D03*
X130275000Y-91375000D03*
X128775000Y-91375000D03*
X127275000Y-91375000D03*
D33*
X126525000Y-93250000D03*
X126525000Y-94750000D03*
X126525000Y-96250000D03*
X126525000Y-97750000D03*
X126525000Y-99250000D03*
X126525000Y-100750000D03*
X126525000Y-102250000D03*
X126525000Y-103750000D03*
X126525000Y-105250000D03*
X126525000Y-106750000D03*
D32*
X127175000Y-108625000D03*
X128675000Y-108625000D03*
X130175000Y-108625000D03*
X131675000Y-108625000D03*
X133175000Y-108625000D03*
X134675000Y-108625000D03*
X136175000Y-108625000D03*
X137675000Y-108625000D03*
X139175000Y-108625000D03*
X140675000Y-108625000D03*
X142175000Y-108625000D03*
X143675000Y-108625000D03*
X145175000Y-108625000D03*
X146775000Y-108625000D03*
X148275000Y-108625000D03*
X149675000Y-108625000D03*
D34*
X141735000Y-98810000D03*
%TD*%
D35*
%TO.C,J1*%
X56855000Y-96780000D03*
X56855000Y-97580000D03*
D36*
X56855000Y-98730000D03*
X56855000Y-99730000D03*
X56855000Y-100230000D03*
X56855000Y-101230000D03*
D35*
X56855000Y-102380000D03*
X56855000Y-103180000D03*
X56855000Y-103180000D03*
X56855000Y-102380000D03*
D36*
X56855000Y-101730000D03*
X56855000Y-100730000D03*
X56855000Y-99230000D03*
X56855000Y-98230000D03*
D35*
X56855000Y-97580000D03*
X56855000Y-96780000D03*
D37*
X56280000Y-95660000D03*
D38*
X52100000Y-95660000D03*
D37*
X56280000Y-104300000D03*
D38*
X52100000Y-104300000D03*
%TD*%
D11*
%TO.C,C9*%
X103400000Y-112062500D03*
X103400000Y-114137500D03*
%TD*%
D39*
%TO.C,Q3*%
X80700000Y-108650000D03*
X80700000Y-106750000D03*
X78825000Y-107700000D03*
%TD*%
%TO.C,U1*%
X109900000Y-98075000D03*
X109900000Y-96175000D03*
X108025000Y-97125000D03*
%TD*%
D19*
%TO.C,U3*%
X98625000Y-114300000D03*
X98625000Y-114800000D03*
X98625000Y-115300000D03*
X101375000Y-115300000D03*
X101375000Y-114800000D03*
X101375000Y-114300000D03*
%TD*%
D15*
%TO.C,R6*%
X94400000Y-97612500D03*
X94400000Y-95787500D03*
%TD*%
D31*
%TO.C,R35*%
X63812500Y-105300000D03*
X61987500Y-105300000D03*
%TD*%
D28*
%TO.C,D6*%
X50725000Y-90800000D03*
X52475000Y-90800000D03*
%TD*%
M02*
