%TF.GenerationSoftware,KiCad,Pcbnew,8.0.0*%
%TF.CreationDate,2024-12-15T19:06:57+00:00*%
%TF.ProjectId,main-board,6d61696e-2d62-46f6-9172-642e6b696361,rev?*%
%TF.SameCoordinates,Original*%
%TF.FileFunction,Soldermask,Bot*%
%TF.FilePolarity,Negative*%
%FSLAX46Y46*%
G04 Gerber Fmt 4.6, Leading zero omitted, Abs format (unit mm)*
G04 Created by KiCad (PCBNEW 8.0.0) date 2024-12-15 19:06:57*
%MOMM*%
%LPD*%
G01*
G04 APERTURE LIST*
G04 Aperture macros list*
%AMRoundRect*
0 Rectangle with rounded corners*
0 $1 Rounding radius*
0 $2 $3 $4 $5 $6 $7 $8 $9 X,Y pos of 4 corners*
0 Add a 4 corners polygon primitive as box body*
4,1,4,$2,$3,$4,$5,$6,$7,$8,$9,$2,$3,0*
0 Add four circle primitives for the rounded corners*
1,1,$1+$1,$2,$3*
1,1,$1+$1,$4,$5*
1,1,$1+$1,$6,$7*
1,1,$1+$1,$8,$9*
0 Add four rect primitives between the rounded corners*
20,1,$1+$1,$2,$3,$4,$5,0*
20,1,$1+$1,$4,$5,$6,$7,0*
20,1,$1+$1,$6,$7,$8,$9,0*
20,1,$1+$1,$8,$9,$2,$3,0*%
%AMFreePoly0*
4,1,19,0.550000,-0.750000,0.000000,-0.750000,0.000000,-0.744911,-0.071157,-0.744911,-0.207708,-0.704816,-0.327430,-0.627875,-0.420627,-0.520320,-0.479746,-0.390866,-0.500000,-0.250000,-0.500000,0.250000,-0.479746,0.390866,-0.420627,0.520320,-0.327430,0.627875,-0.207708,0.704816,-0.071157,0.744911,0.000000,0.744911,0.000000,0.750000,0.550000,0.750000,0.550000,-0.750000,0.550000,-0.750000,
$1*%
%AMFreePoly1*
4,1,19,0.000000,0.744911,0.071157,0.744911,0.207708,0.704816,0.327430,0.627875,0.420627,0.520320,0.479746,0.390866,0.500000,0.250000,0.500000,-0.250000,0.479746,-0.390866,0.420627,-0.520320,0.327430,-0.627875,0.207708,-0.704816,0.071157,-0.744911,0.000000,-0.744911,0.000000,-0.750000,-0.550000,-0.750000,-0.550000,0.750000,0.000000,0.750000,0.000000,0.744911,0.000000,0.744911,
$1*%
G04 Aperture macros list end*
%ADD10R,1.000000X1.000000*%
%ADD11O,1.000000X1.000000*%
%ADD12C,2.000000*%
%ADD13C,0.650000*%
%ADD14O,2.100000X1.000000*%
%ADD15O,1.800000X1.000000*%
%ADD16RoundRect,0.250000X-0.475000X0.337500X-0.475000X-0.337500X0.475000X-0.337500X0.475000X0.337500X0*%
%ADD17C,1.500000*%
%ADD18RoundRect,0.237500X-0.250000X-0.237500X0.250000X-0.237500X0.250000X0.237500X-0.250000X0.237500X0*%
%ADD19RoundRect,0.150000X-0.150000X0.512500X-0.150000X-0.512500X0.150000X-0.512500X0.150000X0.512500X0*%
%ADD20RoundRect,0.250000X0.475000X-0.337500X0.475000X0.337500X-0.475000X0.337500X-0.475000X-0.337500X0*%
%ADD21FreePoly0,90.000000*%
%ADD22R,1.500000X1.000000*%
%ADD23FreePoly1,90.000000*%
%ADD24FreePoly0,180.000000*%
%ADD25R,1.000000X1.500000*%
%ADD26FreePoly1,180.000000*%
%ADD27RoundRect,0.237500X-0.237500X0.250000X-0.237500X-0.250000X0.237500X-0.250000X0.237500X0.250000X0*%
%ADD28RoundRect,0.250000X0.337500X0.475000X-0.337500X0.475000X-0.337500X-0.475000X0.337500X-0.475000X0*%
%ADD29RoundRect,0.162500X0.617500X0.162500X-0.617500X0.162500X-0.617500X-0.162500X0.617500X-0.162500X0*%
%ADD30RoundRect,0.102000X0.315000X0.415000X-0.315000X0.415000X-0.315000X-0.415000X0.315000X-0.415000X0*%
%ADD31RoundRect,0.150000X0.150000X-0.587500X0.150000X0.587500X-0.150000X0.587500X-0.150000X-0.587500X0*%
%ADD32RoundRect,0.237500X-0.300000X-0.237500X0.300000X-0.237500X0.300000X0.237500X-0.300000X0.237500X0*%
%ADD33RoundRect,0.237500X0.250000X0.237500X-0.250000X0.237500X-0.250000X-0.237500X0.250000X-0.237500X0*%
%ADD34RoundRect,0.250000X-0.337500X-0.475000X0.337500X-0.475000X0.337500X0.475000X-0.337500X0.475000X0*%
%ADD35RoundRect,0.237500X0.237500X-0.250000X0.237500X0.250000X-0.237500X0.250000X-0.237500X-0.250000X0*%
%ADD36RoundRect,0.237500X0.300000X0.237500X-0.300000X0.237500X-0.300000X-0.237500X0.300000X-0.237500X0*%
%ADD37RoundRect,0.250000X0.750000X-0.600000X0.750000X0.600000X-0.750000X0.600000X-0.750000X-0.600000X0*%
%ADD38O,2.000000X1.700000*%
%ADD39RoundRect,0.150000X-0.587500X-0.150000X0.587500X-0.150000X0.587500X0.150000X-0.587500X0.150000X0*%
%ADD40RoundRect,0.237500X0.237500X-0.300000X0.237500X0.300000X-0.237500X0.300000X-0.237500X-0.300000X0*%
%ADD41RoundRect,0.102000X-0.315000X-0.415000X0.315000X-0.415000X0.315000X0.415000X-0.315000X0.415000X0*%
G04 APERTURE END LIST*
D10*
%TO.C,SW_C1*%
X76650000Y-113400000D03*
D11*
X77920000Y-113400000D03*
X79190000Y-113400000D03*
%TD*%
D12*
%TO.C,H3*%
X100000000Y-89700000D03*
%TD*%
%TO.C,H8*%
X117000000Y-100000000D03*
%TD*%
%TO.C,H1*%
X52000000Y-87000000D03*
%TD*%
%TO.C,H5*%
X148000000Y-87000000D03*
%TD*%
D10*
%TO.C,PWR1*%
X61400000Y-113400000D03*
D11*
X62670000Y-113400000D03*
X63940000Y-113400000D03*
X65210000Y-113400000D03*
%TD*%
D10*
%TO.C,DD1*%
X83005000Y-113400000D03*
D11*
X84275000Y-113400000D03*
X85545000Y-113400000D03*
X86815000Y-113400000D03*
X88085000Y-113400000D03*
X89355000Y-113400000D03*
X90625000Y-113400000D03*
X91895000Y-113400000D03*
X93165000Y-113400000D03*
X94435000Y-113400000D03*
%TD*%
D12*
%TO.C,H6*%
X148000000Y-113000000D03*
%TD*%
D10*
%TO.C,CA3*%
X69025000Y-86600000D03*
D11*
X70295000Y-86600000D03*
X71565000Y-86600000D03*
X72835000Y-86600000D03*
%TD*%
D10*
%TO.C,SW_C2*%
X123350000Y-113400000D03*
D11*
X122080000Y-113400000D03*
X120810000Y-113400000D03*
%TD*%
D10*
%TO.C,CA1*%
X69025000Y-113400000D03*
D11*
X70295000Y-113400000D03*
X71565000Y-113400000D03*
X72835000Y-113400000D03*
%TD*%
D12*
%TO.C,H4*%
X100000000Y-110300000D03*
%TD*%
D10*
%TO.C,DD4*%
X116995000Y-86600000D03*
D11*
X115725000Y-86600000D03*
X114455000Y-86600000D03*
X113185000Y-86600000D03*
X111915000Y-86600000D03*
X110645000Y-86600000D03*
X109375000Y-86600000D03*
X108105000Y-86600000D03*
X106835000Y-86600000D03*
X105565000Y-86600000D03*
%TD*%
D10*
%TO.C,DD2*%
X116995000Y-113400000D03*
D11*
X115725000Y-113400000D03*
X114455000Y-113400000D03*
X113185000Y-113400000D03*
X111915000Y-113400000D03*
X110645000Y-113400000D03*
X109375000Y-113400000D03*
X108105000Y-113400000D03*
X106835000Y-113400000D03*
X105565000Y-113400000D03*
%TD*%
D10*
%TO.C,SW_C4*%
X123350000Y-86600000D03*
D11*
X122080000Y-86600000D03*
X120810000Y-86600000D03*
%TD*%
D10*
%TO.C,PWR2*%
X138600000Y-113400000D03*
D11*
X137330000Y-113400000D03*
X136060000Y-113400000D03*
X134790000Y-113400000D03*
%TD*%
D12*
%TO.C,H7*%
X83000000Y-100000000D03*
%TD*%
D10*
%TO.C,CA4*%
X130975000Y-86600000D03*
D11*
X129705000Y-86600000D03*
X128435000Y-86600000D03*
X127165000Y-86600000D03*
%TD*%
D12*
%TO.C,H2*%
X52000000Y-113000000D03*
%TD*%
D10*
%TO.C,SW_C3*%
X76650000Y-86600000D03*
D11*
X77920000Y-86600000D03*
X79190000Y-86600000D03*
%TD*%
D10*
%TO.C,PWR4*%
X138600000Y-86600000D03*
D11*
X137330000Y-86600000D03*
X136060000Y-86600000D03*
X134790000Y-86600000D03*
%TD*%
D10*
%TO.C,PWR3*%
X61400000Y-86600000D03*
D11*
X62670000Y-86600000D03*
X63940000Y-86600000D03*
X65210000Y-86600000D03*
%TD*%
D13*
%TO.C,J1*%
X55780000Y-97090000D03*
X55780000Y-102870000D03*
D14*
X56280000Y-95660000D03*
D15*
X52100000Y-95660000D03*
D14*
X56280000Y-104300000D03*
D15*
X52100000Y-104300000D03*
%TD*%
D10*
%TO.C,DD3*%
X83005000Y-86600000D03*
D11*
X84275000Y-86600000D03*
X85545000Y-86600000D03*
X86815000Y-86600000D03*
X88085000Y-86600000D03*
X89355000Y-86600000D03*
X90625000Y-86600000D03*
X91895000Y-86600000D03*
X93165000Y-86600000D03*
X94435000Y-86600000D03*
%TD*%
D10*
%TO.C,CA2*%
X130975000Y-113400000D03*
D11*
X129705000Y-113400000D03*
X128435000Y-113400000D03*
X127165000Y-113400000D03*
%TD*%
D16*
%TO.C,C16*%
X67800000Y-97362500D03*
X67800000Y-99437500D03*
%TD*%
D17*
%TO.C,GND*%
X130100000Y-106300000D03*
%TD*%
D18*
%TO.C,R9*%
X122687500Y-96400000D03*
X124512500Y-96400000D03*
%TD*%
D19*
%TO.C,U5*%
X66437500Y-92375000D03*
X67387500Y-92375000D03*
X68337500Y-92375000D03*
X68337500Y-94650000D03*
X66437500Y-94650000D03*
%TD*%
D20*
%TO.C,C1*%
X148300000Y-101337500D03*
X148300000Y-99262500D03*
%TD*%
D21*
%TO.C,SW_2*%
X76600000Y-101900000D03*
D22*
X76600000Y-100600000D03*
D23*
X76600000Y-99300000D03*
%TD*%
D24*
%TO.C,ALT_A1*%
X85600000Y-108000000D03*
D25*
X84300000Y-108000000D03*
D26*
X83000000Y-108000000D03*
%TD*%
D27*
%TO.C,R12*%
X103700000Y-92987500D03*
X103700000Y-94812500D03*
%TD*%
D28*
%TO.C,C3*%
X140737500Y-94900000D03*
X138662500Y-94900000D03*
%TD*%
D29*
%TO.C,U7*%
X62800000Y-105825000D03*
X62800000Y-106775000D03*
X62800000Y-107725000D03*
X60100000Y-107725000D03*
X60100000Y-106775000D03*
X60100000Y-105825000D03*
%TD*%
D30*
%TO.C,D9*%
X71650000Y-94700000D03*
X73950000Y-94700000D03*
%TD*%
D31*
%TO.C,Q7*%
X73700000Y-99400000D03*
X71800000Y-99400000D03*
X72750000Y-97525000D03*
%TD*%
D17*
%TO.C,12*%
X130100000Y-100500000D03*
%TD*%
D30*
%TO.C,D8*%
X71650000Y-92200000D03*
X73950000Y-92200000D03*
%TD*%
D32*
%TO.C,R19*%
X142175000Y-114000000D03*
X143900000Y-114000000D03*
%TD*%
D33*
%TO.C,R7*%
X54412500Y-100000000D03*
X52587500Y-100000000D03*
%TD*%
D26*
%TO.C,AB_2*%
X91900000Y-94000000D03*
D25*
X93200000Y-94000000D03*
D24*
X94500000Y-94000000D03*
%TD*%
D33*
%TO.C,R17*%
X124512500Y-101800000D03*
X122687500Y-101800000D03*
%TD*%
D27*
%TO.C,R2*%
X148312500Y-94087500D03*
X148312500Y-95912500D03*
%TD*%
D34*
%TO.C,C12*%
X99262500Y-85100000D03*
X101337500Y-85100000D03*
%TD*%
D35*
%TO.C,R34*%
X67800000Y-107812500D03*
X67800000Y-105987500D03*
%TD*%
D36*
%TO.C,R22*%
X124462500Y-104500000D03*
X122737500Y-104500000D03*
%TD*%
D33*
%TO.C,R11*%
X124512500Y-93700000D03*
X122687500Y-93700000D03*
%TD*%
D37*
%TO.C,BAT1*%
X61350000Y-101250000D03*
D38*
X61350000Y-98750000D03*
%TD*%
D33*
%TO.C,R1*%
X52512500Y-97700000D03*
X50687500Y-97700000D03*
%TD*%
D35*
%TO.C,R5*%
X148312500Y-105912500D03*
X148312500Y-104087500D03*
%TD*%
D39*
%TO.C,Q2*%
X106825000Y-94850000D03*
X106825000Y-92950000D03*
X108700000Y-93900000D03*
%TD*%
D40*
%TO.C,R14*%
X115900000Y-94762500D03*
X115900000Y-93037500D03*
%TD*%
D41*
%TO.C,D10*%
X57650000Y-93600000D03*
X55350000Y-93600000D03*
%TD*%
D24*
%TO.C,AB_1*%
X94500000Y-100000000D03*
D25*
X93200000Y-100000000D03*
D26*
X91900000Y-100000000D03*
%TD*%
D18*
%TO.C,R8*%
X50687500Y-102400000D03*
X52512500Y-102400000D03*
%TD*%
D24*
%TO.C,AB_3*%
X94500000Y-106000000D03*
D25*
X93200000Y-106000000D03*
D26*
X91900000Y-106000000D03*
%TD*%
D36*
%TO.C,R21*%
X124462500Y-107200000D03*
X122737500Y-107200000D03*
%TD*%
D32*
%TO.C,R13*%
X111637500Y-93000000D03*
X113362500Y-93000000D03*
%TD*%
D21*
%TO.C,SW_1*%
X76600000Y-95500000D03*
D22*
X76600000Y-94200000D03*
D23*
X76600000Y-92900000D03*
%TD*%
D17*
%TO.C,46*%
X144600000Y-106300000D03*
%TD*%
%TO.C,GND*%
X87800000Y-104000000D03*
%TD*%
D39*
%TO.C,Q6*%
X60925000Y-94450000D03*
X60925000Y-92550000D03*
X62800000Y-93500000D03*
%TD*%
D33*
%TO.C,R30*%
X59012500Y-86100000D03*
X57187500Y-86100000D03*
%TD*%
D17*
%TO.C,GND*%
X135500000Y-100500000D03*
%TD*%
%TO.C,GND*%
X111800000Y-107100000D03*
%TD*%
D24*
%TO.C,ALT_B1*%
X85600000Y-92000000D03*
D25*
X84300000Y-92000000D03*
D26*
X83000000Y-92000000D03*
%TD*%
D17*
%TO.C,13*%
X130100000Y-103400000D03*
%TD*%
D33*
%TO.C,R18*%
X124512500Y-99100000D03*
X122687500Y-99100000D03*
%TD*%
%TO.C,R16*%
X113412500Y-96900000D03*
X111587500Y-96900000D03*
%TD*%
D16*
%TO.C,C7*%
X116400000Y-104962500D03*
X116400000Y-107037500D03*
%TD*%
D40*
%TO.C,C18*%
X67800000Y-103662500D03*
X67800000Y-101937500D03*
%TD*%
D16*
%TO.C,C6*%
X118900000Y-93100000D03*
X118900000Y-95175000D03*
%TD*%
D20*
%TO.C,C8*%
X111800000Y-101937500D03*
X111800000Y-99862500D03*
%TD*%
D17*
%TO.C,11*%
X130100000Y-97600000D03*
%TD*%
M02*
