%TF.GenerationSoftware,KiCad,Pcbnew,8.0.0*%
%TF.CreationDate,2024-12-15T19:06:57+00:00*%
%TF.ProjectId,main-board,6d61696e-2d62-46f6-9172-642e6b696361,rev?*%
%TF.SameCoordinates,Original*%
%TF.FileFunction,Copper,L3,Inr*%
%TF.FilePolarity,Positive*%
%FSLAX46Y46*%
G04 Gerber Fmt 4.6, Leading zero omitted, Abs format (unit mm)*
G04 Created by KiCad (PCBNEW 8.0.0) date 2024-12-15 19:06:57*
%MOMM*%
%LPD*%
G01*
G04 APERTURE LIST*
G04 Aperture macros list*
%AMRoundRect*
0 Rectangle with rounded corners*
0 $1 Rounding radius*
0 $2 $3 $4 $5 $6 $7 $8 $9 X,Y pos of 4 corners*
0 Add a 4 corners polygon primitive as box body*
4,1,4,$2,$3,$4,$5,$6,$7,$8,$9,$2,$3,0*
0 Add four circle primitives for the rounded corners*
1,1,$1+$1,$2,$3*
1,1,$1+$1,$4,$5*
1,1,$1+$1,$6,$7*
1,1,$1+$1,$8,$9*
0 Add four rect primitives between the rounded corners*
20,1,$1+$1,$2,$3,$4,$5,0*
20,1,$1+$1,$4,$5,$6,$7,0*
20,1,$1+$1,$6,$7,$8,$9,0*
20,1,$1+$1,$8,$9,$2,$3,0*%
G04 Aperture macros list end*
%TA.AperFunction,ComponentPad*%
%ADD10R,1.000000X1.000000*%
%TD*%
%TA.AperFunction,ComponentPad*%
%ADD11O,1.000000X1.000000*%
%TD*%
%TA.AperFunction,ComponentPad*%
%ADD12O,2.100000X1.000000*%
%TD*%
%TA.AperFunction,ComponentPad*%
%ADD13O,1.800000X1.000000*%
%TD*%
%TA.AperFunction,ComponentPad*%
%ADD14RoundRect,0.250000X0.750000X-0.600000X0.750000X0.600000X-0.750000X0.600000X-0.750000X-0.600000X0*%
%TD*%
%TA.AperFunction,ComponentPad*%
%ADD15O,2.000000X1.700000*%
%TD*%
%TA.AperFunction,ViaPad*%
%ADD16C,0.600000*%
%TD*%
%TA.AperFunction,Conductor*%
%ADD17C,0.300000*%
%TD*%
%TA.AperFunction,Conductor*%
%ADD18C,0.700000*%
%TD*%
%TA.AperFunction,Conductor*%
%ADD19C,0.800000*%
%TD*%
%TA.AperFunction,Conductor*%
%ADD20C,0.400000*%
%TD*%
%TA.AperFunction,Conductor*%
%ADD21C,0.200000*%
%TD*%
G04 APERTURE END LIST*
D10*
%TO.N,/SW1_A*%
%TO.C,SW_C1*%
X76650000Y-113400000D03*
D11*
%TO.N,/SW2_A*%
X77920000Y-113400000D03*
%TO.N,GND*%
X79190000Y-113400000D03*
%TD*%
D10*
%TO.N,/VCC_CTRL*%
%TO.C,PWR1*%
X61400000Y-113400000D03*
D11*
%TO.N,LDO_CTRL*%
X62670000Y-113400000D03*
%TO.N,/BUZZER_A*%
X63940000Y-113400000D03*
%TO.N,GND*%
X65210000Y-113400000D03*
%TD*%
D10*
%TO.N,/VPRG*%
%TO.C,DD1*%
X83005000Y-113400000D03*
D11*
%TO.N,/ALT_A*%
X84275000Y-113400000D03*
%TO.N,/GSCLK*%
X85545000Y-113400000D03*
%TO.N,/BLANK*%
X86815000Y-113400000D03*
%TO.N,/XLAT*%
X88085000Y-113400000D03*
%TO.N,/XERR_A*%
X89355000Y-113400000D03*
%TO.N,/SCLK*%
X90625000Y-113400000D03*
%TO.N,/SIN_A*%
X91895000Y-113400000D03*
%TO.N,/SOUT_A*%
X93165000Y-113400000D03*
%TO.N,GND*%
X94435000Y-113400000D03*
%TD*%
D10*
%TO.N,/MC_DD_1_B*%
%TO.C,CA3*%
X69025000Y-86600000D03*
D11*
%TO.N,/MC_DD_2_B*%
X70295000Y-86600000D03*
%TO.N,/MC_SD_B*%
X71565000Y-86600000D03*
%TO.N,GND*%
X72835000Y-86600000D03*
%TD*%
D10*
%TO.N,/SW1_A*%
%TO.C,SW_C2*%
X123350000Y-113400000D03*
D11*
%TO.N,/SW2_A*%
X122080000Y-113400000D03*
%TO.N,GND*%
X120810000Y-113400000D03*
%TD*%
D10*
%TO.N,/MC_DD_1_A*%
%TO.C,CA1*%
X69025000Y-113400000D03*
D11*
%TO.N,/MC_DD_2_A*%
X70295000Y-113400000D03*
%TO.N,/MC_SD_A*%
X71565000Y-113400000D03*
%TO.N,GND*%
X72835000Y-113400000D03*
%TD*%
D10*
%TO.N,/VPRG*%
%TO.C,DD4*%
X116995000Y-86600000D03*
D11*
%TO.N,/ALT_B*%
X115725000Y-86600000D03*
%TO.N,/GSCLK*%
X114455000Y-86600000D03*
%TO.N,/BLANK*%
X113185000Y-86600000D03*
%TO.N,/XLAT*%
X111915000Y-86600000D03*
%TO.N,/XERR_B*%
X110645000Y-86600000D03*
%TO.N,/SCLK*%
X109375000Y-86600000D03*
%TO.N,/SIN_B*%
X108105000Y-86600000D03*
%TO.N,/SOUT_B*%
X106835000Y-86600000D03*
%TO.N,GND*%
X105565000Y-86600000D03*
%TD*%
D10*
%TO.N,/VPRG*%
%TO.C,DD2*%
X116995000Y-113400000D03*
D11*
%TO.N,/ALT_A*%
X115725000Y-113400000D03*
%TO.N,/GSCLK*%
X114455000Y-113400000D03*
%TO.N,/BLANK*%
X113185000Y-113400000D03*
%TO.N,/XLAT*%
X111915000Y-113400000D03*
%TO.N,/XERR_A*%
X110645000Y-113400000D03*
%TO.N,/SCLK*%
X109375000Y-113400000D03*
%TO.N,/SIN_A*%
X108105000Y-113400000D03*
%TO.N,/SOUT_A*%
X106835000Y-113400000D03*
%TO.N,GND*%
X105565000Y-113400000D03*
%TD*%
D10*
%TO.N,/SW1_B*%
%TO.C,SW_C4*%
X123350000Y-86600000D03*
D11*
%TO.N,/SW2_B*%
X122080000Y-86600000D03*
%TO.N,GND*%
X120810000Y-86600000D03*
%TD*%
D10*
%TO.N,/VCC_CTRL*%
%TO.C,PWR2*%
X138600000Y-113400000D03*
D11*
%TO.N,LDO_CTRL*%
X137330000Y-113400000D03*
%TO.N,/BUZZER_A*%
X136060000Y-113400000D03*
%TO.N,GND*%
X134790000Y-113400000D03*
%TD*%
D10*
%TO.N,/MC_DD_1_B*%
%TO.C,CA4*%
X130975000Y-86600000D03*
D11*
%TO.N,/MC_DD_2_B*%
X129705000Y-86600000D03*
%TO.N,/MC_SD_B*%
X128435000Y-86600000D03*
%TO.N,GND*%
X127165000Y-86600000D03*
%TD*%
D10*
%TO.N,/SW1_B*%
%TO.C,SW_C3*%
X76650000Y-86600000D03*
D11*
%TO.N,/SW2_B*%
X77920000Y-86600000D03*
%TO.N,GND*%
X79190000Y-86600000D03*
%TD*%
D10*
%TO.N,/VCC_CTRL*%
%TO.C,PWR4*%
X138600000Y-86600000D03*
D11*
%TO.N,LDO_CTRL*%
X137330000Y-86600000D03*
%TO.N,/BUZZER_B*%
X136060000Y-86600000D03*
%TO.N,GND*%
X134790000Y-86600000D03*
%TD*%
D10*
%TO.N,/VCC_CTRL*%
%TO.C,PWR3*%
X61400000Y-86600000D03*
D11*
%TO.N,LDO_CTRL*%
X62670000Y-86600000D03*
%TO.N,/BUZZER_B*%
X63940000Y-86600000D03*
%TO.N,GND*%
X65210000Y-86600000D03*
%TD*%
D12*
%TO.N,Net-(J1-SHIELD)*%
%TO.C,J1*%
X56280000Y-95660000D03*
D13*
X52100000Y-95660000D03*
D12*
X56280000Y-104300000D03*
D13*
X52100000Y-104300000D03*
%TD*%
D10*
%TO.N,/VPRG*%
%TO.C,DD3*%
X83005000Y-86600000D03*
D11*
%TO.N,/ALT_B*%
X84275000Y-86600000D03*
%TO.N,/GSCLK*%
X85545000Y-86600000D03*
%TO.N,/BLANK*%
X86815000Y-86600000D03*
%TO.N,/XLAT*%
X88085000Y-86600000D03*
%TO.N,/XERR_B*%
X89355000Y-86600000D03*
%TO.N,/SCLK*%
X90625000Y-86600000D03*
%TO.N,/SIN_B*%
X91895000Y-86600000D03*
%TO.N,/SOUT_B*%
X93165000Y-86600000D03*
%TO.N,GND*%
X94435000Y-86600000D03*
%TD*%
D10*
%TO.N,/MC_DD_1_A*%
%TO.C,CA2*%
X130975000Y-113400000D03*
D11*
%TO.N,/MC_DD_2_A*%
X129705000Y-113400000D03*
%TO.N,/MC_SD_A*%
X128435000Y-113400000D03*
%TO.N,GND*%
X127165000Y-113400000D03*
%TD*%
D14*
%TO.N,-BATT*%
%TO.C,BAT1*%
X61350000Y-101250000D03*
D15*
%TO.N,+BATT*%
X61350000Y-98750000D03*
%TD*%
D16*
%TO.N,GND*%
X120600000Y-92850000D03*
X65400000Y-91475000D03*
%TO.N,+BATT*%
X94400000Y-97612500D03*
X65400000Y-95500000D03*
%TO.N,/BUZZER_A*%
X133100000Y-115400000D03*
%TO.N,/VCC_CTRL*%
X118700000Y-111000000D03*
%TO.N,Net-(D4-K)*%
X107587500Y-109200000D03*
X109375000Y-105300000D03*
%TO.N,/MOSI(SIN)*%
X113785000Y-110100000D03*
X130175000Y-108625000D03*
%TO.N,/CTRL*%
X125300000Y-113300000D03*
%TO.N,/VCC_CTRL_EN*%
X126500000Y-93400000D03*
%TO.N,/GPIO11*%
X130300000Y-90900000D03*
%TO.N,/GPIO12*%
X128800000Y-90900000D03*
%TO.N,/GPIO13*%
X127300000Y-90900000D03*
%TO.N,GND*%
X124512500Y-96400000D03*
%TO.N,/BLANK*%
X116050000Y-96950000D03*
%TO.N,/XLAT*%
X115100000Y-97050000D03*
%TO.N,GND*%
X108025000Y-97125000D03*
%TO.N,/GSCLK*%
X121100000Y-96600000D03*
X126525000Y-99250000D03*
%TO.N,Net-(Q1-G)*%
X97725000Y-95750000D03*
X131000000Y-92700000D03*
%TO.N,/SDA*%
X124350000Y-104500000D03*
%TO.N,/SCL*%
X123500000Y-103100000D03*
%TO.N,Net-(U2-IO05)*%
X96834113Y-103750000D03*
%TO.N,GND*%
X91600000Y-103537500D03*
%TO.N,Net-(U2-IO06)*%
X97100000Y-102900000D03*
%TO.N,/ADC_BAT_V*%
X131300000Y-101600000D03*
X143775000Y-91375000D03*
%TO.N,/LDO_LATCH*%
X145175000Y-108625000D03*
X72250000Y-106525000D03*
%TO.N,/VCC_CTRL_EN*%
X80600000Y-108650000D03*
%TO.N,/1V*%
X136300000Y-88200000D03*
%TO.N,/USB_D-*%
X102600000Y-103909824D03*
%TO.N,/USB_D+*%
X58300000Y-101000003D03*
X102600000Y-102850000D03*
%TO.N,/USB_D-*%
X58300000Y-100200000D03*
%TO.N,/USB_D+*%
X58300000Y-99399997D03*
%TO.N,Net-(U2-IO05)*%
X129600000Y-94300000D03*
%TO.N,Net-(U2-IO06)*%
X129600000Y-93337500D03*
%TO.N,/ADC_BAT_V*%
X113800000Y-101600000D03*
%TO.N,/1V*%
X121500000Y-90500000D03*
%TO.N,/2.5V*%
X113292000Y-95925000D03*
%TO.N,/SIN_A*%
X96600000Y-108950000D03*
%TO.N,/SCLK*%
X90625000Y-90000000D03*
X87400000Y-109850000D03*
%TO.N,/XERR_B*%
X114300000Y-93950000D03*
%TO.N,LDO*%
X98400000Y-100400000D03*
%TO.N,Net-(U2-IO00)*%
X122687500Y-93900000D03*
%TO.N,LDO_CTRL*%
X123785636Y-108251622D03*
%TO.N,VCC*%
X88062500Y-107750000D03*
X82600000Y-103900000D03*
X100000000Y-106700000D03*
%TO.N,LDO*%
X74300000Y-90700000D03*
%TO.N,VCC*%
X62300000Y-92375000D03*
%TO.N,GND*%
X87800000Y-104015000D03*
%TO.N,LDO_CTRL*%
X85200000Y-110750000D03*
%TO.N,/SIN_B*%
X91900000Y-90000000D03*
%TO.N,/MISO(SOUT)*%
X94500000Y-105900000D03*
X91900000Y-94000000D03*
%TO.N,/CTRL*%
X82052330Y-111600000D03*
%TO.N,/SCLK*%
X108500000Y-108300000D03*
X125600000Y-111900000D03*
%TO.N,/ALT_A*%
X84275000Y-112000000D03*
%TO.N,/MISO(SOUT)*%
X128086159Y-112000000D03*
%TO.N,/SDA*%
X128500000Y-105700000D03*
%TO.N,/SCL*%
X127175000Y-108625000D03*
%TO.N,GND*%
X80100000Y-106750000D03*
%TO.N,/SW1*%
X73950000Y-92200000D03*
%TO.N,LDO_CTRL*%
X91150000Y-101462500D03*
%TO.N,/SOUT_A*%
X92200000Y-110000000D03*
%TO.N,/SOUT_B*%
X93165000Y-90000000D03*
%TO.N,GND*%
X114300000Y-107037500D03*
%TO.N,LDO_CTRL*%
X85600000Y-92000000D03*
%TO.N,/SW2*%
X73950000Y-94700000D03*
X76600000Y-100600000D03*
%TO.N,/LDO_EN*%
X68337500Y-92375000D03*
%TO.N,VBUS*%
X59750000Y-95400000D03*
%TO.N,Net-(Q7-D)*%
X70837500Y-91900000D03*
%TO.N,LDO_CTRL*%
X102900000Y-84800000D03*
%TO.N,-BATT*%
X62800000Y-107725000D03*
%TO.N,GND*%
X141700000Y-97500000D03*
X58200000Y-110200000D03*
X143100000Y-97500000D03*
X141735000Y-98810000D03*
X70962500Y-96300000D03*
X143100000Y-98800000D03*
X140400000Y-98800000D03*
X56300000Y-109100000D03*
X143100000Y-100200000D03*
X58200000Y-109100000D03*
X54412500Y-100000000D03*
X141700000Y-100200000D03*
X57200000Y-109100000D03*
X52512500Y-97700000D03*
X56855000Y-103180000D03*
X56855000Y-96780000D03*
X57200000Y-110200000D03*
X140400000Y-100200000D03*
X149675000Y-108625000D03*
X56300000Y-110200000D03*
X149775000Y-91375000D03*
X126525000Y-106750000D03*
X67800000Y-105987500D03*
X140400000Y-97500000D03*
%TO.N,/EN*%
X148312500Y-105912500D03*
%TO.N,Net-(C2-Pad2)*%
X124200000Y-106000000D03*
%TO.N,/ADC_BAT_EN*%
X140775000Y-91375000D03*
%TO.N,LDO*%
X148312500Y-94087500D03*
%TO.N,VBUS*%
X57300000Y-90300000D03*
X66050000Y-110300000D03*
%TO.N,Net-(U7-VCC)*%
X64800000Y-104200000D03*
%TO.N,Net-(D3-K)*%
X121377500Y-100875000D03*
%TO.N,Net-(D5-K)*%
X108925000Y-93100000D03*
%TO.N,Net-(Q7-D)*%
X71300000Y-102500000D03*
%TO.N,Net-(Q7-G)*%
X74600000Y-103000000D03*
%TO.N,/ADC_VREF_EN*%
X142275000Y-91375000D03*
%TO.N,Net-(U2-USB_D+)*%
X126525000Y-102250000D03*
%TO.N,Net-(U2-USB_D-)*%
X126525000Y-100750000D03*
%TO.N,/U0TXD*%
X143900000Y-114000000D03*
%TO.N,Net-(U2-TXD0)*%
X142175000Y-108625000D03*
%TO.N,Net-(U6-~{CHRG})*%
X52512500Y-92800000D03*
X56615000Y-107155000D03*
%TO.N,Net-(U6-~{STDBY})*%
X52512500Y-108800000D03*
X57885000Y-107155000D03*
%TO.N,Net-(U6-PROG)*%
X56615000Y-112105000D03*
X61987500Y-109100000D03*
%TO.N,Net-(U7-CS)*%
X60100000Y-107725000D03*
%TO.N,/GPIO46*%
X146775000Y-108625000D03*
%TO.N,Net-(J1-CC1)*%
X52587500Y-100000000D03*
%TO.N,Net-(J1-CC2)*%
X52512500Y-102400000D03*
%TD*%
D17*
%TO.N,/USB_D-*%
X102590176Y-103900000D02*
X98600000Y-103900000D01*
X58950000Y-99302944D02*
X58950000Y-99669236D01*
X60802944Y-97450000D02*
X58950000Y-99302944D01*
X68844000Y-98084000D02*
G75*
G02*
X68488000Y-98440000I-356000J0D01*
G01*
X69200000Y-97450000D02*
G75*
G03*
X68844000Y-97806000I0J-356000D01*
G01*
X68844000Y-97806000D02*
X68844000Y-98084000D01*
X68310000Y-98440000D02*
G75*
G02*
X67954000Y-98084000I0J356000D01*
G01*
X67954000Y-97806000D02*
G75*
G03*
X67598000Y-97450000I-356000J0D01*
G01*
X102600000Y-103909824D02*
X102590176Y-103900000D01*
X81423655Y-107050000D02*
X71823655Y-97450000D01*
X67954000Y-98084000D02*
X67954000Y-97806000D01*
X66000000Y-97450000D02*
X60802944Y-97450000D01*
X67598000Y-97450000D02*
X67420000Y-97450000D01*
X68488000Y-98440000D02*
X68310000Y-98440000D01*
X98600000Y-103900000D02*
X95450000Y-107050000D01*
X67420000Y-97450000D02*
X66000000Y-97450000D01*
X58950000Y-99669236D02*
X58419236Y-100200000D01*
X71823655Y-97450000D02*
X69200000Y-97450000D01*
X95450000Y-107050000D02*
X81423655Y-107050000D01*
X58419236Y-100200000D02*
X58300000Y-100200000D01*
%TO.N,Net-(U2-IO05)*%
X96834113Y-103750000D02*
X97242893Y-103750000D01*
X97242893Y-103750000D02*
X106392893Y-94600000D01*
X106392893Y-94600000D02*
X120500000Y-94600000D01*
X122400000Y-92700000D02*
X128000000Y-92700000D01*
X120500000Y-94600000D02*
X122400000Y-92700000D01*
X128000000Y-92700000D02*
X129600000Y-94300000D01*
D18*
%TO.N,/1V*%
X121500000Y-90500000D02*
X123800000Y-88200000D01*
X123800000Y-88200000D02*
X136300000Y-88200000D01*
D19*
%TO.N,+BATT*%
X65400000Y-95500000D02*
X66200000Y-94700000D01*
X72500000Y-94700000D02*
X74100000Y-93100000D01*
X66200000Y-94700000D02*
X72500000Y-94700000D01*
X74100000Y-93100000D02*
X92400000Y-93100000D01*
X92400000Y-93100000D02*
X94400000Y-95100000D01*
X94400000Y-95100000D02*
X94400000Y-97612500D01*
D18*
%TO.N,LDO_CTRL*%
X57450000Y-98960051D02*
X58900000Y-97510051D01*
X57450000Y-101450000D02*
X57450000Y-98960051D01*
X59400000Y-103400000D02*
X57450000Y-101450000D01*
X58900000Y-97510051D02*
X58900000Y-92900000D01*
X62670000Y-112692894D02*
X63650000Y-111712894D01*
X63650000Y-111712894D02*
X63650000Y-106038298D01*
X61011702Y-103400000D02*
X59400000Y-103400000D01*
X62670000Y-89130000D02*
X62670000Y-86600000D01*
X58900000Y-92900000D02*
X62670000Y-89130000D01*
X63650000Y-106038298D02*
X61011702Y-103400000D01*
X62670000Y-113400000D02*
X62670000Y-112692894D01*
D20*
%TO.N,/MISO(SOUT)*%
X91900000Y-94000000D02*
X93100000Y-95200000D01*
X93100000Y-95200000D02*
X93100000Y-104500000D01*
X93100000Y-104500000D02*
X94500000Y-105900000D01*
D21*
%TO.N,/CTRL*%
X122800000Y-115800000D02*
X77450000Y-115800000D01*
X125300000Y-113300000D02*
X122800000Y-115800000D01*
X77450000Y-115800000D02*
X75850000Y-114200000D01*
X75850000Y-114200000D02*
X75850000Y-112600000D01*
X75850000Y-112600000D02*
X76850000Y-111600000D01*
X76850000Y-111600000D02*
X82052330Y-111600000D01*
D20*
%TO.N,Net-(D4-K)*%
X109375000Y-105300000D02*
X108850000Y-105300000D01*
X108850000Y-105300000D02*
X107587500Y-106562500D01*
X107587500Y-106562500D02*
X107587500Y-109200000D01*
D21*
%TO.N,/MOSI(SIN)*%
X128685000Y-110115000D02*
X113800000Y-110115000D01*
X113800000Y-110115000D02*
X113785000Y-110100000D01*
X130175000Y-108625000D02*
X128685000Y-110115000D01*
%TO.N,/VCC_CTRL_EN*%
X80600000Y-108650000D02*
X81550000Y-107700000D01*
X81550000Y-107700000D02*
X87163971Y-107700000D01*
X87813971Y-108350000D02*
X94786396Y-108350000D01*
X87163971Y-107700000D02*
X87813971Y-108350000D01*
X94786396Y-108350000D02*
X98636396Y-104500000D01*
X98636396Y-104500000D02*
X99100000Y-104500000D01*
X114835785Y-95900000D02*
X124000000Y-95900000D01*
X99100000Y-104500000D02*
X99109824Y-104509824D01*
X99109824Y-104509824D02*
X106225961Y-104509824D01*
X106225961Y-104509824D02*
X114835785Y-95900000D01*
X124000000Y-95900000D02*
X126500000Y-93400000D01*
%TO.N,/LDO_LATCH*%
X98700000Y-105100000D02*
X106201471Y-105100000D01*
X106201471Y-105100000D02*
X114951471Y-96350000D01*
X114951471Y-96350000D02*
X116298529Y-96350000D01*
X116298529Y-96350000D02*
X117498529Y-97550000D01*
X117498529Y-97550000D02*
X130480000Y-97550000D01*
X130480000Y-97550000D02*
X133100000Y-100170000D01*
X133100000Y-100170000D02*
X133100000Y-109076084D01*
X72250000Y-106525000D02*
X74975000Y-109250000D01*
X74975000Y-109250000D02*
X94550000Y-109250000D01*
X94550000Y-109250000D02*
X98700000Y-105100000D01*
D17*
%TO.N,Net-(U2-IO06)*%
X129600000Y-93337500D02*
X128462500Y-92200000D01*
X128462500Y-92200000D02*
X115107106Y-92200000D01*
X115107106Y-92200000D02*
X113207106Y-94100000D01*
X105900000Y-94100000D02*
X97100000Y-102900000D01*
X113207106Y-94100000D02*
X105900000Y-94100000D01*
%TO.N,Net-(Q1-G)*%
X131000000Y-92700000D02*
X130000000Y-91700000D01*
X130000000Y-91700000D02*
X107592894Y-91700000D01*
X107592894Y-91700000D02*
X103542894Y-95750000D01*
X103542894Y-95750000D02*
X97725000Y-95750000D01*
D21*
%TO.N,/BLANK*%
X113185000Y-113400000D02*
X113185000Y-99815000D01*
X113185000Y-99815000D02*
X116050000Y-96950000D01*
%TO.N,/XLAT*%
X111915000Y-113400000D02*
X111915000Y-100235000D01*
X111915000Y-100235000D02*
X115100000Y-97050000D01*
D17*
%TO.N,/ADC_BAT_V*%
X131300000Y-101600000D02*
X113800000Y-101600000D01*
%TO.N,/USB_D+*%
X98850000Y-102850000D02*
X102600000Y-102850000D01*
X58300000Y-99100000D02*
X60450000Y-96950000D01*
X95150000Y-106550000D02*
X98850000Y-102850000D01*
X60450000Y-96950000D02*
X72030761Y-96950000D01*
X72030761Y-96950000D02*
X81630761Y-106550000D01*
X58300000Y-99399997D02*
X58300000Y-99100000D01*
X81630761Y-106550000D02*
X95150000Y-106550000D01*
D19*
%TO.N,/VCC_CTRL*%
X61400000Y-113400000D02*
X61087500Y-113087500D01*
X61087500Y-113087500D02*
X61087500Y-106431002D01*
X60056498Y-105400000D02*
X55274365Y-105400000D01*
X61087500Y-106431002D02*
X60056498Y-105400000D01*
X55274365Y-105400000D02*
X53500000Y-103625635D01*
X53500000Y-103625635D02*
X53500000Y-96334365D01*
X53500000Y-96334365D02*
X61400000Y-88434365D01*
X61400000Y-88434365D02*
X61400000Y-86600000D01*
D18*
%TO.N,/SIN_B*%
X91895000Y-86600000D02*
X91895000Y-89995000D01*
X91895000Y-89995000D02*
X91900000Y-90000000D01*
%TO.N,/SCLK*%
X90625000Y-90000000D02*
X90625000Y-86600000D01*
%TO.N,/SOUT_B*%
X93165000Y-90000000D02*
X93165000Y-86600000D01*
D21*
%TO.N,/BLANK*%
X86815000Y-86600000D02*
X86815000Y-87583628D01*
X105133629Y-87300000D02*
X105433629Y-87600000D01*
X112185000Y-87600000D02*
X113185000Y-86600000D01*
X86815000Y-87583628D02*
X89931372Y-90700000D01*
X89931372Y-90700000D02*
X93968628Y-90700000D01*
X93968628Y-90700000D02*
X97368629Y-87300000D01*
X97368629Y-87300000D02*
X105133629Y-87300000D01*
X105433629Y-87600000D02*
X112185000Y-87600000D01*
%TO.N,/GSCLK*%
X85545000Y-86600000D02*
X85545000Y-86879314D01*
X89765686Y-91100000D02*
X94134314Y-91100000D01*
X85545000Y-86879314D02*
X89765686Y-91100000D01*
X94134314Y-91100000D02*
X97534315Y-87700000D01*
X97534315Y-87700000D02*
X104967943Y-87700000D01*
X104967943Y-87700000D02*
X105267943Y-88000000D01*
X105267943Y-88000000D02*
X113055000Y-88000000D01*
X113055000Y-88000000D02*
X114455000Y-86600000D01*
%TO.N,/VPRG*%
X116995000Y-86600000D02*
X115195000Y-88400000D01*
X83805000Y-87400000D02*
X83005000Y-86600000D01*
X97700000Y-88100000D02*
X94300000Y-91500000D01*
X115195000Y-88400000D02*
X105102258Y-88400000D01*
X85500000Y-87400000D02*
X83805000Y-87400000D01*
X105102258Y-88400000D02*
X104802258Y-88100000D01*
X104802258Y-88100000D02*
X97700000Y-88100000D01*
X94300000Y-91500000D02*
X89600000Y-91500000D01*
X89600000Y-91500000D02*
X85500000Y-87400000D01*
%TO.N,/VCC_CTRL_EN*%
X80600000Y-108650000D02*
X80700000Y-108750000D01*
%TO.N,/LDO_LATCH*%
X134200000Y-114600000D02*
X144148529Y-114600000D01*
X144148529Y-114600000D02*
X145175000Y-113573529D01*
X133100000Y-109076084D02*
X133100000Y-113500000D01*
X133100000Y-113500000D02*
X134200000Y-114600000D01*
X145175000Y-113573529D02*
X145175000Y-108625000D01*
%TO.N,/SW1_B*%
X120750000Y-89200000D02*
X123350000Y-86600000D01*
X104165686Y-89200000D02*
X120750000Y-89200000D01*
X89268629Y-92300000D02*
X101065686Y-92300000D01*
X85301471Y-88332843D02*
X89268629Y-92300000D01*
X78382843Y-88332843D02*
X85301471Y-88332843D01*
X101065686Y-92300000D02*
X104165686Y-89200000D01*
X76650000Y-86600000D02*
X78382843Y-88332843D01*
%TO.N,/SW2_B*%
X119880000Y-88800000D02*
X122080000Y-86600000D01*
X104000000Y-88800000D02*
X119880000Y-88800000D01*
X85467157Y-87932843D02*
X89434314Y-91900000D01*
X89434314Y-91900000D02*
X100900000Y-91900000D01*
X79252843Y-87932843D02*
X85467157Y-87932843D01*
X100900000Y-91900000D02*
X104000000Y-88800000D01*
X77920000Y-86600000D02*
X79252843Y-87932843D01*
D19*
%TO.N,LDO_CTRL*%
X137330000Y-113400000D02*
X137330000Y-86600000D01*
D21*
%TO.N,/SW2_A*%
X122080000Y-113400000D02*
X122080000Y-114120000D01*
X122080000Y-114120000D02*
X121200000Y-115000000D01*
X121200000Y-115000000D02*
X78800000Y-115000000D01*
X78800000Y-115000000D02*
X77920000Y-114120000D01*
X77920000Y-114120000D02*
X77920000Y-113400000D01*
%TO.N,/SW1_A*%
X123350000Y-113400000D02*
X123350000Y-114150000D01*
X123350000Y-114150000D02*
X122100000Y-115400000D01*
X77900000Y-115400000D02*
X76650000Y-114150000D01*
X122100000Y-115400000D02*
X77900000Y-115400000D01*
X76650000Y-114150000D02*
X76650000Y-113400000D01*
%TO.N,/GSCLK*%
X85545000Y-113400000D02*
X85545000Y-113945000D01*
X85545000Y-113945000D02*
X85800000Y-114200000D01*
X85800000Y-114200000D02*
X113655000Y-114200000D01*
X113655000Y-114200000D02*
X114455000Y-113400000D01*
%TO.N,/ALT_A*%
X115725000Y-113400000D02*
X115725000Y-113875000D01*
X84275000Y-113975000D02*
X84275000Y-113400000D01*
X115725000Y-113875000D02*
X115000000Y-114600000D01*
X115000000Y-114600000D02*
X84900000Y-114600000D01*
X84900000Y-114600000D02*
X84275000Y-113975000D01*
%TO.N,/MC_SD_B*%
X71565000Y-86600000D02*
X71565000Y-86135000D01*
X71565000Y-86135000D02*
X71900000Y-85800000D01*
X94766371Y-85800000D02*
X95866372Y-86900000D01*
X127635000Y-85800000D02*
X128435000Y-86600000D01*
X71900000Y-85800000D02*
X94766371Y-85800000D01*
X95866372Y-86900000D02*
X103397058Y-86900000D01*
X104497058Y-85800000D02*
X127635000Y-85800000D01*
X103397058Y-86900000D02*
X104497058Y-85800000D01*
%TO.N,/MC_DD_2_B*%
X70295000Y-86600000D02*
X70295000Y-86105000D01*
X70295000Y-86105000D02*
X71000000Y-85400000D01*
X96032057Y-86500000D02*
X103231372Y-86500000D01*
X71000000Y-85400000D02*
X94932057Y-85400000D01*
X128505000Y-85400000D02*
X129705000Y-86600000D01*
X94932057Y-85400000D02*
X96032057Y-86500000D01*
X103231372Y-86500000D02*
X104331372Y-85400000D01*
X104331372Y-85400000D02*
X128505000Y-85400000D01*
%TO.N,/MC_DD_1_B*%
X130975000Y-86600000D02*
X129375000Y-85000000D01*
X95097743Y-85000000D02*
X70625000Y-85000000D01*
X104165686Y-85000000D02*
X103065686Y-86100000D01*
X103065686Y-86100000D02*
X96197743Y-86100000D01*
X96197743Y-86100000D02*
X95097743Y-85000000D01*
X129375000Y-85000000D02*
X104165686Y-85000000D01*
X70625000Y-85000000D02*
X69025000Y-86600000D01*
%TO.N,/BUZZER_B*%
X136060000Y-86600000D02*
X136060000Y-86560000D01*
X136060000Y-86560000D02*
X134100000Y-84600000D01*
X65940000Y-84600000D02*
X63940000Y-86600000D01*
X134100000Y-84600000D02*
X104000000Y-84600000D01*
X104000000Y-84600000D02*
X102900000Y-85700000D01*
X102900000Y-85700000D02*
X96400000Y-85700000D01*
X96400000Y-85700000D02*
X95300000Y-84600000D01*
X95300000Y-84600000D02*
X65940000Y-84600000D01*
D18*
%TO.N,/VCC_CTRL*%
X138600000Y-113400000D02*
X138600000Y-86600000D01*
D21*
%TO.N,/MC_SD_A*%
X128435000Y-113400000D02*
X128500000Y-113335000D01*
%TO.N,/VPRG*%
X83005000Y-113400000D02*
X83205000Y-113200000D01*
%TD*%
M02*
