M48
; DRILL file {KiCad 8.0.0} date 2024-12-15T19:06:57+0000
; FORMAT={-:-/ absolute / inch / decimal}
; #@! TF.CreationDate,2024-12-15T19:06:57+00:00
; #@! TF.GenerationSoftware,Kicad,Pcbnew,8.0.0
; #@! TF.FileFunction,Plated,1,4,PTH
FMAT,2
INCH
; #@! TA.AperFunction,Plated,PTH,ViaDrill
T1C0.0118
; #@! TA.AperFunction,Plated,PTH,ComponentDrill
T2C0.0236
; #@! TA.AperFunction,Plated,PTH,ComponentDrill
T3C0.0256
; #@! TA.AperFunction,Plated,PTH,ComponentDrill
T4C0.0394
%
G90
G05
T1
X2.0674Y-3.6535
X2.0674Y-3.8465
X2.0674Y-4.0315
X2.0674Y-4.2835
X2.0704Y-3.937
X2.1422Y-3.937
X2.2165Y-4.2953
X2.2165Y-4.3386
X2.2289Y-4.2187
X2.2289Y-4.4136
X2.2384Y-3.8102
X2.2384Y-4.0622
X2.252Y-4.2953
X2.252Y-4.3386
X2.2559Y-3.5551
X2.2789Y-4.2187
X2.2913Y-4.2953
X2.2913Y-4.3386
X2.2953Y-3.9134
X2.2953Y-3.9449
X2.2953Y-3.9764
X2.3524Y-3.7559
X2.3661Y-4.2411
X2.4405Y-4.2953
X2.4528Y-3.6368
X2.4724Y-4.2411
X2.5512Y-4.1024
X2.5748Y-3.6014
X2.5748Y-3.7598
X2.6004Y-4.3425
X2.6693Y-4.1727
X2.6905Y-3.6368
X2.7889Y-3.6181
X2.7938Y-3.7913
X2.8071Y-4.0354
X2.8445Y-4.1939
X2.9114Y-3.6299
X2.9114Y-3.7283
X2.9252Y-3.5709
X2.937Y-4.0551
X3.0157Y-3.9606
X3.1535Y-4.2028
X3.1732Y-4.2776
X3.2304Y-4.3937
X3.252Y-4.0906
X3.3179Y-4.4094
X3.3543Y-4.3602
X3.3701Y-3.622
X3.4409Y-4.3248
X3.4567Y-4.0951
X3.467Y-4.2421
X3.5679Y-3.5433
X3.5886Y-3.9946
X3.6063Y-4.0763
X3.6181Y-3.5433
X3.6181Y-3.7008
X3.6299Y-4.3307
X3.6679Y-3.5433
X3.7165Y-3.843
X3.7205Y-4.1693
X3.8031Y-4.2894
X3.8124Y-4.0846
X3.8228Y-4.0512
X3.8474Y-3.7697
X3.874Y-3.9528
X3.937Y-4.2008
X4.0394Y-4.0492
X4.0394Y-4.0909
X4.0512Y-3.3386
X4.2357Y-4.2992
X4.253Y-3.8238
X4.2717Y-4.2638
X4.2884Y-3.6654
X4.3061Y-4.1457
X4.4603Y-3.7766
X4.4797Y-4.3346
X4.4803Y-4.0
X4.5Y-3.6988
X4.5Y-4.2141
X4.5315Y-3.8209
X4.5689Y-3.8169
X4.6732Y-4.3701
X4.748Y-3.6555
X4.7677Y-3.8031
X4.7786Y-3.9715
X4.7835Y-3.563
X4.8302Y-3.6969
X4.8622Y-4.0591
X4.8735Y-4.2619
X4.8898Y-4.1732
X4.8957Y-4.1142
X4.9021Y-3.7953
X4.9331Y-4.4606
X4.9449Y-4.4055
X4.9803Y-3.6772
X4.9813Y-3.9075
X4.9813Y-3.9665
X4.9813Y-4.0256
X4.9813Y-4.2028
X5.0069Y-4.2766
X5.0118Y-3.5787
X5.0428Y-4.4094
X5.0591Y-4.1614
X5.0709Y-3.5787
X5.1024Y-3.6747
X5.1024Y-3.7126
X5.125Y-4.2766
X5.1299Y-3.5787
X5.1575Y-3.6496
X5.1693Y-4.0
X5.2402Y-4.5433
X5.3661Y-3.4724
X5.5276Y-3.8386
X5.5276Y-3.8898
X5.5276Y-3.9449
X5.5423Y-3.5974
X5.5787Y-3.8386
X5.5787Y-3.9449
X5.5801Y-3.8902
X5.5974Y-4.2766
X5.6014Y-3.5974
X5.6339Y-3.8386
X5.6339Y-3.8898
X5.6339Y-3.9449
X5.6604Y-3.5974
X5.6654Y-4.4882
X5.7156Y-4.2766
X5.7785Y-4.2766
X5.8391Y-3.7042
X5.8391Y-4.1698
X5.8927Y-4.2766
X5.8967Y-3.5974
T3
X2.4173Y-3.4094
X2.4173Y-4.4646
X2.4673Y-3.4094
X2.4673Y-4.4646
X2.5173Y-3.4094
X2.5173Y-4.4646
X2.5673Y-3.4094
X2.5673Y-4.4646
X2.7175Y-3.4094
X2.7175Y-4.4646
X2.7675Y-3.4094
X2.7675Y-4.4646
X2.8175Y-3.4094
X2.8175Y-4.4646
X2.8675Y-3.4094
X2.8675Y-4.4646
X3.0177Y-3.4094
X3.0177Y-4.4646
X3.0677Y-3.4094
X3.0677Y-4.4646
X3.1177Y-3.4094
X3.1177Y-4.4646
X3.2679Y-3.4094
X3.2679Y-4.4646
X3.3179Y-3.4094
X3.3179Y-4.4646
X3.3679Y-3.4094
X3.3679Y-4.4646
X3.4179Y-3.4094
X3.4179Y-4.4646
X3.4679Y-3.4094
X3.4679Y-4.4646
X3.5179Y-3.4094
X3.5179Y-4.4646
X3.5679Y-3.4094
X3.5679Y-4.4646
X3.6179Y-3.4094
X3.6179Y-4.4646
X3.6679Y-3.4094
X3.6679Y-4.4646
X3.7179Y-3.4094
X3.7179Y-4.4646
X4.1561Y-3.4094
X4.1561Y-4.4646
X4.2061Y-3.4094
X4.2061Y-4.4646
X4.2561Y-3.4094
X4.2561Y-4.4646
X4.3061Y-3.4094
X4.3061Y-4.4646
X4.3561Y-3.4094
X4.3561Y-4.4646
X4.4061Y-3.4094
X4.4061Y-4.4646
X4.4561Y-3.4094
X4.4561Y-4.4646
X4.5061Y-3.4094
X4.5061Y-4.4646
X4.5561Y-3.4094
X4.5561Y-4.4646
X4.6061Y-3.4094
X4.6061Y-4.4646
X4.7563Y-3.4094
X4.7563Y-4.4646
X4.8063Y-3.4094
X4.8063Y-4.4646
X4.8563Y-3.4094
X4.8563Y-4.4646
X5.0065Y-3.4094
X5.0065Y-4.4646
X5.0565Y-3.4094
X5.0565Y-4.4646
X5.1065Y-3.4094
X5.1065Y-4.4646
X5.1565Y-3.4094
X5.1565Y-4.4646
X5.3067Y-3.4094
X5.3067Y-4.4646
X5.3567Y-3.4094
X5.3567Y-4.4646
X5.4067Y-3.4094
X5.4067Y-4.4646
X5.4567Y-3.4094
X5.4567Y-4.4646
T4
X2.4154Y-3.8878
X2.4154Y-3.9862
T2
G00X2.0669Y-3.7661
M15
G01X2.0354Y-3.7661
M16
G05
G00X2.0669Y-4.1063
M15
G01X2.0354Y-4.1063
M16
G05
G00X2.2374Y-3.7661
M15
G01X2.1941Y-3.7661
M16
G05
G00X2.2374Y-4.1063
M15
G01X2.1941Y-4.1063
M16
G05
M30
